<?xml version="1.0" encoding="utf-8"?>
<!-- Generator: Adobe Illustrator 21.1.0, SVG Export Plug-In . SVG Version: 6.00 Build 0)  -->
<svg version="1.1" id="Calque_1" xmlns="http://www.w3.org/2000/svg" xmlns:xlink="http://www.w3.org/1999/xlink" x="0px" y="0px"
	 viewBox="0 0 20 20" style="enable-background:new 0 0 20 20;" xml:space="preserve">
<style type="text/css">
	.st0{fill:none;stroke:#FFFFFF;stroke-width:1.03;}
	.st1{fill:#FFFFFF;}
</style>
<path class="st0" d="M10,7c0,0-1.2-1.2-2.6-1.2S4.5,6.6,4.5,8.6c0,1.3,1,2.3,1,2.3l4.5,4.7l4.5-4.7c0,0,1-1,1-2.3
	c0-2-1.5-2.9-2.9-2.9S10,7,10,7L10,7z"/>
<path class="st1" d="M10,0c2.8,0,5.3,1.1,7.1,2.9S20,7.2,20,10s-1.1,5.3-2.9,7.1C15.3,18.9,12.8,20,10,20s-5.3-1.1-7.1-2.9
	C1.1,15.3,0,12.8,0,10s1.1-5.3,2.9-7.1C4.7,1.1,7.2,0,10,0L10,0z M16.5,3.5c-1.7-1.7-4-2.7-6.5-2.7s-4.8,1-6.5,2.7
	c-1.7,1.7-2.7,4-2.7,6.5s1,4.8,2.7,6.5c1.7,1.7,4,2.7,6.5,2.7s4.8-1,6.5-2.7c1.7-1.7,2.7-4,2.7-6.5C19.2,7.5,18.2,5.2,16.5,3.5
	L16.5,3.5z"/>
</svg>
