<?xml version="1.0" encoding="utf-8"?>
<!-- Generator: Adobe Illustrator 21.1.0, SVG Export Plug-In . SVG Version: 6.00 Build 0)  -->
<svg version="1.1" id="Calque_1" xmlns="http://www.w3.org/2000/svg" xmlns:xlink="http://www.w3.org/1999/xlink" x="0px" y="0px"
	 viewBox="0 0 287 68" style="enable-background:new 0 0 287 68;" xml:space="preserve">
<style type="text/css">
	.st0{fill:#FFFFFF;}
	.st1{fill-rule:evenodd;clip-rule:evenodd;fill:#FFFFFF;}
	.st2{fill:none;stroke:#FFFFFF;}
</style>
<path class="st0" d="M42.1,6.2c7.8,0,14.9,3.2,20,8.3c5.1,5.1,8.3,12.2,8.3,20c0,7.8-3.2,14.9-8.3,20c-5.1,5.1-12.2,8.3-20,8.3
	c-7.8,0-14.9-3.2-20-8.3c-5.1-5.1-8.3-12.2-8.3-20c0-7.8,3.2-14.9,8.3-20C27.2,9.4,34.3,6.2,42.1,6.2L42.1,6.2z M60.6,16.1
	c-4.7-4.7-11.3-7.7-18.5-7.7c-7.2,0-13.7,2.9-18.5,7.7C18.9,20.8,16,27.3,16,34.5c0,7.2,2.9,13.7,7.7,18.5
	c4.7,4.7,11.3,7.6,18.5,7.6c7.2,0,13.7-2.9,18.5-7.6c4.7-4.7,7.6-11.3,7.6-18.5C68.3,27.3,65.4,20.8,60.6,16.1L60.6,16.1z"/>
<path class="st0" d="M110.4,6.2c7.8,0,14.9,3.2,20,8.3c5.1,5.1,8.3,12.2,8.3,20c0,7.8-3.2,14.9-8.3,20c-5.1,5.1-12.2,8.3-20,8.3
	c-7.8,0-14.9-3.2-20-8.3c-5.1-5.1-8.3-12.2-8.3-20c0-7.8,3.2-14.9,8.3-20C95.5,9.4,102.6,6.2,110.4,6.2L110.4,6.2z M128.9,16.1
	c-4.7-4.7-11.3-7.7-18.5-7.7c-7.2,0-13.7,2.9-18.5,7.7c-4.7,4.7-7.7,11.3-7.7,18.5c0,7.2,2.9,13.7,7.7,18.5
	c4.7,4.7,11.3,7.6,18.5,7.6c7.2,0,13.7-2.9,18.5-7.6c4.7-4.7,7.6-11.3,7.6-18.5C136.5,27.3,133.6,20.8,128.9,16.1L128.9,16.1z"/>
<path class="st0" d="M178.7,6.2c7.8,0,14.9,3.2,20,8.3c5.1,5.1,8.3,12.2,8.3,20.1c0,7.8-3.2,14.9-8.3,20c-5.1,5.1-12.2,8.3-20,8.3
	c-7.8,0-14.9-3.2-20-8.3c-5.1-5.1-8.3-12.2-8.3-20c0-7.8,3.2-14.9,8.3-20.1C163.7,9.4,170.8,6.2,178.7,6.2L178.7,6.2z M197.1,16.1
	c-4.7-4.7-11.3-7.6-18.5-7.6c-7.2,0-13.7,2.9-18.5,7.6c-4.7,4.7-7.7,11.3-7.7,18.5c0,7.2,2.9,13.7,7.7,18.5
	c4.7,4.7,11.3,7.7,18.5,7.7c7.2,0,13.7-2.9,18.5-7.7c4.7-4.7,7.7-11.3,7.7-18.5C204.8,27.3,201.9,20.8,197.1,16.1L197.1,16.1z"/>
<path class="st1" d="M44.3,28.7v-2.3c0-1.1,0.7-1.4,1.3-1.4c0.5,0,3.2,0,3.2,0v-5h-4.5c-5,0-6.1,3.7-6.1,6.1v2.6h-2.9v3.5v2.3h2.9
	c0,6.6,0,14.5,0,14.5h5.8c0,0,0-8,0-14.5h4.3l0.2-2.3l0.3-3.5H44.3z"/>
<path class="st1" d="M193.1,25.7c-1.1,0.5-2.2,0.8-3.4,0.9c1.2-0.7,2.2-1.9,2.6-3.2c-1.1,0.7-2.4,1.2-3.8,1.4
	c-1.1-1.1-2.6-1.9-4.3-1.9c-3.3,0-5.9,2.6-5.9,5.8c0,0.5,0.1,0.9,0.2,1.3c-4.9-0.2-9.3-2.6-12.2-6.1c-0.5,0.9-0.8,1.9-0.8,2.9
	c0,2,1.1,3.8,2.6,4.9c-1,0-1.9-0.3-2.7-0.7c0,0,0,0,0,0.1c0,0.8,0.1,1.4,0.4,2.1c0.7,1.8,2.4,3.2,4.4,3.6c-0.5,0.1-1,0.2-1.6,0.2
	c-0.4,0-0.8,0-1.1-0.1c0.8,2.3,3,4,5.5,4.1c-2,1.6-4.6,2.5-7.4,2.5c-0.5,0-0.9,0-1.4-0.1c2.6,1.6,5.8,2.6,9.1,2.6
	c9.3,0,15-6.4,16.5-13.1c0.3-1.2,0.4-2.4,0.4-3.5c0-0.3,0-0.5,0-0.8C191.3,27.9,192.3,26.9,193.1,25.7L193.1,25.7z"/>
<path class="st1" d="M103.1,34.5c0-4,3.2-7.3,7.3-7.3c4,0,7.3,3.3,7.3,7.3c0,4-3.2,7.3-7.3,7.3C106.4,41.8,103.1,38.6,103.1,34.5
	L103.1,34.5z M117.9,20.3h-15c-3.7,0-6.7,3-6.7,6.7v15c0,3.7,3,6.7,6.7,6.7h15c3.7,0,6.7-3,6.7-6.7V27
	C124.6,23.3,121.6,20.3,117.9,20.3L117.9,20.3z M102.9,22h15c2.8,0,5,2.3,5,5v15c0,2.8-2.3,5-5,5h-15c-2.8,0-5-2.3-5-5V27
	C97.9,24.3,100.1,22,102.9,22L102.9,22z M119.4,24.1c-0.8,0-1.5,0.7-1.5,1.5c0,0.8,0.7,1.5,1.5,1.5c0.8,0,1.5-0.7,1.5-1.5
	C120.9,24.8,120.2,24.1,119.4,24.1L119.4,24.1z M119.6,34.5c0-5.1-4.1-9.2-9.2-9.2c-5.1,0-9.2,4.1-9.2,9.2c0,5.1,4.1,9.2,9.2,9.2
	C115.5,43.7,119.6,39.6,119.6,34.5L119.6,34.5z"/>
<path class="st0" d="M245.1,6.2c7.8,0,14.9,3.2,20,8.3c5.1,5.1,8.3,12.2,8.3,20c0,7.8-3.2,14.9-8.3,20c-5.1,5.1-12.2,8.3-20,8.3
	c-7.8,0-14.9-3.2-20-8.3c-5.1-5.1-8.3-12.2-8.3-20c0-7.8,3.2-14.9,8.3-20C230.2,9.4,237.3,6.2,245.1,6.2L245.1,6.2z M263.6,16.1
	c-4.7-4.7-11.3-7.7-18.5-7.7c-7.2,0-13.7,2.9-18.5,7.7c-4.7,4.7-7.6,11.3-7.6,18.5c0,7.2,2.9,13.7,7.6,18.5
	c4.7,4.7,11.3,7.6,18.5,7.6c7.2,0,13.7-2.9,18.5-7.6c4.7-4.7,7.7-11.3,7.7-18.5C271.2,27.3,268.3,20.8,263.6,16.1L263.6,16.1z"/>
<polyline class="st2" points="229,30.3 245.1,38.8 261.2,30.3 "/>
<path class="st0" d="M228.2,23.3v22.5H262V23.3H228.2z M260.1,43.9h-30V25.2h30V43.9z"/>
</svg>
