<?xml version="1.0" encoding="utf-8"?>
<!-- Generator: Adobe Illustrator 21.0.0, SVG Export Plug-In . SVG Version: 6.00 Build 0)  -->
<svg version="1.1" id="Calque_1" xmlns="http://www.w3.org/2000/svg" xmlns:xlink="http://www.w3.org/1999/xlink" x="0px" y="0px"
	 viewBox="0 0 595.3 841.9" style="enable-background:new 0 0 595.3 841.9;" xml:space="preserve">
<style type="text/css">
	.st0{fill:#F28F83;}
</style>
<g>
	<path d="M398.1,336.9c-7.4-2.9-15.4-3.5-23.3-4.4c-8.7-1-17.2-1.9-26-2c-4.1,0-8.3-0.1-12.4-0.4c-4.5-0.3-8.9-1.1-13.3-1.4
		c-8.6-0.5-17.3,0.1-26,0.1c-9,0-18,0-26.9,0.9c-9.3,0.9-18.3,1.8-27.7,1.9c-9.1,0-18.3,0.3-27.2,2.2c-7.1,1.5-14.7,4.1-20.9,8
		c-1.4,0.9-2.9,3-3.5,5.1c-0.3,0.1-0.5,0.3-0.5,0.7c0,0.5,0.1,0.9,0.3,1.3c0.1,1.3,0.8,2.3,2.4,2.8c0.3,0.1,0.5-0.1,0.4-0.4
		c0.9,0.4,1.9,0.7,2.8,0.9c4.3,1.1,9,1.2,13.4,1.2c5.2,0.1,10.4,0,15.5,0.3c4.3,0.2,8.6,0.6,12.9,0.8c4.5,0.2,9,0.1,13.5,0.6
		c8.4,1,16.9,0.5,25.4,0.7c9.2,0.2,18.3,0.5,27.5,0.6c17.9,0.1,36,1.5,53.8,0.3c9-0.6,17.9-1.8,26.9-2.7c6.5-0.7,15-1.4,19.6-6.7
		C409.3,342.5,401.9,338.4,398.1,336.9z M396.2,350.9c-8.7,2.4-18,2.4-26.9,3.5c-17.8,2.3-35.9,1.2-53.8,0.9
		c-17.9-0.3-35.9-0.9-53.8-0.9c-4,0-7.8-0.4-11.8-0.9c-4.5-0.5-9.2-0.3-13.7-0.5c-7.3-0.4-14.6-1.1-21.9-1c-4.1,0-8.2,0-12.2-0.4
		c-2.2-0.2-10-0.6-10-4c0-0.2-0.1-0.4-0.2-0.5c0.2-0.9,0.5-1.7,0.8-2.2c0.9-1.5,2.7-2.5,4.2-3.3c3.5-1.8,7.3-3.3,11.1-4.6
		c8.4-2.9,17.2-3.7,26.1-4c8.9-0.3,17.7-0.1,26.5-1c9-0.9,17.8-1.7,26.8-1.8c8.8-0.2,17.6-0.1,26.3-0.3c8.7-0.1,17.1,1.2,25.8,1.7
		c8.7,0.5,17.4,0,26.1,1.1c8.5,1,17.3,1.6,25.7,3.5c4,0.9,8.7,2.2,11.9,4.9C408.6,345.7,399.9,349.8,396.2,350.9z"/>
	<path d="M454.4,461.8c-4.1-3.3-10.1-4.5-15.1-5.6c-6-1.4-12.2-2.2-18.4-2.8c-6.4-0.7-12.9-1.3-19.3-2c-3-0.3-6-0.8-9.1-0.8
		c-1.2,0-4.1,0.5-5.5,0c6.2-5.9,14-9.8,21.6-13.5c6.8-3.3,13.4-6.5,19.3-11.2c6-4.8,10.9-11,15.1-17.5c4-6.2,8.3-13.1,9.6-20.4
		c1.1-5.9-0.5-13.2-3.8-18.2c-2.6-3.9-7.8-6.6-12.1-8.3c-5.9-2.4-11.7-1.9-18-1c-5.1,0.7-9.8,2-14.3,4.5c-0.1,0-0.2,0.1-0.3,0.1
		c0.6-7.3,4.7-14.2,4.3-21.7c-0.1-2.6-1.3-4.9-3.2-6.6c-2-1.8-5.1-2-7.7-2.5c-3.7-0.7-7.4-1.9-11.1-2.6c-4.4-0.8-8.9-1.3-13.3-2.3
		c-8-1.8-16.4-0.4-24.6-1.3c-9.1-1-18.2-2.1-27.3-2.6c-9.2-0.5-18.2,0.2-27.4,0.6c-9.2,0.4-18.3,0.2-27.5,0.4
		c-8.9,0.2-17.8,1-26.7,1.3c-9.3,0.3-18.1,1.6-27.1,4.1c-4.4,1.2-8.6,3.1-12.8,4.9c-2.3,1-4.5,2-6.8,3.1c-1.1,0.5-1.8,1.5-2.7,2.3
		c-0.1,0.1-0.2,0.2-0.3,0.3c-0.4,0.3-0.8,0.5-1.3,0.6c-0.3,0.1-0.2,0.5,0.1,0.5h0.1c-1.9,2.3-2.2,5.8-0.8,8.7
		c0.1,0.6,0.3,1.2,0.6,1.9c0.7,1.6,0.3,3.2,0.6,4.9c0.8,4.3,2.4,8.5,3.4,12.7c0.9,4,1.4,8,2.4,12c1.1,4.3,2.6,8.4,4.1,12.5
		c3.1,8.2,4.4,17.1,6.2,25.7c1.8,8.5,3.7,17,6.5,25.2c0.2,0.7,0.5,1.5,0.8,2.2c-2.9,0.1-5.8,0.5-8.8,0.6c-4.7,0.2-9.3,0.6-14,0.8
		c-8.5,0.5-17.1,1-25.5,2.3c-6.1,0.9-12.4,2.2-18,5c-4,2-8.2,5.1-8.6,9.9c-0.1,1.3,0.2,2.5,0.8,3.5c-0.2,0.1-0.3,0.3-0.2,0.4
		c2.7,6.5,8.2,10.4,13.8,14.2c6.8,4.6,14.5,7.7,21.7,11.5c3.3,1.8,6.7,3.5,10.2,4.9c4.2,1.7,8.6,2.6,13.1,3.4
		c8.5,1.5,17.1,2.8,25.7,3.9c9,1.2,18.1,2.1,27.1,2.9c8.9,0.8,17.7,1.6,26.6,1.4c8.6-0.2,17.2,0.8,25.9,1.1
		c8.9,0.3,17.7-0.1,26.6-0.6c11-0.7,22-1.5,32.9-2.9c10.6-1.4,20.5-5.3,30.8-7.7c5-1.2,9.9-1.9,14.7-3.7c4.8-1.7,9.5-3.3,14.2-5.6
		c9.3-4.6,18-9.9,26.8-15.4c3.7-1.3,7.5-3.5,9-7.2C459.3,468.2,457.5,464.3,454.4,461.8z M410.5,363.2c4-1.2,8.1-1.7,12.2-2.1
		c4.8-0.5,8.9-0.4,13.4,1.5c3.4,1.4,6.8,3.5,9.6,5.9c2.8,2.5,3.8,6.2,4.7,9.6c2.4,8.6-1.4,16.1-5.5,23.5c-4,7.2-8.7,13.9-14.5,19.7
		c-2.9,2.9-6.3,5.3-9.6,7.7c-3.1,2.2-6.9,3.4-10.2,5.1c-3.7,1.9-7.5,3.6-11.1,5.6c-3.9,2.2-7.5,4.8-11.1,7.4c-2.3,1.6-4.5,4-6.2,6.2
		c-0.9,1.2-1.8,2.4-2.4,3.8c-0.4,1-0.8,1.9-1.2,2.8c-1.2,2.3-3.6,2.7-3.9-0.3c-0.7-7,6.9-12.1,11.9-15.4c7.1-4.7,15.5-7.3,22.8-11.8
		c6.5-4,13.1-8.1,18.5-13.6c5.3-5.3,9.4-11.9,12.3-18.7c3-6.9,4.2-14,1.9-21.3c-1.8-5.9-6.2-10.2-12-12c-5.1-1.6-12.1-0.9-16.3,2.7
		c-5.5,4.7-2.9,11.2-4.5,17.4c-0.6,2.6-3.9,5.1-6.5,3.7c-1.6-0.8-2.4-3.6-3.1-5.1c-1.2-2.4-1.3-5-1.5-7.7c-0.1-2.2-0.3-5.4,0.7-7.9
		C400.8,367.6,408.3,363.9,410.5,363.2z M411.8,375.5c1.7-8.2,13.1-9,19.4-6.7c8.4,3,11.3,12.6,10.7,20.8
		c-0.6,8.2-5.4,16.4-10.2,22.8c-10.4,14-26.8,20.8-41.8,28.5c-2.2,1.1-4.4,2.4-6.5,3.9c1-2,1.5-4.6,2.1-6.2c2-5.8,3.5-11.6,5.8-17.3
		c2.2-5.3,3.9-10.6,6-15.9c1.8-4.6,3.5-9.2,3.9-14.1c0.1,0.1,0.3,0.3,0.4,0.4c2,1.5,4.3,0.9,6.4-0.2
		C413.3,388.6,410.9,380.1,411.8,375.5z M212.6,444.7c-5.2-16-6.4-33.1-12.1-48.8c-1.4-3.8-2.9-7.6-4-11.5c-1.2-3.9-1.6-8-2.5-11.9
		c-0.9-4-2.1-7.9-3.3-11.8c-0.6-1.8-0.3-3.6-0.7-5.4c-0.1-0.5-0.3-0.9-0.4-1.3c4.2,4.6,13.3,3.1,19.1,4.5c-0.7,1.1-0.8,2.4,0.8,3.3
		c2.2,1.3,5.4,1,7.8,1.5c4,0.8,8.3,1.7,12.4,1.4c2.1-0.2,4.2-0.9,5-2.9c0.9-2.2-1.7-3.7-3.3-4.4c-3.3-1.3-7.5-1.6-11-2.1
		c-1.7-0.3-3.6-0.4-5.4-0.1c-1.2,0.2-2.3,0.5-3.4,0.9c-0.5,0.2-1.4,0.9-1.9,0.9c-0.3,0-0.5,0.3-0.5,0.5c-5.6-1.6-11.7-0.4-17.1-2.8
		c-1.5-0.7-2.5-1.8-3.2-3.2c-0.1-0.3-0.1-0.7-0.1-1.1c0-0.2-0.2-0.3-0.4-0.2c-0.2-0.6-0.3-1.2-0.3-1.8c-0.2-3.3,2.1-5.7,5-6.8
		c0.2-0.1,0.2-0.3,0-0.4c1.1-0.7,2.2-1.2,3.4-1.7c4.5-1.9,8.9-3.8,13.5-5.4c8.5-3,17.6-4.5,26.6-4.8c8.9-0.3,17.8-0.9,26.6-1.2
		c9.2-0.3,18.3-0.1,27.5-0.4s18.2-1.2,27.4-0.9c9.1,0.3,18.3,1.4,27.3,2.4c4.2,0.5,8.3,1,12.5,0.9c4.7,0,9.4-0.4,14,0.4
		c8.3,1.5,16.6,3,24.8,5c2.5,0.6,5,0.7,7.3,2c3,1.7,3.5,5.7,3.1,8.9c0,0-0.1,0-0.1,0.1c-1.4,1.6-2.2,2.9-4.1,4.1
		c-2.6,1.6-5.9,2.5-8.9,3.1c-5.8,1.3-11.6,2.6-17.5,3.8c-6.2,1.2-12.5,1.7-18.7,2.3c-5.9,0.5-11.9,1.6-17.8,2c-6,0.4-12,1.1-18,0.9
		c-5.8-0.2-11.6-0.9-17.5-0.5c-6.1,0.5-12.1,0.4-18.2-0.2c-2.7-0.3-5.4-0.7-8.2-0.8c-2.9-0.2-5.9-0.8-8.8-0.8c-0.4,0-0.4,0.5,0,0.6
		c2.6,0.1,5.2,0.7,7.8,0.9c3.1,0.2,6.1,0.6,9.2,1c6.4,0.8,12.8,0.9,19.2,0.4c6.2-0.5,12.4,0.6,18.6,0.7c6.3,0.1,12.8-0.5,19-1.2
		c6-0.6,11.9-1.5,17.9-2.1c6-0.5,12-1.2,18-2.4c6.1-1.3,12.3-2.4,18.2-4.1c2.4-0.7,4.9-1.7,7.1-3c1.1-0.7,1.8-1.5,2.5-2.4
		c-0.5,2.9-1.1,5.9-2.1,8.5c-1.1,2.7-1.6,5.7-1.7,8.7c-2.2,1.3-4.7,3.1-5.6,5.4c-0.9,1.4-0.7,3-0.7,4.9c0.1,3.1,0.1,6.6,1.4,9.5
		c0.7,1.5,1.3,3.4,2.4,4.8c-0.5,4.8-2.1,9.3-3.8,13.8c-1.9,5-3.6,10-5.6,15c-1.9,4.7-3.8,9.4-5.2,14.3c-0.7,2.6-1.5,5.1-2.5,7.6
		c-0.7,1.9-1,4.6-3,5.6c-0.4,0.2-0.4,0.6-0.2,0.9c-1.6,1.4-3,2.9-4.3,4.6c-1.5,2-2.3,4.4-2.5,6.9c0,0.1,0,0.3,0,0.5
		c-0.1,0.1-0.2,0.2-0.3,0.4c-0.9,3.8-3.5,7.8-5.4,11.1c-2.1,3.5-4.7,7-7.1,10.3c-2.3,3.3-6.5,3.5-10,5.1c-3.9,1.8-7.7,3.4-11.9,4.6
		c-3.7,1-7.4,2.1-11.2,2.8c-4.6,0.8-9.4,1.1-14.1,1.2c-8.9,0.2-17.8-0.9-26.7-1c-8.7-0.1-17.4-2.4-26-3.5c-2.4-0.3-4.5,0.1-6.8-1.1
		c-1.4-0.7-2.7-1.5-4.2-2c-1.9-0.6-3.8-1.3-5.7-2c-2.2-0.7-4.4-1.1-6.5-2.1c-3.1-1.6-5.7-4.2-8-6.8c-2.6-2.9-5.1-5.9-7.2-9.2
		c-3.3-5.4-5.9-11.3-8.1-17.3c0.5,0,0.5-0.8,0-0.8c-0.1,0-0.2,0-0.3,0C213.6,447.7,213,446.2,212.6,444.7z M210.4,357.8l0.1-0.1
		c1.8-0.8,3.4-1.4,5.4-1.6c2.8-0.3,5.7,0.4,8.4,0.9c1.8,0.3,3.7,0.5,5.4,1c0.9,0.2,1.8,0.6,2.6,1.1c2.3,1.3,0.5,3.4-1.2,3.9
		c-4.7,1.5-10.5-0.6-15.1-1.2c-1.6-0.2-3.2-0.3-4.8-0.6c-2.5-0.5-2.5-1.6-1.7-2.5c0.1,0,0.3,0.1,0.4,0.1
		C210.5,359,210.8,358.2,210.4,357.8z M402.5,500.1c-4,1.2-8.2,1.4-12.1,2.6c-4.3,1.4-8.7,2.6-13.1,3.7c-4.1,1.1-8.1,2.2-12.3,2.9
		c-4.7,0.8-9.6,1.2-14.4,1.6c-17.8,1.7-35.4,2.8-53.3,2.1c-4.1-0.1-8.3-0.6-12.4-0.8c-4.5-0.3-8.9,0-13.4,0c-8.9,0.1-18-1.2-26.9-2
		c-10.1-0.9-20.1-2-30.1-3.5c-9.5-1.4-19.9-2.1-29-5.6c-4.7-1.8-9.1-4.2-13.5-6.5c-4.1-2.1-8.3-3.9-12.4-6
		c-7.3-3.7-15.8-8.5-19.8-16c1.6,1.5,3.7,2.5,5.5,3.3c2.4,1,4.8,1.6,7.3,2.3c2.9,0.8,5.8,2,8.7,2.8c3.9,1.1,7.5,2.8,11.3,4
		c1.7,0.6,3.4,0.6,5.1,0.7c2.6,0.1,5.2,0.6,7.8,1.1c3.6,0.7,7,2,10.7,2.5c4.1,0.6,8.3,1.2,12.4,1.7c4.1,0.5,8.2,0.9,12.4,1.1
		c4.8,0.3,9.6,1.2,14.4,2c4.1,0.6,8.1,1,12.1,2c4.3,1.1,8.5,1.9,12.8,2.6c8.3,1.3,16.5,2.4,24.8,3c8.9,0.6,17.7,1.8,26.7,1.7
		c8.8-0.2,17.7-0.2,26.5-0.2c8.4,0,16.9,0.2,25.2-1.4c3.8-0.8,7.7-1.1,11.6-1.7c4.3-0.6,8.4-1.6,12.7-2.3c8.4-1.4,16.4-3.8,24.6-6.1
		c6-1.7,11.5-4.5,17.5-6c3.7-1,7.3-2.4,10.8-3.7c-4.7,2.9-9.5,5.7-14.5,8.3C418.7,494.4,410.8,497.7,402.5,500.1z M455.9,471.7
		c-1.1,3.7-6.6,5.6-9.9,6.6c-4,1.2-7.7,3.2-11.7,4.5c-3.8,1.3-7.8,1.9-11.5,3.5c-7.8,3.5-16.3,5.5-24.6,7.8
		c-3.9,1.1-7.8,1.7-11.8,2.3c-4.5,0.7-8.9,1.8-13.4,2.3c-3.7,0.5-7.3,0.9-10.9,1.6c-4.7,0.9-9.4,1-14.2,1.1
		c-8.8,0.2-17.6-0.1-26.4,0c-9,0.1-17.7,0.4-26.7-0.6s-18-1.4-27-2.7c-3.9-0.6-7.9-1.3-11.8-1.8c-4.4-0.6-8.6-2.2-12.9-3
		c-8.3-1.6-16.8-2.5-25.2-3.2c-4.4-0.4-8.7-0.7-13.1-1.3c-4.2-0.6-8.7-0.8-12.8-1.9c-1.7-0.4-3.2-1.2-5-1.5c-2-0.3-3.9-0.7-5.9-1
		c-1.8-0.3-3.5-0.3-5.3-0.4c-2.8-0.1-5.6-1.7-8.2-2.8c-3.4-1.5-7.2-2-10.6-3.3c-2.2-0.9-4.6-1.3-6.9-2c-5.2-1.5-14-4.7-9.7-11.6
		c3.4-5.4,11.3-7.4,17.1-8.8c9.6-2.3,19.5-2.9,29.3-3.6c5-0.3,10-0.8,14.9-1.1c3.8-0.2,7.5-0.8,11.3-1c2.2,6.2,4.9,12.3,8.3,18
		c3.2,5.4,7.8,11.1,12.9,14.8c2.7,2,5.4,3,8.6,3.8c1.9,0.5,3.8,1.3,5.7,1.9c2.1,0.7,3.8,1.9,5.8,2.6c1.5,0.6,3,0.6,4.7,0.7
		c2.3,0,4.5,0.5,6.8,0.9c4.4,0.8,8.8,1.2,13.2,2c4.6,0.8,9.3,0.6,13.9,1c5.4,0.5,10.8,0.6,16.2,0.7c5.3,0.1,10.6-0.1,15.8-0.8
		c4.6-0.5,8.9-1.9,13.4-3.1c4-1.1,7.9-2.3,11.6-4.2c3.5-1.7,7.8-2.2,10.8-4.8c1.4-1.2,2.4-3.2,3.4-4.7c1.4-2.2,2.9-4.2,4.4-6.3
		c1.3-1.8,2.2-3.9,3.2-5.9c0.8-1.5,1.6-3,2.3-4.6c0.3,0.8,0.9,1.4,1.8,1.5c2.3,0.3,3.8-1.7,4.7-3.5c1.6-3.2,3.1-5.9,5.5-8.4
		c1.3,0.8,3.2,0.6,4.6,0.6c3.8,0,7.4,0.3,11.1,0.8c8.5,1,16.9,1.6,25.4,2.7c8.2,1.1,17.6,2.4,24.9,6.5
		C455.5,464.3,457.2,467.6,455.9,471.7z"/>
	<path d="M247.2,360.5c-0.6-1.1-1.8-1.6-3-1.9c-1-0.3-2.6-0.7-3.5,0c-0.1,0.1-0.1,0.2,0,0.4c-0.6,0.5-1,1.2-1.1,1.9
		c-0.7,2.7,2.6,3.6,4.6,3.4C245.9,364.2,248.5,362.6,247.2,360.5z M244.5,363.4c-1.5,0.4-3.6,0.1-4.1-1.6c-0.3-0.9,0.5-1.9,1.1-2.5
		l0,0c0.4,0,0.7,0,1.1,0c1,0.1,2,0.3,2.9,0.8C247.5,361.2,246.1,363,244.5,363.4z"/>
	<path d="M388.8,400.4c-0.9-2.6-3-4.8-5.2-6.4c-4.7-3.4-11.2-4.4-16.7-5.6c-4.2-0.9-8.4-1.3-12.5-2c-4.3-0.7-8.5-2-12.8-2.5
		c-8.9-1.1-17.7-1.7-26.6-1.9c-9-0.2-17.9-1.6-26.9-1.7c-4.2,0-8.5,0.4-12.7,0.9c-4.5,0.5-8.9,0.5-13.5,0.7
		c-8.7,0.3-17.2,2.2-26,2.2c-1.7,0-3.3,0.5-4.9,1c-2.3,0.7-4.6,1.1-6.8,1.8c-1.8,0.5-3.6,1-5.4,1.3c-0.6,0.1-1.2,0.2-1.7,0.3
		c-0.1-0.1-0.2-0.2-0.4-0.1c-0.1,0.1-0.3,0.2-0.4,0.3c-0.4,0.1-0.8,0.3-1.2,0.6c-0.2,0.1-0.2,0.3-0.3,0.4c-1.6,1.2-3.1,2.5-4,4.3
		c-1.1,2.1-1,6-0.5,8.2c0.6,2.7,2.9,5.1,4.8,6.9c2.3,2.4,5.2,4.1,8.3,5.5c6.7,3.1,14.2,4.6,21.4,5.7c8.2,1.3,16.4,3.1,24.6,3.8
		c4,0.3,7.9,1.4,11.9,1.9c4.6,0.6,9.2,0.5,13.8,0.4c8.9-0.2,17.7-0.6,26.6-1c2.8-0.1,5.6-0.3,8.4-0.5c-0.1,0.2-0.1,0.4-0.2,0.6
		c-0.1,0.3,0.4,0.5,0.5,0.2c0.2-0.3,0.3-0.6,0.4-0.9c0.2,0,0.3,0,0.5,0c-0.6,1.1-0.9,2.2-1.2,3.4c-0.1,0.3-0.2,0.5-0.2,0.8h-0.1
		c-2.3,1.8-4.4,3.8-6.3,6c-1.7,1.9-2.7,4.8-4.6,6.4c-0.1,0.1-0.1,0.3-0.1,0.4c-1.9-0.2-3.7-0.5-5.6-0.7c-2.2-0.2-5.4-0.9-7.6-0.4
		c-2.1,0.5-5.7,1.6-5.7,4.3c0,0.3,0.3,0.6,0.6,0.5c1.2-0.4,2.8-0.8,3.9-1.7c2-0.2,4-0.6,5.9,0c1.1,0.3,2.3,0.8,3.4,1.1
		c-3.8,0.9-7.5,2.1-11.1,3.7c-2.7,1.2-5.4,3-5.6,6.2c0,0.2,0.3,0.4,0.5,0.3c1-0.7,2.8-1.3,4-2.3c0.4,1.5,2,1.9,3.6,1.7
		c-0.1,0.2-0.3,0.4-0.4,0.5c-1.6,1.2-3.1,1.8-5.4,1.6c-1.5-0.1-3-0.7-3.9-1.9c-0.6-0.9-0.4-1.8-0.5-2.8c0-0.2-0.3-0.4-0.5-0.4
		c-0.7,0-1.4,0.1-2.1,0.2c-0.2,0-0.4,0.2-0.3,0.4c0,0.1,0.1,0.1,0.1,0.2c-0.5,0.9-1.2,2.1-1.9,2.4c-0.9,0.3-1.7,1.1-1.3,2.1
		c0.8,2,1.9,1.6,3.7,2.4c1,0.5,1.6,1.2,2.7,1.5l0,0c-1.5,0.7-3,1.5-4.5,2.3c-2.5,1.2-3.9,0.2-6.2-0.1c-0.2,0-0.3,0.1-0.4,0.3
		c-0.6,1.8,0.6,2.2,1.9,2.6c-0.7,0.3-1.5,0.6-2.4,0.6c-0.4,0-0.6,0.4-0.4,0.7c0.7,1.2,1.9,1.4,3.2,1.4c-0.5,0.5-1,1-1.4,1.7
		c-0.2,0.3,0.1,0.7,0.4,0.7c3,0.3,6-2.5,8.2-4.9c0.1,0.2,0.3,0.3,0.4,0.4c-0.5,0.5-0.9,0.9-1.3,1.6c-0.3,0.6-0.5,1.3-0.5,2
		c-0.5,0.5-1.3,1.1-1.6,1.3c-0.8,0.8-1.7,1.6-2.5,2.4c-1.2,1.2-2.2,2.7-2.2,4.5c0,0.2,0.2,0.5,0.4,0.4c0.6-0.1,1-0.3,1.5-0.6
		c-0.1,0.4-0.2,0.7-0.4,1.1c-0.1,0.3,0,0.6,0.3,0.6c1.8,0.5,2.9-0.8,3.7-2.3c0.5-0.9,0.8-1.9,1.2-2.9c0.6-1.3,1.8-2.3,2.4-3.7
		c0-0.1,0-0.2,0-0.3c0.8-0.6,1.4-1.5,1.8-2.4c-0.1,0.4,0,0.9,0.2,1.3c0.1,0.2,0.2,0.3,0.3,0.4c0,0-0.1,0-0.1,0.1
		c-0.8,2.3-2.7,4.1-2.5,6.6c0,0.4,0.4,0.5,0.7,0.4c0.8-0.3,1.3-0.9,1.9-1.5c0.6,0.6,1.5,0.7,1.9-0.3c0.5-1.3,0.4-2.9,0.4-4.2
		c0-0.3-0.2-0.7-0.5-0.6c-0.5,0.1-0.4,0.7-0.4,1.1c0,0.8,0,1.6-0.1,2.3c0,0.3-0.1,0.7-0.2,1c-0.2,0.6-0.5,0-0.7-0.3
		c-0.2-0.2-0.5-0.2-0.6,0c-0.4,0.5-0.8,0.9-1.3,1.3c0.3-2,2-3.5,2.2-5.6c0.9,0.4,2-0.1,2.8-0.7c0,0.8,0.1,1.5,0.4,2.3
		c0.1,0.3,0.5,0.3,0.7,0.2c0.8-0.4,1.1-0.8,1.3-1.5c0.2,0.1,0.4,0.2,0.6,0.3c0.3,0.2,0.7-0.1,0.7-0.4c0.2-2.2,0.5-4.4,0.5-6.7
		c0.1,0,0.1,0.1,0.2,0.1c0.3,0.1,0.5,0.1,0.7,0.1c-0.5,1.5-0.8,2.9,0.2,4.2c1,1.2,1.8-0.3,2.2-1.4c0.1,0.1,0.3,0.3,0.4,0.4
		c0.2,0.2,0.5,0.2,0.7,0c2.4-2.5-1.3-7.1,0-10.1c0.1-0.1,0.2-0.1,0.3-0.2c0.1,0.9,0.5,1.8,1.5,1.8c1.3,0,2.2-0.7,2.6-1.7
		c-0.1,0.7-0.3,1.3-0.4,1.9c-0.5,1.9-0.5,4.2-1.6,5.9c-0.2,0.3-0.4,0.5-0.6,0.8l0,0c0,0,0,0.1-0.1,0.1c-0.3,0.4,0.4,0.9,0.7,0.5
		c0.3-0.3,0.5-0.6,0.7-1c1.9-2.5,4-5,5.1-8c1.3-3.6,1.6-7.5,2.5-11.2c2.1-0.8,4.2-2.6,5.8-4.5c0.2,2.1,0.5,4.2,1.1,6.2
		c-1.1,0.6-1.9,1.7-2.7,2.7c-0.9,1.2-1.8,2.4-2.3,3.8c-0.1,0.3,0.2,0.6,0.5,0.5c1.3-0.4,2.4-1.1,3.5-1.9c0.7-0.5,1.6-1.1,2.1-1.9
		c0.5,1.2,1.1,2.3,1.6,3.4c0.5,1,1.7,2,1.7,3.3c0,0.6,0.1,0.9,0.3,1.4c0.2,0.5,0.9,0.4,0.9-0.1c0.2-2.3-0.2-4.5-1-6.6
		c0.8-1.3,1.1-2.8,1.2-4.3c0,0,0,0,0.1,0c3.2-1.6,6.4-3.9,9-6.4c1.2-1.1,2.1-2.4,3-3.8c-0.6,1-1.1,2-1.1,2.2
		c-2.3,4.9-7.2,8.5-6.8,14.4c0,0.2,0.2,0.4,0.3,0.3c2.2,0,2.9-3.3,3.8-4.9c0-0.1,0.1-0.2,0.1-0.2c-1,2.9-3,5.4-2.7,8.7
		c0,0.2,0.2,0.4,0.4,0.3c1.8-0.9,2.6-3.5,3.2-5.2c0.7-1.9,1-4,1.6-6c-0.1,0.8-0.2,1.6-0.3,2.4c-0.3,3.5-0.2,7-0.2,10.5
		c0,0.6,0.1,1.2,0.2,1.9c-0.3,1.1-0.5,2.2-0.5,3.3c0,0.4,0.5,0.5,0.7,0.2c0.1-0.2,0.2-0.4,0.3-0.6c0.2,1.6,0.2,3.1-0.4,4.3
		c-0.3,0.5,0.5,1,0.8,0.5c1-2,0.5-4.2,0.2-6.3c0.8-2.6,1.2-5.5,1.9-8c1.6-5.9,2.7-12.7,2.5-19c0.8-1,1.4-2.4,1.9-3.4
		c0.8-1.5,1.8-3.5,1.4-5.3c-0.3-1.3-1.5-0.7-1.9,0.1c-0.4,0.8-0.6,1.7-0.8,2.6c-0.2,0.7-0.6,1.4-1,2c-0.1-0.1-0.3-0.1-0.3,0.1
		s-0.1,0.5-0.1,0.7c-0.1,0.1-0.1,0.2-0.2,0.3c0-0.2,0-0.4,0-0.7c0-0.4-0.6-0.6-0.8-0.2c-0.9,1.5-1.7,3-2.7,4.4
		c-0.2,0.2-0.5,0.4-0.7,0.6c-1.6,1.2-3.3,2.1-5.1,3c-0.5,0.3-4.7,2-6.2,3.2c-0.3-1.4-0.6-2.9-0.9-4.3c-0.5-2.4,0.1-4.5-0.1-6.9
		c1-2.6,1.6-5.5,3-7.9c0.1-0.1,0.1-0.3,0-0.4c4.5-0.3,8.9-0.7,13.4-1c3.9-0.3,7.8-0.8,11.7-1.3c3.8-0.5,7.5-1.5,11.1-2.7
		c6.5-2.1,12.4-5.1,16.5-10.6c-0.7,2.4-1.7,4.7-2.4,6.9c-1.5,4.2-3.2,8.3-4.9,12.4c-1.6,3.8-3.3,7.3-4.4,11.2
		c-1.2,4.2-2.5,8.2-4.1,12.2c-3.1,8.1-7.5,15.1-13.2,21.6c-2.2,2.6-5.4,3.6-8.4,5c-4.1,1.9-7.8,3.9-12.2,4.9
		c-8.3,1.9-16,5.3-24.6,5.6c-4.3,0.1-8.7-0.5-13-0.7c-4.6-0.2-9.2-0.2-13.8-0.7c-8.9-1-18-1.3-26.7-3.5c-3.9-1-8.4-1.8-11.8-3.9
		c-3.9-2.3-7.5-5.1-10.8-8.2c-2.1-2-3.9-4.3-6.1-6.2c-2.3-2.1-4.7-4-6.7-6.4c-4.3-5.3-5.5-12.9-7-19.3c-1.5-6.5-3-13-4.1-19.5
		c-0.6-3.6-1.7-7.3-2.1-10.9c-0.2-1.5-0.8-2.9-1-4.3c-0.2-1.3,0.3-2.7,0.3-4c0-0.3-0.5-0.3-0.5,0c-0.2,3.4-0.4,6,0.4,9.4
		c1,4.4,1.7,8.8,2.5,13.2c1.5,8.6,3.4,17.3,5.8,25.8c0.9,3.2,2,6.3,3.8,9.1c2,3.2,5,5.5,7.7,7.9c2.9,2.6,5.3,5.7,8.3,8.2
		c3,2.6,6.3,4.9,9.7,6.9c3,1.8,7,2.5,10.4,3.3c4,1,8,1.6,12.1,2.1c8.8,1,17.7,2.3,26.6,2.3c8.5,0,16.7,1.4,25.1-0.3
		c3.9-0.8,7.5-2.3,11.3-3.4s7.7-1.6,11.3-3.3c3.3-1.5,6.6-3.1,9.9-4.7c3.1-1.4,4.9-3.8,7-6.3c5.1-6.1,8.7-13,11.5-20.4
		c1.4-3.7,2.7-7.5,3.7-11.3c1.2-4.5,3.3-8.7,5.1-13c1.6-3.8,3.1-7.6,4.5-11.5c1-3,2.4-6.4,2.9-9.7
		C389.4,404,389.5,402.3,388.8,400.4z M342.5,449.3c-0.3,1.8-1,3.6-1.7,5.2c-0.5,1.2-1,2.4-1.9,3.3c-0.6-0.2-0.6-0.7-0.1-1.5
		c0.1-0.9,0.6-1.8,0.9-2.6c0.8-1.7,1.8-3.3,1.9-5.2c0,0,0,0,0-0.1c0.7-1.1,1.5-2.3,2.3-3.5c0,0.1,0,0.3-0.1,0.4
		C342.9,446.5,342.8,448,342.5,449.3z M349.8,430.6c0.1-0.5,0.3-1.1,0.5-1.6c-0.1,0.2,0.6-1.7,1-0.8c0.1,0.3,0,0.8-0.1,1.2
		c-0.4,2-1.4,4.3-2.7,6.2c0-0.6-0.1-1.2-0.1-1.7c0.4-0.6,0.9-1.2,1.4-1.7c0.1-0.2,0-0.5-0.3-0.3c-0.1,0.1-0.2,0.1-0.3,0.2
		C349.4,431.6,349.6,431.1,349.8,430.6z M347.5,435.6c0.1,0,0.1,0,0.1-0.1s0-0.1-0.1-0.1c0-0.2,0.1-0.4,0.1-0.5s0.1-0.1,0.1-0.2
		c0,0.7-0.1,1.3-0.1,2c-0.1,0.1-0.2,0.3-0.4,0.4v0.1C347.3,436.7,347.4,436.2,347.5,435.6z M347.2,437.4c0,0.2,0.2,0.3,0.4,0.3
		c-0.1,2.3-0.1,4.6-0.3,6.9c-0.4,4.1-1.2,8-2.3,12c-0.3,1.1-0.7,2.2-1,3.4c0-2.7,0.2-5.4,0.2-8c0-3.7,0.8-7,1.9-10.5
		C346.5,440.1,346.9,438.7,347.2,437.4z M346.5,436.1c-0.2,1-0.5,2-0.8,3c-0.2,0-0.4,0-0.4,0.3c-0.5,3.8-3.2,7.2-5.2,10.3
		c-0.7,1-1.1,2.2-1.6,3.2c-0.4,0.8-1.2,1.5-1.2,0s0.7-2.9,1.4-4.1c1.4-2.6,3.9-4.7,4.9-7.5c0.2-0.6,1.3-3.2,2.4-4.7
		C346.2,436.5,346.4,436.3,346.5,436.1z M339.7,441.1c1.1-0.6,2.1-1.2,3.1-1.9c-0.5,0.7-1.1,1.4-1.7,2.1c-2.3,2.5-5.5,4.8-8.5,6.5
		c0-0.8-0.1-1.7-0.2-2.5c0-0.2-0.1-0.3-0.1-0.5C333.9,443.5,337.6,442.2,339.7,441.1z M315.2,424.4c1.7-3.3,4.6-6,7.7-7.9
		c1.7-1.1,3.9-1.7,4.5-3.6c-0.1,0.3-0.1,0.5-0.2,0.8c0,0.1,0,0.2-0.1,0.2s-0.1,0-0.1,0c-1.8,1.8-3.3,3.6-5.4,5.2
		c-1,0.8-1.9,1.6-2.7,2.5c-0.8,0.9-1.7,2-2.7,2.7C315.9,424.4,315.6,424.4,315.2,424.4z M324.8,423.9c-2.7,0.2-5.4,0.3-8.2,0.5
		c0.6-0.3,1-0.8,1.5-1.3c1.1-1.1,2.2-2.1,3.4-3.1c1.7-1.3,4.1-2.8,5.3-4.7c-0.5,1.8-1.1,3.5-1.6,5.2
		C325,421.3,324.5,422.8,324.8,423.9z M325.6,423.8L325.6,423.8c-1-1.9,1.5-6.8,2.1-8.5c0.5-1.6,0.9-3.5,1-5.2c0-0.7,0-1.3,0-1.9
		c0-0.3,0-0.6,0-1c0-0.2,0-0.3,0-0.5c-0.1-1,0.4-1.2,1.4-0.5c0.8,2.6-0.1,6.1-0.6,8.7c-0.3,1.2-0.5,2.4-0.8,3.5
		c-0.4,1.3-0.9,4.2-2.2,5.3C326.2,423.8,325.9,423.8,325.6,423.8z M330.1,423.5c-0.8,0.1-1.7,0.1-2.5,0.2c1.6-2.1,2.1-6,2.6-8.2
		c0.1,1.1,0.2,2.1,0.2,3.1C330.6,420.4,330.5,421.9,330.1,423.5z M323.1,436.3c1.9-2.4,4.3-4.3,6.3-6.6c-0.2,0.5-0.4,1.1-0.6,1.6
		c-2.6,3.6-5.7,6.9-8.1,10.6c-0.1,0-0.2,0-0.3,0.1v0.1c-0.4,0-0.8-0.1-1.2-0.1C320.9,440.5,321.7,438.1,323.1,436.3z M327.3,434.6
		c-1.4,2.8-3.2,6.2-5.9,8c0-0.1-0.1-0.1-0.1-0.2C322.9,439.6,325.4,437.2,327.3,434.6z M314.4,448.1c-1,0.5-2,1.3-3,1.7
		c-0.1-0.1-0.4-0.1-0.5,0s-0.3,0.2-0.4,0.3c-0.1,0-0.2,0.1-0.3,0.1c-0.1,0-0.2,0.2-0.1,0.3l0,0l0,0c-0.1,0.1-0.2,0.2-0.3,0.2
		c-0.9,0.8-1.8,0.6-2.7-0.4c0-0.4,0-0.9,0-1.3c1.9-0.8,3.9-1.6,5.8-2.3c1.1-0.4,2.9-0.5,4.1-1.1c0.2,0,0.3,0,0.5,0
		c-0.4,0.3-0.7,0.7-0.9,1.1C315.8,447.3,315.1,447.7,314.4,448.1z M315.8,448.1c-0.1,0.3-0.2,0.5-0.3,0.8c-0.3,0.3-0.6,0.7-1,1
		c-0.6,0.5-1.4,0.9-2.1,1.1c-0.3-0.4-0.6-0.5-1-0.6l0,0c1.1-0.4,2.2-1.2,3.3-1.8C315,448.5,315.4,448.3,315.8,448.1z M301.3,451.6
		c-0.1,0.1-0.2,0.2-0.2,0.4c0,0.1,0,0.1,0,0.2c-1.1,0.9-2.6,1.5-3.8,2.2c0.1-0.5,0.3-1,0.5-1.5c0.3-0.5,0.6-0.9,1.1-1.3
		c0.9-0.9,2.1-1.5,3.2-2c2-1,4.2-1.8,6.3-2.5c1.6-0.5,3.2-0.7,4.8-1c-0.7,0.2-1.3,0.4-1.9,0.6c-1.5,0.6-2.9,1.2-4.2,2l0,0
		c0-0.2-0.1-0.4-0.3-0.4c-1.2-0.2-1.9,0-2.7,1c-0.1,0.2-0.9,1.9-1,1.9c-0.3,0-0.6,0-0.8,0.1c-0.1,0-0.1-0.1-0.2,0l0,0
		C301.7,451.4,301.5,451.4,301.3,451.6z M302.7,453.6c-0.7-0.3-1.3-1.3-0.1-1.4c0.3,0,0.8,0.1,1-0.2c0.9-1,0.9-2.8,2.5-2.9
		c-0.1,1.2-0.3,2.4,1,3.1c0.4,0.2,0.8,0.3,1.2,0.2C306.8,453.5,304.2,454.2,302.7,453.6z M293.9,459.4c-0.6-0.3-1-0.7-1.6-1
		c-0.5-0.2-0.9-0.3-1.4-0.4c-1.3-1.2-1.5-1.9-0.6-2.2c0.3-0.1,0.5-0.2,0.8-0.3c0.8-0.4,1.4-1.9,1.5-2.8c0.3,0,0.7,0,1.1,0.1
		c-0.2,2.9,1.8,4.7,4.7,5.2c1,0.2,2.5,0.2,3.9-0.1c-0.4,0.7-0.6,1.3-0.7,2.1c-0.8-0.4-1.9-0.5-2.8-0.3c-0.1-0.2-0.3-0.3-0.5-0.2
		c-0.3,0-0.6,0.1-0.8,0.3C296.2,459.9,295.1,460.1,293.9,459.4z M293,464.9c0,0.1,0,0.1,0,0.2c-2.1,2-4.1,4.9-7,5.2
		c0.5-0.5,1-1,1.5-1.6c0.3-0.3,0.1-0.8-0.3-0.8c-0.9,0-2.1,0.2-2.9-0.4c1-0.2,1.9-0.6,2.8-1.1c0.4-0.2,0.2-0.7-0.1-0.8
		c-0.3-0.1-0.5-0.2-0.8-0.3c-0.2,0-0.3-0.1-0.5-0.1c-0.6,0-0.7-0.3-0.5-1c1.2,0.4,2,0.7,3.3,0.6c1.9-0.2,3.9-1.4,5.6-2.5
		C293.5,463.2,293.1,464.1,293,464.9z M291.1,475.4c-0.5,1.3-1.3,4-3,4c0.2-0.6,0.4-1.1,0.4-1.7c0-0.4-0.4-0.5-0.7-0.4
		c-0.5,0.2-0.9,0.5-1.4,0.7c0.3-3.1,3.6-4.4,5.4-6.7c0,0,0,0,0,0.1c0,0.2,0.1,0.3,0.3,0.4c0.4,0.1,0.9,0.1,1.3,0
		C292.7,473,291.6,474,291.1,475.4z M295.4,469.2c-0.5,0.9-1.6,2-2.8,1.9c-0.1-1.5,0.5-2.9,1.3-4.1c0.5,0.2,1.3,0.1,2-0.1
		c0.1,0.1,0.1,0.3,0.1,0.5C296.1,468,295.7,468.6,295.4,469.2z M296.2,465.8c-0.1,0-0.2-0.1-0.3-0.1c-0.2,0-0.4,0.1-0.4,0.4
		c-0.7,0.1-1.1-0.3-1.1-0.9c0.1-0.1,0.2-0.2,0.3-0.3c0.2-0.2,0.1-0.6-0.2-0.6c0.1-0.2,0.1-0.4,0.2-0.6c0.5-0.9,1.3-2,2.3-2.6
		c0.2,0.2,0.5,0.4,0.8,0.1c0.8-0.7,1.9-0.8,2.6-0.4c-0.4,0.3-0.8,0.5-1.1,0.7c-0.6,0.4-1.3,0.7-1.7,1.2c-0.2,0.2,0,0.6,0.3,0.5
		c0.7-0.2,1.4-0.8,2-1.3c0.4-0.3,0.7-0.6,0.9-1c0.8,0.6,1.1,1.7-0.1,2.8c-1,0.9-2.4,1.5-3.6,2C296.7,465.6,296.5,465.7,296.2,465.8z
		 M297.1,467.3c-0.1,0.1-0.1,0.2-0.2,0.3c0.1-0.4,0.1-0.8,0-1.1c0.3-0.1,0.5-0.2,0.7-0.3c0.3-0.1,0.5-0.2,0.8-0.3
		C298.1,466.4,297.5,466.8,297.1,467.3z M300.8,468.2C300.8,468.3,300.8,468.3,300.8,468.2c-0.1,0.1-0.2,0.2-0.3,0.3l0,0
		c-0.5,0.7-1.3,1.3-2.1,1.3c-2,0.1-0.2-2.9,0.6-3.4c0.1-0.1,0.2-0.2,0.1-0.3c0-0.3-0.1-0.3-0.1-0.5c0.6-0.3,1.3-0.7,1.8-1.1
		c0.5,0.1,1,0.2,1.1,0.9C301.9,466.5,301.3,467.5,300.8,468.2z M303.2,470c-0.2-0.1-0.4-0.2-0.6-0.3c-0.3-0.2-0.7,0.1-0.7,0.4
		c-0.2,0.2-0.3,0.5-0.5,0.7c-0.1-0.6-0.1-1.3-0.1-1.9c0.8-1,1.4-2.2,1.5-3.5c0-0.7-0.5-1.4-1.1-1.7c0.5-0.5,0.8-1.1,0.9-1.7
		c0.4,0,0.7,0,1.1-0.2c0,0.5,0,0.9,0.1,1.3C303.5,465.5,303.4,467.8,303.2,470z M305,463.3c-0.7-0.1-0.4-1.6-0.4-2.1
		c0-0.3-0.4-0.6-0.7-0.4c-1.1,0.8-1.8-0.4-1.6-1.5c0.1-0.7,0.6-1.4,1-2c1.5-0.5,2.8-1.5,3.1-2.9c0-0.1,0-0.2,0-0.2
		c0.6-0.3,1.2-0.6,1.7-1c-0.3,0.5-0.5,1-0.7,1.5c-0.4,0.5-0.9,1-1.3,1.5s-0.6,1.1-0.8,1.6c-0.2,0-0.4,0.1-0.6,0.2
		c-0.6,0.2-0.3,1.2,0.3,1c0.1,0,0.2-0.1,0.3-0.1l0,0c0.1,0.4,0.5,0.4,0.8,0.2c0.4,0.5,0.1,1.8,0,2.4
		C305.9,462.1,305.8,463.4,305,463.3z M308.6,466.5c-0.2-0.2-0.3-0.3-0.5-0.5c-0.3-0.3-0.7-0.1-0.8,0.2c-0.1,0.4-0.3,0.9-0.5,1.3
		c-1-0.5-1.2-1.2-0.9-2.1c0.1-0.3,0.2-0.7,0.3-1c0-0.1,0.2-0.8,0.4-1.3c0-0.1,0.1-0.2,0.1-0.3c0.1-0.2,0.1-0.4,0.2-0.7V462
		c0.1,0,0.1-0.1,0.2-0.2c0-0.1,0-0.2,0-0.3v0.5h0.1c0-0.3,0-0.6,0-0.9l0,0l0,0l0,0l0,0l-0.1,0.1c0.2-1.3,0.1-2.8-0.8-3.3
		c0.1-0.5,0.4-1,0.7-1.4c0,0.3,0,0.7,0,1s0.3,0.6,0.7,0.5c0.1,0,0.2-0.1,0.3-0.1c-0.1,0.9,0,1.9,0.1,2.8
		C308.2,462.2,309.3,465,308.6,466.5z M311.4,457.9c-1.2,0.5-1.1-1.2-1-1.6c0.1-0.5-0.5-0.9-0.9-0.5c-0.5,0.4-1,0.7-1.5,1
		c0-1.1,0.3-2.1,0.8-3.2c0.3-0.5,0.5-1,0.9-1.5c0,0,0.1,0,0.1-0.1c0.8-0.6,1.7-1.1,2.1,0.2c0.2,0.6,0.3,1.3,0.5,1.9
		c0.2,0.7,0.3,1.4,0.3,2.1C312.7,457.1,312.1,457.6,311.4,457.9z M312.7,451.6c0.7-0.2,1.4-0.6,2-1c0.1-0.1,0.2-0.2,0.3-0.2
		c-0.2,0.9-0.4,1.7-0.6,2.4c-0.3,1-0.5,2.1-0.7,3.2C313.7,454.6,313.3,452.8,312.7,451.6z M317,455.7c-0.6,2.6-2.2,4.9-3.8,7.1
		c0.5-2,0.9-4.1,1.4-6.2c0.7-3.2,1.2-6.3,2.4-9.2c0.7-0.4,1.2-1,1.4-1.7c0-0.1,0-0.1,0-0.2c0.3-0.1,0.6-0.2,0.8-0.3
		C318.3,448.7,317.9,452.2,317,455.7z M319.7,443.7c-0.5,0.5-1,0.8-1.6,0.9l0,0c0.1-0.2-0.1-0.4-0.3-0.3c-0.3,0.2-0.6,0.3-0.9,0.4
		c-0.3,0-0.5,0-0.8,0c0-0.2-0.2-0.3-0.4-0.3c-0.2,0-0.4,0.1-0.6,0.1c-1.2-0.2-2.4-0.7-3.5-1c-2.5-0.8-4.8-0.5-7.2-0.2
		c0.1-0.2-0.1-0.5-0.4-0.4c-0.7,0.2-1.4,0.5-2.1,0.8c-0.1,0-0.1,0-0.2,0s-0.1,0.1-0.1,0.1c-0.3,0.1-0.6,0.3-0.9,0.4
		c0.7-1.1,2.5-1.8,3.5-2.2c1.8-0.6,3.7-0.2,5.6-0.1c3.5,0.2,6.8,0.7,10.3,1.1c-0.1,0.2-0.2,0.3-0.3,0.5
		C319.8,443.6,319.7,443.7,319.7,443.7z M325.6,452.2c-0.8,0.7-1.7,1.3-2.7,1.7c0.9-1.9,2.5-3.8,4.1-5.3c0.1,0.4,0.3,0.9,0.4,1.3
		c0.1,0.2,0.2,0.4,0.2,0.6C326.8,450.9,326.2,451.7,325.6,452.2z M329,451.4c-1.5-3.3-2.4-6.9-2.5-10.6c0-0.1,0.1-0.1,0.1-0.2
		c-0.2,2.4,0.8,4.8,1.7,6.9c0.7,1.6,1.4,3.1,2,4.7c0,0.2,0,0.4,0,0.5c0,0.2,0.2,0.3,0.3,0.4c0.3,0.8,0.5,1.6,0.6,2.4
		C330.4,454.3,329.7,452.9,329,451.4z M330.1,445.1c-0.1,0-0.2,0.2-0.1,0.3l0,0c-0.3,0.3-0.7,0.5-1.1,0.8c-0.7-1.9-1.3-3.8-1.8-5.9
		c0,0,0-0.1-0.1-0.1c0.3-0.3,0.5-0.7,0.8-1c0.9-1.2,1.6-2.5,2.3-3.8c0,2.8,0.3,5.5,0.3,8.3c0,0.4,0,0.9,0,1.3
		C330.2,445,330.2,445,330.1,445.1z M330.3,446c0,1.2,0,2.5,0,3.7c-0.4-0.9-0.8-1.8-1.1-2.7C329.5,446.7,329.9,446.3,330.3,446z
		 M331.1,451.5c-0.2-3.3-0.1-6.5-0.1-9.8C331.7,444.9,332.5,448.4,331.1,451.5z M328.8,436.4c-0.6,1.2-1.5,2.5-2.4,3.7
		c-0.2-0.3-0.9-0.3-0.9,0.2c0,0.3,0,0.5,0,0.8c-1.7,2-3.7,3.7-5.7,5c0.1-0.5,0.2-1,0.4-1.5c0.3-0.3,0.6-0.7,0.8-1.1
		c2.7-0.9,4.6-4.2,5.9-6.5c1.1-2,2.1-3.9,3-6c0.9-2,1.1-4.2,2.2-6.1c0.4,0,0.8-0.1,1.1-0.1C331.2,428.4,330.7,432.7,328.8,436.4z
		 M381.8,412.3c-3.3,2.9-7.8,4.5-11.8,5.9c-6.9,2.3-14.2,3.2-21.4,3.9c-5.8,0.6-11.8,1-17.6,1.4c0.7-3.1,0.3-7-0.3-10
		c0.6-2.8,1.4-7.3-0.4-8.6c-1-0.7-1.8-0.2-2.2,0.8c-0.3,0.8-0.2,1.7-0.2,2.5c0.1,1.3-0.1,2.5-0.3,3.7c0-0.1-0.2-0.1-0.2-0.1
		c-1.5,3.1-5.4,4.1-8,6.2c-2.1,1.7-4,3.9-5.1,6.3c-4,0.2-8,0.4-12,0.5c-8.2,0.2-17.1,1-25.1-1.1c-3.3-0.8-6.7-1-10-1.3
		c-4-0.3-8-1.2-11.9-1.9c-7.3-1.3-14.6-2-21.8-3.8c-6.2-1.6-13-3.9-17.7-8.5c-2.7-2.7-4.7-5.2-4.7-9.2c0-2.1,0.2-4.1,1.3-6
		c0.6-1.1,1.6-1.9,2.5-2.7c0.2,0.1,0.4,0.2,0.7,0c1.2-0.9,2.7-0.8,4-1.1c2-0.4,3.9-0.9,5.9-1.5c4.3-1.3,8.7-2.4,13.3-2.3
		c8.7,0.3,17.5-2.2,26.2-2.3c8.8-0.1,17.4-1.7,26.2-1.4c9,0.3,18,1.5,27,1.7c9.1,0.1,18.4,0.7,27.4,2.5c4,0.8,7.8,1.8,11.8,2.2
		c4.3,0.5,8.6,1.5,12.8,2.5c6.6,1.6,13.3,3.2,16.9,9.5C389.7,404.6,385,409.5,381.8,412.3z"/>
</g>
<path class="st0" d="M271,449.8c-3.3-1.7-7.1-1.6-10.7-2.4c-5.1-1.1-10-2.5-14.9-4.2c-3.1-1.1-6.5-2.5-9.8-2.4
	c-3.3-1.8-12.8,0.2-10.8,3.8c1.6,2.9,0.4,1.3,1.9,4.2c2.4,4.8,6.9,8.1,7.4,8.3c0.4,0.4,2.9,1.4,3.3,1.8c3.3,2.9,12.5,4.8,12.5,4.8
	c2.1,0.9,2.9,0.5,5.1,1.2c0,0,1.6,0.7,7.9,0.6c0,0,7-0.6,12.7-6.8C278.1,456.2,274.8,451.7,271,449.8z"/>
<g>
	<path d="M242.5,402.5c0.2-1.3-0.5-2.5-1.8-2.8c-1.3-0.3-2.2,0.5-2.7,1.6c0,0,0,0,0,0c0.1-0.1,0-0.1,0,0c0,0,0,0,0,0
		c-0.1,0.1-0.1,0.1-0.2,0.2c-0.4,0.4-0.8,0.9-1,1.5c-0.5,1.3-0.3,2.8,1.1,3.5c1.5,0.8,3.4-0.1,3.7-1.7c0,0,0-0.1,0-0.1
		c0.1-0.2,0.2-0.3,0.3-0.5C242.2,403.7,242.4,403.1,242.5,402.5z"/>
	<path d="M279.7,410.2c0.1-0.6,0-1.3-0.3-1.9c-0.3-0.5-0.7-0.8-1.2-1c-0.3-0.2-0.6-0.3-1-0.4c-0.6-0.2-1.5,0-2,0.3
		c-0.6,0.4-0.9,1-1.2,1.7c-0.1,0.4-0.3,0.8-0.3,1.2c0,0.2,0,0.5-0.1,0.7c0,0.5,0.2,0.9,0.4,1.3c0.4,0.6,1,1,1.7,1.2
		c0.7,0.2,1.4,0,2.1-0.4l0.5-0.4c0.3-0.3,0.5-0.7,0.6-1.1C279.3,411.2,279.6,410.7,279.7,410.2z"/>
</g>
<path d="M286.8,436.3c-1-2.1-3.9-2.8-5.9-3.4c-6.5-1.7-13-3-19.7-4c-11.5-1.8-23.2-3.8-34.1-8.2c-1.1-0.4-2.1,0.7-1.9,1.6
	c-3.5,3.2-3.7,9.6-3.2,14c0.7,5.8,3.1,11.3,6.4,15.8c3.8,5,9,8,14.7,10c5.5,1.9,11.6,3.6,17.5,3.5c5.8-0.1,10.8-2.7,15.2-6.7
	c4.9-4.4,7.7-9.6,10.8-15.4C288.1,441.2,288,438.8,286.8,436.3z M286.3,443.1c-0.6,1.4-1.4,2.8-2.2,4.2c-1.8,3-3.1,5.6-5.6,7.9
	c-7.4,6.9-10.8,11.3-19.6,10.1c-2.8-0.4-7.6-1.4-10.4-2.1c-3.3-0.9-6.4-2-9.4-3.6c-5.4-2.9-9.8-5.1-12.3-10.9
	c-4.5-10.2-4.5-12.4-4.7-15.3c0-1.4,1.1-5.7,1.3-7.1c0.3-1.5,2.1-1.8,2.5-3.3c0.1-0.3,2.1-0.6,2.2-0.8c12.5,4.9,25.8,6.1,38.9,8.5
	c3.3,0.6,6.6,1.3,9.8,2.2c2.2,0.6,9.8,1.9,10.3,4.9C287.5,439.1,286.9,441.9,286.3,443.1z"/>
</svg>
