<svg id="Calque_1" data-name="Calque 1" xmlns="http://www.w3.org/2000/svg" viewBox="0 0 172.19 70.3"><title>illustration_vegetal_3</title><path d="M169.4,38.4c-.9-.1-7.1.1-8.6.2.3-.4.6-.7.9-1.1a18.4,18.4,0,0,0,3.7-14.8c-.7-3.7-2.4-8.9-7-8.6a.54.54,0,0,0-.5.7c2.2,7.2-3,13-8.6,16.8s-12.3,4.6-17.8,8.1c-1,.1-2.1.4-3.1.5a19.27,19.27,0,0,1-2.4.1c.5-.2.9-.3,1.2-.4,3.3-1.2,5.8-5.1,8-7.7,1.7-2,4.1-3.2,5.1-5.7a2.64,2.64,0,0,0,0-2.6c.1-.2-.1-.6-.4-.5h0c-1.7-1.7-5.8-1.8-7.7-1.8-4.6,0-10.2.6-13.4,4.2a20.21,20.21,0,0,0-1.1-3.2.48.48,0,0,0-.6-.2c-2,.5-3.1,2.2-4.2,3.9a19.63,19.63,0,0,1-2.5,3.2c-.7.6-1.8,1.3-2.1,2.3a2.93,2.93,0,0,0,1.1,3,.1.1,0,0,1-.1.1c-.4,1.7-2.8,2.4-4,3.4h0c-1-.2-2-.2-2.9-.3-1.3-.2-2.5-.4-3.8-.5h-.1A6.39,6.39,0,0,0,97,36.2a5.56,5.56,0,0,0,1.7-.9c3.3-2.6,3.1-7.1,2.9-10.9a18.31,18.31,0,0,0-4-11.3c-1.7-2-4-3.3-6.2-4.7a13,13,0,0,1-5.6-6V1.3a.3.3,0,0,0-.6,0v.5a.32.32,0,0,0-.3.3A19.27,19.27,0,0,0,85,4.5,11.79,11.79,0,0,0,86.1,10c.1.2.2.3.3.5a4.87,4.87,0,0,0,.4,1.1,42,42,0,0,1,2.4,11.7,15.71,15.71,0,0,1-3.4,10.8c-.2.2-.3.4-.5.5a4.87,4.87,0,0,0-1.2.1.55.55,0,0,0,0,1.1h0a17.85,17.85,0,0,1-2.6,2,4.35,4.35,0,0,1-.7.4l-2.4.3c-2.1.2-4.1.2-6.2.2a15.5,15.5,0,0,1-4.7-1.2c3.9,0,6.8-3.9,8.3-8.3s1.5-9,3.2-13.2c1.1-2.7,1.8-5.3-1.1-7.1-2.2-1.4-5.5.1-7.6,1.1a38.39,38.39,0,0,0-7.6,5c-3.2,2.6-7.6,7.5-5.1,11.4a4.79,4.79,0,0,0-3.8-.8.59.59,0,0,0-.9.5.1.1,0,0,0-.1.1.35.35,0,0,0,.5.5,11.65,11.65,0,0,1,2.4,3.4,9.8,9.8,0,0,1-2.2-1.3c-1.2-.8-2.7-1.4-4-2.1-2.7-1.6-5.7-2.7-8.5-4.1-2.3-1.1-4.7-1.5-7-2.8-2.6-1.4-5.2-2.6-7.7-4.2s-5.3-2.4-7.6-4.1c-1.9-1.5-4.3-2.1-6.5-2.9C9.4,7.6,2.6,5.7.6,9c-1.6,2.6,8,3.2,8.8,3.4,5.9,1.1,11.2,4.7,16.6,7.3S37.2,24.9,42.5,28c2.4,1.4,4.9,2.6,7.3,4.1a4.05,4.05,0,0,0,.9.5,5.31,5.31,0,0,0-3.4.9c-2.5,1.8-6,4.6-7.6,7.6-.8.5-1.6,1.4-.9,2.3,1,1.4,2.2.4,3.6.1,4.2-.8,8.6-3.5,9.9-7.9a2.66,2.66,0,0,0-.2-2.4c.3.2.7.3,1,.5.6.2,3,1.3,2.8,1.1l.2.2a10.87,10.87,0,0,0-.1,1.8c0,2.7,1.6,4.2,3.8,5.5,2.4,1.4,9.1,4.9,11.4,1.7.8-1.1-.4-2.6-1.4-3.6a54.34,54.34,0,0,0,5.6.9c4.1,2.7,9.4,1.6,13.3,4.7,0,.1.1.3.2.3a10.22,10.22,0,0,0,1.2,2.3c1.3,1.3,3.5,1.9,5.2,2.4,3.1,1,6,2.2,9.1,3.2,3.5,1,7.3,1.7,10.6,3.1a.78.78,0,0,0,.8-.2,10.28,10.28,0,0,0,1.7.1.68.68,0,0,0,.7-.7c0-3.3-2-5.8-4.3-7.8-3.2-2.8-7.6-1.9-11.2-3.5-.2-.1-.3-.1-.4,0-.7-1.5-1.3-3.1-2-4.5,4.8.4,9.5,1.6,14.3,2.4,4.3.8,8.9.5,13.3.5a2.7,2.7,0,0,0-.7.8,5.86,5.86,0,0,0-.5,4.3c.8,4.3,3.3,8.4,5.8,12,4.2,5.8,13.1,10.7,20.3,10.6a.75.75,0,0,0,.7-.5c0-.2.1-.3.1-.5.2,0,.5-.1.5-.4a6.6,6.6,0,0,0-.1-1.4,22.35,22.35,0,0,0-.1-10.6c-1.2-4.4-4.7-7.8-7.8-11a4.62,4.62,0,0,0-.7-.7,7.08,7.08,0,0,0,1.4.1,10.06,10.06,0,0,0,3.8,1.5,29.88,29.88,0,0,0,7.9-.2,17.73,17.73,0,0,0,6.4-2c2.4-1.3,4.3-4.3,7.2-4.1a.47.47,0,0,0,.5-.5C172.8,38.7,170.8,38.5,169.4,38.4ZM138,27.6c-1.2,1.5-2.9,2.6-4.2,4.1-1.8,2.1-4.1,5.6-6.8,6.7a39.43,39.43,0,0,1-4.9,1.4c-1,.2-3.1.9-4.6.7a4.39,4.39,0,0,0,1.8-1.2c1.4-1.5,1-4.1.8-6a38.88,38.88,0,0,1,9.2-6.9c2.9-1.4,6.3-1.6,9.5-2.3C139.5,25,139.1,26.2,138,27.6Zm-7.5-4.8a25.55,25.55,0,0,1,6.2.4,3.35,3.35,0,0,1,1.6.6c-3.1.8-6.3,1-9.2,2.2-3.4,1.5-6.3,4.2-9,6.7-.2-1.7-.8-5.7-.9-5.9C121.9,23.6,126.5,22.9,130.5,22.8ZM111.2,30a13.74,13.74,0,0,0,2.4-2.9c.6-1,3.1-5.3,3.9-2.8.2.8.4,1.6.6,2.5s.5,3.3.6,4.4c.2,2.1.7,4.3.2,6.3a1.42,1.42,0,0,1-.2.6c-1.3-.5-2.5-1.6-3.8-2a26,26,0,0,1-3.6-1.3.54.54,0,0,0-.5-.5h-.3C107.7,32.6,110.1,31,111.2,30Zm-1.4,6.8c.6-.5.5-1.2.8-1.3.2.1.5.3.7.4,1.2.6,2.8.8,4.1,1.3,1.1.4,1.9,1.1,2.8,1.5-2.1,2.3-8.6,1.3-11.2-.1A19.23,19.23,0,0,0,109.8,36.8ZM85.9,4.9V4.8a10,10,0,0,0,2.9,2.9c3.6,2.8,7.7,4.8,9.9,9,1.8,3.4,1.8,7.7,1.7,11.4a7.68,7.68,0,0,1-2.1,5.6A5.17,5.17,0,0,1,95,35a4.57,4.57,0,0,0-2-.2,5.78,5.78,0,0,1-1.4-.5,5.23,5.23,0,0,0,1.7-1.2c2.2-2.7,2.3-5.9,1.6-9.2a26.56,26.56,0,0,0-4.2-9.6c-1.1-1.6-2.4-3-3.5-4.7C86.8,8.1,86.3,6.6,85.9,4.9Zm4.2,22.7A28.38,28.38,0,0,0,89.4,16a20.16,20.16,0,0,0-.7-2.3,21.57,21.57,0,0,1,2.9,4.5c1.4,3.1,2.6,6.3,2.5,9.8-.1,4.3-3.5,5.7-7,6.2A15.23,15.23,0,0,0,90.1,27.6ZM84.3,37c.6-.5,1.1-1,1.6-1.5a21,21,0,0,0,4.3-.5,3.59,3.59,0,0,0,1,.7,2.65,2.65,0,0,0-.6.5c-.2.2-.4.5-.6.7-2.1.2-4.3.4-6.4.7A4.35,4.35,0,0,0,84.3,37ZM75.4,9.3c4.8-.4,2.9,4.6,1.8,7s-1.2,5.4-1.7,8.1c-1.1,5.8-4.5,15-11.8,9.9a.37.37,0,0,0-.3-.1,8.42,8.42,0,0,1-1.3-2.5,9.76,9.76,0,0,0-2.6-4.4.3.3,0,0,0,0-.4C51.7,20.4,70,9.8,75.4,9.3ZM50.7,36.5a16.07,16.07,0,0,1-3.3,3.6,11,11,0,0,1-4.3,1.8c-.6.1-1.3.3-1.9.4s-.8-.2-.6-.6a26,26,0,0,0,2.6-3.2,28.42,28.42,0,0,1,5.9-5C51.8,31.7,51.5,35.1,50.7,36.5Zm5.8-3.1a13,13,0,0,0-2.7-1,52.65,52.65,0,0,1-7.2-4.3C42,25.4,37.2,23.3,32.4,21s-9.2-5.1-14-7.2c-5-2.2-9.7-3.1-15.1-3.9-1,0-1.1-.7-.4-2a12.1,12.1,0,0,1,1.9-.1,24,24,0,0,1,4.6.5,24,24,0,0,1,8.2,3.1,42.45,42.45,0,0,0,5.9,3.3c2.5,1.1,4.5,3,7.1,4.1,1.9.8,3.6,2.1,5.5,2.8,2.6,1,5.2,1.8,7.7,3s4.8,2.1,7.1,3.4a34,34,0,0,0,5.4,2.7,5,5,0,0,1,.2,1.2Zm12,10.1c-2,.1-4-.9-5.8-1.7-2.9-1.2-5.3-2.7-5.3-6.2a24.49,24.49,0,0,0-.1-5.4,9.82,9.82,0,0,0-2.7-4.3c1.9,0,4.4,2.5,5.2,3.7,1,1.6,1.2,3.7,2.1,5.3a11,11,0,0,0,3.5,3.3C66.7,39,72.9,43.3,68.5,43.5Zm7-4.1a.37.37,0,0,0-.2.5,40.7,40.7,0,0,0-5.9-.6h0A7.55,7.55,0,0,0,68,38.2a30.29,30.29,0,0,0,8,1.1A4.33,4.33,0,0,0,75.5,39.4ZM89,44.1a14.08,14.08,0,0,0-4.9-2c-1.3-.3-2.5-.4-3.8-.6-.4-.1-1.3-.2-2.1-.4h1.4a44.8,44.8,0,0,0,9.6-1.6A23,23,0,0,0,89,44.1Zm.3-5.5a64.42,64.42,0,0,1-9.8,1.5h-.8a10.76,10.76,0,0,0,2.9-1.3,66.77,66.77,0,0,0,8-1.3C89.5,37.9,89.4,38.3,89.3,38.6Zm20.6,8.9c3.4.7,7,4.2,7.2,7.8-4.2-.2-9.2-3.2-11.8-6.1a13,13,0,0,1-2.1-3.1C105.3,46.9,107.6,47,109.9,47.5Zm-8.7-1.9a18.56,18.56,0,0,0,7.2,8,.76.76,0,0,0,.4.2c-2.6-.7-5.3-1.5-7.9-2.4-1.9-.6-3.7-1.4-5.7-2s-4.6-1.3-5.2-3.6a.76.76,0,0,0,.2-.5c.3-3.3-.9-8.1,3.1-9a14.08,14.08,0,0,0,2,.1C98.6,37.5,100,43.2,101.2,45.6Zm-1.1-6.1a8.34,8.34,0,0,0-.8-1.2,24.45,24.45,0,0,0,6,.6.35.35,0,0,0,.1.2,7.55,7.55,0,0,0,2.3,1.3A47.81,47.81,0,0,0,100.1,39.5Zm14,2c-.9-.2-1.8-.3-2.6-.5.5,0,.9.1,1.4.1.9,0,1.9,0,2.9-.1,1.6,1.6,5.2.9,8.1-.1a33.48,33.48,0,0,0,5.5.1,2.77,2.77,0,0,0,.9-.1,1.52,1.52,0,0,0-.6,1v.2a.1.1,0,0,0-.1.1.35.35,0,0,1-.2-.1C124.2,42.1,119,42.4,114.1,41.5Zm37.5,28c-3.3,0-6.7-1.7-9.5-3.2a27,27,0,0,1-8.1-6.1,39.21,39.21,0,0,1-5.5-9.5,8.11,8.11,0,0,1-.3-6.3c.3-.7,1.3-1.2,2.1-1.7.1,0,.3-.1.3-.2a9.27,9.27,0,0,0,2.8,1.9c3.1,1.8,6.8,3.4,9,6.4a16,16,0,0,0,2.5,2.7c1.6,1.5,2.6,3.4,3.9,5.2a25.75,25.75,0,0,1,4.1,8.7C152.8,68.7,152.3,69.5,151.6,69.5Zm-4.5-20.2c2.6,2.8,4.8,5.7,5.8,9.4a25.71,25.71,0,0,1,.4,6.3,24.57,24.57,0,0,0-1.9-4,35.66,35.66,0,0,0-6.4-8.6c-1.2-1.2-2.1-2.7-3.3-3.9a17.37,17.37,0,0,0-3.6-2.4c-.6-.3-5.5-3-6.8-3.9.1-.1.2-.1.2-.2a.6.6,0,0,0,.1-.4,9.65,9.65,0,0,0,1.3-1.1c2.4-1.7,5.1-.7,7,1a4.35,4.35,0,0,0,.7.6,10.56,10.56,0,0,0,1.7,2.3,4.13,4.13,0,0,0,1.1.7C144.6,46.5,145.8,48,147.1,49.3Zm-2.3-5c-.2-.1-.5-.1-.7-.2a33.85,33.85,0,0,0-3.1-3.4c-.8-1.3-1.5-2.5-2.8-3.1,4.8-1.8,9.6-3.3,13.8-6.6,5-4,8.7-9.3,7.3-15.8,4.3.7,5.3,7.8,5.4,11.2.1,5.1-3,10-6.6,13.3C154.6,42.7,149.4,45.3,144.8,44.3Zm23.9-3.2a34.28,34.28,0,0,1-4.9,3.6,17.17,17.17,0,0,1-7,1.7,18.88,18.88,0,0,1-6.7-.2,5,5,0,0,1-1.3-.5c4.2-.5,8.3-3.2,11.3-6.3,2.2.8,5.4.1,7.7,0,1.3,0,2.5.4,3.7.5A4.74,4.74,0,0,0,168.7,41.1Z" transform="translate(-0.42 -1)"/></svg>