<?xml version="1.0" encoding="utf-8"?>
<!-- Generator: Adobe Illustrator 21.0.0, SVG Export Plug-In . SVG Version: 6.00 Build 0)  -->
<svg version="1.1" id="Calque_1" xmlns="http://www.w3.org/2000/svg" xmlns:xlink="http://www.w3.org/1999/xlink" x="0px" y="0px"
	 viewBox="0 0 595.3 841.9" style="enable-background:new 0 0 595.3 841.9;" xml:space="preserve">
<style type="text/css">
	.st0{fill:#231F20;}
</style>
<path class="st0" d="M339.1,497.4c-2.6-0.7-6.4,3.2-8.4,4.6c-3.3,2.3-6.8,5.8-8.7,9.6c0-1.7,0-3.4-0.1-5c0.2-0.1,0.3-0.3,0.4-0.6
	c0-0.1,0-0.1,0-0.2c0.9-1.8,1-4,1.4-5.9c0.7-3.2,1.3-6.4,1.7-9.6c0.4-2.9,0.8-5.9,1.1-8.8c0.3-2.4-0.2-4.9,0.2-7.3
	c0.7-1.3,1.3-2.6,1.8-3.9c1.2-2.8,1.7-5.9,2.2-8.9c0.5-3.3,1.6-6.7,1.4-10c0-0.3-0.4-0.5-0.6-0.2c-1.6,1.9-2.3,4.7-3.2,7
	c-1.1,3-2.1,6-3.2,9c-0.1-2.3-0.3-5.4-1.8-6.9c-0.1-0.1-0.2-0.1-0.3-0.1c-1.4,0.5-0.9,4-1,5.1c-0.3,2.4-0.6,4.8-0.9,7.2
	c-0.1,0.9-0.2,1.9-0.3,3c-0.1-2.2-0.2-4.4-0.3-6.7c-0.1-2.8-0.7-5.6-1.4-8.4c-0.4-1.5-1-3-1.1-4.5c0.1-0.1,0.1-0.2,0.1-0.4l0,0
	c0,0,0,0,0.1,0s0.3-0.1,0.3-0.3c-0.1-0.7,1.2-2.8,1.5-3.5c0.5-1.4,0.8-3,1-4.5c0.4-2.8,0.4-5.6,0.2-8.4c-0.3-4.4-1.3-8.8-3.1-12.9
	c-0.5-1.2-2.3-5.8-4.4-4.5c-0.9,0.5-0.9,2.5-1.1,3.4c-0.3,1.8-0.4,3.5-0.5,5.3c-0.3-0.8-0.6-1.6-0.9-2.4c-0.2-0.5-0.6-1.3-0.9-1.9
	c0.1-0.1,0.2-0.2,0.2-0.6c0.2-2.2,1.3-4.1,2.2-6c2-3.8,4.8-7.1,7.4-10.5s4.9-7.1,7.7-10.3c0.6-0.7,2.2-2.5,0.8-3.3
	c-1.2-0.7-4.1,1.6-5,2.2c-2.8,1.9-5,4.4-7,7c-3.7,5-6.5,11.4-7,17.7c-0.4-2.5-1-5-1.4-7.5c-0.5-2.6-1-5.1-1.7-7.7
	c-0.8-3-1.7-6.1-2.6-9.1c0.1,0,0.2,0,0.3-0.1c0.2,0,0.4-0.2,0.4-0.4c0-0.3,0-0.5,0-0.8l0.1-0.1c0.6-4.1,1-7.9,0.3-12
	c-0.3-2-0.6-5.4-2.3-7c2.6-0.6,5.6-2.7,6.9-3.5c2.8-1.9,5.3-4.4,7.9-6.6c2-1.7,3.8-3.8,5.9-5.4c0.9-0.7,1.3-1.3,1.3-2.5
	c0-0.2-0.1-0.3-0.3-0.3c-2.8-0.2-5.2,1.1-7.5,2.5c-3,1.7-5.9,3.5-8.9,5.1c-2.7,1.4-5.7,3.2-7.4,5.9c-0.9-2.3-1.6-4.6-2-7
	c0,0,0-0.1-0.1-0.1c-0.1-4-0.4-7.9-0.6-11.9c0.9,0.5,2.1,0.6,3,0.4c2.2-0.6,3.5-1.7,4.5-3.7c1.5-2.8,0.9-6.1,2.7-8.8
	c1-1.5,2.5-2.7,3.7-4c0.8-0.9,1.3-1.9,2.2-2.6c0.1-0.1,0-0.3-0.2-0.3c-0.1,0-0.2,0.1-0.2,0.1c0-0.1-0.1-0.1-0.2-0.1
	c-4.5,0.8-9.2,3.8-12.5,6.9c-0.1,0-0.1,0.1-0.2,0.2c0.6-3.8-0.3-7.6-2-11c-1.1-2.3-3.2,1.9-3.5,2.5c-1,1.8-2,3.9-2.4,5.9
	c-0.5,2-0.3,4.2-0.3,6.2c0,1.1,0.2,2.6,0.8,3.8c-3-1.4-5.7-3.2-8.5-4.9c-3.3-2-9.2-7.4-13.5-5.1c-0.3,0.2-0.4,0.6-0.1,0.8
	c0.8,0.7,1.6,1.1,2.6,1.6c1.5,0.6,2.7,2,4,3c2.3,1.8,4,4,6.7,5.4c2.8,1.4,7.3,4,10.8,3.2c0,3.6,1.3,20.7,1.7,22
	c-3.5-3.5-7.3-6.5-12.1-8c-2.9-0.9-6.1-1.9-8.7-3.3c-1.3-0.7-2.8-1.1-3.8-2.2c-0.3-0.3-0.5-0.4-0.9-0.4c-0.2,0-0.3,0.1-0.4,0.3
	c-1.1,3.6,4.7,8.1,7.4,9.4c1.4,0.7,2.9,0.8,4.4,1.2c1.8,0.5,3.4,1.2,5.1,1.9c2.9,1,5.7,2.1,8.7,2.1l0,0c0,3.1-0.5,6.5,0.2,9.5
	c0.1,0.5,0.3,1,0.5,1.5c-0.6-0.3-1.4-0.2-2.2,0.2c-1.5,0.7-1.4,2-1,3.5c0.9,2.6,2.1,4.9,4.2,6.6c1.3,1.1,2.4,1.1,3.6,0.9
	c-0.6,3.9,2.2,8.4,3.1,12c1.2,4.9,1.4,9.9,2.5,14.8c-0.1,0-0.1-0.1-0.2-0.1c-3.3-5.1-7.5-10-12-14c-2.4-2.1-4.9-3.9-7.6-5.7
	c-2.1-1.4-3.8-3.2-6.4-2.5c-0.1,0-0.3,0.2-0.2,0.3c0.8,6.3,5.3,12.9,11.1,15.6c1.7,0.8,3.4,1.3,5,2.3s3.1,1.9,4.8,2.6
	c1,0.4,2,0.8,3,1.3c0.5,0.4,1.1,0.7,1.7,1c0.4,0.2,0.7,0.5,1,0.7l0.1,0.1c0.1,0.2,0.3,0.2,0.4,0.1c1.7,8.9,6.4,17.2,7.4,26.3
	c-0.1-0.1-0.1-0.1-0.2-0.2c-1.1-1.1-2.1-2.1-3.2-3.2c-1.9-1.7-4.5-3.7-6.8-4.5c-2.5-0.9-4.9-2.2-7.4-2.9c-1.2-0.4-0.9,1.9-0.8,2.3
	c0.2,1.8,2.2,3.2,3.4,4.3c2.2,2,3.3,4.9,5.8,6.6c2.7,1.9,6.9,3.2,9.9,1.5c0.2,1.4,0.7,2.8,1.1,4.3c0.7,2.7,0.6,5.6,0.6,8.3
	c0,3.9,0.4,8,0.9,11.9c-2.9-4.3-6.1-8.4-9.8-12c-2.2-2.1-4.7-3.9-7-5.9c-1.6-1.3-3.2-2.4-5.3-2.5c-0.4,0-0.5,0.5-0.2,0.8
	c1.3,1,1.8,2.3,2.9,3.4c1.3,1.3,2.3,2.8,3.3,4.3c1.6,2.5,3.3,4.8,5.2,7.1c2.4,2.9,6.4,8.1,10.7,8c0,0.6,0.1,1.2,0.1,1.4
	c0.1,2.8,0.4,5.6,0.5,8.4c0,2.2,0.2,4.4,0.2,6.6c0,0.5,0,1,0,1.5c-0.1-0.2-0.1-0.3-0.2-0.3c-0.9-1.4-1.4-3-2.5-4.3
	c-2-2.5-6.6-5.3-9.7-5.8c-0.3,0-0.5,0.1-0.5,0.4c-0.1,1.9,1.1,3.3,1.9,4.8c1.5,2.7,3.4,5.2,5.4,7.5c0.8,0.9,3.9,2.5,6.1,2.6
	c-0.2,2.8,0.3,5.6,0.1,8.4c-0.6,1.6-1,3.3-1.2,5c-0.1,0.6-0.2,1.5-0.3,2.3c-1-1.6-2.4-2.8-4.2-4.4c-1.8-1.5-4.7-5.5-7.4-5.2
	c-0.1,0-0.2,0.1-0.2,0.2c-0.2,0.5-0.3,0.9,0.2,1.2c1.8,1.2,3.4,3,4.9,4.6c2.5,2.6,4.6,6.3,7.5,8.3c0.1,0.1,0.2,0.1,0.3,0
	c-1.1,6.7,0.8,13.8,0.5,20.5c0,0.2,0.1,0.4,0.3,0.5c0.5,1.5,3,0.5,2.5-1.7c-1.4-6.2-1.1-12.6-1.3-19h0.1c1.6-1,2.5-2.8,3.6-4.3
	c1.9-2.5,3.2-5.4,4.6-8.3c2.8-5.8,7.6-10.8,9.2-17.2C339.5,497.8,339.3,497.5,339.1,497.4z M311.9,415.3c1.1-2.9,2.5-5.8,4-8.5
	c1.4-2.6,3.4-4.9,5.5-6.9c1.2-1.2,2.6-2.2,4.1-3.1c0.3-0.2,0.6-0.4,1-0.6c1.5-0.8,2.2,0,1.2,1.3c-3.5,4.7-7,9.4-10.4,14.1
	c-1.8,2.4-3.5,4.7-4.9,7.3c-0.6,1.1-1.1,2.3-1.6,3.4c-0.1,0.2-0.3,1.2-0.5,2C310.6,421.2,310.8,418.3,311.9,415.3z M283.3,371
	c-2.8-0.8-5.1-1.2-7.4-3.3c-0.6-0.6-1.1-1.2-1.7-1.8c-0.4-0.5-0.8-1-1.2-1.5c-0.1-0.2-0.2-0.4-0.4-0.6c-0.4-0.6-0.6-1.2-0.6-1.9
	c0.1,0.1,0.1,0.1,0.2,0.1c0.3,0.9,1.2,1.3,2.1,1.8c2.8,1.5,5.2,3.4,8,5c2.9,1.6,6.3,2.1,9,3.9c0.9,0.6,1.8,1.4,2.8,2
	C290.4,373.9,286.9,372.1,283.3,371z M291,372c-2-1.3-4.6-1.7-6.8-2.7c-2.3-1-4.5-2.5-6.6-3.9c-0.9-0.6-2.4-1.2-3.6-2
	c2.8,1.7,6.2,2.6,9.3,3.7c2.4,0.9,4.6,1.8,6.8,3.1c2.3,1.3,4.1,2.9,5.9,4.8C294.2,374.7,292.5,373,291,372z M301.3,419.4
	c-1.8-2-3.7-4.3-5.8-6c-0.7-0.6-1.1-0.6-2-1.1c-1.1-0.6-1.7-1.7-2.8-2.2c-1.8-0.8-3-2.3-4.9-3c0,0-0.1,0,0,0.1
	c1.8,1.2,4.2,2.6,5.8,4.1c0.8,0.8,1.2,1.3,2.3,1.8c1.6,0.8,2.4,2,3.6,3.4c1.7,2.1,3.4,4.4,5.5,6.1c0.2,0.2,0.4,0.4,0.7,0.6
	c-0.1-0.1-0.2-0.1-0.4-0.2c-1.4-0.6-2.7-1.1-4-1.9c-1-0.6-1.9-1.5-3-1.9c-3-1.2-5.6-2.2-8-4.5c-2.1-2-3.6-4.5-4.8-7.1
	c-0.5-0.9-3.1-6.3,1.4-4c1.3,0.7,2.6,1.7,3.8,2.5c2.6,1.7,5,3.7,7.4,5.7c2.4,2.1,4.6,4.5,6.4,7c1.2,1.8,2.6,3.4,3.9,5.1
	C304.4,422.5,302.6,420.8,301.3,419.4z M317.7,524.2c-1.2-1-2.1-2.2-3.1-3.3c-1.1-1.3-2.2-2.5-3.5-3.7c-0.8-0.8-1.9-2.2-3-2.6
	c-0.7-0.3-0.5-0.3,0.8-0.1c0.9,0.6,1.8,1.4,2.6,2.1c1,1,1.9,2,3,3c2.1,1.9,3.4,3.6,4.4,5.9C318.5,525,318.1,524.6,317.7,524.2z
	 M319.5,524.2c-0.4-1.4-0.1-3,0-4.4c0.1-0.5,0.2-1,0.4-1.5C319.8,520.3,319.6,522.3,319.5,524.2z M325.1,487.3
	c-0.5,3.6-1,7.1-1.6,10.7c-0.3,1.5-0.5,3.3-0.9,5c-0.1-1.7-0.5-3.6-0.4-4.7c0.1-5,0-10.5-1.1-15.4c1.3-1.1,2.3-2.3,3.1-3.8
	c0.6-1.1,1.2-2.2,1.8-3.4c0,0.8,0.1,1.6,0.2,2.3C326.4,481.1,325.5,484.3,325.1,487.3z M321.2,478.3c0.5-1.4,0.5-3.1,0.7-4.6
	c0.3-1.8,0.5-3.6,0.8-5.3c0.2-2,0.4-4,0.4-5.9c0.2-0.1,0.5-0.1,0.7-0.2c0.2,0.6,0.4,1.2,0.5,1.9c0.3,1.2,0.4,2.5,0.5,3.8
	c0,0.1,0,0.1,0.1,0.2c-0.1,0.2-0.2,0.4-0.2,0.7c-1.2,3.3-2.2,6.5-3.5,9.8C321.2,478.4,321.2,478.4,321.2,478.3L321.2,478.3z
	 M321.4,479.3c0.5-0.9,0.9-1.7,1-2c1.1-2.8,2-5.6,3-8.5s2.1-5.7,3-8.6c0.5-1.7,1.3-3.2,2.1-4.8c0.5-1,0.6-1.9,1-2.8
	c-0.2,2.5-1,5-1.4,7.5c-0.4,3-1,6-2,8.9c-0.8,2.6-2.5,5-3.8,7.4c-0.9,1.7-2.9,5.1-4.5,6.3C319.8,482.3,321,480.1,321.4,479.3z
	 M313,425.9c0.2-1,0.5-4.9,2-3.6c1.9,1.6,2.8,4.9,3.6,7.2c1.5,4.4,2.1,9.1,2.1,13.8c0,2.8-0.5,5.5-1.3,8.1c-0.3,1.1-1,2.1-1.4,3.1
	c-0.5-2.8-0.3-5.6-0.7-8.4c0.6-1.9,0.1-5.1-0.2-6.8c-0.5-2.6-1.3-5.1-1.6-7.8c-0.2-2.4-0.2-4.8-0.4-7.1c0-0.1-0.1-0.3-0.3-0.3
	c-0.1,0-0.2,0-0.3,0.1c-0.1,0-0.2,0.1-0.2,0.3c0.1,0.2,0.1,0.4,0.2,0.6l0,0c0,0.1,0,0.2,0,0.3c0.1,1,0.1,2,0.1,3.1
	c0.1,2.1,0.2,4.1,0.5,6.1c0.5,2.9,1.6,6.1,1.6,9.2c-0.6-2.5-1.6-5-2.4-7.5c-0.5-1.7-1.2-3.3-1.8-5
	C312.7,429.5,312.7,427.7,313,425.9z M304.5,385.4c0.6,3.3,0.1,6.4,0,9.7c-0.3-0.8-0.8-1.5-1.4-2.2c-0.6-2.3-0.8-4.9-1.1-6.9
	c-0.6-3.4-1.9-6.6-2.6-10l0,0c0.5,1.1,1.4,1.4,2.5,1.4c0,0.1,0,0.1,0.1,0.2C303.8,379.6,304.1,382.7,304.5,385.4z M311.5,365.3
	c2.4-1.4,4.8-2.8,7.3-4.2c0.3-0.2,6.8-2.7,4.9-0.4c-0.7,0.9-2,1.7-2.9,2.6c-1,1.1-18.6,17.4-20.7,12.1c0.9-0.2,1.5-0.7,2.2-1.4
	c1.7-1.6,3.8-2.9,5.9-4.1c1.5-0.9,3-1.9,4.4-3c1.5-1.2,3.2-1.9,4.6-3.1c0,0,0-0.1-0.1-0.1c-1.3,0.9-2.8,1.5-4.2,2.3
	c-1.5,0.8-2.8,2.1-4.2,3c-1.6,1-3.3,1.9-4.8,3c-1.2,0.9-2.5,2.5-3.9,3C301.1,370,307.4,367.7,311.5,365.3z M298.6,367.9
	c0.4,1.7,1,3.4,1.6,4.9c0,0.1,0.1,0.1,0.1,0.1c-0.3,0.5-0.5,1.1-0.7,1.7c-0.2-0.4-0.5-0.8-0.6-1.3
	C298.5,371.6,298.6,369.7,298.6,367.9z M303.2,340.5c2.7-2.3,6-3.4,9.1-5c-0.3,0.3-0.6,0.7-1.1,1.2c-1.2,1.4-2.9,2.6-3.9,4.1
	c-2.6,4-1,11.3-7.2,12.1c-4.4,0.5-1.8-6-0.9-7.8C300.2,343.3,301.7,341.8,303.2,340.5z M293.7,343.1c0-3,0.5-5.3,1.8-8
	c0.4-0.9,0.9-1.8,1.4-2.7c1.1-2.1,2.2,1,2.4,1.9c0.3,1.2,0.9,2.4,1.2,3.6c0.3,1.1,0,2.5,0,3.7c0,0.2,0.1,0.2,0.3,0.2
	c-2,2-4.1,5.4-4.2,8.4c-0.4-0.2-0.8-0.4-1.3-0.6c-0.2-0.1-0.3-0.1-0.4-0.2C293.6,347.7,293.6,344.5,293.7,343.1z M289.5,350.7
	c-2.5-1.3-5.2-2-7.4-3.9c-1.6-1.4-3.1-3-4.8-4.5c-1.4-1.3-3.1-1.9-4.5-3c3.7-0.9,8.9,3.9,11.6,5.4c2,1.2,3.9,2.4,6,3.5
	c0.6,0.3,2.3,0.9,3.8,1.6c0.6,0.8,1.4,1.4,2.4,1.5l0,0v0.1c-0.1,0-0.2,0-0.3,0C294.4,352.6,291.4,351.7,289.5,350.7z M295.8,352.8
	c0.4-0.1,0.7-0.2,1-0.4c0,0,0,0,0.1,0c0,0.1,0.1,0.1,0.1,0.2c0.1,0.2,0.2,0.4,0.4,0.5c-0.2,4.4,0.4,8.8,0.5,13.2c0,2,0,3.9,0.2,5.9
	c0.1,0.9,0.4,1.6,0.6,2.3c0.3,3.9,1.9,7.7,2.6,11.5c0.3,1.7,0.4,3.6,0.7,5.5c-0.2-0.2-0.4-0.4-0.6-0.6c-1.5-5.2-2.9-10.5-3.7-15.9
	c0.2-0.1,0.3-0.2,0.2-0.4C297.7,373.9,296.5,356.3,295.8,352.8z M297.5,377.8c0.3,2.6,1,5.1,1.6,7.5c0.3,1.4,0.7,2.7,1.1,4
	c-1.3-1.8-2.2-3.7-2.4-6.1C297.7,381.5,297.6,379.7,297.5,377.8z M301.2,397c-2.1-0.3-3.6-2.5-4.6-4.2c-0.1-0.2-0.9-2.3-1.1-2.7
	c-0.5-1.3,0.6-4.1,2.9-1.7c0.6,1,1.3,2,2.1,2.9c0.1,0.1,2.9,3,3.1,4.7c0.1,0.5-0.3,1-0.8,1.1C302.3,397.1,301.8,397.1,301.2,397z
	 M306,453.2c-1.3-1.2-2.4-2.8-3.5-4.2c-1.4-1.8-4.1-3-4.4-5.6c-0.1-1.2,4,0.9,4.1,1c1.7,0.9,3.5,1.2,5.1,2.3c3,2.1,6.2,4.2,8.6,7
	c0,0.2,0,0.4,0,0.7c-3.1-0.6-5.9-1.7-8.6-3.4c-3.1-1.9-5.3-4.6-7.7-7.2h-0.1c2.9,5.5,10,10.9,16.4,11.6
	C313.1,457.5,308.4,455.4,306,453.2z M313,438.8c-1-2.8-2.1-5.6-2.7-8.5c-0.4-1.8-1.2-3.5-1.6-5.4c0,0,0-0.1-0.1-0.1
	c-1.1-4.6-1.3-9.5-2.4-14.2c-0.5-2.2-1.2-4.2-1.9-6.3c-0.8-2.2-1.2-4.3-1.7-6.6c0.3-0.1,0.6-0.1,0.9-0.2c0.3,2.2,1.8,6.7,1.9,7.3
	c0.6,2.2,1.1,4.4,1.6,6.6c0.9,4.2,2,8.7,2.3,13c-0.2,0-0.4,0.3-0.2,0.5c0.1,0.1,0.2,0.3,0.3,0.4c0,0.1,0,0.2,0,0.3
	c0,0.2,0.2,0.3,0.4,0.3c1,1.8,1.5,4.2,2.2,6.1c0.9,2.4,1.7,4.8,2.5,7.3c0.7,2.4,1.5,4.7,1.9,7.2l0,0c0,0.1,0,0.2,0.1,0.3
	c0.1,0.4,0.2,0.9,0.2,1.3c0.2,1.9,0.1,3.7,0.3,5.6c0-0.1-0.1-0.1-0.1-0.2C316.5,448.5,314.7,443.6,313,438.8z M318.5,483.2
	c0,0.6-3-1-3.4-1.3c-2.7-1.8-5-4.5-7-7c-2.2-2.7-4-5.7-6-8.5c-1.1-1.5-2.4-3.3-3.9-4.6c2,0.6,3.7,2.2,5.3,3.5c2,1.6,4,3.2,5.8,5
	c3.7,3.6,6.7,7.8,9.7,11.9C319,482.1,318.6,482.6,318.5,483.2z M318.9,469.1c-0.1-2.2,0-4.3-0.3-6.5s-1.2-4.2-1.6-6.4
	c0.2-0.1,0.3-0.3,0.5-0.4l0,0c0,0.5,0.2,1.1,0.2,1.5c0.6,3.5,1.8,6.8,2.1,10.4c0.2,2.7,0,5.3,0.3,8c0,0.1,0.2,1.1,0.3,2.2
	c0,0.1,0,0.1,0,0.2c-0.1,0.2,0,0.4,0.1,0.4c0.1,0.4,0.1,0.8,0.1,1.2c-0.3,0.5-0.6,1.1-0.9,1.7c0-0.2,0-0.3,0-0.5
	C320,477.1,319,473,318.9,469.1z M315.2,504.3c-1.6-1.3-3.1-3.5-4.3-5.2c-1.1-1.4-2-3.1-2.9-4.7c-0.4-0.5-0.5-1.1-0.5-1.8
	c0.6,0.3,1.2,0.5,1.8,0.8c1.1,0.5,2.2,1.2,3.3,1.8c2.3,1.5,4,3.1,5.2,5.6c0.5,1.1,1.1,2.2,1.7,3.2c0,0.6,0.1,1.1,0.3,1.7
	C317.9,505.7,315.7,504.7,315.2,504.3z M320.2,495.1c-0.1-2.1-0.1-4.1-0.3-6.2c-0.1-1.1-0.2-2.1-0.2-3.2c0,0.4,0-1.1-0.1-1.7
	c0-0.1,0.1-0.1,0.1-0.2c0,0,0.1,0,0.2-0.1c0.3-0.2,0.6-0.4,0.8-0.6c-0.6,3.8,0.7,8.2,0.8,12c0,2-0.2,4,0,5.9c0.1,1.2,0.6,3.1,0,4.2
	l0,0l0,0l-0.1,0.1c-0.3-0.3-0.6-0.9-0.9-1.4C320.2,501.1,320.3,498.1,320.2,495.1z M322,546.5c0.4,0.9,0.2,1.3-0.7,1.2
	c0.1-3.4-0.5-6.8-0.6-10.2c-0.1-3.3,0.1-6.9-0.4-10.2c0-0.1,0.1-0.2,0.1-0.3c0-3.4,0.1-6.9,0.5-10.3c0.3-3.3-0.3-6.4-0.3-9.6
	c0.3,0,0.6-0.1,0.8-0.3c-0.1,3-0.1,6.1-0.2,9.1c-0.1,3.8-0.4,7.6,0,11.4l0,0c-0.1,3.5-0.2,7.1,0,10.6c0.1,2,0.3,3.9,0.5,5.9
	c0.1,0.7,0,1.4,0.2,2.1C322,546.2,322,546.3,322,546.5z M336.5,502.8c-2.3,4.4-5.3,8.4-7.5,12.8c-1,2-1.9,4-3.1,5.9
	c-0.8,1.3-2.4,3.8-3.8,5c-0.4-4.3-0.2-8.6-0.1-12.9c0.1,0,0.3-0.1,0.3-0.3c1.6-4.4,6-8.4,9.7-11c1.3-0.9,2.5-1.8,3.8-2.7
	c0.1-0.1,2.6-1.5,2.5-1C337.9,500.1,337.1,501.5,336.5,502.8z"/>
<path class="st0" d="M378.9,502.9c1.3-2.7,3.3-4.9,4.7-7.5c0.2-0.5,0.7-1.7,0-2.1c-1.4-0.8-4.1,3.2-4.7,4.2
	c-1.7,2.9-3.6,5.6-5.6,8.3c-0.9,1.1-1.8,2.2-2.6,3.4c-0.5,0.6-0.7,1.4-1,2.1c-0.2-3.1,0.2-6.2,0.2-9.3l0,0c0.7-1.3,0.9-2.7,0.1-3.8
	c4.7-3.7,5.6-12.7,2.7-17.7c0,0,0,0-0.1-0.1c1.1-0.7,2.2-1.4,3.2-2c2.5-1.5,3.8-5,5.5-7.1c1.1-1.3,2.8-4.2,2.5-6
	c0-0.1-0.2-0.3-0.3-0.3c-1.2-0.3-2.4,0.3-3.5,0.7c-1.9,0.7-4.2,1.1-5.9,2.2c-0.1-0.1-0.1-0.1-0.2-0.2c-1.3-1.5-3.1-4.5-5.4-4.7
	c0-0.1,0-0.2-0.1-0.2c1.2-0.6,1.5-1.9,1.3-3.3s-0.8-3.7-1.8-4.8c0-0.9,0-1.9-0.1-2.8c2.4,1.3,6.9,2.4,8,2c2-0.8,0.2-3.1-0.8-4.2
	c1.6-0.3,3.5-1.7,4.5-2.5c1.7-1.3,4.5-2.8,3.8-5.4c-0.5-1.9-4.7,0.2-5.5,0.5c-1.9,0.6-3.6,1.5-5.2,2.6c-1.2,0.8-2.3,2.2-3.4,3.1
	c-0.4,0.2-0.8,0.5-1.2,0.7c0.5-3-0.2-6.4-1.4-9.1c-1.1-2.5-3.1-5.8-6.3-5.7c-0.2,0-0.4,0.2-0.4,0.4c-0.2,3.7,0.7,7.5,2.4,10.8
	c0.3,0.6,0.9,1.5,1.5,2.4c0,0,0,0-0.1,0c-1.3-0.8-2.6-1.4-3.9-2c-1.8-0.8-4.2-1.6-5.9-0.3c-0.1,0.1-0.3,0.3-0.2,0.5
	c0.9,2.1,3.6,3.2,5.5,3.9c0.2,0.1,0.4,0.2,0.6,0.2c0,0.1-0.1,0.1-0.1,0.2c0.1,1.4,0.4,2.5,1.3,3.6c1.2,1.5,1.9,3.4,2.7,5.1
	c0.6,1.5,1.4,3.8,3.1,4.3c-2.6,1.6-1.4,5.3,0,7.4c0.1,0.1,0.2,0.2,0.3,0.4c-0.2,1.4-0.1,2.8,0,4.2c-0.1,0.2-0.1,0.3-0.2,0.5
	c-0.1,0.7-0.3,1.4-0.4,2.1c-0.1,0.6-0.7,1.9-0.3,2.5c-1.3-0.9-3.2-1.4-4.5-1.7c-2.2-0.6-5.1,0.4-7-0.8c-0.7-0.4-1.1-0.3-1.9-0.5
	c-1.6-0.2-3.3-1.1-4.8-1.6c-0.2-0.1-0.4,0.2-0.4,0.4c0.2,1.2,1.3,1.8,2.3,2.4c1.9,1.1,3.7,2.3,5.8,3.1c3.1,1.3,8.9,4.1,12,1.6
	c0.1,0,0.3,0,0.4,0c-0.5,4.8,0.1,9.9,0.3,14.7c-1.2-0.6-3-0.2-4.1,0.5c0-1.4-1.4-2.5-2-3.7c-1-2-3.3-3-4.3-5
	c-0.1-0.2-0.3-0.2-0.5-0.1c-1.2,1-0.2,2.8,0.4,3.9c1.3,2.5,3.3,5.4,3.6,8.2c0,0.2,0.2,0.3,0.3,0.3c-0.1,0.4-0.1,0.7-0.2,1.2
	c-0.3,1.7-1.2,3.8-0.3,5.5c0.4,0.7,1.3,0.5,1.8,0.1c0.4-0.3,0.7-0.6,1.1-0.9c0.1,1.1,0.7,2.2,1.5,3.1c0.5,0.6,1.1,1.3,1.7,1.7
	c1.5,0.9,1.4,3,1.4,4.5c0,2.8-0.9,6.4-0.2,9.4c-0.3-0.4-0.5-0.9-0.7-1.2c-0.8-1.3-1.8-2.2-2.9-3.2c-2.3-2-4.6-3.8-7.1-5.4
	c-1.3-0.8-2.5-2.3-3.2-3.7c-0.3-0.6-0.6-0.5-1.2-0.6c-0.2,0-0.3,0.2-0.3,0.3c0,4.5,2,8.4,5.3,11.5c1.3,1.2,2.8,2.8,4.6,3.3
	c1.1,0.3,2.4,1,3.4,1.1c0.8,0.1,1.3,0,2-0.1c-0.1,0.9-0.1,1.9,0.1,2.8c0.3,2.2,0.4,4.2,0.4,6.3c0,1.9,0.3,3.8,0.4,5.6
	c0.1,1.9,0.7,3.9,0.7,5.8c0,0.3,0.2,0.4,0.4,0.5c0.1,0.1,0.2,0.1,0.3,0.1h0.9c0.2,0,0.4-0.2,0.4-0.4c-0.1-3.8-0.6-7.6-0.7-11.4
	c-0.1-3.1-0.3-6.3-0.8-9.4c0.5,0.1,1.1,0.3,1.4,0.2c1.1-0.2,2-0.4,2.9-1c2.1-1.3,3.4-4.2,4.5-6.3c1.4-2.5,3.2-6.5,2.3-9.4
	c-1.1-3.4-5.8,2.4-6.5,3.3c-2.3,2.9-4.3,5.9-5.1,9.4c0.1-3.6,0.4-7.3,0.1-10.9l0,0C374.9,511.7,376.9,507.1,378.9,502.9z
	 M360.3,524.2c-3.4-2.9-6-6.4-6.5-11c0-0.1,1.3,1.3,1.4,1.4c0.3,0.5,0.5,0.7,0.9,1.2c1.3,1.4,3.3,2.2,4.8,3.4
	c1.5,1.2,2.9,2.4,4.3,3.7c1.4,1.2,2.2,2.8,3.2,4.3C365.4,526.9,362.7,526.2,360.3,524.2z M373.2,490.7c-0.2,1.5-0.7,3-1.3,4.4
	c-0.5,1.1-1.4,1.9-2.2,2.7c0,0-0.1-0.1-0.2-0.1c-1-5.1,0.3-10.4-0.3-15.5c0,0,0.1-0.1,0.1-0.2c0.2,0.1,0.8-0.1,0.9-0.2
	c0.6-0.3,1.2-0.6,1.8-1c0,0,0,0,0,0.1C373.7,483.9,373.6,487.4,373.2,490.7z M374.9,478.1c-0.8,0.5-1.6,0.9-2.4,1.4
	c-0.6,0.4-2.4,2-3.1,2.1c0-1.2,0.1-2.5,0.1-3.7c0.5-0.8,0.7-1.9,1.2-2.7c0.3-0.5,0.9-1.2,1.1-1.8c1.7,0.7,3.5,2.2,5.5,2
	c0.1,0,0.1,0,0.1,0C376.8,476.4,376,477.4,374.9,478.1z M369.5,472.3c0.6,0.3,1.1,0.6,1.7,0.8c-0.3,0.7-0.9,1.3-1.3,1.9
	c-0.3-0.5-0.4-1.1-0.4-1.6l0,0C369.5,473.2,369.5,472.8,369.5,472.3z M378.5,467.2c0.9-0.3,1.8-0.7,2.7-1c0,0,2.3-1.1,1.5,0.6
	c-1.3,2.7-2.7,5.2-4.5,7.7c-0.1,0.2-0.3,0.4-0.4,0.5v-0.1c-0.4-2.4-1.6-4.5-3.1-6.4C375.8,467.8,377.2,467.7,378.5,467.2z
	 M368.3,461.8c-0.2-1.4,0-3-0.2-4.4c-0.1-0.4-0.1-0.8-0.1-1.3C368.7,458.1,370.1,460.6,368.3,461.8z M380.9,441.9
	c2.4-0.7,0.9,2.2-0.1,3c-0.5,0.4-0.6,0.5-1.2,0.9c-1,0.9-3.6,2.9-5.3,2.8c-0.7-0.6-1.4-1.1-2.3-1.5c-0.5-0.2-1.2-0.1-1.8,0.2
	C373.3,444.6,376.9,443.1,380.9,441.9z M367.3,450.2l0.1-0.1h0.1c1.4-0.6,3.6-2.6,5.2-1.3c0.6,0.4,4.5,4.1,1.6,4.2
	C373.7,453,366.9,450.7,367.3,450.2z M367.5,451.5c-0.2,0.7-0.3,1.4-0.3,2.1c-0.2-1-0.7-2-1.5-2.7c0.3-0.1,0.5-0.2,0.8-0.3
	C366.7,450.9,367.1,451.2,367.5,451.5z M362.1,442.2c-0.4-1.2-0.7-2.3-1-3.5c-0.4-1.6-0.9-5.4,1.8-3.1c3.4,2.8,5,9.1,4.1,13.4
	C364.6,447.1,363.2,445.1,362.1,442.2z M357.3,447.4c-0.7-0.3-3.8-2.1-1.2-2.3c1.9-0.1,3.9,1,5.5,1.8c1,0.5,2.2,1,3.3,1.6
	c0.4,0.4,0.9,0.7,1.4,0.8c0.1,0.1,0.2,0.1,0.3,0.2c-2.2,1.2-4.2,0-6.4-0.8C359.2,448.3,358.3,447.9,357.3,447.4z M364,456.8
	c-1-2.3-3.2-4.5-3.3-7c1.5,0.6,3.2,1.3,4.6,1.1c0.9,1.9,1.4,3.4,1.4,5.6c0,1.8,0.4,3.7,0.4,5.5C365.4,461.3,364.6,458.4,364,456.8z
	 M367.3,463.6c0.2,0.1,0.4,0.1,0.6-0.1c0.1,0.1,0.1,0.1,0.2,0.1c2,0,4,3.4,5.2,4.7c0.1,0.2,0.3,0.3,0.4,0.5c0,0,0,0,0,0.1
	c1.4,1.6,2.6,3.6,3,5.8c-1.3-0.1-2.4-0.9-3.5-1.5c-1.3-0.7-2.6-1.1-3.8-1.9v-0.1c0,0,0,0-0.1,0h-0.1c-0.2-0.1-0.4-0.3-0.6-0.4
	C366.8,469.2,365.3,465.2,367.3,463.6z M355.2,480c-1.4-0.6-2.6-1.4-3.9-2.1c-0.6-0.3-3.9-2.4-1.5-1.5s5,1.9,7.6,1.8
	c2.4-0.1,8.9,0.3,9.9,3.4c0,0.1,0.1,0.1,0.1,0.1C364.9,484.4,358,481.2,355.2,480z M367.7,481.4c-0.2-0.6-0.7-1.1-1.2-1.4h0.1
	c0.5-0.5,0.5-2,0.7-2.8c0.1-0.3,0.1-0.6,0.2-1C367.6,477.9,367.8,479.6,367.7,481.4z M368.4,482.4v-0.1c0-0.1,0-0.2,0-0.4v-0.1
	c0.5-0.8,0.1-2-0.1-2.8c-0.4-1.6-0.4-3.2-0.5-4.8c0-0.2,0.1-0.4,0-0.6l0,0c0-0.9-0.1-1.9-0.2-2.8c0.3,0.4,0.8,0.7,1.2,1
	c-0.1,0.7,0,1.4,0.1,2c0.2,2.7-0.2,5.4-0.2,8.1c0,0.3,0.2,0.4,0.4,0.4c-0.2,1.5-0.3,3-0.3,4.5C368.6,485.3,368.5,483.8,368.4,482.4z
	 M358.3,492.3c-0.2-0.4-1.4-3.1-0.3-2c0.6,0.6,1.2,1.2,1.9,1.8c1.7,1.6,2.9,4,4.1,6c-0.1,0-0.2,0.1-0.2,0.1
	c-0.9,0.7-1.3,1.4-1.7,2.3C361.5,497.6,359.7,494.8,358.3,492.3z M363,507.4c-1.3-0.1-1.7-0.6-1.2-1.8c0.1-0.7,0.3-1.3,0.4-2
	c0.2-1.2,0.3-2.3,0.8-3.4c0.6-1.3,3.8-3.3,5.5-2.3c0,0.1,0,0.1,0,0.2c0,0.3,0.3,0.4,0.5,0.3l0,0c0,0.1,0.1,0.1,0.2,0.1l0,0
	c0,0.1,0.1,0.1,0.2,0.1C371.7,501.3,364.5,505.9,363,507.4z M366.6,510.7c-1-0.9-1.7-2.2-2.2-3.4c0.6-0.5,1.1-0.9,1.7-1.4
	c0.4,2.1,1.7,3.8,2,5.9C367.6,511.4,367,511.1,366.6,510.7z M368.2,509.9c-0.6-1.4-1.3-2.8-1.5-4.4c0-0.1,0-0.1-0.1-0.1
	c0.6-0.5,1.1-0.9,1.7-1.4C368.1,506,368.1,508,368.2,509.9z M368.7,512.3L368.7,512.3c0-2.9,0.1-5.9-0.1-8.8
	c0.3-0.3,0.6-0.6,0.8-0.9c-0.2,3.3-0.7,6.5-0.3,9.8c0,0.2,0.2,0.3,0.4,0.3l0,0c0,0.1,0,0.1,0.1,0.2c-0.1,0.6-0.1,1.1-0.2,1.7
	C369.4,513.9,369.2,513,368.7,512.3z M377.9,512.8c0.8-1.2,1.8-1.3,2.9-0.3c0.1,0.5,0,1.2-0.1,1.7c-0.1,0.8-0.3,1.6-0.5,2.4
	c-0.7,2.6-2.2,5-3.7,7.3c-1,1.6-2.1,2.8-4,3.4c-0.9,0.2-1.7-0.3-2.4-0.4C370.6,521.5,374.1,516.6,377.9,512.8z M370.1,528
	c0.1,0,0.1,0,0.2,0c-0.4,3.4,0.3,7,0.4,10.4c0,1.8,0,3.5,0.2,5.3c0.1,0.7,0.7,3.6,0.2,4.5c0-0.9-0.2-1.8-0.4-2.8
	c-0.4-2-0.3-4.1-0.5-6.1s-0.1-4-0.2-6c-0.1-1.8-0.7-3.4-0.4-5.2c0,0,0,0,0.1,0c0.1,0.1,0.1,0.1,0.2,0.1
	C370,528.2,370.1,528.1,370.1,528z M370,512.4L370,512.4c0.8-1.4,1.2-2.8,2.2-4.1c1.2-1.4,2.4-2.9,3.5-4.4c2.1-2.8,3.5-6,5.9-8.4
	c0.4-0.4,0.8-0.8,1.3-1.2c0.1-0.1-1,2.5-1.3,2.9c-1.3,1.8-2.4,3.5-3.4,5.4c-0.9,1.8-1.7,3.6-2.8,5.3c-0.6,0.9-1.2,1.7-1.9,2.4
	c-0.3,0.3-3.2,2.2-3.2,2.6c0-0.2-0.1-0.3-0.3-0.3C370.1,512.5,370.1,512.4,370,512.4z"/>
<path class="st0" d="M275.5,393.8c1.1-3.9-1.9-8.5-5.9-8.9c-0.5-2.7-4.2-6.2-6.1-3c-0.1,0.2,0.1,0.5,0.4,0.5c0.1,0,0.2,0,0.2,0
	c-0.2,0,0.1,0.3,0.2,0.4c0.3,0.4,0.5,1,0.5,1.5c0.1,0.4,0,0.6-0.2,0.9c-0.1,0-0.2,0-0.3,0c-1.8,1.5-2.9,3.9-3.6,6.1
	c-0.9,2.7,0.6,4,1.9,6.1l0,0c0.2,0.3,0.4,0.7,0.6,0.9c0.2,0.2,0.6,0.5,1,0.8c0,0.1-0.1,0.1,0,0.2c0.1,1.4,0.1,3,0.7,4.3
	c0.5,1,1.5,1.3,2.6,1.3c-0.1,1.9-0.5,3.9-0.5,5.5c0,1.7-0.1,3.3-0.1,5c0,0.6-0.1,1.2-0.1,1.7l-0.1-0.1c-1-1.3-1.8-2.8-2.6-4.2
	c-1.3-2.2-3.1-5.1-5.9-5c-0.2,0-0.3,0.2-0.4,0.4c-0.9,2.8,3.7,6.2,5.3,8.1c0.4,0.5,2.9,3.4,4.3,3.7c-0.7,0.8-1.2,2.1-1.5,3
	c-0.7-1.8-2.2-2.7-3.9-3.6c-1.1-0.6-1.7-0.4-1.8,0.8c-0.5,3.4-0.6,6.5,0.3,9.9c0.9,3.3,3,4.8,5.8,6.5c-0.6,5.8-0.8,11.6-1.6,17.4
	v0.4c-0.3-0.4-0.7-0.8-0.8-0.9c-1.3-1.7-2.5-3-4.3-4.2c-2-1.3-5.4-2-7.6-0.6c-0.3,0.2-0.1,0.5,0.1,0.6c1.4,0.4,2.9,0.4,4.3,0.7
	c2.2,0.5,3.6,1.7,4.8,3.4c1.1,1.5,2.1,3.2,3.9,3.8c-0.6,0.6-1.1,1.2-1.5,2c0,0.1-0.1,0.1-0.1,0.2c-1.5-2.6-7.9-8.7-9.1-6.1
	c-0.2,0.5,0.2,1.2,0.3,1.7c0.6,2.1,1.1,4.1,1.7,6.2c0.8,2.8,2.4,6.7,4.9,8.5c0,0.2,0,0.4,0,0.7c0,1.1,0.1,5.1,1.7,5.8
	c0,0.3,0.2,0.7,0.2,1c0.3,1.8-0.4,4.2-0.5,6c-0.3,3.6-1.1,7.1-1.5,10.6c-0.1,1-2.8-2.3-2.6-2c-1.1-1.5-2-3.1-2.9-4.8
	c-1.8-3.2-3.6-6.3-5.5-9.4c-0.1-0.1-0.2-0.1-0.3-0.1h-0.1c-0.1,0-0.2,0.1-0.3,0.2c-0.4,1.7,0.1,2.9,0.8,4.5c1,2.3,1.8,4.6,3,6.8
	c1.4,2.5,4.2,6.9,7.6,6.4c0.1,0,0.1,0,0.2,0h0.1c0.1,0,0.1,0,0.2-0.1c-2.1,1.4-5.5,9.5-5.8,10.4c-1.5,5-2.6,12.6,0.7,17.1
	c-0.4,1.4-0.3,2.9-0.7,4.4c-0.7,2.6-1.5,5.1-2.5,7.6c-0.8,2-1.7,4-2.4,6c-0.9,2.5-1.4,5-2.4,7.5c0,0.1,0,0.2,0,0.3
	c1,1.2,1.6,1.1,1.8,0.6c0.1,0,0.1-0.1,0.1-0.2c1.8-4.8,2.7-9.8,5-14.4c1-2.1,1.6-4.3,2.2-6.5c0.4-1.4,0.5-3.2,0.9-4.8
	c3.7-1,5.5-4.3,6.3-7.8c0.1,0,0.2-0.1,0.2-0.1c2.5-2.4,3.2-5.9,4.2-9c1-3.2,1.8-7.3,0.8-10.6c-0.1-0.2-0.3-0.2-0.4-0.1
	c-1.3,1-2,2.6-2.8,4c-0.8,1.4-1.7,2.8-2.3,4.2c-0.1-0.3-0.1-0.6-0.2-0.9c-0.3-1.6-0.3-4.6-1.1-6.5c0.9,0,2.1-0.8,2.7-1.2
	c2.2-1.5,4-3.6,4.8-6.2c1-3.4,1.8-6.9,2-10.4c0.1-1,0.8-4.1-0.3-5c-1-0.8-3,1.9-3.4,2.3c-1.6,1.7-3,3.3-3.9,5.3
	c0-0.2-0.1-0.3-0.3-0.3c0-1.7,0.1-3.7,0.5-4.5c1.7-0.3,2.9-1,4.1-2.4c1.6-2,3.5-3.3,4.2-5.9c0.7-2.7,0.5-5.9,0-8.6
	c-0.2-1.2-0.7-2.4-0.9-3.6c-0.3-1.2-0.2-2.4-0.8-3.5c-0.1-0.3-0.5-0.4-0.8-0.2c-1.1,0.8-2.2,1.7-3.2,2.7c0.3-0.4,0.5-0.9,0.8-1.3
	c1.1-1.5,1.7-3.1,2.4-4.8c0.6-1.7,0.7-3.5,1-5.2c0.3-1.6,0.6-3.1,0.4-4.7c0-0.3-0.3-0.4-0.5-0.2c-1.3,0.9-2.2,2.2-3.1,3.6
	c-0.6,1-1,2.4-1.5,3.5c0.2-2.3,0.8-4.5,0.5-6.8c2.8,0.2,4.9-4.6,5.5-6.6c0.7-2,0-4.2-0.7-6.1c-0.5-1.3-1.1-2.5-1.5-3.8
	c-0.2-0.7-0.5-1.8-1.1-2.4c-0.2-0.2-0.4-0.3-0.6-0.4c0.2-0.1,0.3-0.2,0.3-0.4c0,0.2,1.9-0.9,2.2-1.2c1.2-1.1,1.9-2.5,2.4-4
	c1-2.9,1.4-6.6,0.8-9.7c-0.5-2.9-2.9-2.9-4.6-1.8c0.4-1.1,0.5-2.3,0.5-3.5c0-0.1,0-0.2-0.1-0.2c0.2-0.1,0.4-0.2,0.6-0.3
	C273.5,397.2,274.9,395.9,275.5,393.8z M253.3,487.1c-0.7-1.4-1.3-2.8-1.9-4.2c-0.4-0.9-2.4-6.3-0.6-3.2c1.8,3.1,3.7,6.1,5.4,9.3
	c1.1,1.9,2.4,4,4,5.6C257.2,494.3,254.4,489.3,253.3,487.1z M265.4,513.1c0.4-2.7-0.1-5.8-0.6-8.6c0.7-1.3,2.7-5,3.1-5.6
	c0.2-0.3,1.9-3.4,2.1-1.6c0.1,1.3-0.2,2.8-0.3,4.1c-0.2,2.4-1.1,4.7-1.8,7.1c-0.6,1.8-1.3,3.7-2.5,5.2
	C265.3,513.6,265.3,513.3,265.4,513.1z M264.7,386.4L264.7,386.4c0-0.1,0-0.2,0-0.3V386c0.1-0.3,0.2-0.5,0.4-0.8
	c0.2-0.3,0.2-0.7,0.2-1.1c0-0.8-0.5-1.6-0.9-2.3c1.5-1.5,3.7,1.2,4.2,3.1c-0.1,0-0.2,0-0.3,0c-0.1-0.2-0.2-0.3-0.4-0.2
	c-2,0.3-3,3-3.2,6c-0.1-0.2-0.2-0.5-0.4-0.7c-0.1-0.1-0.3-0.2-0.4-0.1l0,0C264.1,388.7,264.6,387.6,264.7,386.4z M268.1,389.7
	c0.2,1.2,0.6,2.5,1,3.6c0.2,0.3,0.3,0.7,0.4,1.1c0,0.1,0,0.3,0.1,0.4c0.4,1.4-1,2.8-2.3,3.4l0,0c-0.1-0.1-0.3,0-0.3,0.2
	c-0.1,0-0.1,0.1-0.2,0.1c-1.5-1.6-1.5-7.2-1.3-8.5c0.1-0.6,1-4.2,2-4.3C267.3,385.6,268.1,389.4,268.1,389.7z M268.8,388.2
	c0.1,0.1,0.1,0.1,0.1,0.2c0.8,0.7,1.5,1.2,2,2.2c0.4,0.9,0.6,2.6-0.4,3.2c-0.2-0.6-0.5-1.1-0.7-1.5
	C269.4,390.8,269.1,389.5,268.8,388.2z M261.9,395.2c-0.7-1.2-1-2.3-0.5-4s1.4-3.5,2.6-4.8c-0.2,1.3-0.8,2.5-1,3.8
	c0,0.1,0,0.1,0,0.2C261.8,391.5,261.7,393.6,261.9,395.2z M263.5,397.6c-0.6-0.7-0.8-1.7-0.9-2.6c-0.1-0.9,0-1.8,0.2-2.6
	c0.2-0.8,1-2.4,1.4-0.8c0.1,0.3,0.4,0.2,0.5,0.1c-0.1,2.8,0.5,5.7,1.5,7.1l-0.1,0.1c-0.1-0.1-0.3-0.1-0.5-0.2
	c-0.2-0.1-0.4,0-0.4,0.2C264.5,398.6,263.7,397.9,263.5,397.6z M265.2,402.4c-0.2-1-0.2-2-0.3-3c0.3,0.1,0.5,0.1,0.7,0
	c1.3,1.1,1.7,2.9,1.7,4.8C266.2,404.2,265.5,403.7,265.2,402.4z M267.7,415.4c0-2.5,0.1-5,0.3-7.5c0.1-1.1,0.2-2.1,0.2-3.1
	c0-0.1,0-0.2,0-0.3c0-1.1-0.1-2.2-0.4-3.3c-0.2-1-0.3-1.4-0.5-1.7c0.1,0,0.2,0,0.3,0s0.2-0.1,0.2-0.2v-0.1c0.3,0.1,0.7,0,1.1-0.1
	c-0.2,0.2-0.3,0.5-0.4,0.6c-0.6,1.3-0.2,3,0,4.2c0,0.2,0,0.4,0,0.6c-0.1,0.3,0,0.6,0.1,0.8c0.2,4.3-1.2,8.5-0.6,12.8
	c-0.1-0.1-0.2-0.1-0.4-0.2C267.8,417.2,267.7,416.2,267.7,415.4z M269.8,399c0.1,0,0.2-0.1,0.2-0.2c0.1,0,0.2-0.1,0.3-0.1
	c0.1,1.6-0.1,3-0.8,4.3c-0.1,0.1-0.2,0.2-0.3,0.4C268.9,401.4,268.9,399.2,269.8,399z M265.2,417.3c-0.7-0.7-1.4-1.5-2-2.2
	c-1.6-1.7-4.2-3.7-4.6-6.1c-0.1-0.4,1.9,0.7,2,0.8c0.6,0.5,1.1,1.2,1.6,1.8c0.9,1.2,1.6,2.4,2.3,3.7c0.7,1.2,1.4,2.2,2.3,3
	c0.1,0.2,0.1,0.5,0.3,0.7c0.1,0.1,0.3,0.1,0.4,0c0-0.1,0-0.1,0.1-0.2l0,0c-0.1,0.1-0.1,0.1-0.1,0.2
	C267.4,419.4,265.4,417.5,265.2,417.3z M262.4,432.1c-1.3-2.2-1.6-4.9-1.7-7.3c0-0.8-0.1-4.9,0.9-4.4c1.9,0.9,3.1,1.9,4,3.7l0,0l0,0
	c-0.5,1.8-0.9,3.8-1,5.7c-0.1,1.8,0.6,3.7,1.3,5.5C264.6,434.4,263.3,433.6,262.4,432.1z M262.3,453.5c-0.7-1-1.4-2-2.3-2.7
	c-2-1.6-4.5-1.4-6.8-1.9c2.7-1.2,6,0.6,8,2.3c1.6,1.4,2.6,3.7,4.2,5.1C264.5,456,262.5,453.8,262.3,453.5z M256.3,457.1
	c-0.2-0.8-0.5-1.7-0.7-2.5c-0.5-1.9,2.4,0.2,2.6,0.3c1.7,1.1,4.3,2.9,4.7,5.2c0,0.1,0.1,0.2,0.2,0.3c-1.1,2.7-1.7,6-1.7,8.8
	C258.2,467,257.2,460.5,256.3,457.1z M257.9,523.9c-0.4,2.9-1.3,5.9-2.3,8.6c-1,2.6-2.3,5.1-3.2,7.8c-0.7,2.3-1.4,4.8-2.2,7.1
	c-0.1-0.1-0.3-0.2-0.5-0.2c0.6-1.3,1.3-4.9,1.4-5.3c0.8-2.4,1.9-4.6,2.8-6.9c1.5-3.6,3-7.7,3.1-11.6c0.1,0,0.2,0.1,0.3,0.1
	c0.2,0,0.4-0.1,0.6-0.1C257.9,523.5,257.9,523.7,257.9,523.9z M260.1,521.4c-2,1.1-2.3,0.6-2-1.2c0.2-1.5,0.3-3,0.5-4.5
	c0.3-3,1.1-6,1.6-9c0-0.3-0.4-0.3-0.4-0.1c-0.8,3-1.1,6-1.8,9c-0.5,2-0.8,4.3-1.1,6.4c0,0,0,0-0.1,0v0.1c-0.2-0.6-0.9-1.5-1-2
	c-0.6-1.4-0.5-3.4-0.6-4.9c-0.2-3.4,0.6-7.1,1.7-10.3c0.9-2.7,2.7-5.6,4.3-7.9c1.1-1.5,1.5,1.3,1.6,1.7c0.3,1.7,0.6,3.4,0.9,5.2
	C264.5,509.3,265.8,518.1,260.1,521.4z M268.4,477.4c0.8-0.8,4.2-4.7,3.8-1.4c-0.5,3.7-0.6,7.3-1.6,10.9c-0.6,2.5-1.6,4.7-3.5,6.5
	c-0.9,0.8-1.7,1.5-2.8,2c-1.9,0.9-1.1-1.1-0.9-1.9c0.4-1.9,0.7-3.9,1-5.9c0.2-1.4,0.2-2.8,0.4-4.2c0.1,0,0.3,0,0.4-0.2
	C265.6,481,266.8,479.1,268.4,477.4z M264.4,481.5c-0.8,2.9-0.3,6-0.8,9.1c-0.1,0.7-1.2,3.1-1.3,4.6c-0.2-0.1-0.4,0-0.7,0.1
	c0.2-0.1,0.2-0.4,0.1-0.5c1.3-3,1.4-7.2,1.7-10.4c0.1-0.8,0.7-6.8,0.3-8.1c0.2,0,0.4-0.1,0.6-0.2c0.1,0.2,0.2,0.3,0.4,0.3
	c0.1,0,0.2,0,0.3,0C264.6,477.9,264.4,479.7,264.4,481.5z M271.7,455.1c0.1,0.6,0.2,1.2,0.3,1.7c0.6,2.4,0.9,4.6,1.1,7
	c0.2,2.8-0.6,5.3-2.5,7.5c-0.6,0.6-1.2,1.2-1.8,1.9c-0.5,0.6-3.6,2.7-3.3,1.3c1.1-3.9,2.3-7.8,3.5-11.6
	C269.9,460.4,271.1,457.8,271.7,455.1z M271.2,453.1c-0.4,3.2-2,6.5-2.9,9.6c-1.2,4.1-2.9,8.1-3.7,12.3c0,0,0,0-0.1-0.1
	c-0.5-0.3-0.8,0.5-0.4,0.8c-3.4-2-1.3-9.8-0.7-12.9C264.3,458.9,267.9,455.4,271.2,453.1z M268.8,443.9c0.4-1,1-1.9,1.6-2.8
	c0.8-1.2,1.9-3.3,1.6-0.4c-0.3,2.7-0.8,5.8-1.7,8.3c-0.8,2.3-2.2,4.5-3.6,6.5c0,0,0-0.1,0-0.2c0-2.8,0.3-5.8,0.6-8.7
	C268.3,446,268.4,444.8,268.8,443.9z M266.9,446.3C266.9,446.3,266.8,446.4,266.9,446.3c-0.2,0.2-0.1,0.3-0.1,0.4
	c-0.4,2.9-0.8,5.8-0.8,8.7c0,0.4-0.2,0.2-0.3,0.5c-0.1-0.2-0.4-1.4-0.3-1.6c0.4-3.3,0.6-6.7,0.9-10c0.2-2,0.6-4.2,0.5-6.3
	c0,0.1,0.1,0.2,0.2,0.3c0.1,0.1,0.3,0.1,0.4,0.1C267.6,441.1,267.2,443.7,266.9,446.3z M271,424.1c0.6,2.1,1.6,3.8,1.9,6.1
	c0.2,2.1-2.9,8.4-5.5,7.4c-0.1-0.1-0.2,0-0.3,0c0-0.4-0.1-0.9-0.1-1.3v-0.1c-0.5-2.5-1.8-4.9-1.5-7.6c0.3-2.6,0.9-5.7,2.4-7.9
	C269.5,418.3,270.8,423.2,271,424.1z M271.7,402.8c3.2-2.2,2.6,5.2,2.6,6c-0.2,3.6-1.2,7.9-5,9.3c-0.2,0.1-0.3,0.3-0.3,0.5v0.1
	c-0.1,0-0.1-0.1-0.2-0.1c0.1-0.1,0.1-0.2,0.1-0.3c-0.5-3.8,0.9-7.3,0.8-11.1c0-0.3-0.1-0.9-0.2-1.6c0-0.1,0.1-0.1,0.1-0.2
	C269.9,404.4,270.8,403.5,271.7,402.8z M268.9,398.5c0.9-0.7,1.6-1.7,1.9-2.9c0.1-0.3,0.1-0.6,0-1c1.2-0.6,1.6-1.8,1.4-3.4
	c-0.1-1-0.6-1.9-1.3-2.7c-0.6-0.7-2.3-2.1-1.9-2.6c0.2,0.2,0.6,0.1,0.7-0.2c0.2,0,0.4,0,0.6,0.1c3.3,0.5,4.9,4.8,4.4,7.8
	C274.3,395.5,271.3,398.2,268.9,398.5z"/>
</svg>
