<svg id="Calque_1" data-name="Calque 1" xmlns="http://www.w3.org/2000/svg" viewBox="0 0 172.38 76.49"><defs><style>.cls-1{fill:#231f20;}</style></defs><title>illustration_vegetal</title><path class="cls-1" d="M173.4,17.53a.58.58,0,0,0-.6-.6,6.5,6.5,0,0,0-3.1.8c-2.4,1.1-4.5,2.5-6.9,3.5a35.72,35.72,0,0,0-8.5,4.8,2.65,2.65,0,0,0-.6.5,6.75,6.75,0,0,0,.2-1.4c.1-3.5-4-5.4-6.8-6.5-1.6-.6-3.3-1.1-4.9-1.6a29.53,29.53,0,0,0,5.7-12.3c1.1-5.9-6.2-2.4-8.8-1.2-6.2,2.6-13.1,7.6-13.8,14.9-.3,2.8.4,6.8,3.1,8.4.2.1.3.2.5.3-1.2,3.2.3,12-4.6,11.6-.2,0-.3.2-.2.4-3.9.7-7.9,1.3-11.8,2.2-2,.5-4,1-6,1.6a43.83,43.83,0,0,1-5.8,1.9.37.37,0,0,0,.1-.3v-1.4l.3-.3a.37.37,0,0,0,.1-.3c2.2.1,5.9.5,6.7-1.5,1.4-3.2-2-5.3-4.4-6.4-1.8-.8-3.7-1.4-5.5-2-2.9-1-5.7-3.7-8.2-5.4a14.54,14.54,0,0,0-6.2-2.8c-.9-.2-3.1-.4-3.7.8s0,2.2.7,3.2c1.3,2,2.7,3.9,4.1,5.8,0,.1.1.1.1.2-4.2-2.6-10.5-2.6-14.7-.8a5.37,5.37,0,0,0-3.7,4.6,6.2,6.2,0,0,0,1.4,3.2,13.3,13.3,0,0,1,1.4,1.9l.6.9c.1.3.3.5.4.8.9,2.3-2,3.4-2.2,3.5a42,42,0,0,1-6.2,3h-.2a40.17,40.17,0,0,0-4.8-.2h-.1c-1.3-1.1-1.2-4.8-2.7-5.9-2.4-1.8-4.5-1.4-6.7.4-1.8,1.5-2.2,4-2.3,6.3-2,.7-4.3.4-6.3.5s-4.2.2-6.3.2c-4.5,0-8.8-1-13.2-1.5-4.1-.5-8.3-.5-12.5-.9-1.5-.1-4.9-.4-5,2s2.2,2.8,4.1,2.8c4.7.1,9.3.6,13.9.6,4.3,0,8.7.4,13,.8a97.31,97.31,0,0,0,12.1.3,90,90,0,0,0,.1,10.4.64.64,0,0,0,.8.6c3.8-.9,7.6-1.7,11.4-2.8,2.9-.9,7.1-2.4,8.9-5,1.2-1.8,1.6-3.7.7-5.5a12.39,12.39,0,0,0,2.9-.6c1.8-.4,3.6-.8,5.4-1.1a8.18,8.18,0,0,0,2.5,2,8,8,0,0,0,8.4-1,8.34,8.34,0,0,0,2.4-3.1c2,.5,4-.4,5.9-1.3,1.4,1.5,3.4,3,5.1,1.6a3.25,3.25,0,0,0,1.1-2.8,19.16,19.16,0,0,0,3.2-.9c.4-.1.8-.2,1.1-.3a14.58,14.58,0,0,0,.7,1.9c.7,2.1-.6,3.4-1.6,5a9.32,9.32,0,0,0-1.6,5.1,9.73,9.73,0,0,0,5.3,8.4,14.44,14.44,0,0,0-1.4,6.7q0,.45.6.6c2.3.2,4.2-1,6.4-1.6a31,31,0,0,0,4-1.3,1.84,1.84,0,0,0,1.3.9,24.32,24.32,0,0,1,5.9,2.7c1.7,1,4.2,3.1,6.4,2.1,1.4-.7.8-3.5.7-4.6-.2-2.7.4-5.7-.8-8.3q1.95-1.35,3.6-2.7c2.1-1.7,5.5-5.2,3.8-8.3-2.3-4.3-7.3-2.4-10.6-5.2-1.2-1.9-2.4-3.8-5.1-3.5-1.6.1-3.1,1.5-4.3,3.1h0c-3.2-1.8-9.6,1.6-12-1.3,1.3-.3,2.6-.6,3.9-.8,4.2-.9,8.2-2.5,12.4-3.5a88.16,88.16,0,0,1,12.5-2.1,30,30,0,0,0,9.4-1.7c-.5,1.6-.6,3.5-.9,4.9a49.92,49.92,0,0,0-.6,11.6.54.54,0,0,0,.7.5c1.8-.5,3-1.8,4.3-2.9,0,6,1.9,11.1,7.1,14.5,4.1,2.7,4.7-5.5,4.9-7.7.4-3.7,2.3-7,2.4-10.8.1-3.1.3-6.2-.6-9.2-.7-2-2.1-2.5-4.1-2.4-1.3,0-2.9.6-3.1,1.9a18.48,18.48,0,0,0-2.4-.1,8.25,8.25,0,0,1-1.2-2.7,3.54,3.54,0,0,1,1.1-.3c.3-.1.7-.1,1-.2a.9.9,0,0,0,.5-.1V36c0,.2.2.5.4.5,1.8.5,3.6-.7,5-1.8l.3-.3c.3.9,1.5,1.6,2.3,2.1a8.59,8.59,0,0,0,8.5-.4C175.3,32.93,173.8,23.13,173.4,17.53ZM44.9,53.23c0,.8-.1,1.6-.1,2.4-6.7,0-13.3-.6-20-.9-3.4-.1-6.9-.2-10.4-.4-1.8-.1-3.6-.3-5.4-.4-1.1-.1-2.2-.1-3.3-.2H4.6c-2.5-1.1-.8-2.6,1.2-2.4,6.8.3,13.5,1,20.3,1.8a59.06,59.06,0,0,0,10.3.1c2.7-.2,5.9.3,8.5-.7Zm106.6-31.1c4,3.6-2.2,10.8-5.6,8.9a1.22,1.22,0,0,0-1.3-.1c-1.1,1.1-1.7,2.4-2.7,3.5-2.5,2.8-5.7-1.9-6.7-3.7a27.17,27.17,0,0,1-2.1-4.6h0c0-.1,0-.2-.1-.2a26.6,26.6,0,0,1-1.2-10.5c3.3,0,6.3,1.5,9.4,2.5C144.7,18.93,148.7,19.63,151.5,22.13Zm1.5,10.3-2.5.6a13.82,13.82,0,0,0-2.7.8c-.1-.1-.2-.1-.4-.1a22.26,22.26,0,0,0-4.3,1.6,10.37,10.37,0,0,1-1,.4c1.4-1,2.1-2.6,3.3-3.9,1.2.8,3,.2,4.3-.4a6,6,0,0,0,1.3-.9A2.45,2.45,0,0,0,153,32.43Zm-13.3,4c-1.1.2-2.3.4-3.5.5-2.7.3-5.3.8-7.9,1.3,2.5-3,1.4-6.9,2.4-10.6a2.2,2.2,0,0,0,1.4-.1,18.31,18.31,0,0,0,3.6,6.4A6.75,6.75,0,0,0,139.7,36.43Zm-12.2-11.8a8.18,8.18,0,0,1-1.4-4.8c-.1-2.7,1.2-5.4,2.7-7.6,2.9-4.4,8.4-7,13.2-8.8,1.1-.4,4.8-2.1,5,0,.1,1.6-.7,3.4-1.3,4.9-1.1,2.7-2.5,6.1-4.6,8.3a15.87,15.87,0,0,1-2-.7,19.22,19.22,0,0,0-7.8-1.7q-.45,0-.6.6a28.73,28.73,0,0,0,1.1,11.9C130.3,27.63,128.2,25.63,127.5,24.63Zm2,2.7c.2.1.4.1.6.2-1.4,3.8.3,8-3.3,11h-.1C129.3,36.33,128.4,29.93,129.5,27.33ZM71,47.53q2.1.15,2.4,1.8c-1.5.2-4,.9-6.1.7C68,49.33,70.1,47.63,71,47.53ZM60.4,62.33c-4.5,2.2-9.6,3-14.4,4.2-.2-3.3,0-6.5,0-9.8a.75.75,0,0,0,0-.9c0-3.3-.4-6.8,2-9.5,1.8-2,4.3-1.7,6.1,0,.8.8.9,2.3,1.1,3.4a3.47,3.47,0,0,0,1,1.9c0,.4.2.7.6.7,3,0,7.8-.2,9,3.3C66.9,58.93,62.8,61.13,60.4,62.33Zm5.7-8.7a5,5,0,0,0-2.7-1.8c.7-.1,8.5-1.1,10.3-1.4a6.47,6.47,0,0,0,.4,1.3,2.09,2.09,0,0,0,.4.6C73.1,52.13,66.6,53.43,66.1,53.63Zm15,.7a6.61,6.61,0,0,1-5.3-2.2c-1.3-1.4-1.2-3.7-2.4-5.2a1.72,1.72,0,0,0-2.7-.4c1.7-3-4.9-6.7-3-10.2,2.6-4.6,12.2-3.2,15.9-1.1C90.3,38.93,89.9,53.53,81.1,54.33Zm7.2-4a10.66,10.66,0,0,0,.7-1.9,9.4,9.4,0,0,0,3.6-1.1l.3.6a5.5,5.5,0,0,0,.7.9A12.42,12.42,0,0,1,88.3,50.33Zm.6-10c.3.5.6,1,.9,1.6.8,1.6,1.6,3.3,2.4,4.9a11.47,11.47,0,0,1-3.1,1.1A15,15,0,0,0,88.9,40.33Zm10.2,1.3v2.7c0,.1.1,1.5.1,2,0,1.2.2,2.8-.6,3.8-1,1.2-2.4.1-3.5-1.1a15.2,15.2,0,0,1-1.9-2.7c-1.3-2.3-2.3-4.9-3.7-7.2-2.1-3.3-4.4-6.8-6.8-9.9-.7-.9-3.4-3.8-.8-3.9,1.9-.1,3.7.9,5.2,1.8,3.4,2,6.4,5.5,10.1,6.7,2.7.9,6.9,1.7,8.7,4.2,2.5,3.4-4.6,2.6-6.2,2.7A1.15,1.15,0,0,0,99.1,41.63ZM130,76.23c-.3,1.9-6.4-2-7.1-2.4-1.1-.6-2.3-1.1-3.4-1.6a10.56,10.56,0,0,1-1.9-.6c1-.4,2-.8,2.9-1.2a71.72,71.72,0,0,0,8.9-5c.7,1.7.5,3.8.5,5.6S130.3,74.53,130,76.23Zm-12.3-26.3c1-1.5,3.7-4.6,6-3.6a5.77,5.77,0,0,1,2.4,2.5.47.47,0,0,0,.1.6c2.2,1.9,5,1.9,7.7,2.6,7.2,2-.2,8.8-2.9,10.8a83.21,83.21,0,0,1-11.1,6.6,46.63,46.63,0,0,1-7.4,2.7c-1.7.6-3.6,1.5-5.5,1.5,0-3,1.4-5.7,2.6-8.5s2.8-5.6,4.2-8.4A66.13,66.13,0,0,1,117.7,49.93Zm-12-1.7a5.3,5.3,0,0,0,2.8.7c2.7.1,5.8-1.2,8.4.1-.4.6-.8,1.2-1.1,1.7-2.4,3.8-4.2,8-6.2,12l-1.8,3.6a14.28,14.28,0,0,1-3.9-4.2,7.85,7.85,0,0,1,.5-7.7C105.8,52.13,106.5,50.33,105.7,48.23Zm38.1-10.5c-3.4,1.6-7.3,1.6-11,1.9a71.92,71.92,0,0,0-11.1,2c-5.5,1.3-11,2.9-16.4,4.6,0-.1-.1-.1-.1-.2s-.2-.2-.3-.2h-.4c-.3,0-.5.5-.2.6-1.3.4-2.7.9-4,1.3a13,13,0,0,0,.3-2.6c.1,0,3.9-1.1,6-1.7a134.26,134.26,0,0,1,14.3-3c5.2-.8,10.3-1.9,15.4-2.5A37.51,37.51,0,0,0,142,37a25.54,25.54,0,0,0,3.5-1.4,4.9,4.9,0,0,0-1.1,2A1.08,1.08,0,0,0,143.8,37.73Zm13.8.4a2.56,2.56,0,0,1,2.6,1.9,17.74,17.74,0,0,1,.5,6.5,32.72,32.72,0,0,1-.7,6.2c-.5,2.2-1.6,4.4-1.8,6.6a36.53,36.53,0,0,1-.7,4.6,9,9,0,0,1-.8,2.3c-.7,1.3-2.6-.7-3.1-1.1-3.9-3.5-4.9-7.4-5-12.6a.52.52,0,0,0-.2-.4c.3-.2.7-.5,1-.7a15.32,15.32,0,0,0,5.7-5.3c.9-1.3,2.2-4,1.1-5.5a3.4,3.4,0,0,0-1.7-1.3C154.8,38,156.7,38,157.6,38.13Zm-6.1,2.1c2.1-.1,4.4.5,3.7,3.3-.4,1.7-2.3,3.9-3.5,5s-2.9,1.7-4.2,2.8a19.54,19.54,0,0,1-4,3.1,49.23,49.23,0,0,1,1.3-14.8,11.72,11.72,0,0,1,1.2-3.1c1.3-2.4,3.2-1.2,3.9.6a7.25,7.25,0,0,0,1.2,2.5C150.9,39.93,151.1,40.23,151.5,40.23Zm-.4-4.9a5.64,5.64,0,0,0-1.2.4,6.07,6.07,0,0,0-.7-1,2.51,2.51,0,0,0-.7-.4c.7-.1,1.5-.3,2.2-.4,1.3-.3,2.6-.5,3.9-.9a3.53,3.53,0,0,0-1.7,1.5.9.9,0,0,0-.1.5A5.08,5.08,0,0,0,151.1,35.33Zm6.8-1.4c-1,.8-2.5,1.9-3.9,1.8-1.1-.4,1.6-2.3,2.6-2.8a21.52,21.52,0,0,1,2.7-1,1.85,1.85,0,0,1,.7-.2Zm14.5-13.5c.1,1.3.1,2.6.1,3.9,0,5.1-1.2,11.8-7.5,12.1a7.77,7.77,0,0,1-4.2-1.1,2,2,0,0,1-1.1-1.8,4.85,4.85,0,0,0,1.5-2.8c0-.4-.4-.6-.8-.4-1,.5-2,.9-3,1.3a9.4,9.4,0,0,1-4.1,0c-1-.4-1.7-1.2-1-2.4.2-.2.3-.4.5-.6a15.71,15.71,0,0,1,2.4-2.1,32.06,32.06,0,0,1,7-3.9,45.24,45.24,0,0,0,4.7-1.8c1.8-1.1,3.6-2.6,5.8-2.6C172,18.13,172.4,19.83,172.4,20.43Z" transform="translate(-1.5 -1.41)"/></svg>