<?xml version="1.0" encoding="utf-8"?>
<!-- Generator: Adobe Illustrator 21.0.0, SVG Export Plug-In . SVG Version: 6.00 Build 0)  -->
<svg version="1.1" id="Calque_1" xmlns="http://www.w3.org/2000/svg" xmlns:xlink="http://www.w3.org/1999/xlink" x="0px" y="0px"
	 viewBox="0 0 595.3 841.9" style="enable-background:new 0 0 595.3 841.9;" xml:space="preserve">
<style type="text/css">
	.st0{fill:#231F20;}
</style>
<g>
	<path class="st0" d="M283,488.5c-0.5-1.9-2.5-2.4-4.2-2.9c-1.4-0.3-2-2.3-2.9-3.3c-0.7-0.7-1.2-1-2.2-1c-0.3,0-0.3,0.4,0,0.4
		c2,0,2.7,2.9,4,4c0.6,0.5,1.4,0.6,2.1,0.9c1,0.5,1.7,1.2,2.2,2.2C282.3,489.4,283.1,489,283,488.5z"/>
	<path class="st0" d="M301.6,492.8c1.8-1.7,2.1-4.1,2-6.5c-0.1-1-0.3-1.9-0.8-2.7c-0.4-0.7-0.9-0.5-1.1-0.6l0,0
		c0.3,0,0.4-0.3,0.1-0.4c-0.1,0-0.1,0-0.1,0c0-0.3,0-0.6-0.1-0.8c-0.1-0.8-0.5-1-0.9-1.6c0,0-0.1-0.1-0.1,0c1-1.8,0.9-4.4,0.8-6.3
		c0-0.4-0.1-0.8-0.2-1.1c0.9-3.2,0.7-6.4-1.3-9.2c-0.9-1.2-2.1-2.8-3.3-1.7c-0.1-0.1-0.1-0.2-0.2-0.3c-0.6-1.2-1.1-3.1-2-4.2
		c-1-1.2-5-3-5.8-1.2c-0.7-0.8-1.7-1.2-2.9-1.2c-0.7-0.1-1.7,0.6-1.8,1.4c-0.2-0.2-0.3-0.3-0.5-0.4c0.9-2.2,1.8-3.7,2.1-6.1
		c0.3-2.7,0.4-5.6,0.2-8.4c0.3-0.4,0.6-0.7,0.9-1.1c0.2-0.2,0-0.7-0.3-0.5c-0.3,0.1-0.4,0.2-0.6,0.2c0-0.3,0-0.6,0-1
		c0-0.2,0-0.5,0-0.7l0,0c1-1.4,1.8-2.7,1.9-4.4c0-0.3-0.4-0.4-0.5-0.1c-0.7,1.4-1.7,2.6-2.8,3.8c0.3-1.1,0.1-2.3-0.1-3.4
		c-0.2-1-0.5-1.9-0.6-2.9c-0.4-2.6,0.2-4.2,1.7-6.2c1.6-2.1,3.7-3.9,4.9-6.3c1-2,1.5-4.4,1.7-6.7c0.8,2.2,1,4.5,0,6.7
		c-0.5,1.1-1.7,1.6-1.9,2.9c0,0.1,0.1,0.3,0.3,0.3c1.1,0.2,2.7-0.2,3.8-0.9c-1,1.2-2.3,2.1-3.8,2.7c-1.3,0.5-2.8,1-3,2.5
		c0,0.1,0.1,0.3,0.2,0.3c0.5,0.2,1,0.4,1.4,0.7c-0.7,0-1.3,0.2-2.2,0.9c-0.8,0.7-1.6,1.9-1.4,3l0.1,0.1c0.5-0.2,1-0.3,1.4-0.7
		c-0.5,0.4-1.1,1.1-1.5,1.7c-0.7,1.1-0.7,2.7,0.1,3.7l0,0c-0.5-2.1,0.2-3.7,1.6-5.2c0.5-0.5,0.6-0.4,0.6-0.9c0-0.1-0.2-0.1-0.2-0.1
		c-1.5,1.3-2.4,1.7-1.3-0.4s3-1.6,4.8-1.2c0.5,0.1,0.6-0.5,0.2-0.7c-0.2-0.1-4-1.1-2.2-2.3c0.8-0.5,1.8-0.8,2.6-1.2
		c1.8-0.8,3.2-2.6,4.1-4.2c0.1-0.1,0-0.2-0.1-0.3c0,0,0-0.1,0.1-0.1c0.1-0.4-0.5-0.6-0.6-0.2c-0.4,0.7-0.9,1.2-1.6,1.5
		c0.6-0.3-3.3,1.3-1.9-0.2c0.8-0.8,1.2-1.8,1.6-2.9c0.8-2.3-0.1-5-1-7.1c-0.1-0.3-0.6-0.3-0.6,0.1c-0.2,3.5-1.1,7.5-3.4,10.3
		c-1.5,1.7-2.8,3.4-4.2,5.2c-2.8,3.8,1.9,8.6-0.4,12.2c-0.1,0.2,0,0.4,0.1,0.5c-0.1,0.1-0.2,0.2-0.3,0.3c-1.2,1.5-1.9,3.3-2.6,5.1
		c-0.9,2.3-1.9,4.5-2.9,6.7c-0.9,1.9-1,4-1.8,5.9c0,0.1-0.1,0.1-0.1,0.2s-0.1,0.2-0.1,0.3c-0.8-0.8-1.7-1.4-2.6-1.4
		c-0.7,0-1.2,0.1-1.7,0.4c-1.4-2.4-1.4-5.1-1.3-7.8c0-1.1,0.1-2.1,0.2-3.2c0.6,0.1,1.8,0,1.8-0.7c0-0.1-0.1-0.2-0.1-0.2
		c-0.3-0.1-0.5,0.1-0.8,0.2s-0.6,0.1-0.9,0.1c0.1-2,0.3-4,0.6-5.9c0.2-1.7,0.5-3.4,0.9-5.2c0.5,0,0.9,0.2,1.4,0.3
		c0.2,0,0.3-0.1,0.2-0.3c-0.3-0.5-0.9-0.6-1.5-0.5c0.2-1.1,0.4-2.3,0.7-3.4c0,0.1,0.2,0.1,0.2,0l0.3-0.3c0.1-0.1,0-0.2-0.1-0.2
		c-0.2,0.1-0.3,0.1-0.4,0.3c0.3-1.4,0.6-2.9,1-4.3c0.1,0,0.2-0.1,0.2-0.2c0,0,0-0.1-0.1-0.1c0.3-1.1,0.5-2.2,0.8-3.2
		c0.5,0.4,1.2,0.4,1.8,0.2c0.1,0,0.1-0.2,0-0.2c-0.6-0.2-1.1-0.1-1.6-0.5c0-0.1,0-0.1,0.1-0.2c0.5-2,1-4,1.4-6.1
		c0.3-0.1,0.5-0.3,0.9-0.1c0.3,0.2,0.6-0.3,0.3-0.5c-0.5-0.3-0.4-0.9-0.7-1.3c0,0,0,0-0.1,0c0.6-2.4,1.2-4.9,2-7.2
		c0.7-2,0.4-5-2.5-4.4c-2.1,0.5-2.7,6.5-3.1,8c-0.5,2-0.8,4.1-1.2,6.2c-0.1,0.2-0.4,0.2-0.6,0.2c-0.4,0-1,0-1.4-0.2
		c-0.1,0-0.1,0.1-0.1,0.1l0,0c-0.2,0-0.3-0.1-0.5-0.1c-0.1,0-0.1,0.1-0.1,0.1c0.7,0.4,1.7,0.8,1.8,1.8c0,0.4-0.1,1.2,0.2,1.6
		c-0.6,2.9-1.3,5.9-1.8,8.8c0,0.1,0,0.1,0,0.2c-0.2-0.3-0.6-0.4-0.9-0.5c-0.1,0-0.1,0.1-0.1,0.1c0.3,0.3,0.6,0.7,0.8,1.1
		c-0.4,2.8-0.6,5.7-0.8,8.5c-0.5-0.5-1.2-0.7-1.9-0.7c0,0-0.1,0.1,0,0.1c0.4,0.2,0.9,0.4,1.3,0.6c0.3,0.2,0.4,0.3,0.4,0.6
		c0,0.2,0.1,0.3,0.1,0.5c0,0.1,0.1,0.1,0.1,0.1c-0.1,2.2-0.2,4.4-0.5,6.6c-0.1,0.6-0.1,1.3-0.2,1.9c-0.4-0.2-0.9,0-1.3,0.1
		c-0.1,0-0.1,0.1,0,0.1c0.4,0.1,0.8,0.4,1.3,0.4c-0.2,1.9-0.4,3.8-0.8,5.7c-0.2,1.2-0.4,2.5,0,3.7c-0.6,0.1-1.3,0.4-1.8,0.8
		c-1.3-1.2-2.2-2.5-3.9-3.2c-2.8-1.1-5.6-1.8-7.9-3.8c-2-1.7-3.8-3.8-5.6-5.7c-1.4-1.5-2.4-3.9-4.1-4.9c-1.8-1.1-3.4-2-5.6-1.9
		c-1.9,0.1-3.5,1.8-4.8,3c-2.3,2.2-3.7,4.8-5.5,7.3c-1.3,0.9-2.7,1.8-3.5,3.3c-0.1,0.2,0.1,0.3,0.2,0.3c1.6-0.2,3-2,4.1-3.6
		c1.6-1.1,2.8-2.6,4.2-4c2.6-2.5,5-3.4,8.1-1c2,1.6,1.3,4.7,2.4,6.9c1.8,3.4,2.7,7.1,4.6,10.5c0.5,0.9,1.1,1.7,1.8,2.5
		c-2.3,0.2-4.6,1.4-5.8,3.3l0,0c-1.7-0.1-3.3-0.4-4.9,0.3c-2.5,1.2-4.6,2-7.4,2.4c-2.3,0.3-5.9-0.8-7.3,1.7c-0.1,0.3,0,0.6,0.3,0.6
		c1.4,0,2.6-0.3,3.9-0.7c2.3-0.7,4.4-0.2,6.7,0c3,0.2,5.2-2.2,8-2.6c-0.2,1.3,0.3,2.5,0.9,3.7c-1.8,0.9-2.6,4.2-2.3,6.2
		c-1.1,0.6-1.5,1.8-1.5,3.1c0,1.5,1.5,2.2,2.2,3.2c0.5,0.7,1,1.5,1.4,2.3c-0.5,1.8-0.5,3.1,0.2,4.9c0.7,1.6,1.7,2.9,3,4
		c0.9,0.8,3.1,2.1,4.5,1.7c-0.4,2.2,1.1,3.6,3,4.9c1.2,0.8,3.1,1.7,4.8,1.7c-0.3,1.3,1.5,3,2.5,3.6c2,1.2,5.2,2.1,7.2,0.7
		c-0.1,1.7,1.6,2.6,3.2,3c1.7,0.4,4.5,1.1,5.8-0.5c1.1,1,3.2,2.5,4.4,1.5c2.8,1.3,6.6-0.4,8.2-2.8l0,0c2.7-0.8,4-4,5.1-6.4
		c1.2-0.7,2.3-1.6,3.1-2.6c1.2-1.4,2.4-3.7,2.6-5.6C301.9,494.6,302,493.7,301.6,492.8C301.7,492.9,301.7,492.9,301.6,492.8z
		 M227.1,449.7c-0.6,0.8-1.3,1.7-2.3,2.1c0.3-0.5,0.7-0.9,1.2-1.3C226.4,450.2,226.8,449.9,227.1,449.7
		C227.1,449.6,227.1,449.7,227.1,449.7z M225.5,471.1c0.8-0.6,1.9-0.7,2.9-0.7C227.4,470.7,226.5,471,225.5,471.1z M243.5,467.8
		c-2.7,0.2-4.8,2.3-7.5,2.7c-1.4,0.2-2.8-0.1-4.2-0.3c0.5-0.1,1-0.2,1.5-0.3c1.5-0.3,2.8-0.8,4.2-1.6c2.2-1.2,3.9-1.1,6.1-1
		C243.7,467.5,243.6,467.6,243.5,467.8z M301.2,483.4c-0.1,1.2-0.4,3.5-1.5,4.4c-0.2-1.5-0.7-3-1.6-4.1c0.5-0.4,0.9-1.2,1.2-2
		c0.5-0.3,0.9-0.8,1.2-1.3C301.2,480.9,301.2,482.6,301.2,483.4z M273.5,502.9c-1.2-1.4-2.7-2.4-2.1-4.7c0.1-0.6,0.3-1,0.3-1.5
		c1.1-1.2,1.9-3,2.3-4.5c0,0.1,0.1,0.1,0.1,0.2c0.9,1.2,2.8,2,4.7,2.1c0.2,0.8,0.2,1.8,0.3,2.5c0.1,1.3-0.1,2.6-0.2,3.9
		c0,0.2,0.3,0.2,0.4,0.1c0.6-1.4,0.6-2.9,0.5-4.4c0-0.7-0.2-1.3-0.3-2c1.3,0,2.6-0.4,3.3-1.3l0,0c0.7,0.6,1.9,1.1,2.5,1.2h0.1
		c0.5,4.1-2.4,11.1-6.9,10.2c-0.3-0.1-0.7,0-1,0.1c-1.6,0.2-2.5-0.2-3.4-1.2c0-0.1,0-0.1,0-0.2C274,502.9,273.7,502.8,273.5,502.9z
		 M250.5,487.3c-0.1,0-0.2,0-0.2,0c-1.7-1-3.1-2.1-3.7-4.3c-0.4-1.6-0.5-4.1,0.2-5.8c0.1,0.1,0.3,0.2,0.5,0.4
		c0.9,2.1,2.5,3.4,5.2,1.8l0.1-0.1c0.2,0.2,0.4,0.4,0.6,0.6c-1.6,0.6-2.3,2.7-2.7,4.3C250.1,485.2,250.2,486.3,250.5,487.3z
		 M257,462.8c0.7,0,1.4,0,2,0.1c1.4,0.2,2.5,0.8,3.5,1.8c0.6,0.6,0.9,1.4,1.2,2.1c0.8,2.6-2.9,0.6-3.3,0.4c-1.5-0.7-3.2-1.1-4.9-1
		C254.1,464.3,255.3,462.8,257,462.8z M262.6,469.2c0.3,0.1,0.6,0.1,0.9,0.1c0.5,0.4,0.9,1.1,1.3,1.5c0.9,0.9,1.5,1.8,1.8,3
		c0.3,1,0.4,2.2,0.2,3.1c-0.1,0-0.2,0.1-0.2,0.3v0.1c-0.3,0.7-0.9,1.2-1.8,1.4c-1.1-3.5-6.2-6.8-9.2-6.7c-0.3,0-0.3,0.5,0,0.5
		c2.4-0.1,4.1,1.1,5.7,2.7c0.8,0.7,1.9,2.1,2.5,3.5c-0.5,0.2-0.4,1,0.2,1c0,0,0,0,0.1,0c0.1,1.1-0.3,2-1.8,2.5
		c-2.6,0.9-7-1.7-8.7-3.5c-1.1-1.1-2.1-2.4-3-3.8c-1.7-2.8-0.2-5,2.1-6.7C256,466,259.3,468.2,262.6,469.2z M264.6,468.8
		c0-0.1,0-0.2,0-0.3c0.1-0.2,0.2-0.4,0.2-0.7c0.2-0.3,0.5-0.5,1-0.6c0.8-0.3,1.8-0.1,2.7-0.1c1.3,0.1,2.4,0.5,3.5,1c0,0,0,0,0,0.1
		s0.1,0.2,0.2,0l0,0c0.3,0.2,0.7,0.3,1,0.5c1,0.5,3,0.6,3.8,1.2c1.1,0.9,1.9,2.1,2.5,3.3c0.1,0.4,0.3,0.8,0.5,1.2
		c0.2,0.7,0.4,1.5,0.5,2.3c0.3,1.7-0.6,2.5-2.6,2.4c-0.5-0.3-0.9-0.7-1.6-0.9c-0.4-0.1-0.7-0.2-1-0.3c-0.1-0.1-0.2-0.1-0.3-0.1
		c-1.2-0.4-1.9-0.8-2.6-2.4c-0.9-2.3-0.6-3.5-2.9-4.8c-0.2-0.1-0.4,0.2-0.2,0.3c2.1,1.1,2.3,2.4,2.7,4.5c0.1,0.6,0.3,1.5,0.8,2
		c0.6,0.5,0.9,0.7,1.7,0.9c-0.7,1.1-1.8,1.3-3.2,1.2c-1.3-0.1-3.2-0.7-3.9-2c0.2-0.5,0.4-1.1,0.4-1.8c0.1-1.1-0.2-2.3-0.7-3.3
		c-0.7-1.5-1.9-2.4-2.9-3.6c0,0,0,0,0.1,0.1C264.6,469.3,264.8,468.9,264.6,468.8z M288.2,481.2c0.6,0,0.7-0.1,1.2-0.2
		c0.4-0.1,0.4-0.6,0-0.7c-0.3-0.1-0.5-0.1-0.7-0.2c-0.4-4.3-3.7-7.8-7.1-10.3c0,0-0.1,0-0.1-0.1l0,0l0,0c-0.1-0.1-0.2-0.1-0.3-0.2
		c-0.1-0.2,0.3-0.7,1.2-1.3c0.5,0.1,0.9,0.3,1.4,0.3c1.1,0.2,2.4,0,3.5,0.1c4.3,0.2,6.5,4.9,7.2,8.6c0.4,2.2,0.4,4.3-2.2,5.1
		c-1.2,0.3-2.2,1-3.4,1.3c-2.1,0.5-5.6,0.1-7.4-1.7c-0.3-0.4-0.5-0.8-0.8-1.2c-0.1-0.4-0.2-0.8-0.2-1.2c0.6-0.7,0.7-2,0.6-3.3
		c0,0,0,0,0.1,0h0.1l0,0c0,0,0-0.1-0.1-0.1c0-0.1,0-0.1-0.1-0.1c0,0-0.1,0-0.1-0.1c-0.2-1.2-0.5-2.4-0.8-3.1
		c-0.1-0.3-0.3-0.6-0.5-0.9c0-0.2-0.1-0.3-0.1-0.4c-0.4-2.8,2.8,0,3.3,0.5c1.1,1,2.1,2.1,3,3.4c1.3,1.7,1.6,3.2,1.5,5.3
		C287.6,480.9,287.9,481.3,288.2,481.2z M297.4,470.7c0.1,0,0.1,0,0.2-0.1c1-1.4,2.6,1.6,2.8,2.2c0,0.2-0.1,0.3-0.1,0.5
		c-0.1,0.3,0.1,0.5,0.3,0.5c0.1,0.7,0,1.5,0,2.2c0,1.4-0.2,2.9-1,4.1c0.3-2.6-0.3-5.6-2.2-6.1c0.1-0.3,0.2-0.6,0.2-0.9
		C297.7,472.3,297.6,471.5,297.4,470.7z M298.6,481.1c-0.1,0-0.1,0.1-0.2,0.2c-0.2,0.1-0.2,0.5-0.1,0.6c-0.2,0.5-0.5,1-0.9,1.2
		c-0.6-0.6-1.4-1-2.2-1.1l0,0c1.5-1.5,0.6-4.3,0.1-6.1c0.6-0.1,1.2-0.6,1.6-1.3C298.8,475.2,299.2,478.7,298.6,481.1z M296.4,473.9
		C296.4,473.9,296.3,473.9,296.4,473.9c-0.3,0-0.3,0.3-0.2,0.5c-0.2,0.3-0.5,0.5-1,0.6c-0.6-2.1-2-4.3-3.7-5.6c-2.6-2-5.2-1-8.1-1.6
		c0.8-0.4,1.5-0.9,2-1.2c1.3-0.8,2.4-1.7,2.8-2.8c1.5-0.6,3.4,0.1,4.6,1.2c1.1,1,1.9,2.3,2.6,3.6
		C295.9,469.5,296.9,472.3,296.4,473.9z M264.6,485.7c1.1,1.3,3.6,1.3,3.8,3.3c0,0.5,0.8,0.5,0.8,0c0.1-1.4-0.9-2.2-2.1-2.8
		c-0.9-0.5-2.3-0.9-2.4-2.1c0-0.3,0.6-2.9,0.3-2.8c0.2,0,0.3-0.2,0.3-0.3v-0.1l0.1-0.1c0.1-0.1,0.1-0.2,0.2-0.3
		c0.4-0.3,1.4,0,1.9,0.2l0,0c0,0.1,0.2,0.2,0.3,0.2s0.1,0,0.2-0.1c0,0.1,0.1,0.2,0.2,0.2c0,0,0,0,0.1,0c0.4,0.5,0.8,1,0.9,1.2
		c1,1.6,1.9,3.3,2.3,5.2c0.3,1.4,0.8,2.6,1.5,3.8c0,0.1-0.1,0.1-0.1,0.2c-0.3,1.7-1.1,3.2-2.2,4.6c-2,2.5-4.8,1.7-7-0.1
		c-1.3-1.1-0.7-4.2-1-5.8c-0.3-1.8-1.1-4.8-0.1-6.6c0.6-0.2,1.1-0.6,1.5-1.2c0.1-0.1,0.1-0.1,0.1-0.2
		C264.2,483.2,263.5,484.5,264.6,485.7z M271.1,483.4c-0.5-1-1.1-2.3-2-3.4c0.7,0.3,1.5,0.5,2.3,0.6c1.1,0.1,4.1-0.3,4.1-1.8
		c0.4,0.1,0.9,0.2,1.3,0.5c0.5,0.2,1,0.9,1.6,1c0.1,0,0.1,0,0.2,0c0,0.1,0.1,0.2,0.3,0.2c0.3,0,0.7,0.1,1,0.4
		c0.3,1.2,1.1,2.1,2.2,2.7c0.1,0.2,0.2,0.3,0.4,0.4c1.5,1.5,5.6,3.8,1.6,6.3c-0.7,0.4-1,0.5-1.4,1.2c-0.8,1.8-2,2.3-3.5,2.2
		c0,0,0,0-0.1,0s-0.1,0-0.2,0l0,0c-0.4,0-0.7-0.1-1.1-0.2C272.9,492.4,272.9,487,271.1,483.4z M285.3,490.2c1.1-0.8,1.3-2.4,0.9-3.6
		c-0.2-0.8-1-1.5-1.8-2.1c1.4,0.3,2.9,0.4,4.1,0.2c0.7-0.1,1.5-0.4,2.2-0.7l0.1,0.1c2.1,1.9,0.4,6.9-2.4,7.1c-0.2,0-0.4,0.1-0.4,0.3
		c-0.1,0.2-0.1,0.3-0.1,0.5c-0.2,0.2-0.3,0.5-0.5,0.6c-0.4,0.3-0.8,0.4-1.2,0.6l0,0c-0.2-0.6-1-0.4-1,0.1c-0.2,0-0.5-0.1-0.8-0.1
		c-0.8-0.2-0.9-0.8-1.2-1.3C283.4,491.1,284.6,490.7,285.3,490.2z M261.7,488.4c0.1,0.5,0.1,1.1,0.1,1.8c-1.6,1.3-3.6-1.2-4.5-2.4
		c-0.7-0.9-1.3-1.9-1.7-3c-0.1-0.3-0.6-2.8-0.5-3.4c2.1,1.3,4.8,2.5,6.9,2.1C261.4,484.9,261.5,487.1,261.7,488.4z M253.3,466.8
		c-1.9,0.9-4.8,3-4.7,5.3c0.1,2.4,1.5,4.4,3.1,6.2c-3.7,1.8-4.3-3.6-4.3-6.1c0-2.3,2.3-6.3,5-6.7c0.7,0.3,1.4,0.5,2.1,0.6
		c0.1,0.1,0.2,0.2,0.2,0.3C254.2,466.5,253.7,466.6,253.3,466.8z M253.6,480.2c0.4,0.3,0.7,0.6,1.2,0.8c-0.8,3.7,1.4,7.1,4,9.6
		c0.5,0.5,2.2,1.1,3.2,0.9c0,0.3,0,0.5,0,0.8c-0.2,0-0.3,0.2-0.4,0.4c-0.4,1.1-1.5,1.2-2.8,0.8c0-0.2-0.2-0.3-0.4-0.3
		c-0.1,0-0.2,0-0.3,0.1c-2-0.9-4.1-2.5-4.6-3C250.7,487.2,250.6,483,253.6,480.2z M257.6,494.7c0.1-0.1,0.2-0.2,0.3-0.3
		c0.4,0.1,0.8,0.2,1.2,0.3c1,0.2,2.4,0.2,3.1-0.5c0.1,0.5,0.3,0.9,0.4,1.3c0,0-0.1,0-0.1,0.1c-0.6,1.4-0.8,3.1-0.1,4.5
		c0.5,0.8,1.4,1.5,2.3,2.1c-0.6,0.4-1.1,0.6-2,0.3c-1.1-0.4-2.1-1.2-3-1.9c-0.7-0.6-1.4-1.3-2-2C256.9,497.3,257.5,496,257.6,494.7z
		 M262.8,496.8c0.1-0.4,0.1-0.6,0.1-0.8c0.2,0.3,0.5,0.6,0.8,0.9c1.9,1.3,4,2.2,6.2,1.1c0.4-0.2,0.7-0.4,1-0.7
		c-0.3,0.7-0.6,1.5-0.5,2.2c0.3,1.4,0.9,2.5,1.8,3.6c0.1,0.2,0.3,0.4,0.5,0.7c-1.8,3.1-5.5-1.2-7.4-2.3
		C263.5,500.3,262.5,499.2,262.8,496.8z M284.5,502.1c1.2-2.1,2.2-5.2,1.9-7.8c0.5-0.2,0.9-0.5,1.3-0.8c0.4,0.9,0.7,1.8,0.9,2.8
		c0.2,1,0.1,2,0.3,3c0,0.1,0.3,0.1,0.3,0c0.4-1.6,0.1-4-0.8-5.6c0.6,0.7,1.6,1.1,2.6,1.3c0.8,0.2,1.6,0.2,2.4,0.2
		c0.2,2.4-1,4.5-2.7,6.1c-0.9,0.9-2,1.5-3.1,1.9c-0.8,0.3-2.7,0.6-3.6-0.2C284.1,502.6,284.3,502.3,284.5,502.1z M288.9,493.2
		c-1-0.9,1.1-1.3,1.4-1.6c0.8-0.7,1.5-1.5,1.9-2.5c0.6-1.7,1-4.1-0.4-5.5c0.5-0.1,1-0.3,1.4-0.2h0.1l0,0c0.4,0.3,0.7,0.7,1.1,1
		c0.3,0.3,0.6,0.6,0.8,1c0.2,0.4,0.3,0.8,0.7,1c0.2,0.1,0.3,0,0.4-0.1c0.4-0.7-0.4-1.7-0.9-2.2c-0.3-0.3-0.6-0.6-1-1
		c-0.1-0.1-0.2-0.2-0.4-0.3c0.2-0.2,0.4-0.3,0.6-0.5c1.2,0.4,2.5,1.6,3.1,2.5c1.3,1.8,1.6,4.7,0.6,6.7
		C297,494.5,291.3,495.2,288.9,493.2z M300.9,466.9c0.4,1.6,0.2,3.1-0.1,4.5c-0.3-0.5-0.7-1-1.2-1.4c-0.7-0.5-1.7-0.6-2.3,0
		c0-0.2-0.1-0.3-0.1-0.5c1.3-1,1.1-2.6,0.8-4.1c-0.2-1.1-0.5-2.1-0.9-3.1C298.4,460.9,300.8,466.5,300.9,466.9z M292.1,456.9
		c1.5,0.7,1.8,1.7,2.3,3.2c0.5,1.6,4,6.6,2.2,8.5c-0.6-1.3-1.4-2.4-2.2-3.5c-1.3-1.5-2.9-2.2-4.9-2.4c-0.1,0-0.1,0-0.2,0
		c0.9-1.5,0.9-4.1,0.2-5.3c-0.1-0.2-0.2-0.3-0.3-0.5C289.8,455.9,291.1,456.4,292.1,456.9z M284.5,456.8l0.1-0.1
		c-0.2-1.6,2.2-0.7,2.7-0.4c1,0.5,1.4,1.5,1.6,2.5c0.3,1.3,0,2.5-0.8,3.4c-0.1-0.4-0.3-0.7-0.6-1.1
		C286.6,459.7,285.7,458.1,284.5,456.8L284.5,456.8z M285.2,449.1c-0.1,1.3-0.4,2.7-0.8,4c-0.4,1.2-1,1.6-1.1,2.7
		c-0.5-0.4-1.1-0.7-1.8-0.8c-0.9-0.2-2.4,0-3.7,0.5c0.4-1.5,0.7-2.8,1.9-4c0.8-0.9,1.4-1.9,1.8-2.9c1-2.3,2.3-4.5,3.9-6.5
		C285.2,444.4,285.3,446.8,285.2,449.1z M285.2,440.6c-1.1,1-0.4-0.4,0.2-1.3c0,0.4,0,0.8,0,1.1l0,0
		C285.3,440.5,285.3,440.5,285.2,440.6z M277,454.3c0.3-1.7,1.2-3.1,1.9-4.7c1.3-2.8,2.3-5.9,3.8-8.6c0.8-1.5,2-2.7,3.1-4
		c0.2-0.2,0.4-0.5,0.6-0.7c0.1-0.2,0.3-0.4,0.4-0.6c-0.3,0.8-0.8,1.6-1.3,2.3c0,0-0.1,0-0.1,0.1c-0.1,0.1-0.1,0.1-0.1,0.2
		c-0.8,1.1-1.7,2.2-2.1,3.5c-0.1,0.2,0.2,0.4,0.4,0.4c0.6-0.2,1-0.5,1.4-0.8c-1.7,2.1-3.1,4.4-4.2,6.8c-0.8,1.6-2.1,2.6-2.9,4.1
		c-0.6,1.1-0.8,2.2-1.1,3.4c0,0.1,0,0.2,0,0.3c-0.1,0.1-0.3,0.2-0.4,0.3C276.8,455.6,276.9,455,277,454.3z M276.4,457.7
		c0.5-2.4,4.7-2.3,6.2-1.5c1.6,0.9,2.1,2.7,3.1,4c0.6,0.7,1.5,1.6,1.5,2.6c-0.1,0-0.2,0.1-0.2,0.1c-0.3,0.2-0.2,0.6,0,0.8
		c-0.1,0.1-0.2,0.3-0.3,0.4c-0.4,0.5-1.1,0.8-1.6,1.2c-0.6,0.4-3.4,2.5-4.1,1.6c0,0,0,0-0.1,0c0.1-2.1-1.1-4.3-2.3-6
		c-0.6-0.8-1.4-2.1-2.4-3.1C276.4,457.8,276.4,457.8,276.4,457.7z M271.7,456.9c0.6-0.3,1.4-0.4,2.5,0.3c1.2,0.7,2.1,2,3,3
		s1.6,2.1,2.2,3.3c0.5,0.9,0.7,1.8,0.8,2.7c0.2,1.3-0.1,3.7-2.2,3.5c-0.6-0.5-1.3-1-2.1-1.2c-1.2-0.3-2.4-0.7-3.5-1.1
		c0.6-2.6-0.3-5.7-1.9-8c0.1-0.8,0.3-1.6,0.7-2.1C271.5,457.2,271.6,457.1,271.7,456.9z M271.3,416.5c-0.1-0.2-0.2-0.3-0.4-0.4
		c0.2,0,0.5,0.1,0.7,0c0.1,0,0.2,0,0.2-0.1c-0.1,0.4-0.1,0.9-0.2,1.3C271.6,417.1,271.5,416.7,271.3,416.5z M267.9,451.3
		c0.2-2.1,0.4-4.2,0.7-6.4c0.7-5.3,0.6-10.6,1.4-15.9c0.7-5.3,2.3-10.4,3.3-15.7c0.4-2.2,0.8-4.4,1.4-6.6c0.2-0.8,0.4-1.6,0.6-2.4
		c0.1-0.5,0.3-1,0.5-1.5c1.9,0.1,2.7,0.8,2.2,1.9c-0.4,1.7-1.1,3.3-1.4,5c-0.4,2.3-1,4.5-1.6,6.7c-0.6,2.5-1.2,5-1.8,7.5
		c-0.3-0.2-0.5-0.3-0.8-0.4c-0.2,0-0.3,0.2-0.1,0.3c0.3,0.2,0.6,0.4,0.8,0.6c-0.5,2.3-1,4.6-1.5,6.9c-0.1,0.5-0.2,1-0.3,1.6
		c-0.2,0-0.4,0.1-0.5,0.2c-0.2,0.1-0.2,0.3-0.3,0.5l0,0c-0.1,0.2,0.2,0.4,0.3,0.2c0.1-0.1,0.2-0.2,0.3-0.2
		c-0.7,3.9-1.4,7.8-1.7,11.9c-0.2,3.9-0.7,7.9,1.2,11.4c0,0.1,0.1,0.1,0.1,0.2c-0.3,0.6-0.4,1.3-0.5,2c-0.6-0.8-1.2-1.4-2-1.9
		c-0.3-0.2-0.5-0.3-0.8-0.3C266.9,455.1,267.7,453.1,267.9,451.3z M269.1,459.3c1.6,2.1,3.4,5.2,3.1,8c-1.2-0.4-2.4-0.8-3.7-0.9
		c-1.4-0.1-2.6,0-3.7,0.8c0-0.7-0.3-1.3-0.6-1.8c-0.1-1.8-0.8-3.3-0.1-5.1C265.2,458,267.4,457.1,269.1,459.3z M246.5,455.5
		c-0.6-1.7-0.9-3.1-1.9-4.6s-1.2-2.8-1.4-4.6c0-0.6-0.2-1.5-0.6-1.9c-1-1.2-2.8-3-4.5-3c-1.9-0.1-2.5,0.1-3.9,1.3
		c-1.7,1.4-3.1,3.3-4.8,4.7c0.1-0.2,0.2-0.4,0.3-0.5c1.1-1.6,2-3,3.4-4.4c1.1-1.1,2.3-2,3.5-2.9c2.2-1.4,5.2,0.2,6.9,1.6
		c1.5,1.3,2.7,3.5,4.1,5c1.8,1.9,3.7,3.8,5.7,5.5c1.6,1.4,3.4,1.9,5.3,2.6c1.6,0.6,3,0.9,4.3,2c0.6,0.5,1.1,1.2,1.8,1.7
		c-0.1,0.1-0.3,0.3-0.4,0.4c-0.7,1-1.1,1.9-1.4,3.1c-0.2,0.8,0.1,1.7,0.3,2.6c-0.6-0.6-1.2-1.1-1.9-1.4c-1.5-0.8-3.4-1-5-0.7
		c-1.8-1.4-3.5-3.1-4.8-5c-1.4-2-3.5-3.9-4.4-6.1l0,0c0.2,0.9,0.6,1.6,1.2,2.3c1.3,1.5,2.4,2.8,3.2,4.7c0.8,1.7,1.8,3.6,3.5,4.6
		c-0.1,0-0.2,0.1-0.3,0.1c-1,0.5-1.2,1.4-0.9,2.3c-0.4-0.2-0.8-0.3-1.3-0.3c-0.4-0.2-0.8-0.4-1.1-0.7c0-0.2-0.1-0.3-0.2-0.4
		c-0.1,0-0.2,0-0.2,0C248.7,461.6,247.4,458.1,246.5,455.5z M246.6,465.6c0.2-0.2,2.7-1.2,3.7-1.4c0.3,0.3,0.6,0.5,0.9,0.7
		c-2.5,1-4.7,4.5-4.9,6.5c-0.1,1-0.1,2.4,0.2,3.8c-0.9-1.4-1.4-3.3-1.9-4.6C243.8,468.5,245,466.9,246.6,465.6z M244.4,472.9
		c0.1,0.3,0.3,0.6,0.4,0.9c0.4,1,0.8,2,1.4,2.7c-1.3,1.5-0.9,5-0.7,6.5c0,0.4,0.2,0.8,0.3,1.2c-0.5-0.3-1.1-0.7-1.6-1.1
		c-1.1-1-0.5-1.9-1-3C242.1,478.1,242.3,474.6,244.4,472.9z M243.9,485.3c-1.1-2-4.2-3.6-1.8-6c0.8,2.7,1,4.7,3.9,5.9
		c0.1,0,0.1,0,0.2,0c0.5,0.9,1.1,1.7,1.9,2.3c0,0,0,0-0.1,0c-0.2,0-0.3,0.2-0.3,0.4c0,0.7-0.1,1.4-0.1,2
		C245.8,489.3,244.9,487,243.9,485.3z M249.3,496.4c-0.9-0.5-1.7-1.2-2.5-2s-1.3-1.7-1.8-2.7c-0.4-0.8-0.6-1.6-0.7-2.6
		c0-0.4,0.1-0.8,0.2-1.2c0.8,1.3,1.7,2.5,3.2,2.8c0.1,1,0.4,1.9,1,2.9c0.7,1,1.7,2.1,2.7,3C250.8,497,250.2,496.9,249.3,496.4z
		 M249.3,492.8c-0.4-0.6-0.6-1.2-0.6-1.8c0.5-0.1,0.4-0.9-0.1-0.9c0-0.3,0-0.6,0-0.9c0-0.5,0.1-0.8,0.4-1c0.7,0.4,1.4,0.7,2.2,0.7
		c0.4,0.8,0.9,1.6,1.5,2.2c1.1,1.4,2.5,2.3,4.1,2.9c-0.1,0.2-0.2,0.3-0.3,0.5c-0.2,0.6-0.3,1.2-0.4,1.9c-0.3,1.9-2,1-2.9,0.3
		c-0.1,0-0.1-0.1-0.2-0.1v-0.1c0-0.3-0.3-0.4-0.5-0.3C251.3,495.1,250.2,494,249.3,492.8z M259.3,503.5c-1.5,0.2-2.7-0.8-3.9-1.5
		s-2.3-1.5-2.8-2.8c-0.2-0.6-0.1-1.1-0.1-1.7l0,0c0.1,0.1,0.2,0.2,0.3,0.3c0.8,0.6,2.4,1.7,3.4,0.8c0.2-0.2,0.4-0.5,0.5-0.8
		c0.5,1.4,1.7,2.7,2.9,3.8c0.3,0.3,1,0.8,1.8,1.2C260.8,503.1,260.1,503.4,259.3,503.5z M263.8,507.9c-1.4-0.5-3.6-1.8-3.4-3.4
		c0.8-0.2,1.4-0.5,2-1.3c0.4,0.2,0.9,0.3,1.3,0.4c-0.7,1.7,3.1,3.3,4.3,3.8c0.3,0.1,0.6,0.3,1,0.5
		C267.5,508.9,265.6,508.5,263.8,507.9z M268.1,506.4c-0.9-0.4-3.9-1.3-3.9-2.8c0.7,0,1.3-0.2,1.5-1c0.4,0.2,0.7,0.4,1,0.6
		c1.7,1.2,2.8,2.7,5,2.7c0.9,0,1.5-0.6,1.9-1.3c0.3,0.4,0.7,0.8,1.1,0.9c-0.8,1.1-1.3,2.4-3.2,2.1
		C270.3,507.4,269.2,506.8,268.1,506.4z M277.3,510.9c-0.9,0.6-1.8,0.4-2.8,0.3c-0.9-0.1-1.8-0.3-2.7-0.6c-1.3-0.4-1.5-1.3-1.9-2.3
		c0,0,0.1,0,0.1-0.1c1,0.4,2,0.7,2.9,0.4c0.9-0.3,1.9-1.1,2.3-2c0.2,1.6,1.4,2.9,2.5,4C277.7,510.7,277.5,510.8,277.3,510.9z
		 M282.4,511.7L282.4,511.7c-0.1-0.1-0.1-0.1-0.1-0.1c-0.1-0.1-0.3,0-0.4,0.1c0,0.1-0.1,0.1-0.1,0.2v0.1c-1.3,0.2-2.9-1.4-3.7-2.2
		c-1.3-1.2-1.9-2.4-2.4-4c1.2,0.1,2.3-0.2,3.5,0.2c0.7,0.2,1.3,0.1,2-0.2c0.1,0.2,0.2,0.3,0.2,0.5c0.2,0.3,0.8,1.1,1.2,0.7
		c0,0,0.1-0.1,0-0.2c0-0.1-0.1-0.2-0.2-0.3c-0.2-0.2-0.4-0.4-0.6-0.7c-0.1-0.1-0.1-0.2-0.2-0.4c0.7-0.5,1.3-1.2,1.8-1.8
		c1.1,0.6,2.2,0.7,3.3,0.6c1.7,1.6,0.2,5.5-2.2,5.5c-0.9,0-1.4,0.6-1.8,1.3C282.7,511.3,282.6,511.6,282.4,511.7z M284.8,512.4
		c-0.3,0-0.9,0-1.5-0.1c0.1-0.2,0.3-0.4,0.4-0.7c0.2-0.5,0.5-0.7,0.9-0.7c1.8,1,3.7,0.5,5.2-0.7h0.1
		C288.6,511.5,286.6,512.3,284.8,512.4z M290,508.6c-0.7,0.7-1.4,1.3-2.3,1.7c-0.4,0.2-1,0.2-1.5,0.2c0.9-0.5,1.5-1.2,1.8-2.2
		c0.4-1.2,0.6-3.2-0.3-4.2c0.8-0.2,1.6-0.6,2.3-1.1c0.7,0.8,1.2,1.3,1.9,1.5c-0.1,0.5-0.1,1-0.3,1.5
		C291.5,507,290.8,507.9,290,508.6z M290.7,509.1c1.1-1.2,2-3,1.9-4.7c0.4,0,1,0,1.6-0.2c0.4-0.1,0.8-0.2,1.1-0.4
		C294.3,506.1,293,508.3,290.7,509.1z M300,492.2c2.3,1.7,0.3,5.3-0.7,7.1c-1.4,2.6-6,6-8.6,3.2c2.2-1.8,3.7-4.7,3.6-7.3
		c0,0,0,0,0-0.1c1.4-0.2,2.7-0.7,3.7-1.5l0.1-0.1c0.1,1,0.2,2,0,3c-0.2,1.4-0.9,2.9-1.4,4.3c0,0.1,0.1,0.1,0.1,0.1
		c1.8-2.2,2.3-5.1,1.7-7.9c1-1.2,1.3-2.9,1.2-4.6c1.2-0.7,1.6-2.6,1.8-3.8c0-0.3,0.1-0.5,0.1-0.8c1.3,0.7,1.2,2.8,1.1,4
		c0,1.7-0.5,3.3-1.7,4.5c-0.4-0.4-0.9-0.6-1.2-1.1c-0.2-0.3-0.6-0.1-0.5,0.2C299.6,491.9,299.6,491.8,300,492.2z"/>
	<path class="st0" d="M296.2,501.8c-0.2,0.3-0.5,0.5-0.8,0.7v0.1C295.8,502.4,296.1,502.1,296.2,501.8
		C296.2,501.8,296.2,501.7,296.2,501.8z"/>
</g>
</svg>
