<?xml version="1.0" encoding="utf-8"?>
<!-- Generator: Adobe Illustrator 21.0.0, SVG Export Plug-In . SVG Version: 6.00 Build 0)  -->
<svg version="1.1" id="Calque_1" xmlns="http://www.w3.org/2000/svg" xmlns:xlink="http://www.w3.org/1999/xlink" x="0px" y="0px"
	 viewBox="0 0 595.3 841.9" style="enable-background:new 0 0 595.3 841.9;" xml:space="preserve">
<style type="text/css">
	.st0{fill:#231F20;}
</style>
<path class="st0" d="M353,497.4c-2.6-0.7-6.4,3.2-8.4,4.6c-3.3,2.3-6.8,5.8-8.7,9.6c0-1.7,0-3.4-0.1-5c0.2-0.1,0.3-0.3,0.4-0.6
	c0-0.1,0-0.1,0-0.2c0.9-1.8,1-4,1.4-5.9c0.7-3.2,1.3-6.4,1.7-9.6c0.4-2.9,0.8-5.9,1.1-8.8c0.3-2.4-0.2-4.9,0.2-7.3
	c0.7-1.3,1.3-2.6,1.8-3.9c1.2-2.8,1.7-5.9,2.2-8.9c0.5-3.3,1.6-6.7,1.4-10c0-0.3-0.4-0.5-0.6-0.2c-1.6,1.9-2.3,4.7-3.2,7
	c-1.1,3-2.1,6-3.2,9c-0.1-2.3-0.3-5.4-1.8-6.9c-0.1-0.1-0.2-0.1-0.3-0.1c-1.4,0.5-0.9,4-1,5.1c-0.3,2.4-0.6,4.8-0.9,7.2
	c-0.1,0.9-0.2,1.9-0.3,3c-0.1-2.2-0.2-4.4-0.3-6.7c-0.1-2.8-0.7-5.6-1.4-8.4c-0.4-1.5-1-3-1.1-4.5c0.1-0.1,0.1-0.2,0.1-0.4l0,0
	c0,0,0,0,0.1,0s0.3-0.1,0.3-0.3c-0.1-0.7,1.2-2.8,1.5-3.5c0.5-1.4,0.8-3,1-4.5c0.4-2.8,0.4-5.6,0.2-8.4c-0.3-4.4-1.3-8.8-3.1-12.9
	c-0.5-1.2-2.3-5.8-4.4-4.5c-0.9,0.5-0.9,2.5-1.1,3.4c-0.3,1.8-0.4,3.5-0.5,5.3c-0.3-0.8-0.6-1.6-0.9-2.4c-0.2-0.5-0.6-1.3-0.9-1.9
	c0.1-0.1,0.2-0.2,0.2-0.6c0.2-2.2,1.3-4.1,2.2-6c2-3.8,4.8-7.1,7.4-10.5s4.9-7.1,7.7-10.3c0.6-0.7,2.2-2.5,0.8-3.3
	c-1.2-0.7-4.1,1.6-5,2.2c-2.8,1.9-5,4.4-7,7c-3.7,5-6.5,11.4-7,17.7c-0.4-2.5-1-5-1.4-7.5c-0.5-2.6-1-5.1-1.7-7.7
	c-0.8-3-1.7-6.1-2.6-9.1c0.1,0,0.2,0,0.3-0.1c0.2,0,0.4-0.2,0.4-0.4c0-0.3,0-0.5,0-0.8l0.1-0.1c0.6-4.1,1-7.9,0.3-12
	c-0.3-2-0.6-5.4-2.3-7c2.6-0.6,5.6-2.7,6.9-3.5c2.8-1.9,5.3-4.4,7.9-6.6c2-1.7,3.8-3.8,5.9-5.4c0.9-0.7,1.3-1.3,1.3-2.5
	c0-0.2-0.1-0.3-0.3-0.3c-2.8-0.2-5.2,1.1-7.5,2.5c-3,1.7-5.9,3.5-8.9,5.1c-2.7,1.4-5.7,3.2-7.4,5.9c-0.9-2.3-1.6-4.6-2-7
	c0,0,0-0.1-0.1-0.1c-0.1-4-0.4-7.9-0.6-11.9c0.9,0.5,2.1,0.6,3,0.4c2.2-0.6,3.5-1.7,4.5-3.7c1.5-2.8,0.9-6.1,2.7-8.8
	c1-1.5,2.5-2.7,3.7-4c0.8-0.9,1.3-1.9,2.2-2.6c0.1-0.1,0-0.3-0.2-0.3c-0.1,0-0.2,0.1-0.2,0.1c0-0.1-0.1-0.1-0.2-0.1
	c-4.5,0.8-9.2,3.8-12.5,6.9c-0.1,0-0.1,0.1-0.2,0.2c0.6-3.8-0.3-7.6-2-11c-1.1-2.3-3.2,1.9-3.5,2.5c-1,1.8-2,3.9-2.4,5.9
	c-0.5,2-0.3,4.2-0.3,6.2c0,1.1,0.2,2.6,0.8,3.8c-3-1.4-5.7-3.2-8.5-4.9c-3.3-2-9.2-7.4-13.5-5.1c-0.3,0.2-0.4,0.6-0.1,0.8
	c0.8,0.7,1.6,1.1,2.6,1.6c1.5,0.6,2.7,2,4,3c2.3,1.8,4,4,6.7,5.4c2.8,1.4,7.3,4,10.8,3.2c0,3.6,1.3,20.7,1.7,22
	c-3.5-3.5-7.3-6.5-12.1-8c-2.9-0.9-6.1-1.9-8.7-3.3c-1.3-0.7-2.8-1.1-3.8-2.2c-0.3-0.3-0.5-0.4-0.9-0.4c-0.2,0-0.3,0.1-0.4,0.3
	c-1.1,3.6,4.7,8.1,7.4,9.4c1.4,0.7,2.9,0.8,4.4,1.2c1.8,0.5,3.4,1.2,5.1,1.9c2.9,1,5.7,2.1,8.7,2.1l0,0c0,3.1-0.5,6.5,0.2,9.5
	c0.1,0.5,0.3,1,0.5,1.5c-0.6-0.3-1.4-0.2-2.2,0.2c-1.5,0.7-1.4,2-1,3.5c0.9,2.6,2.1,4.9,4.2,6.6c1.3,1.1,2.4,1.1,3.6,0.9
	c-0.6,3.9,2.2,8.4,3.1,12c1.2,4.9,1.4,9.9,2.5,14.8c-0.1,0-0.1-0.1-0.2-0.1c-3.3-5.1-7.5-10-12-14c-2.4-2.1-4.9-3.9-7.6-5.7
	c-2.1-1.4-3.8-3.2-6.4-2.5c-0.1,0-0.3,0.2-0.2,0.3c0.8,6.3,5.3,12.9,11.1,15.6c1.7,0.8,3.4,1.3,5,2.3s3.1,1.9,4.8,2.6
	c1,0.4,2,0.8,3,1.3c0.5,0.4,1.1,0.7,1.7,1c0.4,0.2,0.7,0.5,1,0.7l0.1,0.1c0.1,0.2,0.3,0.2,0.4,0.1c1.7,8.9,6.4,17.2,7.4,26.3
	c-0.1-0.1-0.1-0.1-0.2-0.2c-1.1-1.1-2.1-2.1-3.2-3.2c-1.9-1.7-4.5-3.7-6.8-4.5c-2.5-0.9-4.9-2.2-7.4-2.9c-1.2-0.4-0.9,1.9-0.8,2.3
	c0.2,1.8,2.2,3.2,3.4,4.3c2.2,2,3.3,4.9,5.8,6.6c2.7,1.9,6.9,3.2,9.9,1.5c0.2,1.4,0.7,2.8,1.1,4.3c0.7,2.7,0.6,5.6,0.6,8.3
	c0,3.9,0.4,8,0.9,11.9c-2.9-4.3-6.1-8.4-9.8-12c-2.2-2.1-4.7-3.9-7-5.9c-1.6-1.3-3.2-2.4-5.3-2.5c-0.4,0-0.5,0.5-0.2,0.8
	c1.3,1,1.8,2.3,2.9,3.4c1.3,1.3,2.3,2.8,3.3,4.3c1.6,2.5,3.3,4.8,5.2,7.1c2.4,2.9,6.4,8.1,10.7,8c0,0.6,0.1,1.2,0.1,1.4
	c0.1,2.8,0.4,5.6,0.5,8.4c0,2.2,0.2,4.4,0.2,6.6c0,0.5,0,1,0,1.5c-0.1-0.2-0.1-0.3-0.2-0.3c-0.9-1.4-1.4-3-2.5-4.3
	c-2-2.5-6.6-5.3-9.7-5.8c-0.3,0-0.5,0.1-0.5,0.4c-0.1,1.9,1.1,3.3,1.9,4.8c1.5,2.7,3.4,5.2,5.4,7.5c0.8,0.9,3.9,2.5,6.1,2.6
	c-0.2,2.8,0.3,5.6,0.1,8.4c-0.6,1.6-1,3.3-1.2,5c-0.1,0.6-0.2,1.5-0.3,2.3c-1-1.6-2.4-2.8-4.2-4.4c-1.8-1.5-4.7-5.5-7.4-5.2
	c-0.1,0-0.2,0.1-0.2,0.2c-0.2,0.5-0.3,0.9,0.2,1.2c1.8,1.2,3.4,3,4.9,4.6c2.5,2.6,4.6,6.3,7.5,8.3c0.1,0.1,0.2,0.1,0.3,0
	c-1.1,6.7,0.8,13.8,0.5,20.5c0,0.2,0.1,0.4,0.3,0.5c0.5,1.5,3,0.5,2.5-1.7c-1.4-6.2-1.1-12.6-1.3-19h0.1c1.6-1,2.5-2.8,3.6-4.3
	c1.9-2.5,3.2-5.4,4.6-8.3c2.8-5.8,7.6-10.8,9.2-17.2C353.4,497.8,353.2,497.5,353,497.4z M325.8,415.3c1.1-2.9,2.5-5.8,4-8.5
	c1.4-2.6,3.4-4.9,5.5-6.9c1.2-1.2,2.6-2.2,4.1-3.1c0.3-0.2,0.6-0.4,1-0.6c1.5-0.8,2.2,0,1.2,1.3c-3.5,4.7-7,9.4-10.4,14.1
	c-1.8,2.4-3.5,4.7-4.9,7.3c-0.6,1.1-1.1,2.3-1.6,3.4c-0.1,0.2-0.3,1.2-0.5,2C324.5,421.2,324.7,418.3,325.8,415.3z M297.2,371
	c-2.8-0.8-5.1-1.2-7.4-3.3c-0.6-0.6-1.1-1.2-1.7-1.8c-0.4-0.5-0.8-1-1.2-1.5c-0.1-0.2-0.2-0.4-0.4-0.6c-0.4-0.6-0.6-1.2-0.6-1.9
	c0.1,0.1,0.1,0.1,0.2,0.1c0.3,0.9,1.2,1.3,2.1,1.8c2.8,1.5,5.2,3.4,8,5c2.9,1.6,6.3,2.1,9,3.9c0.9,0.6,1.8,1.4,2.8,2
	C304.3,373.9,300.8,372.1,297.2,371z M304.9,372c-2-1.3-4.6-1.7-6.8-2.7c-2.3-1-4.5-2.5-6.6-3.9c-0.9-0.6-2.4-1.2-3.6-2
	c2.8,1.7,6.2,2.6,9.3,3.7c2.4,0.9,4.6,1.8,6.8,3.1c2.3,1.3,4.1,2.9,5.9,4.8C308.1,374.7,306.4,373,304.9,372z M315.2,419.4
	c-1.8-2-3.7-4.3-5.8-6c-0.7-0.6-1.1-0.6-2-1.1c-1.1-0.6-1.7-1.7-2.8-2.2c-1.8-0.8-3-2.3-4.9-3c0,0-0.1,0,0,0.1
	c1.8,1.2,4.2,2.6,5.8,4.1c0.8,0.8,1.2,1.3,2.3,1.8c1.6,0.8,2.4,2,3.6,3.4c1.7,2.1,3.4,4.4,5.5,6.1c0.2,0.2,0.4,0.4,0.7,0.6
	c-0.1-0.1-0.2-0.1-0.4-0.2c-1.4-0.6-2.7-1.1-4-1.9c-1-0.6-1.9-1.5-3-1.9c-3-1.2-5.6-2.2-8-4.5c-2.1-2-3.6-4.5-4.8-7.1
	c-0.5-0.9-3.1-6.3,1.4-4c1.3,0.7,2.6,1.7,3.8,2.5c2.6,1.7,5,3.7,7.4,5.7c2.4,2.1,4.6,4.5,6.4,7c1.2,1.8,2.6,3.4,3.9,5.1
	C318.3,422.5,316.5,420.8,315.2,419.4z M331.6,524.2c-1.2-1-2.1-2.2-3.1-3.3c-1.1-1.3-2.2-2.5-3.5-3.7c-0.8-0.8-1.9-2.2-3-2.6
	c-0.7-0.3-0.5-0.3,0.8-0.1c0.9,0.6,1.8,1.4,2.6,2.1c1,1,1.9,2,3,3c2.1,1.9,3.4,3.6,4.4,5.9C332.4,525,332,524.6,331.6,524.2z
	 M333.4,524.2c-0.4-1.4-0.1-3,0-4.4c0.1-0.5,0.2-1,0.4-1.5C333.7,520.3,333.5,522.3,333.4,524.2z M339,487.3
	c-0.5,3.6-1,7.1-1.6,10.7c-0.3,1.5-0.5,3.3-0.9,5c-0.1-1.7-0.5-3.6-0.4-4.7c0.1-5,0-10.5-1.1-15.4c1.3-1.1,2.3-2.3,3.1-3.8
	c0.6-1.1,1.2-2.2,1.8-3.4c0,0.8,0.1,1.6,0.2,2.3C340.3,481.1,339.4,484.3,339,487.3z M335.1,478.3c0.5-1.4,0.5-3.1,0.7-4.6
	c0.3-1.8,0.5-3.6,0.8-5.3c0.2-2,0.4-4,0.4-5.9c0.2-0.1,0.5-0.1,0.7-0.2c0.2,0.6,0.4,1.2,0.5,1.9c0.3,1.2,0.4,2.5,0.5,3.8
	c0,0.1,0,0.1,0.1,0.2c-0.1,0.2-0.2,0.4-0.2,0.7c-1.2,3.3-2.2,6.5-3.5,9.8C335.1,478.4,335.1,478.4,335.1,478.3L335.1,478.3z
	 M335.3,479.3c0.5-0.9,0.9-1.7,1-2c1.1-2.8,2-5.6,3-8.5s2.1-5.7,3-8.6c0.5-1.7,1.3-3.2,2.1-4.8c0.5-1,0.6-1.9,1-2.8
	c-0.2,2.5-1,5-1.4,7.5c-0.4,3-1,6-2,8.9c-0.8,2.6-2.5,5-3.8,7.4c-0.9,1.7-2.9,5.1-4.5,6.3C333.7,482.3,334.9,480.1,335.3,479.3z
	 M326.9,425.9c0.2-1,0.5-4.9,2-3.6c1.9,1.6,2.8,4.9,3.6,7.2c1.5,4.4,2.1,9.1,2.1,13.8c0,2.8-0.5,5.5-1.3,8.1c-0.3,1.1-1,2.1-1.4,3.1
	c-0.5-2.8-0.3-5.6-0.7-8.4c0.6-1.9,0.1-5.1-0.2-6.8c-0.5-2.6-1.3-5.1-1.6-7.8c-0.2-2.4-0.2-4.8-0.4-7.1c0-0.1-0.1-0.3-0.3-0.3
	c-0.1,0-0.2,0-0.3,0.1c-0.1,0-0.2,0.1-0.2,0.3c0.1,0.2,0.1,0.4,0.2,0.6l0,0c0,0.1,0,0.2,0,0.3c0.1,1,0.1,2,0.1,3.1
	c0.1,2.1,0.2,4.1,0.5,6.1c0.5,2.9,1.6,6.1,1.6,9.2c-0.6-2.5-1.6-5-2.4-7.5c-0.5-1.7-1.2-3.3-1.8-5
	C326.6,429.5,326.6,427.7,326.9,425.9z M318.4,385.4c0.6,3.3,0.1,6.4,0,9.7c-0.3-0.8-0.8-1.5-1.4-2.2c-0.6-2.3-0.8-4.9-1.1-6.9
	c-0.6-3.4-1.9-6.6-2.6-10l0,0c0.5,1.1,1.4,1.4,2.5,1.4c0,0.1,0,0.1,0.1,0.2C317.7,379.6,318,382.7,318.4,385.4z M325.4,365.3
	c2.4-1.4,4.8-2.8,7.3-4.2c0.3-0.2,6.8-2.7,4.9-0.4c-0.7,0.9-2,1.7-2.9,2.6c-1,1.1-18.6,17.4-20.7,12.1c0.9-0.2,1.5-0.7,2.2-1.4
	c1.7-1.6,3.8-2.9,5.9-4.1c1.5-0.9,3-1.9,4.4-3c1.5-1.2,3.2-1.9,4.6-3.1c0,0,0-0.1-0.1-0.1c-1.3,0.9-2.8,1.5-4.2,2.3
	c-1.5,0.8-2.8,2.1-4.2,3c-1.6,1-3.3,1.9-4.8,3c-1.2,0.9-2.5,2.5-3.9,3C315,370,321.3,367.7,325.4,365.3z M312.5,367.9
	c0.4,1.7,1,3.4,1.6,4.9c0,0.1,0.1,0.1,0.1,0.1c-0.3,0.5-0.5,1.1-0.7,1.7c-0.2-0.4-0.5-0.8-0.6-1.3
	C312.4,371.6,312.5,369.7,312.5,367.9z M317.1,340.5c2.7-2.3,6-3.4,9.1-5c-0.3,0.3-0.6,0.7-1.1,1.2c-1.2,1.4-2.9,2.6-3.9,4.1
	c-2.6,4-1,11.3-7.2,12.1c-4.4,0.5-1.8-6-0.9-7.8C314.1,343.3,315.6,341.8,317.1,340.5z M307.6,343.1c0-3,0.5-5.3,1.8-8
	c0.4-0.9,0.9-1.8,1.4-2.7c1.1-2.1,2.2,1,2.4,1.9c0.3,1.2,0.9,2.4,1.2,3.6c0.3,1.1,0,2.5,0,3.7c0,0.2,0.1,0.2,0.3,0.2
	c-2,2-4.1,5.4-4.2,8.4c-0.4-0.2-0.8-0.4-1.3-0.6c-0.2-0.1-0.3-0.1-0.4-0.2C307.5,347.7,307.5,344.5,307.6,343.1z M303.4,350.7
	c-2.5-1.3-5.2-2-7.4-3.9c-1.6-1.4-3.1-3-4.8-4.5c-1.4-1.3-3.1-1.9-4.5-3c3.7-0.9,8.9,3.9,11.6,5.4c2,1.2,3.9,2.4,6,3.5
	c0.6,0.3,2.3,0.9,3.8,1.6c0.6,0.8,1.4,1.4,2.4,1.5l0,0v0.1c-0.1,0-0.2,0-0.3,0C308.3,352.6,305.3,351.7,303.4,350.7z M309.7,352.8
	c0.4-0.1,0.7-0.2,1-0.4c0,0,0,0,0.1,0c0,0.1,0.1,0.1,0.1,0.2c0.1,0.2,0.2,0.4,0.4,0.5c-0.2,4.4,0.4,8.8,0.5,13.2c0,2,0,3.9,0.2,5.9
	c0.1,0.9,0.4,1.6,0.6,2.3c0.3,3.9,1.9,7.7,2.6,11.5c0.3,1.7,0.4,3.6,0.7,5.5c-0.2-0.2-0.4-0.4-0.6-0.6c-1.5-5.2-2.9-10.5-3.7-15.9
	c0.2-0.1,0.3-0.2,0.2-0.4C311.6,373.9,310.4,356.3,309.7,352.8z M311.4,377.8c0.3,2.6,1,5.1,1.6,7.5c0.3,1.4,0.7,2.7,1.1,4
	c-1.3-1.8-2.2-3.7-2.4-6.1C311.6,381.5,311.5,379.7,311.4,377.8z M315.1,397c-2.1-0.3-3.6-2.5-4.6-4.2c-0.1-0.2-0.9-2.3-1.1-2.7
	c-0.5-1.3,0.6-4.1,2.9-1.7c0.6,1,1.3,2,2.1,2.9c0.1,0.1,2.9,3,3.1,4.7c0.1,0.5-0.3,1-0.8,1.1C316.2,397.1,315.7,397.1,315.1,397z
	 M319.9,453.2c-1.3-1.2-2.4-2.8-3.5-4.2c-1.4-1.8-4.1-3-4.4-5.6c-0.1-1.2,4,0.9,4.1,1c1.7,0.9,3.5,1.2,5.1,2.3c3,2.1,6.2,4.2,8.6,7
	c0,0.2,0,0.4,0,0.7c-3.1-0.6-5.9-1.7-8.6-3.4c-3.1-1.9-5.3-4.6-7.7-7.2h-0.1c2.9,5.5,10,10.9,16.4,11.6
	C327,457.5,322.3,455.4,319.9,453.2z M326.9,438.8c-1-2.8-2.1-5.6-2.7-8.5c-0.4-1.8-1.2-3.5-1.6-5.4c0,0,0-0.1-0.1-0.1
	c-1.1-4.6-1.3-9.5-2.4-14.2c-0.5-2.2-1.2-4.2-1.9-6.3c-0.8-2.2-1.2-4.3-1.7-6.6c0.3-0.1,0.6-0.1,0.9-0.2c0.3,2.2,1.8,6.7,1.9,7.3
	c0.6,2.2,1.1,4.4,1.6,6.6c0.9,4.2,2,8.7,2.3,13c-0.2,0-0.4,0.3-0.2,0.5c0.1,0.1,0.2,0.3,0.3,0.4c0,0.1,0,0.2,0,0.3
	c0,0.2,0.2,0.3,0.4,0.3c1,1.8,1.5,4.2,2.2,6.1c0.9,2.4,1.7,4.8,2.5,7.3c0.7,2.4,1.5,4.7,1.9,7.2l0,0c0,0.1,0,0.2,0.1,0.3
	c0.1,0.4,0.2,0.9,0.2,1.3c0.2,1.9,0.1,3.7,0.3,5.6c0-0.1-0.1-0.1-0.1-0.2C330.4,448.5,328.6,443.6,326.9,438.8z M332.4,483.2
	c0,0.6-3-1-3.4-1.3c-2.7-1.8-5-4.5-7-7c-2.2-2.7-4-5.7-6-8.5c-1.1-1.5-2.4-3.3-3.9-4.6c2,0.6,3.7,2.2,5.3,3.5c2,1.6,4,3.2,5.8,5
	c3.7,3.6,6.7,7.8,9.7,11.9C332.9,482.1,332.5,482.6,332.4,483.2z M332.8,469.1c-0.1-2.2,0-4.3-0.3-6.5s-1.2-4.2-1.6-6.4
	c0.2-0.1,0.3-0.3,0.5-0.4l0,0c0,0.5,0.2,1.1,0.2,1.5c0.6,3.5,1.8,6.8,2.1,10.4c0.2,2.7,0,5.3,0.3,8c0,0.1,0.2,1.1,0.3,2.2
	c0,0.1,0,0.1,0,0.2c-0.1,0.2,0,0.4,0.1,0.4c0.1,0.4,0.1,0.8,0.1,1.2c-0.3,0.5-0.6,1.1-0.9,1.7c0-0.2,0-0.3,0-0.5
	C333.9,477.1,332.9,473,332.8,469.1z M329.1,504.3c-1.6-1.3-3.1-3.5-4.3-5.2c-1.1-1.4-2-3.1-2.9-4.7c-0.4-0.5-0.5-1.1-0.5-1.8
	c0.6,0.3,1.2,0.5,1.8,0.8c1.1,0.5,2.2,1.2,3.3,1.8c2.3,1.5,4,3.1,5.2,5.6c0.5,1.1,1.1,2.2,1.7,3.2c0,0.6,0.1,1.1,0.3,1.7
	C331.8,505.7,329.6,504.7,329.1,504.3z M334.1,495.1c-0.1-2.1-0.1-4.1-0.3-6.2c-0.1-1.1-0.2-2.1-0.2-3.2c0,0.4,0-1.1-0.1-1.7
	c0-0.1,0.1-0.1,0.1-0.2c0,0,0.1,0,0.2-0.1c0.3-0.2,0.6-0.4,0.8-0.6c-0.6,3.8,0.7,8.2,0.8,12c0,2-0.2,4,0,5.9c0.1,1.2,0.6,3.1,0,4.2
	l0,0l0,0l-0.1,0.1c-0.3-0.3-0.6-0.9-0.9-1.4C334.1,501.1,334.2,498.1,334.1,495.1z M335.9,546.5c0.4,0.9,0.2,1.3-0.7,1.2
	c0.1-3.4-0.5-6.8-0.6-10.2c-0.1-3.3,0.1-6.9-0.4-10.2c0-0.1,0.1-0.2,0.1-0.3c0-3.4,0.1-6.9,0.5-10.3c0.3-3.3-0.3-6.4-0.3-9.6
	c0.3,0,0.6-0.1,0.8-0.3c-0.1,3-0.1,6.1-0.2,9.1c-0.1,3.8-0.4,7.6,0,11.4l0,0c-0.1,3.5-0.2,7.1,0,10.6c0.1,2,0.3,3.9,0.5,5.9
	c0.1,0.7,0,1.4,0.2,2.1C335.9,546.2,335.9,546.3,335.9,546.5z M350.4,502.8c-2.3,4.4-5.3,8.4-7.5,12.8c-1,2-1.9,4-3.1,5.9
	c-0.8,1.3-2.4,3.8-3.8,5c-0.4-4.3-0.2-8.6-0.1-12.9c0.1,0,0.3-0.1,0.3-0.3c1.6-4.4,6-8.4,9.7-11c1.3-0.9,2.5-1.8,3.8-2.7
	c0.1-0.1,2.6-1.5,2.5-1C351.8,500.1,351,501.5,350.4,502.8z"/>
<path class="st0" d="M378.9,495.7c1.3-2.7,3.3-4.9,4.7-7.5c0.2-0.5,0.7-1.7,0-2.1c-1.4-0.8-4.1,3.2-4.7,4.2
	c-1.7,2.9-3.6,5.6-5.6,8.3c-0.9,1.1-1.8,2.2-2.6,3.4c-0.5,0.6-0.7,1.4-1,2.1c-0.2-3.1,0.2-6.2,0.2-9.3l0,0c0.7-1.3,0.9-2.7,0.1-3.8
	c4.7-3.7,5.6-12.7,2.7-17.7c0,0,0,0-0.1-0.1c1.1-0.7,2.2-1.4,3.2-2c2.5-1.5,3.8-5,5.5-7.1c1.1-1.3,2.8-4.2,2.5-6
	c0-0.1-0.2-0.3-0.3-0.3c-1.2-0.3-2.4,0.3-3.5,0.7c-1.9,0.7-4.2,1.1-5.9,2.2c-0.1-0.1-0.1-0.1-0.2-0.2c-1.3-1.5-3.1-4.5-5.4-4.7
	c0-0.1,0-0.2-0.1-0.2c1.2-0.6,1.5-1.9,1.3-3.3s-0.8-3.7-1.8-4.8c0-0.9,0-1.9-0.1-2.8c2.4,1.3,6.9,2.4,8,2c2-0.8,0.2-3.1-0.8-4.2
	c1.6-0.3,3.5-1.7,4.5-2.5c1.7-1.3,4.5-2.8,3.8-5.4c-0.5-1.9-4.7,0.2-5.5,0.5c-1.9,0.6-3.6,1.5-5.2,2.6c-1.2,0.8-2.3,2.2-3.4,3.1
	c-0.4,0.2-0.8,0.5-1.2,0.7c0.5-3-0.2-6.4-1.4-9.1c-1.1-2.5-3.1-5.8-6.3-5.7c-0.2,0-0.4,0.2-0.4,0.4c-0.2,3.7,0.7,7.5,2.4,10.8
	c0.3,0.6,0.9,1.5,1.5,2.4c0,0,0,0-0.1,0c-1.3-0.8-2.6-1.4-3.9-2c-1.8-0.8-4.2-1.6-5.9-0.3c-0.1,0.1-0.3,0.3-0.2,0.5
	c0.9,2.1,3.6,3.2,5.5,3.9c0.2,0.1,0.4,0.2,0.6,0.2c0,0.1-0.1,0.1-0.1,0.2c0.1,1.4,0.4,2.5,1.3,3.6c1.2,1.5,1.9,3.4,2.7,5.1
	c0.6,1.5,1.4,3.8,3.1,4.3c-2.6,1.6-1.4,5.3,0,7.4c0.1,0.1,0.2,0.2,0.3,0.4c-0.2,1.4-0.1,2.8,0,4.2c-0.1,0.2-0.1,0.3-0.2,0.5
	c-0.1,0.7-0.3,1.4-0.4,2.1c-0.1,0.6-0.7,1.9-0.3,2.5c-1.3-0.9-3.2-1.4-4.5-1.7c-2.2-0.6-5.1,0.4-7-0.8c-0.7-0.4-1.1-0.3-1.9-0.5
	c-1.6-0.2-3.3-1.1-4.8-1.6c-0.2-0.1-0.4,0.2-0.4,0.4c0.2,1.2,1.3,1.8,2.3,2.4c1.9,1.1,3.7,2.3,5.8,3.1c3.1,1.3,8.9,4.1,12,1.6
	c0.1,0,0.3,0,0.4,0c-0.5,4.8,0.1,9.9,0.3,14.7c-1.2-0.6-3-0.2-4.1,0.5c0-1.4-1.4-2.5-2-3.7c-1-2-3.3-3-4.3-5
	c-0.1-0.2-0.3-0.2-0.5-0.1c-1.2,1-0.2,2.8,0.4,3.9c1.3,2.5,3.3,5.4,3.6,8.2c0,0.2,0.2,0.3,0.3,0.3c-0.1,0.4-0.1,0.7-0.2,1.2
	c-0.3,1.7-1.2,3.8-0.3,5.5c0.4,0.7,1.3,0.5,1.8,0.1c0.4-0.3,0.7-0.6,1.1-0.9c0.1,1.1,0.7,2.2,1.5,3.1c0.5,0.6,1.1,1.3,1.7,1.7
	c1.5,0.9,1.4,3,1.4,4.5c0,2.8-0.9,6.4-0.2,9.4c-0.3-0.4-0.5-0.9-0.7-1.2c-0.8-1.3-1.8-2.2-2.9-3.2c-2.3-2-4.6-3.8-7.1-5.4
	c-1.3-0.8-2.5-2.3-3.2-3.7c-0.3-0.6-0.6-0.5-1.2-0.6c-0.2,0-0.3,0.2-0.3,0.3c0,4.5,2,8.4,5.3,11.5c1.3,1.2,2.8,2.8,4.6,3.3
	c1.1,0.3,2.4,1,3.4,1.1c0.8,0.1,1.3,0,2-0.1c-0.1,0.9-0.1,1.9,0.1,2.8c0.3,2.2,0.4,4.2,0.4,6.3c0,1.9,0.3,3.8,0.4,5.6
	c0.1,1.9,0.7,3.9,0.7,5.8c0,0.3,0.2,0.4,0.4,0.5c0.1,0.1,0.2,0.1,0.3,0.1h0.9c0.2,0,0.4-0.2,0.4-0.4c-0.1-3.8-0.6-7.6-0.7-11.4
	c-0.1-3.1-0.3-6.3-0.8-9.4c0.5,0.1,1.1,0.3,1.4,0.2c1.1-0.2,2-0.4,2.9-1c2.1-1.3,3.4-4.2,4.5-6.3c1.4-2.5,3.2-6.5,2.3-9.4
	c-1.1-3.4-5.8,2.4-6.5,3.3c-2.3,2.9-4.3,5.9-5.1,9.4c0.1-3.6,0.4-7.3,0.1-10.9l0,0C374.9,504.5,376.9,499.9,378.9,495.7z M360.3,517
	c-3.4-2.9-6-6.4-6.5-11c0-0.1,1.3,1.3,1.4,1.4c0.3,0.5,0.5,0.7,0.9,1.2c1.3,1.4,3.3,2.2,4.8,3.4c1.5,1.2,2.9,2.4,4.3,3.7
	c1.4,1.2,2.2,2.8,3.2,4.3C365.4,519.7,362.7,519,360.3,517z M373.2,483.5c-0.2,1.5-0.7,3-1.3,4.4c-0.5,1.1-1.4,1.9-2.2,2.7
	c0,0-0.1-0.1-0.2-0.1c-1-5.1,0.3-10.4-0.3-15.5c0,0,0.1-0.1,0.1-0.2c0.2,0.1,0.8-0.1,0.9-0.2c0.6-0.3,1.2-0.6,1.8-1c0,0,0,0,0,0.1
	C373.7,476.7,373.6,480.2,373.2,483.5z M374.9,470.9c-0.8,0.5-1.6,0.9-2.4,1.4c-0.6,0.4-2.4,2-3.1,2.1c0-1.2,0.1-2.5,0.1-3.7
	c0.5-0.8,0.7-1.9,1.2-2.7c0.3-0.5,0.9-1.2,1.1-1.8c1.7,0.7,3.5,2.2,5.5,2c0.1,0,0.1,0,0.1,0C376.8,469.2,376,470.2,374.9,470.9z
	 M369.5,465.1c0.6,0.3,1.1,0.6,1.7,0.8c-0.3,0.7-0.9,1.3-1.3,1.9c-0.3-0.5-0.4-1.1-0.4-1.6l0,0C369.5,466,369.5,465.6,369.5,465.1z
	 M378.5,460c0.9-0.3,1.8-0.7,2.7-1c0,0,2.3-1.1,1.5,0.6c-1.3,2.7-2.7,5.2-4.5,7.7c-0.1,0.2-0.3,0.4-0.4,0.5v-0.1
	c-0.4-2.4-1.6-4.5-3.1-6.4C375.8,460.6,377.2,460.5,378.5,460z M368.3,454.6c-0.2-1.4,0-3-0.2-4.4c-0.1-0.4-0.1-0.8-0.1-1.3
	C368.7,450.9,370.1,453.4,368.3,454.6z M380.9,434.7c2.4-0.7,0.9,2.2-0.1,3c-0.5,0.4-0.6,0.5-1.2,0.9c-1,0.9-3.6,2.9-5.3,2.8
	c-0.7-0.6-1.4-1.1-2.3-1.5c-0.5-0.2-1.2-0.1-1.8,0.2C373.3,437.4,376.9,435.9,380.9,434.7z M367.3,443l0.1-0.1h0.1
	c1.4-0.6,3.6-2.6,5.2-1.3c0.6,0.4,4.5,4.1,1.6,4.2C373.7,445.8,366.9,443.5,367.3,443z M367.5,444.3c-0.2,0.7-0.3,1.4-0.3,2.1
	c-0.2-1-0.7-2-1.5-2.7c0.3-0.1,0.5-0.2,0.8-0.3C366.7,443.7,367.1,444,367.5,444.3z M362.1,435c-0.4-1.2-0.7-2.3-1-3.5
	c-0.4-1.6-0.9-5.4,1.8-3.1c3.4,2.8,5,9.1,4.1,13.4C364.6,439.9,363.2,437.9,362.1,435z M357.3,440.2c-0.7-0.3-3.8-2.1-1.2-2.3
	c1.9-0.1,3.9,1,5.5,1.8c1,0.5,2.2,1,3.3,1.6c0.4,0.4,0.9,0.7,1.4,0.8c0.1,0.1,0.2,0.1,0.3,0.2c-2.2,1.2-4.2,0-6.4-0.8
	C359.2,441.1,358.3,440.7,357.3,440.2z M364,449.6c-1-2.3-3.2-4.5-3.3-7c1.5,0.6,3.2,1.3,4.6,1.1c0.9,1.9,1.4,3.4,1.4,5.6
	c0,1.8,0.4,3.7,0.4,5.5C365.4,454.1,364.6,451.2,364,449.6z M367.3,456.4c0.2,0.1,0.4,0.1,0.6-0.1c0.1,0.1,0.1,0.1,0.2,0.1
	c2,0,4,3.4,5.2,4.7c0.1,0.2,0.3,0.3,0.4,0.5c0,0,0,0,0,0.1c1.4,1.6,2.6,3.6,3,5.8c-1.3-0.1-2.4-0.9-3.5-1.5
	c-1.3-0.7-2.6-1.1-3.8-1.9V464c0,0,0,0-0.1,0h-0.1c-0.2-0.1-0.4-0.3-0.6-0.4C366.8,462,365.3,458,367.3,456.4z M355.2,472.8
	c-1.4-0.6-2.6-1.4-3.9-2.1c-0.6-0.3-3.9-2.4-1.5-1.5s5,1.9,7.6,1.8c2.4-0.1,8.9,0.3,9.9,3.4c0,0.1,0.1,0.1,0.1,0.1
	C364.9,477.2,358,474,355.2,472.8z M367.7,474.2c-0.2-0.6-0.7-1.1-1.2-1.4h0.1c0.5-0.5,0.5-2,0.7-2.8c0.1-0.3,0.1-0.6,0.2-1
	C367.6,470.7,367.8,472.4,367.7,474.2z M368.4,475.2v-0.1c0-0.1,0-0.2,0-0.4v-0.1c0.5-0.8,0.1-2-0.1-2.8c-0.4-1.6-0.4-3.2-0.5-4.8
	c0-0.2,0.1-0.4,0-0.6l0,0c0-0.9-0.1-1.9-0.2-2.8c0.3,0.4,0.8,0.7,1.2,1c-0.1,0.7,0,1.4,0.1,2c0.2,2.7-0.2,5.4-0.2,8.1
	c0,0.3,0.2,0.4,0.4,0.4c-0.2,1.5-0.3,3-0.3,4.5C368.6,478.1,368.5,476.6,368.4,475.2z M358.3,485.1c-0.2-0.4-1.4-3.1-0.3-2
	c0.6,0.6,1.2,1.2,1.9,1.8c1.7,1.6,2.9,4,4.1,6c-0.1,0-0.2,0.1-0.2,0.1c-0.9,0.7-1.3,1.4-1.7,2.3
	C361.5,490.4,359.7,487.6,358.3,485.1z M363,500.2c-1.3-0.1-1.7-0.6-1.2-1.8c0.1-0.7,0.3-1.3,0.4-2c0.2-1.2,0.3-2.3,0.8-3.4
	c0.6-1.3,3.8-3.3,5.5-2.3c0,0.1,0,0.1,0,0.2c0,0.3,0.3,0.4,0.5,0.3l0,0c0,0.1,0.1,0.1,0.2,0.1l0,0c0,0.1,0.1,0.1,0.2,0.1
	C371.7,494.1,364.5,498.7,363,500.2z M366.6,503.5c-1-0.9-1.7-2.2-2.2-3.4c0.6-0.5,1.1-0.9,1.7-1.4c0.4,2.1,1.7,3.8,2,5.9
	C367.6,504.2,367,503.9,366.6,503.5z M368.2,502.7c-0.6-1.4-1.3-2.8-1.5-4.4c0-0.1,0-0.1-0.1-0.1c0.6-0.5,1.1-0.9,1.7-1.4
	C368.1,498.8,368.1,500.8,368.2,502.7z M368.7,505.1L368.7,505.1c0-2.9,0.1-5.9-0.1-8.8c0.3-0.3,0.6-0.6,0.8-0.9
	c-0.2,3.3-0.7,6.5-0.3,9.8c0,0.2,0.2,0.3,0.4,0.3l0,0c0,0.1,0,0.1,0.1,0.2c-0.1,0.6-0.1,1.1-0.2,1.7
	C369.4,506.7,369.2,505.8,368.7,505.1z M377.9,505.6c0.8-1.2,1.8-1.3,2.9-0.3c0.1,0.5,0,1.2-0.1,1.7c-0.1,0.8-0.3,1.6-0.5,2.4
	c-0.7,2.6-2.2,5-3.7,7.3c-1,1.6-2.1,2.8-4,3.4c-0.9,0.2-1.7-0.3-2.4-0.4C370.6,514.3,374.1,509.4,377.9,505.6z M370.1,520.8
	c0.1,0,0.1,0,0.2,0c-0.4,3.4,0.3,7,0.4,10.4c0,1.8,0,3.5,0.2,5.3c0.1,0.7,0.7,3.6,0.2,4.5c0-0.9-0.2-1.8-0.4-2.8
	c-0.4-2-0.3-4.1-0.5-6.1s-0.1-4-0.2-6c-0.1-1.8-0.7-3.4-0.4-5.2c0,0,0,0,0.1,0c0.1,0.1,0.1,0.1,0.2,0.1
	C370,521,370.1,520.9,370.1,520.8z M370,505.2L370,505.2c0.8-1.4,1.2-2.8,2.2-4.1c1.2-1.4,2.4-2.9,3.5-4.4c2.1-2.8,3.5-6,5.9-8.4
	c0.4-0.4,0.8-0.8,1.3-1.2c0.1-0.1-1,2.5-1.3,2.9c-1.3,1.8-2.4,3.5-3.4,5.4c-0.9,1.8-1.7,3.6-2.8,5.3c-0.6,0.9-1.2,1.7-1.9,2.4
	c-0.3,0.3-3.2,2.2-3.2,2.6c0-0.2-0.1-0.3-0.3-0.3C370.1,505.3,370.1,505.2,370,505.2z"/>
<path class="st0" d="M306.4,272.3c-1.2-1.4-2.5-2-4.2-2.8c-3.3-1.6-1.2-6.5-0.5-9.1c0.4-1.3,0.8-3.1,0.5-4.4
	c-0.3-1.4-1.8-2.2-2.9-2.8c-1.8-1.1-3.6-0.9-4.7,0.2c-0.8-0.1-1.4,0.4-2.1,1.1c-0.7,0.8-1.1,1.8-1.8,2.5c-1.2,1.4-2.6,2.6-4.1,3.8
	c-1.7,1.4-3.3,2.9-4.9,4.4c1.1-4.3,2.1-8.6,3.1-13c0.4-0.3,0.5-0.9,0.4-1.8c0-0.2-0.2-0.3-0.4-0.3c-0.7,0-1.1,0.1-1.8,0.5
	c-0.1,0.1-0.2,0.2-0.2,0.3s0,0.2,0,0.4s0.1,0.3,0.3,0.3c-0.1,0.1-0.2,0.1-0.2,0.2c-0.5-0.1-0.7,0.6-0.2,0.7c0.5,0.1,1,0.1,1.3,0.1
	c-0.4,1.9-0.8,3.8-1.3,5.7c-0.9,0-1.8,0-2.6,0.4c-0.4,0.2-0.1,0.9,0.3,0.8c0.1-0.1,0.2-0.1,0.4-0.1c0.2,0.2,0.5,0.2,0.8,0.3
	c-1.4,2.6-2.1,5.6-2.8,8.5c-0.8,0.8-1.5,1.6-2.2,2.4c-0.1,0-0.2-0.1-0.3-0.1c0.5-1.9,0.7-3.8,0.8-5.8c0.1-0.8,0.1-1.6,0.1-2.3
	c0-0.3,0-0.6,0.1-0.9c0.1,0,0.2-0.1,0.2-0.3c0-0.4,0-0.8-0.1-1c0.2-2.9,0.3-5.8-1-8.4c-0.2-0.3-0.4-0.6-0.6-0.9
	c0.1-0.1,0.1-0.2,0.1-0.3c0.1-1.9-1.6-2.6-2.6-1.8c-0.9-0.5-1.9-0.8-3-1c-0.1-0.4-0.3-0.9-0.5-1.3c0,0,0,0,0.1,0
	c0.2,0,0.3-0.4,0.2-0.6c-0.5-0.9-1-1.1-1.7-0.9c-0.2-0.1-0.4-0.1-0.6-0.1c-0.3,0-0.5,0.3-0.3,0.6l0,0c-0.2,0.2,0.1,0.6,0.4,0.6
	c0.4,0.4,0.8,0.6,1.3,0.5c0.2,0.3,0.4,0.7,0.5,1.1c-2.4-0.4-4.9-0.3-7.1,0c-0.2-0.7-0.4-1.4-0.5-2.1c0.1-0.1,0.1-0.3,0.2-0.5
	c0.1-0.3,0-0.5-0.2-0.6c-0.1,0-0.1,0-0.1,0c0-0.3-0.4-0.5-0.7-0.2c0,0,0,0-0.1,0.1c-0.4,0-0.7,0.2-1.2,0.7c-0.2,0.2-0.1,0.6,0.2,0.7
	c0.1,0,0.1,0,0.2,0c0.1,0.2,0.2,0.4,0.4,0.7c0.1,0.2,0.4,0.1,0.6,0l0,0c0.1,0.5,0.2,0.9,0.4,1.4c-0.6,0.1-1.1,0.2-1.6,0.3
	c-0.7,0.2-1.4,0.4-2,0.6c0-0.9-0.2-1.7-0.4-2.6c-0.1-0.2-0.2-0.3-0.4-0.2h-0.1c-0.1-0.1-0.2-0.1-0.3-0.1c-0.5,0.2-0.6,0.2-1,0.5
	c-0.1,0.1-0.1,0.2-0.1,0.3c-0.1,0.2-0.2,0.3-0.4,0.6c-0.1,0.2,0.1,0.6,0.4,0.5c0.7-0.2,0.9-0.4,1.2-0.8c0.2,0.4,0.3,1.2,0.4,2.1
	c-0.9,0.4-1.8,0.8-2.7,1.3c-0.1-0.3-0.2-0.6-0.4-0.8c0-0.1,0.1-0.2,0.1-0.3c0.1-0.2-0.1-0.4-0.3-0.4c-0.3,0-0.5,0-0.8,0
	c-0.4,0-0.4,0.5-0.1,0.6c-0.2,0.2-0.4,0.4-0.6,0.8c-0.1,0.2,0,0.5,0.3,0.4c0.6,0,0.9-0.1,1.1-0.3c0,0.1,0.1,0.2,0.1,0.3
	c-0.6,0.3-1.1,0.7-1.7,1c-0.2-1.5-0.4-3-0.4-4.6c0-0.1,0-0.2-0.1-0.3l0,0c0-0.1-0.1-0.1-0.2-0.1c-0.9-0.4-1.3-0.4-2.2,0
	c-0.3,0.1-0.4,0.6,0,0.7c0.2,0,0.4,0.1,0.6,0.1c0,0.2,0.2,0.3,0.4,0.3c0,0.1,0,0.2,0.1,0.3s0.3,0.2,0.5,0c0.1-0.1,0.2-0.2,0.3-0.3
	c0.1,1.4,0.3,2.8,0.5,4.2c-0.4,0.3-0.8,0.5-1.1,0.8c-2.2,1.7-4.7,3.6-4.7,6.6c0,0.6,0.1,1.3,0.3,1.9c-0.7,0.2-1.3,0.6-1.9,1.3
	c-0.2,0.2-0.1,0.5,0.2,0.6c0.7,0.2,1,0.1,1.4-0.3c0.4,0.2,0.7,0.3,1,0.2c0.1,0.1,0.1,0.3,0.2,0.4c0.7,1.9,0.8,3.7,0.9,5.7
	c0,0.4,0,0.7,0.1,1.1c-0.1,0-0.1,0-0.2,0c-0.2,0-0.4,0.1-0.4,0.1c-0.7-0.3-1.2,0.1-1,1.9c0,0.2,0.2,0.4,0.4,0.3v0.1
	c0,0.1,0.1,0.3,0.2,0.3c0.6,0.1,1,0.1,1.3,0c0,0,0,0,0.1,0.1c0.1,0.7,0.3,1.4,0.6,2c-3.3-2.2-5.6-5.2-8.8-7.6
	c-2.8-2.1-5.8-1.9-9.1-1.1c-6.1,1.5-13.1,5.9-11.8,13c0.2,1,0.8,1.9,1.6,2.5c1.5,1.2,3,2.3,4.5,3.5c2.9,2.2,6.2,3.7,9.7,4.8
	c1.8,0.6,3.6,1.1,5.5,1.5c-0.1,0.1-0.2,0.2-0.3,0.4c-0.2,0.2-0.1,0.5,0.2,0.6c0.1,0,0.1,0,0.1,0s0,0,0,0.1c0,0.2,0.2,0.4,0.5,0.3
	c0.7-0.3,1-0.4,1.2-0.9c1.2,0.4,2.4,0.7,3.6,1c2.3,0.5,4.6,0.9,6.9,1.4c1.3,0.3,2.6,0.6,3.9,1c-7.9-0.4-19.8-1.6-21.3-2
	c-0.2-0.1-0.4,0-0.5,0.2c-2.3,5.1,6.4,9.7,9.8,11.5c3.9,2.1,8.3,3,11.6,6.1c0.9,0.9,1.7,1.7,2.4,2.3c-0.2,0.1-0.2,0.4,0,0.6
	c2,2.1,5.3,8.9,9.2,8.2c-0.5,1.6-0.8,3.1-1,4.2c-0.5,2.3-0.6,4.6-0.4,7c0.1,1.1,0.3,2.2,0.8,3.2c0.3,0.5,0.6,1.1,0.9,1.6
	c0.1,0.2,0.6,1.1,0.9,1.6l0,0c0,0.1-0.1,0.3-0.1,0.4c-0.1,0.2,0.3,0.4,0.4,0.2c0-0.1,0-0.1,0.1-0.2c0,0.2,0,0.3,0,0.5
	s0.1,0.4,0.3,0.5c-0.1,1.3,0.3,3.1,0.3,4.2c-0.1,4.4,0.3,8.9,0.3,13.3l0,0c0,0-0.1,0-0.1,0.1c0,0,0,0-0.1,0c-1.9-2.3-3.3-5-4.7-7.6
	c-1.5-2.9-3.5-6.1-3.9-9.4c0.1-0.8,0.3-1.6-0.3-2.3c-0.1-0.1-0.3-0.1-0.3,0.1c-0.8,4-0.8,7.6,0.9,11.4c1.5,3.3,4.6,7.8,8.2,9.2
	c-0.3,0.8-0.4,1.9-0.5,2.6s-0.2,1.5-0.2,2.2c-2-0.8-7.4-2.4-6.1,1.3c0.6,1.6,2,2.9,3,4.3c0.8,1.2,1.7,2.5,2.2,3.8
	c0.3,0.7,0.3,1.2,1,1.6c0.1,0.1,0.1,0,0.2,0c0.1,2,0.3,4,0.5,6c0.2,1.7,0.3,4.2,1.6,5.6c-0.1,0.1-0.1,0.2-0.1,0.3
	c0,0.6,0.2,1,0.6,1.3c-0.1,5.7,0.4,11.5,0.4,17.2c-0.1,0-0.2,0.1-0.2,0.1c-0.1,0.1-0.1,0.1-0.1,0.2c-1-1.6-1.6-3.4-2.7-5
	c-1.2-1.6-2.3-3.3-3.6-4.8c-2-2.3-4.7-6.5-7.9-7c-0.2,0-0.3,0.1-0.4,0.3c-0.4,3.4,2.4,6.3,4.4,8.7c2.8,3.3,6,7.3,9.9,9.2
	c0.1,0.1,0.3,0.1,0.4,0c0.7,7.3,1.6,14.5,1.9,21.7c-0.5-1.2-0.6-2.6-1.1-3.8c-1-2.5-1.7-5.1-2.7-7.6c-1.4-3.6-4.1-7.2-6.6-10.2
	c-1.2-1.5-3.2-3.1-5.2-2c-1.5,0.8-1.2,3.3-1,4.6c0.9,5.9,3.6,11.3,7.2,15.9c1.7,2.1,3.6,5.2,5.9,6.7c0.8,0.6,1.6,0.9,2.6,0.6
	c-0.3,3.3,0.4,7,0.5,10.2c0,2.3-0.1,4.7-0.2,7s0.3,4.6,0.5,6.9c-1-0.6-2-1.1-3.1-1.5c-2.7-1-5.2-2.2-7.9-3.3
	c-2.9-1.2-5.9-1.5-8.6-3.1c-2-1.2-3.4-1.3-5.7-1.3c-0.2,0-0.3,0.1-0.3,0.3c-0.1,1.3,0.7,2,1.7,2.7c2.1,1.4,4.7,2.2,6.9,3.6
	c2.4,1.5,4.5,2.6,7.3,2.9c3.3,0.4,6.5,1,9.8,1.7c0.1,1.3,0.2,2.6,0.2,3.8c-0.2-0.5-0.4-1-0.6-1.5c-0.4-1.1-1-1.8-2.2-1.8
	c-3.5,0-3.4,5.7-3.2,7.8c0.3,5.4,1.1,10.7,1.8,16.1c0.3,2.3,1.1,4.7,1.9,6.8c0.2,0.5,0.5,1.3,1,1.7c0,0.1,0,0.2,0,0.3
	c0.2,1.5,1.2,2.8,1.4,4.3c0,0.1,0.1,0.2,0.2,0.2c-0.2,9.1,0.1,18.3,0.3,27.4c0.1,4.7,0.3,9.4,0,14.1c-0.2,3.2-0.8,6.4-0.8,9.7
	c0,0.2,0.2,0.4,0.4,0.4c0.8,0,1.7,0.2,2.4-0.1l0,0c0.3-0.2,0.5-0.4,0.7-0.9c0.1-0.2-0.1-0.5-0.4-0.5h-0.1c0.1-1.6,0.2-3.2,0.4-4.8
	c0.3-2.1-0.1-4.3,0-6.4c0.3-4.9,0.3-9.8,0.3-14.6c0-4.9-0.2-9.8-0.4-14.8c-0.1-2.8,0.6-6.2-0.4-9c0.6,0,1.1-0.2,1.5-0.6
	c2.5-2.5,2.9-7.1,3.3-10.5c0.6-5.7,0.7-11.6,0.9-17.3c0.1-2.3,0-4.6,0.3-6.9c0.2-1.5,0.3-3-0.1-4.5c-0.5-1.8-2.4-1.7-3.6-0.8
	c1.4-2.5,2.5-6,2.8-6.9c2.9-7.5,6.2-15.5,6.3-23.6c0-0.3-0.4-0.5-0.6-0.3c-1.6,1.3-2.3,3.1-3,5c-1,2.8-2,5.8-2.7,8.7
	c-0.9,3.7-2.5,6.8-3.8,10.3c-0.6,1.5-1.3,3-1.8,4.6c0.1-8,0.2-15.9,0.1-23.9c1.4-1,2.1-2.5,2.7-4.1c1.1-2.3,2.1-4.8,3-7.2
	c1.5-4,4.2-8.8,2.9-13.1c-0.7-2.1-3.1-0.5-4.1,0.3c-1.1,0.9-2.1,2-3,3.2c-0.9,1.3-1.6,2.6-2.3,4c-0.1,0.2-0.2,0.4-0.3,0.7
	c-0.2-2.5-0.4-5.1-0.7-7.6c3.6-0.3,6.5-5.4,8.2-8.1c1.6-2.5,2.6-5.1,3.7-7.8c1-2.3,2.6-4.7,2.4-7.3c0-0.1-0.1-0.2-0.2-0.3
	c-2.9-1.3-4.9,4.5-6.1,6.3c-2,3-3.7,6.2-5.3,9.4c-0.8,1.6-2.1,3.3-2.9,5.1c0-2.4,0-4.8,0-7.3c0-2.9-0.6-5.6-0.8-8.5
	c0.3-0.1,0.6-0.2,0.9-0.3c3.1-1.6,3.4-5.5,3.4-8.6c0-2.1-2.6-15-5.1-19.8c1.1-0.3,2.5-0.6,3.3-1.5c1.6-1.6,2.5-3.9,3.4-5.9
	c1.9-4.4,3.1-8.1,3.1-12.9c0-0.2-0.1-0.3-0.3-0.3c-0.1,0-0.3,0-0.4,0s-0.3,0.1-0.3,0.2c-0.3,2.2-1.9,3.8-3.3,5.5
	c-1,1.3-1.6,3.1-2.4,4.6c-0.9,1.7-1.8,3.3-3,4.7c-0.5,0.5-0.7,1.2-0.9,1.9c-0.1-2.3-0.3-4.5-0.4-6.8c-0.1-2.1-0.1-4.1-0.1-6.2
	c0-0.7-0.2-2.7,0.3-3.6c2.4-1.9,2.7-6,2.8-8.9c0.1-4.5-0.7-9.4-2-13.7c0.8-1.4,1.6-2.8,2.4-4.1c1.9-3.1,5-6.1,4.8-10
	c0-0.2-0.3-0.4-0.5-0.3c-4.8,3.1-8.9,8.7-10.7,14.4c0-0.9,0-1.8,0-2.6c0.1-1.4,0.4-2.9,0.3-4.4c3.5-1.9,7-4.1,8.1-7.9
	c0.7-2.4-1.1-4.9-3.3-5.6c-1.2-0.4-2.4-0.7-3.6-0.9c0.5-0.2,1-0.3,1.4-0.5c3,0.2,5.9,0.6,8.3,2.5c1.8,1.5,3,3.9,3.7,6.1
	c0.3,0.9,0.8,1.8,1.8,1.9c3.9,0.4,7.5-4.2,9-7.4c0.3-0.7,0.4-1.4,0.6-2.2c0.4-2.1,1.2-3.2,2.7-4.6c1.4-1.4,3.6-3.3,4.2-5.4
	c0.7-2.2,1.3-6.4-1.4-7.4c-1.4-0.5-2.7,0.7-3.7,1.5c-2.6,2-5.9,1.7-9,1.7c-1.9,0-3.6,0.2-5.3,0.5c0,0,0,0,0.1-0.1
	c1-0.5,2.1-1,3.2-1.4s2-0.1,3-0.6c3-1.3,6-2.6,9.3-3.3c2.3-0.5,4.6,0.2,7,0.1C308.4,277.5,308,274.2,306.4,272.3z M265.8,354.2
	c-1.7-2-2.8-3.9-3.8-6.4c-0.8-2-0.9-3.9-0.7-6c0,0.2,0.1-2.5,0.2-1.5c0,0.3,0,0.6,0,0.9l0,0l0,0c0,0.2,0,0.4,0,0.6c0,0,0,0,0.1,0
	c0.3,2.7,1.7,5.3,2.9,7.7c1.3,2.6,2.5,5.5,4.3,7.9C267.6,356.5,266.7,355.3,265.8,354.2z M269.6,375.3c-0.7-0.5-1.5-2.9-1.9-3.6
	c-0.6-1.1-1.3-2.1-2-3c-0.8-1-1.6-2.1-2.1-3.3c-0.6-1.8,2.4-0.9,2.8-0.8c1,0.2,2,0.5,2.9,1l0,0c0,1.7,0,3.4,0,5
	C269.4,372.2,269.5,373.8,269.6,375.3L269.6,375.3z M264.5,399.9c-2.4-2.3-4.9-5.2-6.1-8.3c-1.2-3.3,2.8,0.6,3.6,1.4
	c1.4,1.5,2.9,3,4.2,4.6c1.2,1.6,2.5,3.2,3.7,4.9c0.9,1.3,1.3,2.8,2.1,4.2C269,404.9,266.9,402.2,264.5,399.9z M285.2,263.2
	c1.9-1.6,3.8-3,5.5-4.8c0.4-0.4,1.7-2.4,2.7-3.4c-0.2,0.5-0.3,1-0.3,1.6c-0.1,2.5,0.1,4.9,0,7.4c-0.1,2.9-2,4.5-4.4,5.3
	c0.1-0.3,0.3-0.6,0.4-0.9s-0.3-0.5-0.5-0.4c-0.3,0.2-0.6,0.3-0.8,0.5c-0.3-0.1-0.6-0.1-1-0.2c-0.3,0-0.5,0.3-0.3,0.6
	c0.2,0.3,0.3,0.5,0.5,0.6c0,0.1-0.1,0.2-0.1,0.3c-0.7,0.1-1.3,0.2-2,0.2c-0.5,0-1,0-1.6,0c0.3-0.9,0.6-1.8,0.9-2.6
	c0.2,0.1,0.3,0.1,0.5-0.1c0.5-0.5,0.5-0.8,0.5-1.5c0-0.2-0.2-0.4-0.4-0.4c-0.4,0-0.7,0-1,0.1c-0.2,0-0.4,0-0.6,0s-0.3,0.1-0.3,0.2
	c-0.2,0-0.4,0.1-0.6,0.2l0,0C283.2,265,284.2,264.1,285.2,263.2z M268.5,295c-0.3,0-0.6,0-0.8,0.1c3.5-2.4,6.4-5.6,9.1-8.9
	c1.1-0.6,2.2-1.1,3.4-1.5c-0.6,0.7-1.2,1.5-1.9,2.2C275.5,290,272.1,292.8,268.5,295z M268.7,295.4c0.5,0,0.9,0,1.4,0.1
	c-0.3,0.1-0.7,0.2-1,0.3c-0.3,0-0.5-0.1-0.8-0.1C268.4,295.6,268.5,295.5,268.7,295.4z M265.7,285.1c0-0.6,0-1.2,0-1.7
	c0-1.1,0.1-2.2,0.3-3.2c0.1,0,0.1-0.1,0.2-0.1c-0.1,3.5-0.3,7.1-0.5,10.6C265.8,288.8,265.7,286.8,265.7,285.1z M265.9,278.1
	c0.1-1.1,0.2-2.2,0.3-3.3c0,1,0,2.1,0,3.1c0,0.1,0,0.1,0,0.2C266.1,278.1,266.1,278.1,265.9,278.1C266,278.1,266,278.1,265.9,278.1z
	 M266.7,279.4c0.1-0.1,0.1-0.2,0.2-0.3c0.1-0.2,0-0.5-0.2-0.6c0-0.2,0-0.4,0-0.6c0-2.3,0-4.6,0-6.9c0.4-2.6,1-5.4,1.7-8
	c0.2,3.2,0.1,6.4,0,9.6c-0.1,2.7-0.4,5.3-0.7,7.9c-0.4,3.1-1,6.1-1.7,9.1C266.3,286.3,266.6,282.9,266.7,279.4z M267.3,287.3
	c0.5-2.9,0.9-5.8,1.2-8.7c0.1-1.2,0.3-2.4,0.4-3.6c0.4-4.6,1-9.1,0.3-13.7c0-0.1,0-0.2,0-0.2c0.2-0.6,0.5-1.3,0.7-1.9
	c0.4-0.8,0.8-1.7,1.2-2.5c0.2,2.3,0.2,4.6,0.2,6.8c0,0.1,0,0.2,0,0.3c-0.3,0.1-0.4,0.5-0.1,0.7c0,0,0,0,0.1,0c0,3.1-0.3,6.2-0.6,9.3
	c0,0.4-0.1,0.7-0.1,1.1c-0.3,0-0.6,0.1-0.9,0.4c-0.2,0.1-0.2,0.4,0,0.6c0.3,0.2,0.5,0.3,0.6,0.3l0.1,0.1c-0.6,4.4-1.7,8.7-2.6,13
	c-0.4,0.7-0.8,1.5-1.2,2.2C266.7,290.2,267,288.8,267.3,287.3z M272.5,272.4c-0.2,1.3-0.5,2.6-0.9,3.9c-0.1-0.4-0.2-0.8-0.4-1
	c0.1-0.2-0.1-0.3-0.2-0.4c0.1-0.7,0.2-1.4,0.2-2.1c0.3-2.7,0.5-5.3,0.5-8c0.3,0.1,0.6,0.2,0.8,0.1c0.1,0.3,0.1,0.7,0.1,1.3
	C272.6,268.3,272.8,270.4,272.5,272.4z M270.6,278.3c0,0.8-0.1,1.7-0.2,2.5c-0.2,0.7-0.4,1.5-0.5,2.2
	C270.2,281.5,270.4,279.9,270.6,278.3z M268,290.7c0.5-0.7,0.8-1.6,1-2.4c0.1-0.3,0.2-0.6,0.4-1c0.7-1.2,1.3-2.4,1.9-3.7
	c-0.7,2.2-1.3,4.4-2,6.5c0,0.1,0,0.1-0.1,0.2c-0.3,0.3-0.5,0.5-0.8,0.8c-0.2,0.3-0.7,1-1.2,1.8C267.5,292.2,267.8,291.4,268,290.7z
	 M274.8,275.9c-0.5,1.1-0.9,2-1.1,2.3c0.4-1.4,0.8-2.7,1.1-4.1c0.1,0,0.2-0.1,0.3-0.2c0.2-0.3,0.5-0.6,0.7-0.9
	c-0.1,0.3-0.2,0.7-0.3,1c-0.2,0.2-0.3,0.5-0.3,0.8c0,0.1-0.1,0.2-0.1,0.3c-0.1,0-0.1,0.1-0.2,0.1
	C274.7,275.5,274.7,275.7,274.8,275.9z M275.3,276c0.1,0,0.2,0,0.3-0.1c0.1,0.1,0.3,0,0.4-0.1c0.1,0,0.1,0,0.2-0.1
	c0,0.1,0,0.3,0,0.6c0,0.2,0,0.4-0.1,0.6c-0.2,0.7-0.5,1.3-0.7,2c-1.1,2.7-2.2,5.4-3.4,8.1c-0.1,0.3-0.3,0.7-0.6,1.3
	c-0.4,0.3-0.8,0.6-1.2,1c0.9-2.8,1.9-5.6,2.7-8.5c0.1-0.3,0.1-0.5,0.2-0.8C274,278.7,274.7,277.4,275.3,276z M275.6,280.5
	c-0.5,2.4-1.5,4.7-2.8,6.8c0,0,0,0-0.1,0c0.9-2,1.5-3.7,1.8-4.3c0.4-0.9,0.7-1.8,1.1-2.7C275.6,280.4,275.6,280.4,275.6,280.5z
	 M278.2,278.2c0.8-2.2,1.5-4.5,2-6.9c0.8-0.1,1.6-0.1,2.4-0.1c-0.2,0.7-0.5,1.3-0.7,2c-1.2,3-2.6,6-4.3,8.8
	c-0.8,1.3-1.6,2.6-2.4,3.8c-0.4,0.2-0.7,0.4-1.1,0.7C275.7,283.8,277.1,281,278.2,278.2z M273.1,288.5c-0.8,0.9-1.5,1.9-2.4,2.8
	c0.5-0.7,1-1.4,1.4-1.9c0,0,0-0.1,0.1-0.1C272.5,289,272.8,288.8,273.1,288.5z M268,294.3c0.5-0.4,1.1-0.8,1.5-1.4
	c1.6-1.5,3-3.2,4.4-5c0.6-0.4,1.3-0.9,1.9-1.2c-2.5,3-5.2,5.7-8.3,8C267.7,294.6,267.8,294.4,268,294.3z M275.6,285.5
	c3-4.4,5.4-9.2,7.3-14.3c1.6,0,3.1,0.1,4.3-0.1c-2.3,4.4-5.7,8.1-8.7,12.1c-0.3,0.5-0.7,0.9-1,1.4
	C276.9,284.9,276.3,285.2,275.6,285.5z M282,266.1c-0.1,0.3,0.1,0.7,0.5,0.6c0.2-0.1,0.5-0.1,0.6-0.1c0.2,0.3,0.4,0.5,0.8,0.7
	c-0.1,0.6-0.5,1.4-0.6,1.8c-0.1,0.3-0.2,0.7-0.3,1c-0.8,0-1.6,0-2.5,0.1c0.3-1.1,0.5-2.2,0.8-3.3C281.5,266.6,281.7,266.4,282,266.1
	z M282.2,259.5c0.1,0,0.2,0,0.3-0.1c-0.5,2.1-1,4.3-1.5,6.4c-0.4,0.4-0.8,0.8-1.2,1.2C280.4,264.4,281.1,261.9,282.2,259.5z
	 M279.2,269c0.4-0.5,0.9-0.9,1.3-1.4c-0.2,0.9-0.5,1.8-0.7,2.7c-0.3,0-0.7,0.1-1,0.1C279,269.9,279.1,269.4,279.2,269z M279.5,271.4
	c-0.3,1-0.5,2-0.8,3c-0.7,2.5-1.7,4.9-2.8,7.2c0.4-1.4,0.7-2.9,0.8-4.3c0.3-0.9,0.6-1.8,0.9-2.7c0.3-1,0.6-2,0.8-3.1
	C278.9,271.5,279.2,271.4,279.5,271.4z M276.4,272.5c0.4-0.3,0.9-0.6,1.4-0.7c-0.2,0.7-0.4,1.3-0.6,2c-0.1,0-0.1-0.1-0.2-0.1
	c-0.4,0-0.7,0-1,0.1C276.2,273.4,276.3,272.9,276.4,272.5z M273.7,250.8c0.2,0,0.4,0,0.6,0c0.7,0.7,1.2,1.4,1.6,2.4
	c0.7,1.8,0.7,3.9,0.6,6.1c-0.3-0.1-0.7,0-1,0.2l0,0c-0.2,0-0.3,0.1-0.3,0.2c-0.1,0.1-0.2,0.2-0.3,0.3c-0.3,0.3,0.2,0.8,0.5,0.5
	c0.1,0,0.2,0,0.2,0c0.2,0.2,0.4,0.3,0.6,0.5c0,0,0,0.1,0.1,0.1c0.1,0.3,0.1,0.6,0.1,0.9c0,0.4,0,0.8-0.1,1.2c0,0.3,0,0.7,0,1
	c-0.1,0.9-0.3,1.9-0.4,2.8c-0.3,1.9-0.8,3.8-1.3,5.7c-0.2,0.2-0.3,0.4-0.4,0.7c-0.1,0.3-0.1,0.5,0.1,0.7c-0.2,0.6-0.3,1.2-0.5,1.8
	c-0.5,1.8-1,3.6-1.6,5.4c-0.7,1.3-1.4,2.5-2,3.8c0,0,0,0,0,0.1c0.3-1.1,0.5-2.2,0.8-3.2c0.8-2.8,1.5-5.6,2.2-8.4
	c0.6-2.8,0.3-5.8,0.3-8.7c0.1,0,0.2-0.1,0.3-0.1c0.2-0.1,0.2-0.5,0-0.6c-0.8-0.4-0.6-0.4-1.4-0.4c-0.2,0-0.3,0.2-0.3,0.4H272
	c0-0.8,0-1.6,0-2.3c0-1.9-0.1-3.9-0.3-5.8c0.3-0.6,0.6-1.3,0.9-1.9C272.9,252.8,273.3,251.8,273.7,250.8z M272.6,249.6
	c-0.1,0.2-0.1,0.5-0.1,0.8c0,0.2,0.1,0.4,0.3,0.4c-0.3,0.9-0.7,1.8-1,2.7c-0.1,0.3-0.3,0.6-0.5,1c-0.2-1.6-0.3-3.1-0.6-4.7
	c-0.1-0.3-0.1-0.6-0.2-1C271.3,249,272,249.3,272.6,249.6z M270,248.6c0.4,1.7,0.6,3.6,0.7,4.4c0.1,0.8,0.2,1.6,0.3,2.4
	c-0.6,1.2-1.1,2.3-1.7,3.5c-0.1,0.2-0.2,0.5-0.3,0.7c-0.3-2.7-0.4-5.4-1.6-7.9c0.1,0,0.1,0.1,0.2,0.1c0.2,0.1,0.5,0,0.5-0.3
	c-0.2-1.6-1.4-2.2-2.2-0.6v0.1l0,0v0.1l0,0c0,0.1,0.1,0.2,0.2,0.2s0.1,0,0.2,0c0.2,0,0.3,0,0.4,0c1,1.7,1.4,3.6,1.6,5.4
	c-0.2-0.7-0.3-1.4-0.5-2.1c0-0.1-0.1-0.2-0.2-0.2c-0.5-1-1.6-0.8-2,0.6v0.1c-0.2,0.2-0.3,0.4-0.5,0.6c-0.1,0.1-0.1,0.3,0.1,0.4
	c0.9,0.7,1.9,0.9,2.4,0.3c0,0.1,0,0.2,0.1,0.2c0.3,0.9,0.4,1.9,0.6,2.9c0.1,0.5,0.2,1.1,0.2,1.6c-0.7,2-1.1,4-1.5,6.1
	c0-1.3,0.1-2.5-0.1-3.8c0.7-0.9,0.9-2.2-0.5-2.5c-0.2,0-0.4,0.1-0.4,0.2c-0.2,0.7-0.2,0.6-0.1,1.2c0,0.1,0.1,0.1,0.1,0.2
	c0,0.4,0,0.8,0,1.2c0,0.2,0.2,0.3,0.4,0.3c0.2,1.7,0.1,3.4,0,5.1c0,0.6,0,1.1,0,1.7c-0.4,2.4-0.7,4.9-0.8,7.4c-0.1,0-0.1,0-0.2,0.1
	c0-2.9,0-5.9-0.1-8.8c-0.1-4.5-0.3-9.1-0.3-13.6c0-2.6-1.1-5-1.9-7.4C265.1,248.1,267.7,248.1,270,248.6z M265.2,280.5
	c0,0.9,0,1.7,0,2.6c0,0.7,0,1.4,0,2.1c0-0.6,0-1.2,0-1.7C265.2,282.5,265.2,281.5,265.2,280.5L265.2,280.5z M258.3,249.7
	c0.5-0.2,1-0.4,1.4-0.5c0.7-0.2,1.5-0.4,2.4-0.6c0.7,2.1,1.6,4.2,1.8,6.4c0.5,4.4,0.2,9.1,0.4,13.5c0.1,3.4,0.1,6.8,0.1,10.2
	c0,0-0.1,0.1-0.2,0.1c-0.1-2.1-0.1-4.2-0.2-6.3c-0.1-5.7-0.1-11.5-2.3-16.8h0.1c0.1,0,0.3,0,0.4,0c0.2,0,0.4-0.2,0.3-0.4l0,0
	c0.1-0.1,0.3-0.3,0.4-0.5s0.1-0.4-0.1-0.4c-0.8-0.4-1.4-0.5-1.9-0.2c0,0,0,0,0-0.1c-0.1-0.2-0.4-0.2-0.5,0c-0.3,0.6-0.3,1.1-0.1,1.4
	c0,0.2,0.1,0.3,0.3,0.3l0,0c0.1,0.1,0.3,0.1,0.5,0.1c0.1,0.2,0.1,0.4,0.3,0.7c0.6,1.5,1,3,1.3,4.6c-0.6,0-1.6-0.2-2.2,0.2
	c-0.2,0.1-0.2,0.4,0,0.5c0,0,0.1,0,0.2,0.1c-0.1,0.1-0.2,0.2-0.3,0.3c-0.1,0.1-0.2,0.4,0,0.5c0.4,0.3,0.8,0.6,1.2,0.5
	c0,3.6,0.5,7.2,0.9,10.8c-0.5,0.1-0.7,0.5-0.8,0.9c-0.2-1.3-0.5-2.5-0.6-3.7c-0.6-4.2-1-8.3-1.8-12.5c-0.4-2.4-1.2-4.5-1.2-6.9
	C258.3,250.9,258.3,250.3,258.3,249.7z M264.5,280.4c0,0.7,0,1.3,0,2c0,1.7-0.1,3.5-0.1,5.3c0-0.2-0.1-0.4-0.1-0.5
	c0-1.2,0-2.4,0.1-3.6c0-1,0-2.1,0-3.1C264.4,280.4,264.5,280.4,264.5,280.4z M256.9,275.5c0.3,1,0.7,2,1.1,2.9c0,0.1,0,0.3,0,0.4
	c0,0.2,0,0.5,0.1,0.7c-0.5-1.5-0.9-3-1.3-4.5C256.9,275.2,256.9,275.4,256.9,275.5z M255.3,269c-0.3-1.3-0.6-2.7-0.8-4
	c0.1,0,0.1,0,0.2,0c1.3,2.3,2.1,4.8,2.5,7.5c0.1,0.5,0.2,1,0.3,1.5c0.1,0.7,0.2,1.3,0.3,2C256.9,273.7,256.1,271.3,255.3,269z
	 M258,272.8c-0.2-1.2-0.3-2.5-0.5-3.7c0.1,0,0.2,0,0.2-0.1c0.2-0.2,0.5-0.5,0.7-0.8c0.3,2.8,0.4,5.5,1,8.3c0.2,0.7,0.3,1.3,0.5,2
	c-0.5-1.4-1.1-2.9-1.5-4.3C258.3,273.7,258.1,273.2,258,272.8z M260.8,287c-0.2-0.5-0.5-1.1-0.7-1.6c-0.2-0.6-0.4-1.2-0.6-1.7
	c0,0,0,0,0.1,0s0.2,0,0.3,0c0.1,0.2,0.1,0.4,0.2,0.7C260.3,285.2,260.6,286.1,260.8,287z M260.4,283.5L260.4,283.5
	c0.4,0.8,0.7,1.6,1,2.4c0,0.2,0,0.4,0,0.6C261,285.5,260.7,284.5,260.4,283.5z M259.3,283.2L259.3,283.2c-0.2-0.5-0.4-1-0.5-1.5
	c0-0.5-0.1-1-0.1-1.5c0.3,0.9,0.6,1.7,0.9,2.6C259.5,282.9,259.4,283,259.3,283.2z M260,282.3c-0.5-1.4-0.9-2.8-1.4-4.2
	c0-0.4-0.1-0.9-0.1-1.3c0,0,0,0,0,0.1C258.9,278.7,259.4,280.5,260,282.3L260,282.3z M258.5,284.2c0.1,0.9,0.2,1.9,0.4,2.8
	c0,0.2,0.1,0.4,0.1,0.6c-0.8-1.4-1.5-2.8-2.4-4.2c-0.1-0.2-0.2-0.3-0.3-0.5c-0.3-1.1-0.4-2.2-0.4-3.4
	C256.8,281.1,257.6,282.6,258.5,284.2z M257.2,285.2c0.7,1.1,1.3,2.2,1.9,3.3c-0.4-0.4-0.8-0.8-1.3-1.3c-0.3-0.8-0.5-1.7-0.8-2.4
	C257,285,257.1,285.1,257.2,285.2z M259.7,290.3c0.3,0.9,0.6,1.8,1,2.6c-0.2-0.1-0.3-0.2-0.5-0.3c-0.8-1.2-1.5-2.6-2.1-4
	C258.7,289.2,259.2,289.7,259.7,290.3z M261.2,294.6c-0.2,0-0.3,0-0.5,0c-0.2-0.1-0.4-0.3-0.6-0.4c-2.1-1.2-4.2-1.5-6.1-3.2
	c-0.8-0.7-1.5-1.6-2.2-2.5c0.4,0.1,0.9,0.2,1.3,0.3c2.5,0.8,4.4,2.6,6.5,4C260.1,293.4,260.6,294.1,261.2,294.6z M260.6,290.6
	c-0.1-0.1-0.2-0.3-0.2-0.4c-0.5-1.6-0.9-3.2-1.1-4.6c0.3,0.6,0.7,1.2,1,1.9c0.3,0.5,0.5,0.9,0.8,1.3c0.1,0.2,0.2,0.5,0.3,0.7
	c0.3,1.3,0.7,2.6,1.1,3.9C261.8,292.5,261.2,291.5,260.6,290.6z M262.4,286.3c-0.1-0.6-0.3-1.1-0.4-1.7c0-0.6,0-1.3-0.2-1.9
	c0.1-0.1,0.2-0.2,0.1-0.4c-0.1-0.1-0.2-0.2-0.3-0.3c0-0.1-0.1-0.1-0.1-0.1c0-0.1,0-0.1,0-0.2c0-0.2-0.2-0.3-0.3-0.3
	c-0.8-3.2-1.7-6.5-1.8-9.7c-0.1-1.6,0-3.2-0.2-4.8c-0.3-1.9-0.8-3.9-0.8-5.8c0-0.7,0-1.8-0.5-2.5c0.2-0.1,0.5-0.2,0.7-0.3
	c0.2-0.1,0.2-0.2,0.2-0.3c0.8,3.6,1.1,7.3,1.6,10.9c0.3,2.1,0.6,4.1,1,6.2c0,0.1,0,0.1,0,0.2c0.8,4.6,1.7,9.2,2.4,13.8
	c0,0.3,0.1,0.5,0.1,0.8c0,0.1,0,0.3,0,0.4c-0.2-0.5-0.3-1-0.5-1.6C263,288,262.7,287.2,262.4,286.3z M262.1,275.8L262.1,275.8
	L262.1,275.8c0.1,0.2,0.3,0.3,0.5,0.2c0,0.8,0.1,2.2,0.2,3.3C262.5,278.1,262.3,276.9,262.1,275.8z M262.3,262.8
	c0.3-0.2,0.5-0.5,0.7-0.8c0,0.1,0,0.1,0,0.2c0.6,3.8,0.6,7.7,0.6,11.5l0,0c-0.1,0-0.1,0-0.2,0C263,270.1,262.5,266.5,262.3,262.8z
	 M257.6,249.9c0,0.7,0,1.4,0,1.6c-0.1,1.8,0.3,3.4,0.7,5.1c0.1,0.5,0.2,1,0.4,1.5c0-0.1-0.1-0.3-0.3-0.3c-0.9-0.4-2.6-0.2-2.1,1.3
	c0.1,0.3,0.5,0.3,0.6,0.1c0.7,1.2,1.2,6.6,1.2,7.1l0,0c-0.2,0.2-0.4,0.3-0.5,0.5c-0.1,0-0.3,0-0.4,0.1v-0.1c0-0.2-0.3-0.2-0.3,0
	c0,0.1,0,0.2,0,0.3c-0.1,0.1-0.2,0.1-0.2,0.1l0,0c-0.4-1.7-0.7-3.3-1.1-4.9c-0.8-3.8-0.1-7.4-0.6-11.1
	C255.9,250.7,256.7,250.3,257.6,249.9z M254.4,251.5c0,0.2,0,0.3,0,0.3c0,1.3-0.1,2.6-0.2,3.9c-0.2,3.2,0.5,6.5,1.3,9.7
	c-0.1-0.2-0.2-0.3-0.3-0.5c0-0.1,0.1-0.2,0-0.3c-0.2-0.5-0.2-0.5-0.6-0.7c-0.1-0.1-0.3-0.1-0.4,0c-0.1,0-0.1,0.1-0.1,0.1
	c-0.3-1.5-0.5-3-0.6-4.5c-0.2-2.3-0.6-4.6-1-6.8C253.3,252.2,253.8,251.8,254.4,251.5z M248.3,271.9c-0.2-0.1-0.4-0.1-0.6-0.2
	c0.2-0.2,0.3-0.4,0.5-0.7c0.1,0.1,0.1,0.2,0.2,0.3c0,0,0,0.1,0.1,0.1c0,0.1,0,0.2,0,0.3C248.4,271.9,248.4,271.9,248.3,271.9z
	 M248.1,262.3c0-0.1,0-0.1-0.1-0.2c0.1-0.2,0.2-0.4,0.3-0.6s0-0.5-0.2-0.5s-0.4-0.1-0.5-0.1c-0.9-3.2,0.6-4.9,3.1-7
	c0.4-0.4,0.9-0.7,1.3-1c0.2,1.5,0.5,3.1,0.8,4.6c0.3,2.2,0.7,4.4,1,6.5c-0.1,0.1-0.2,0.2-0.4,0.4l0,0c-0.5-1.2-1-2.4-1.3-3.6
	c0.4-0.4,0.4-1,0.3-1.6c0-0.1-0.2-0.2-0.3-0.2c-0.6,0-0.9,0.2-1.4,0.4c-0.2,0.1-0.2,0.4-0.1,0.5c0,0.1-0.1,0.1-0.1,0.2
	c0,0.2-0.2,0.4-0.3,0.6c-0.2,0.2-0.1,0.5,0.2,0.5c0.4,0,0.9,0,1.3-0.2c0.4,1.9,1.4,3.7,2.1,5.6c0.4,1.1,0.8,2.1,1.1,3.2
	c0.1,0.2,0.1,0.5,0.2,0.7c0.9,3.5,1.8,7,3,10.4c0,0.5,0.1,0.9,0.1,1.4c-0.8-1.5-1.6-3-2.4-4.6c0-1.8,0-3.6-0.5-5.2
	c-0.3-1-0.4-2.1-1-2.8c0-0.1,0-0.3,0-0.4c0-0.4-0.4-0.6-0.8-0.4c-0.2,0.1-0.4,0.2-0.6,0.4c-0.3,0-0.4,0.2-0.5,0.5c0,0.3,0,0.5,0,0.8
	s0.3,0.6,0.6,0.5l0,0c0.3,0.2,0.6,0,0.7-0.3c0,0,0.1,0,0.1-0.1c0.2,0.4,0.4,0.9,0.4,1c0.2,0.9,0.4,1.9,0.4,2.9c0,0.4,0,0.8,0,1.2
	c-0.6-1.2-1.3-2.5-1.9-3.7C252.4,271,250.4,264.5,248.1,262.3z M248.8,264.6c0.9,1.6,1.5,3.4,1.7,3.6c1.1,2.8,2.5,5.4,3.8,8.1
	c0.2,0.4,0.4,0.8,0.6,1.2c0,1.1,0.1,2.1,0.2,3.1c0,0.1,0,0.2,0,0.2c-1.1-1.9-2.2-3.9-3.4-5.8c-0.5-0.8-1.2-1.6-1.9-2.2
	c-0.4-1.5-0.5-3.2-0.5-4.7C249.3,266.9,249.1,265.8,248.8,264.6z M252.7,292.9c-3.8-0.8-7.6-1.9-11.4-2.8c-3.8-0.8-7.5-1.9-11-3.6
	c-2.8-1.4-4.9-3.5-7.4-5.3c-1.3-0.9-1.9-1.7-2.3-3.3c-0.5-2.6,0.9-4.2,2.5-6.1c2.3-2.6,5.3-3.8,8.6-4.6c1.9-0.5,3.7-0.8,5.6-0.4
	c2.1,0.5,3.5,2.4,5,3.8c2.5,2.5,5.2,4.8,8.4,6.3c0.6,0.3,1.2-0.4,0.7-1c-0.4-0.5-0.7-1-0.9-1.5c0.5,0.5,0.8,0.9,0.8,0.9
	c1.6,2.2,2.9,4.6,4.2,7c0.3,1.3,0.7,2.5,1.1,3.8c-1.3-1.4-2.5-2.8-2.8-4.2c0.2-0.1,0.4-0.2,0.6-0.3l0.1-0.1l0,0c0-0.1,0.1-0.1,0-0.2
	l0,0c0-0.1,0-0.1-0.1-0.2c0,0,0,0-0.1,0c0,0,0,0-0.1,0h-0.1l0,0l0,0c-0.2,0-0.3-0.1-0.5-0.1v-0.1c0-0.1-0.1-0.2-0.3-0.2
	c-0.1,0-0.3,0-0.4,0c-0.2,0-0.3,0.1-0.3,0.3v0.1c-0.4,0.1-0.8,0.4-1.2,1c-0.2,0.3,0.3,0.6,0.5,0.3c0.2-0.1,0.3-0.2,0.5-0.3
	c0.1,0,0.1,0,0.2,0c0,0.1,0,0.1,0,0.2c0,0.3,0.4,0.4,0.5,0.2c0.1-0.1,0.2-0.2,0.3-0.2c0.5,0.5,0.8,1.6,1.2,2.3c0.7,1,1.5,2,2.3,3
	c0.1,0.3,0.2,0.6,0.4,0.9c0.4,1.1,1,2.3,1.7,3.5c-2.1-1.5-4.1-3.2-6.6-4.1c-0.5-0.2-1-0.3-1.5-0.4c-0.3-0.4-0.6-0.8-0.9-1.1
	c-1-1.2-2.6-2.4-3.4-3.9c0.2-0.1,0.5-0.1,0.7-0.3c0.2-0.1,0.2-0.5,0-0.6c-0.4-0.2-0.8-0.3-1.1-0.3c-0.1-0.1-0.3-0.1-0.4-0.1
	c-0.1,0-0.3,0-0.4-0.1l0,0c-0.4-0.1-0.6,0.5-0.2,0.7c-0.1,0.1-0.2,0.2-0.2,0.2c-0.2,0.2-0.1,0.6,0.2,0.6s0.5,0,0.8,0
	c0,0.1,0,0.1,0.1,0.2c0.4,0.8,1.4,1.6,2,2.2c0.7,0.7,1.4,1.6,2.1,2.4c-1.4-0.2-2.9-0.4-4.3-0.7c-1.8-0.5-3.5-1.2-5.3-1.6
	c0,0,0,0,0-0.1l0,0c0-0.1,0-0.1,0-0.2v-0.1c0-0.1,0-0.1-0.1-0.2l0,0c-0.1,0-0.1-0.1-0.2-0.1l0,0c-0.2,0-0.4,0-0.5,0.1
	c-0.1,0-0.2,0-0.3,0.1c-0.1,0-0.2,0-0.2,0c-0.2,0.1-0.3,0.2-0.4,0.3l0,0c-0.1,0-0.1,0.1-0.1,0.1l0,0v0.1c0,0.1-0.1,0.2-0.1,0.3
	c-0.1,0.2,0.1,0.5,0.4,0.5h0.4c0.2,0.1,0.4,0,0.5-0.2c2.3,0.3,4.3,1.4,6.5,2c1.5,0.4,3.1,0.6,4.7,0.9c0.8,1,1.6,2.1,2.6,3
	c1.6,1.7,3.8,2,5.7,3.1C257,294,254.7,293.3,252.7,292.9z M266.1,320.8c-2.6-1.3-4.1-4.5-6-6.7c1.1,0.5,2.3,0.4,4.2-0.8
	c0.1-0.1,0.2-0.1,0.3-0.2c0.1,0.1,0.1,0.3,0.2,0.4c0.4,0.8,0.6,1.8,0.8,2.7c0.3,1.3,0.8,2.5,1.9,3.3c0.1,0.1,0.4,0,0.4-0.1
	c0.1,0.2,0.2,0.4,0.4,0.5h0.1c-0.1,0.4-0.1,0.7-0.2,1.1C267.6,321.2,266.9,321.2,266.1,320.8z M267.4,318.6
	c-0.9-0.9-1.1-2.1-1.4-3.3c-0.1-0.5-0.2-1-0.5-1.5c-0.1-0.3-0.4-0.6-0.7-0.9c0.5-0.3,1.1-0.7,1.7-1
	C266.8,314.2,267.6,316.4,267.4,318.6z M267.2,311.7c0.4-0.2,0.8-0.4,1.2-0.6c-0.1,1.3-0.2,2.6-0.3,3.8c0,0.3-0.1,0.8-0.2,1.5
	C267.7,314.8,267.3,313.2,267.2,311.7z M274.1,430.5c-2.1-2-3.7-4.1-5.1-6.8c-1.7-3.3-4.1-6.2-6.1-9.4h-0.1
	c1.1,3.8,4.4,7.2,6.2,10.7c0.9,1.8,2.5,5.6,4.7,6.2c-0.3,0.8-0.7,1.5-1.9,0.9c-1.2-0.6-2.1-1.9-2.9-2.9c-1.8-2.3-3.8-4.4-5.4-6.8
	c-2.4-3.4-3.9-7.5-4.8-11.5c-0.6-2.7-0.2-7.1,3.7-3.9c2.3,1.9,4,5,5.6,7.4c2.2,3.4,3.6,7.2,4.8,11.1c0.4,1.3,0.7,3.2,1.5,4.3
	c0,0.1,0,0.1,0,0.2c0,0-0.1,0-0.1,0.1C274.2,430.3,274.2,430.4,274.1,430.5z M274.2,458.7c-1.9-0.4-3.8-0.8-5.7-1.3
	c-1-0.2-2-0.2-3-0.3c-2.3-0.2-4.3-0.8-6.3-1.9s-3.9-2.5-6.1-3.3c-0.8-0.3-1.6-0.7-2.4-1.1c-0.9-0.3-1.2-0.9-1-1.8
	c1.5-0.1,2.4-0.1,3.9,0.7c2,1.1,3.6,2,5.8,2.6c2.8,0.8,5.4,2,8.1,3.1c2.4,0.9,4.7,1.7,6.8,3.1C274.3,458.6,274.3,458.6,274.2,458.7
	C274.3,458.6,274.3,458.6,274.2,458.7z M272.9,481.6c0,2.9-0.1,5.8,0.1,8.6c0,0.5,0.1,0.9,0.1,1.4c-0.3-0.4-0.4-0.9-0.6-1.4
	c-0.4-1.2-0.7-2.5-1-3.7c-1-3.9-1-7.9-1.7-11.9c-0.5-2.9-0.7-6.3-0.6-9.3c0-1,0.2-1.9,0.6-2.8c0.7-1.5,3-1.3,3.5,0.2
	c0.4,1.3,1,2.5,1.3,3.8c0,0.2,0,0.4,0,0.6c0,0.1,0.1,0.2,0.2,0.3c0,0.1,0,0.3,0,0.4C273.5,472.3,272.8,476.9,272.9,481.6z
	 M276.3,497.9c0.7,1.6,0.5,3.5,0.5,5.2c0,1.9,0,3.8,0.2,5.7c0.3,4.7,0.4,9.3,0.4,14c0,4.5,0,9-0.2,13.5c-0.1,1.8,0.1,3.6,0.1,5.5
	c0,2.1-0.4,4.3-0.6,6.5c-0.2,0-0.5,0.1-0.8,0.1c-1,0-0.7-0.5-0.8-1.3c-0.1-1.6,0.6-3.5,0.8-5.1c0.4-4.9,0.3-9.8,0.2-14.8
	c-0.2-9.9-0.2-19.8-0.5-29.8C275.8,497.6,276,497.7,276.3,497.9C276.2,497.8,276.2,497.8,276.3,497.9z M280,458
	c1.8-0.2,2.6,0.4,2.4,1.8c0,0.6,0,1.2-0.1,1.7c-0.1,0.8-0.2,1.6-0.2,2.4c-0.2,4.1-0.3,8.1-0.4,12.2c-0.1,3.6-0.4,7.1-0.7,10.7
	c-0.2,1.9-0.5,3.8-1.1,5.6c-0.2,0.7-0.4,1.3-0.6,2c-0.3,1-2.6,2.9-3.4,1.9c0.6-8.6,2.5-17.1,2.6-25.7c0-0.1-0.2-0.1-0.2,0
	c-0.4,4.4-1.1,8.8-1.5,13.2c-0.3,3.8-1.1,7.7-1.3,11.6c-0.2-0.2-0.5-0.2-0.7,0c-0.1-0.3-0.2-0.6-0.4-1c-0.2-0.5-0.4-1.1-0.5-1.6
	v-0.1v-0.1c-0.3-1.4-0.2-3-0.2-4.4c0-4-0.1-8,0.3-11.9c0.3-2.6,0.8-5.2,1.6-7.8c0.1-0.1,0.2-0.2,0.2-0.4c0-0.1,0-0.2,0-0.4
	c0.2-0.8,0.5-1.7,0.8-2.5C277.2,462.8,278.2,459.9,280,458z M276.1,463.4c-0.3,0.9-0.6,1.8-0.8,2.5v-0.1c-0.1-2-0.2-4-0.4-6
	c0.3,0.1,0.6,0.1,1,0.2c0.1,0,0.2,0,0.3,0l0,0C276,461.2,276.1,462.3,276.1,463.4z M276.7,460.1c0.3,0,0.6-0.2,0.9-0.4
	c-0.3,0.6-0.6,1.2-0.8,1.8C276.8,461,276.8,460.6,276.7,460.1z M282.3,442.3c0.6-2.6,1.3-5.2,2.2-7.8c0.8-2.4,1.5-5,3.3-6.8
	c-0.4,6.7-2.9,12.9-5.1,19.1c-0.4,1.2-4.2,11.8-6,12.3h-0.1l0,0V459l0,0C276.9,453.3,281,447.9,282.3,442.3z M279.2,410.6
	c1.2-1.6,5.5-6.4,5.7-1.7c0.2,4-1.9,8.3-3.6,11.8c-1.3,2.8-2.1,7.4-4.5,9.5c-0.4-4.4-0.6-8.8-0.9-13.3
	C277.1,415.1,277.7,412.5,279.2,410.6z M277.9,401c1-2.2,2.3-4.3,3.4-6.5c0.9-1.9,2.2-3.6,3.3-5.4c0.8-1.3,1.4-2.7,2.4-4
	c2.2-2.7,1.5,0.6,1.3,1.4c-0.3,1.1-1,2-1.4,3c-0.8,2.1-1.7,4.1-2.6,6.2c-1,2.4-2.6,4.8-4.3,6.7c-1.3,1.6-2.8,4-5.1,4.2
	C275.4,404.7,277.1,402.9,277.9,401z M274.1,396.5c0,3.6,0,7.2,0,10.7c0,0.3,0.2,0.4,0.4,0.3c-0.2,3.1,0,6.3,0.4,9.4
	c-0.1,0.1-0.1,0.2-0.2,0.3c-0.3,0.3,0,0.7,0.3,0.7c0,0.3,0.1,0.6,0.1,1c0.5,4.1,0.6,8.1,0.9,12.2c0,0.1,0.1,0.2,0.1,0.2
	c-0.2,9.2-0.4,18.5-0.4,27.7l0,0c-0.2-0.2-0.4-0.4-0.6-0.6v-0.1c-0.1-2.2-0.4-4.4-0.6-6.7c-0.2-2.6,0.2-5.3,0.2-8
	c0-2.4-0.3-4.8-0.4-7.2c-0.1-1.2,0-2.5-0.1-3.7c0.1-0.1,0.1-0.3,0.2-0.4c0.2,0.1,0.5,0,0.5-0.3s0-0.6,0-0.9c0.1-0.1,0.1-0.2,0.2-0.3
	c0.2-0.2,0.1-0.5-0.1-0.6c0.1-7.9-1.1-15.7-1.9-23.5c0.1-0.1,0.1-0.1,0.1-0.2l0,0c-0.1-5.8-0.4-11.6-0.6-17.4
	c0.2,0.1,0.4,0.1,0.7,0.1C273.4,391.6,274.1,394,274.1,396.5z M275,354.3c0.9-1.1,1.6-2.6,2.2-3.8c1-1.9,1.9-4,3.2-5.7
	c0.8-1,1.5-2.1,2-3.3c0,0.7-0.1,1.4-0.1,2.1c-0.2,2.6-1.1,5-2.3,7.2c-0.9,1.7-1.5,3.5-2.4,5.2c-1.2,2.2-2.5,2.8-4.7,3.5l0,0
	c-0.1-0.1-0.2-0.2-0.2-0.4C273.4,357.6,273.7,355.7,275,354.3z M272.1,360.9c1.4,3,2.2,6.4,3,9.7c0.8,3.2,1.9,6.2,2,9.6
	c0.1,1.6-0.1,3.3-0.6,4.8c-0.3,0.8-0.7,1.5-1.4,2.1c0,0-0.7,0.5-1.3,0.7l0,0c0.1-0.1,0.1-0.2,0.1-0.3c0-3,0.1-5.9-0.4-8.8
	c-0.7-4.1-1.6-7.9-1.8-12.1c0-0.4-0.6-0.4-0.6,0c0,3.2,0.4,6.3,1,9.4c0.6,3.7,0.8,7.2,0.8,10.9c-0.1,0-0.2,0-0.3,0
	c-1.5-1.3-1.5-4.1-1.7-5.9c-0.2-2.7-0.6-5.2-0.6-7.9c0-3.2-0.1-6.4,0.2-9.6C270.5,362.4,270.8,358.3,272.1,360.9z M271.4,346.9
	c0,3.9,0.3,7.7,0.3,11.6c-0.1,0-0.2,0-0.3,0v-0.1l0,0c0-4.4-0.4-8.9-0.5-13.3c0-1.4-0.2-2.8-0.4-4.2c0.4-0.1,0.8-0.2,1.2-0.4
	C271,342.3,271.4,346,271.4,346.9z M274,329.5c0.1,3.1,0.3,9.1-3.4,10.3c-0.5-6.2,1.6-12.4,2.4-18.6
	C273.5,323.9,273.9,326.7,274,329.5z M273.8,309.9c1.3-1.9,2.9-3.6,4.7-5.1c2.3-2,0.7,1.4,0.3,2.3c-0.5,1-1.2,1.9-1.9,2.8
	c-1.5,2.1-2.8,4.4-4.2,6.7c-0.1,0.1-0.1,0.2-0.2,0.3c-1.4,0.1-2.4,1-3.2,2.3C270.1,315.8,271.9,312.7,273.8,309.9z M271.9,317.7
	c-0.6,0.9-1.3,1.9-2.1,2.6C270.5,319,271.4,317.7,271.9,317.7z M269.1,321.6c1.4-0.7,2.4-1.8,3.3-3.2c0.1,0.4,0.2,0.8,0.3,1.2
	c-0.2,3.2-0.9,6.5-1.5,9.6c-0.6,3.2-1.6,6.4-1.6,9.7c-0.2-0.9-0.9-1.8-1.3-2.4c-1.3-2.3-1.2-5.2-1-7.8c0.2-2.2,0.8-4.4,1.5-6.5
	C268.8,322.2,268.9,322,269.1,321.6z M276.1,300.9c0.6,1.9-1.1,3.7-2.3,4.9c-2.4,2.3-5.6,3.9-8.5,5.5c-1.9,1-3.8,3-5.9,1
	c-1.6-1.6-3-3.3-5-4.5c-3.2-1.9-7-2.8-10.4-4.6c-3-1.7-7.4-4.1-8.4-7.7c-0.5-1.9,4.2-0.6,5.3-0.5c2.9,0.3,5.8,0.2,8.7,0.4
	c3.6,0.2,7.5,1.1,11.2,0.8c0.5,0.1,0.9,0.2,1.4,0.2c0.9,0.6,1.8,1,3,1.1c0.3,0,0.3-0.3,0.1-0.5l0.1-0.1c0.1,0.1,0.2,0.2,0.3,0.1
	c0.1,0,0.1-0.1,0.2-0.1c0.4,0,0.9-0.1,1.3-0.1c1,0.2,2.1,0.4,3.1,0.6C272.8,297.8,275.3,298.3,276.1,300.9z M295.7,283
	c1-0.4,4.7-4.2,5.6-1.7c0.8,2.2-0.4,5.4-1.7,7.1c-1.3,1.7-3.1,3-4.3,4.7c-1.2,1.8-1,3.8-1.9,5.7c-1,2.2-3.3,4.4-5.4,5.8
	c-2.8,1.8-3.1-1.4-3.9-3.1c-2.3-4.7-6.2-6.3-10.6-6.6c2.8-1.4,5.5-3.3,7.8-5.1c0.1,0.1,0.3,0.2,0.5,0.1l0,0c0.7,0.1,1.2-0.4,1.4-1.4
	c0,0,0,0,0-0.1v-0.1c0-0.1-0.1-0.2-0.2-0.3c-0.5-0.3-0.5-0.4-0.9-0.4c-0.2,0-0.4,0-0.5,0.2c-0.1,0.3-0.2,0.5-0.3,0.7l0,0
	c-0.1,0.1-0.1,0.2-0.1,0.3l0,0c-0.3,0-0.4,0.3-0.4,0.5c-2.8,2.3-5.7,4.3-8.9,5.6c-0.8,0-1.5,0-2.3,0.1c2.7-1.7,5.1-3.8,7.4-5.9
	c1.5-1.4,3.1-3,4.5-4.7c0.2-0.1,0.4-0.1,0.7-0.2C286.5,283.1,291.5,284.5,295.7,283z M281.7,282.8c-0.3,0.2-0.7,0.4-1,0.6
	c-0.8,0.2-1.7,0.5-2.5,0.8l0.1-0.1c2.1-2.7,4.4-5.4,6.5-8.3c0.1,0.1,0.2,0.2,0.3,0.2h0.1c0,0.1,0,0.3,0,0.4s0.1,0.3,0.3,0.3
	c0.2,0,0.4,0.1,0.6,0.1c-0.6,1.1-2.3,3.5-2.1,3.3C283.2,281,282.5,281.9,281.7,282.8z M304.6,276.6c-1.6,0.1-3.2-0.2-4.7-0.2
	c-2.1,0-4.4,0.9-6.3,1.6s-4.2,2.5-6.2,2.7c-1.4,0.1-2.6,0.6-3.9,1.2c1.2-1.6,2.3-3.2,3.1-4.9c0.4,0.1,0.9,0.3,1.3,0.6
	c0.3,0.2,0.7-0.2,0.5-0.5c-0.7-1.3-1.7-1.7-3.1-1.8c1-1.4,1.9-2.9,2.7-4.4c3.1-0.8,5.6-2.8,6.3-6c0.4-2-0.6-7.9,0.8-10.3
	c0.2-0.1,0.4-0.3,0.4-0.5c0.6-0.6,1.6-0.7,3.1,0c2.5,1.3,2.5,2.8,2,5.3c-0.4,1.9-1.1,3.6-1.4,5.5c-0.5,2.8,0.9,5,3.4,6
	C304.2,271.7,308.9,276.3,304.6,276.6z"/>
</svg>
