<svg id="Calque_1" data-name="Calque 1" xmlns="http://www.w3.org/2000/svg" viewBox="0 0 172.75 186.74"><defs><style>.cls-1{fill:#231f20;}</style></defs><title>illustration_raspberry</title><path class="cls-1" d="M172.34,98a3.88,3.88,0,0,0,.9-2.3c.1-1.5-.5-2.9-.8-4.4,0-.2-.2-.2-.3-.2v-.6a4.29,4.29,0,0,0-1-2.4h0a4.3,4.3,0,0,0-.2-2.5c-.4-1-1.5-2.3-2.5-2-.4-1.1-1.2-2.3-2.3-1.9l-.1.1a4.35,4.35,0,0,0-.6-.7,2.9,2.9,0,0,0-2.4-.7.37.37,0,0,0-.3.1c0-.1-.1-.2-.1-.4a.45.45,0,0,0-.3-.3c-.8-.1-1.6-.4-2.5-.5a9.64,9.64,0,0,0-2.4,0,1.42,1.42,0,0,0-1.4-.8c-1.4.1-2-1-3.1-1.4a8.59,8.59,0,0,0-3.2-.5v-.1c-.7-3.2-5-3.4-7.6-3.5-1.8-.1-3.9-.2-5.5.6a14.63,14.63,0,0,0-1.3.9c-.9-1-4.2,1-4.8,1.3-3.2,1.2-5.9,2.7-5.9,6.4,0,.1,0,.2.1.2l-.6.6a7.23,7.23,0,0,0-1.7,3.9h-.2c-.2.1-.3.3-.5.5-.4.4-1.2,1-1.1,1.7a12.25,12.25,0,0,0-7.8-.1c-1.6.5-3.2,1.1-4.9,1.5-1,.2-2.1.2-3.1.3-.1-.1-.1-.2-.2-.4a.26.26,0,0,0-.5.1c0,.1,0,.2.1.2a9.7,9.7,0,0,0-1.7.1h0a14.62,14.62,0,0,0,2,.5c1.3,1.5,5.4,1.1,6.9,1.1,2.7,0,4.4.5,6.3,2.8a19,19,0,0,0,2.4,2.5v.5c0,.2.1.3.1.5v.1c-.3,1.7-2.2,2.2-2.9,3.7a4,4,0,0,0,.6,3.5c1.2,2.1,4.1,5.4,6.8,5-.1.3-.2.6-.3,1a.48.48,0,0,0-.6.2c0-.1.1-.2-.1,0a16.24,16.24,0,0,1-2,1.8c-.5-.2-1.1-.1-1.4-.6-.1-.2-.3-.1-.3.1a1.35,1.35,0,0,0,.9.9h-.1c-.4.2-.9.4-1.3.6a3,3,0,0,0-.5-.7.1.1,0,0,0-.1.1,1.61,1.61,0,0,1,.4.7c-.6.2-1.3.5-2,.7.1-.2,0-.5,0-.7a.28.28,0,0,0-.5,0,1,1,0,0,0,0,.9,28.64,28.64,0,0,1-2.8.7,3.51,3.51,0,0,1-.5-.8c0-.2-.4-.2-.4,0a.76.76,0,0,0,0,.8l.2.2a28.8,28.8,0,0,1-3.3.5v-.1a2.74,2.74,0,0,0,.2-1.3c0-.1-.1-.1-.1,0-.1.5-.2.9-.3,1.3-.1,0-.1,0-.2.1a25.42,25.42,0,0,1-6.2-.2,5.62,5.62,0,0,0-3.4.1c-2.5,1.1-.5,4,1.1,4.7a6.81,6.81,0,0,0,2.8.4,1.7,1.7,0,0,0-.1.7c0,.1.1.2.2.1a1.88,1.88,0,0,0,.4-.9c.4-.1.8-.1,1.1-.2.7-.2,1.4-.3,2.1-.5a2.65,2.65,0,0,0,.6.5c.1,0,.2-.1.1-.2l-.3-.3c1.3-.2,2.5-.4,3.8-.5a1.85,1.85,0,0,0-.2.7c0,.2.2.3.3.2a2.19,2.19,0,0,0,.9-1h2.1c-.7,1.8-3.8,5-4.9,5.4-2.3.8-4.9-.2-7.2.8-1.2.5-3.1,1.1-3.7,2.6,0,.1-.1.2-.2.4l-.2.2a.3.3,0,0,0,0,.4.45.45,0,0,0,0,.5,8.12,8.12,0,0,1,.3,4.1c-.1,1.4-.1,2.3,1.3,2.8.8.3.7,1.3.9,1.9s.9.9,1.4,1.2c1.2.7.6,2.4,1.7,3.3.1.1.2.1.2.2s.1.3.2.4.3.2.5.1.1.1.2.1a.75.75,0,0,0,.1.5c0,.3.4.2.4-.1v-.2a6.76,6.76,0,0,0,3.2.3,18.48,18.48,0,0,1,2.3-.1v.2c.1.5.8.3.7-.2h0c2.7-.1,5.2-.5,6.9-3.3,1.3-2.1,2.1-7.2.4-9.3-1.4-1.8-3.9-2.2-5.2-4-1.1-1.6,1.8-7.2,3-8.6.6-.7,1.8-.7,2.7-1.1a1.79,1.79,0,0,0,.5.7c.1,0,.3,0,.3-.1a2.92,2.92,0,0,0-.2-.9,6.89,6.89,0,0,0,1.3-1.1h.1l.1-.1h0l.3-.3c.2-.2.4-.3.6-.5.4-.2.7-.5,1.1-.7,0,.1.1.2.2.3.3.4.7.4,1.2.4a.19.19,0,0,0,.1-.3c-.2-.2-.4-.3-.6-.5l-.3-.3c1.2-.7,2.3-1.4,3.5-2.2-.3.6-.6,1.2-.9,1.7-2.3,4.2-4.9,7.8-10.2,7.4a.45.45,0,0,0,0,.9c2.8.2,4.4.3,6.9-1.2s4.6-3.8,7-5.6c-.4.9-.8,1.8-1.1,2.7-.9,2.2-2.3,5.7-4.4,7.7-1.5.4-3.4.3-4.5,1.5-.2.2-.2.7.2.7a5.17,5.17,0,0,0,4.5-1.4c.1,0,.2,0,.2-.1a13.18,13.18,0,0,0,3.3-1.8,9.51,9.51,0,0,0,3.3-5.8,18.51,18.51,0,0,1,1.1-3.1c-.2,5.1,3.1,8.1,8.1,8.9a5.68,5.68,0,0,0,4.7-1.4c.1.1.1.3.3.4.8,1,2.9,1,4.1,1.1,3.6.3,8.6-3.7,8.6-7.4v-.2c1.5-.8,2.9-1.9,2.6-3.5a19.57,19.57,0,0,0,4.8-3.4,10.5,10.5,0,0,0,1.9-2.8,5.53,5.53,0,0,0,1.9-1.4,4.36,4.36,0,0,0,1-3.3.1.1,0,0,0-.1-.1A6.76,6.76,0,0,0,172.34,98Zm-67.8,29.3c2.2-.6,4.7.1,6.9-.6a3.92,3.92,0,0,0,1.4-.8,11.78,11.78,0,0,1-2.3,2.7,13.42,13.42,0,0,1-2.1-.1,30.52,30.52,0,0,0-4.3-.1,12.74,12.74,0,0,0-2.7.2A15.84,15.84,0,0,1,104.54,127.3Zm-4.1,2.9c0-.1.1-.2.1-.3,1.4-.9,3.9-.7,5.4-.7s2.8,0,4.3,0c-.5.5-1.1,1-1.6,1.5a8.3,8.3,0,0,1-4.4.6,23.48,23.48,0,0,0-3.7-.5C100.44,130.5,100.34,130.3,100.44,130.2Zm.2,5.5h0c-.1-1.2.4-2.4.3-3.6a4.33,4.33,0,0,1-.1-.5c1.9.1,4.6,1.1,6.5.4a10.23,10.23,0,0,0-1.4,2.2c-.9.5-2,0-3.1.2A3.3,3.3,0,0,0,100.64,135.7Zm3.7,4.5-.2-.2a3.47,3.47,0,0,1-1.5-2.1,2.07,2.07,0,0,0-.6-1,2.61,2.61,0,0,0-.8-.3c.8-1.3,1.9-1.3,3.4-1.3.3,0,.6-.1.8-.1A17.57,17.57,0,0,0,104.34,140.2Zm2.3,4.1c.3-3.2-.1-6.4,1-9.3a6.77,6.77,0,0,0,.9,2.3,20.66,20.66,0,0,1,3.4,7.2C110.34,144.5,108.14,145,106.64,144.3Zm6.1.2a15.6,15.6,0,0,0-1.7-5,23.48,23.48,0,0,0-1.9-2.5,6.1,6.1,0,0,1-1.1-2.8,11.33,11.33,0,0,1,1.3-2l.4-.4c-.4.9-.2,1.6.5,2.8,1.8,2.9,5.6,5.6,6.1,9.1v.1A12.78,12.78,0,0,1,112.74,144.5Zm6.8-4.3a4.69,4.69,0,0,1-2.3,3.2c-.3-2.1-1.7-3.6-3.1-5.1a44.69,44.69,0,0,1-3.2-4.1,3.51,3.51,0,0,1-.5-3.1c.3-.2.5-.5.8-.7-.2,4.2,7.2,3.8,8.6,7.4,0,.1.1.1.1.2A17,17,0,0,1,119.54,140.2Zm-.5-7.4c.9.8,1.1,2.3,1.1,3.7a9.55,9.55,0,0,0-3.3-2.2c-.9-.5-1.9-.9-2.9-1.4a6.57,6.57,0,0,1-1.7-1.2,2.57,2.57,0,0,1-.5-1.8c.5-.5,1-1,1.5-1.6a2.19,2.19,0,0,0,.3-.5C113.94,130.3,117.54,131.4,119,132.8Zm-4.3-8.7c-1.2,1.4-1.5,3.4-2.9,4.9l-.2.2c-.1,0-.1,0-.1.1h0a39.47,39.47,0,0,0-3.5,3.6h-.1v.1c-.1.2-.3.4-.4.6-1.6,2.7-1.8,6.8-1.5,10.1a1.38,1.38,0,0,1-.3-.4c-1.3-3.8.4-8.9,2.8-11.8a20.62,20.62,0,0,1,2.6-2.5h.1a.22.22,0,0,0,.2-.2c0-.1.1-.2.1-.3a6.06,6.06,0,0,0,2.1-3.5c.3-.4.6-.9.9-1.3a7.55,7.55,0,0,1,1.1-1.4A15,15,0,0,1,114.74,124.1Zm7.8-7.7a12.13,12.13,0,0,0-1.4,1c-.8.7-1.8.8-2.7,1.3a4.4,4.4,0,0,0-1.7,1.6.76.76,0,0,1,.1-.4.58.58,0,0,0-.6-.6,11.3,11.3,0,0,0-2.6,0V119c0-.6-.8-.5-.9,0a.76.76,0,0,1-.1.4c-1.6.2-3.1.5-4.7.8a.9.9,0,0,1-.1-.5c0-.1-.2-.1-.3,0v.6a23.36,23.36,0,0,1-2.6.4v-.2a.2.2,0,1,0-.4,0v.3h-.2a4.42,4.42,0,0,1-2-.2c-1.7-.3-1.2-2.8.3-2.8,1.8.1,3.7.3,5.5.3h1.4c0,.1.1.1.1,0h0a35.82,35.82,0,0,0,9.1-1.8,6.94,6.94,0,0,0,1.3-.5c.1.1.1.2.2.3s.2,0,.1-.1-.1-.2-.1-.3c.7-.3,1.3-.6,1.9-.9a5,5,0,0,0,1.2-.8c.1-.1.6-.7.9-1.1A14.19,14.19,0,0,1,122.54,116.4Zm49.9-21.9a3.84,3.84,0,0,1-.5,2.6l-.3-.6-.1-.1a5,5,0,0,0,.2-1.2,8.92,8.92,0,0,0-.3-2.2,2.36,2.36,0,0,0,.6-.9A12,12,0,0,0,172.44,94.5Zm-1.3-5.1a2.38,2.38,0,0,1-.3,2.6,1.21,1.21,0,0,0-.5-.5,2.72,2.72,0,0,0-3.3.3.82.82,0,0,0-.5-.5c.9-.4,1.3-1.6,1.7-2.5a2.18,2.18,0,0,1,.4-.5v.5a.15.15,0,0,0,.3,0c0-.3.1-.5.1-.8.1,0,.1,0,.2-.1a.75.75,0,0,1,.5.1c-.1,0-.1.1-.2.1a.44.44,0,0,0,.1.8.76.76,0,0,0,.9-.3A2.62,2.62,0,0,1,171.14,89.4Zm-31.9,19.5c.3-.2.7-.5,1-.7a8.38,8.38,0,0,0-.4,5.6c.4,1.4,2.1,2.3,3.1,3.2a8,8,0,0,0,3.7,2.3c-.7.5-1.5.9-2.2,1.4-1.7,1.3-3.7-.2-5.1-1.2-2.2-1.5-3.3-3.2-3.1-5.4a19.2,19.2,0,0,1,1.4-1.5A4,4,0,0,0,139.24,108.9Zm1.9-28c.1.1.2.1.3.2a.35.35,0,0,1-.1.2c-.2.6.7.8.9.3.3.2.6.5.9.7-5.2,1.3-8.7,7.3-7.6,12.6a11.62,11.62,0,0,1-2.2-.6V94a22.74,22.74,0,0,1,1.1-9.7c.1-.2.2-.5.3-.7.2-.7-.8-.9-1.1-.3-.5,1.6-1.8,2.3-3.1,3,.4-2.7,2.7-4.1,5-5.2C137.44,80.3,139.14,79.8,141.14,80.9Zm-1.9-1.6c1.1-2.6,5.5-3.5,7.8-2.4-2.2.6-4.3,1.7-5.3,3.5a14.46,14.46,0,0,0-2.5-1.1Zm-5.7,16.4c1.2.4,2.9,1,2.1,1.8-.5.5-1.2.9-1.7,1.5-.2.1-.3.3-.4.4a.37.37,0,0,0,.1-.3A7.81,7.81,0,0,0,133.54,95.7Zm-2.2-8.2a13,13,0,0,0,1.5-1,36,36,0,0,0-.5,6.6,5.7,5.7,0,0,0,.1,1.3.53.53,0,0,0,.1.8c0,.5.1.9.1,1.4.3,2.6-1.7,1.7-2.7,0,0-.1,0-.1-.1-.2-.4-1.2-1.2-2.2-1.6-3.3a4.37,4.37,0,0,1,1.3-4.9A13.36,13.36,0,0,1,131.34,87.5Zm-3.4,15.6c.1,0,.1,0,.2-.1a.4.4,0,0,0,.2-.6,11.78,11.78,0,0,1,1.7-2.2l.1-.1c.1-.1.3-.2.4-.3,1.1,1.1,2.6,1.4,4.3,0a8.75,8.75,0,0,0,2.2-2.1,17,17,0,0,1,.9,3.9c-1.7,2.7-6.2,3-9,4.1a8.33,8.33,0,0,0-2.6,1.6A18.07,18.07,0,0,1,127.94,103.1Zm-.4-1c-1.8,1-4.1-.4-5.4-1.7a4.12,4.12,0,0,1-1-2.1,12.91,12.91,0,0,0,3.1,1.6,11.42,11.42,0,0,0,4.6.8,12.67,12.67,0,0,0-1.1,1.3C127.74,102.1,127.64,102.1,127.54,102.1Zm11-2.9a18.29,18.29,0,0,0-.8-2.5c-.1-.2-.2-.3-.4-.3a1.72,1.72,0,0,0-1-1.2A10.07,10.07,0,0,1,143,83.3c1.6-.5,4.3-.5,4.5,2a8.53,8.53,0,0,0-7.7,7.6c0,.2.3.2.4.1.7-1.8,1.2-3.4,2.6-4.8a7.08,7.08,0,0,1,4.8-1.9,3.4,3.4,0,0,0,.7,1.5c.8,1.1,6.2,3.7,3.7,5.5l-.1.1a13.35,13.35,0,0,0-6.9,0A11.91,11.91,0,0,0,138.54,99.2Zm21.7-13.7c1.6,1.4,3.4,1.6,4.1,4,.4,1.4-2.7-.5-2.5-.4a14.49,14.49,0,0,0-3.5-.7c-2-.1-4.3,0-5.3,1.8a3.92,3.92,0,0,0-.8-1,12.74,12.74,0,0,0-1.9-1.3c-1.5-1-1.7-1.4-1.6-1.9,1.5-4.6,14-5.6,13.9.2a7.26,7.26,0,0,0-2.2-.9C160.24,85.2,160.14,85.4,160.24,85.5Zm-21.1,16.4c.4-6.4,8.1-9.4,13.4-7a3.18,3.18,0,0,1,1.2,1.1c-.4,1.7-3.1,2.7-4.6,3.2-1.2.4-2.5.5-3.2,1.6h0c1.3-.9,3.3-.9,4.7-1.6s2.7-1.1,3.4-2.3c.6,2.5-1.3,6.1-2.8,7.3-1.2.9-2.7,1.1-4,1.7-1.7.6-3.6,1.4-5.4,1a.37.37,0,0,0-.5-.2h-.1v-.1a.22.22,0,0,0-.3-.3c-.1,0-.1.1-.2.1a.35.35,0,0,1-.2-.1,8.27,8.27,0,0,1-1.6-4A.52.52,0,0,0,139.14,101.9Zm2.3,12.4c-1.2-1-1-2.7-.9-4.1,0-.3.3-1.3.5-2.2,1.9,1.4,7.5,2.5,8.3,2.6a7.41,7.41,0,0,0,5.1-1.6c1,3.4-1.1,7.1-4.4,8.5a.53.53,0,0,0-.9.3h0a7.72,7.72,0,0,1-1.5.2C145.34,118.3,143,115.7,141.44,114.3Zm12.2-6.6a.37.37,0,0,1,.1.3,5.55,5.55,0,0,0-.8.6,6.78,6.78,0,0,1-4.4.9,29.9,29.9,0,0,1-6.3-1.5c2.7.3,6.7-1.3,8.2-2.1a8.6,8.6,0,0,0,4.1-4.7c1.8.9,1.6,3.5.9,4.9a3.45,3.45,0,0,1-.9,1.2v-.1C154.24,106.5,153.34,107,153.64,107.7Zm3-1c1.2-2,.6-5.6-1.8-6.5a8.05,8.05,0,0,0-.3-4.6A3.32,3.32,0,0,0,153,94a2.85,2.85,0,0,0,.3-2.7h0c.8-2.6,4.4-2.2,6.4-1.8,1.5.2,2.5,1.2,3.8,1.5q0,.15.3.3a1.8,1.8,0,0,1,1.1.3,13,13,0,0,0-4,2.7.19.19,0,0,0,.1.3c.8.1,1.7-.9,2.3-1.3a6.37,6.37,0,0,1,1.8-1,.85.85,0,0,1,.7,0c1,1.7-2,5.3-3.2,6.6-2.1,2.5-5.2-1.4-7.5-1.3-.1,0-.1.1,0,.1,2.8,1.9,6.3,4.3,8.8,1a2.43,2.43,0,0,1,2.4.8c.1.1.2.3.3.4a.55.55,0,0,0,.4,1h0c-.2,1.6-3,2.3-3.8,3.5-.1.2.1.4.2.3a9.33,9.33,0,0,0,3.7-2.6,8.68,8.68,0,0,1-2.2,4.1c-2.5,2.9-6.3,4.1-9.6,2A8.09,8.09,0,0,0,156.64,106.7Zm7.9-8.8c1.2-1.8,2.4-2.8,2.5-5.1v-.1c.8-.4,2-1,2.8-.3a.55.55,0,0,1,.3.5h0c-.3.3-.1.6.3.7h0a6.61,6.61,0,0,1,0,2.8,5,5,0,0,1-2.7,3c-.1-.1-.1-.2-.2-.3C166.44,98.2,165.54,97.5,164.54,97.9Zm5.6-12.1a3,3,0,0,1,.2,1.6h-.1a1.7,1.7,0,0,0-1,0,3.46,3.46,0,0,0-.6-2.3,3.33,3.33,0,0,0,0-1C169.44,84.2,169.84,85,170.14,85.8Zm-2.3-2.2c0,.1.1.3.1.4l-.1.1v.1h0v.4c-.1-.1-.2-.1-.4-.2a3.09,3.09,0,0,0-.8-.2,2.41,2.41,0,0,0-.3-2A2.29,2.29,0,0,1,167.84,83.6Zm-1.2,1.2a2.14,2.14,0,0,1,1.2.4.37.37,0,0,0,.1.3c0,.1.1.1.2.1h.1a4.27,4.27,0,0,1,.6,2,5.72,5.72,0,0,0-.8.7c-.6,1-.7,2.2-1.8,2.7a2.47,2.47,0,0,0-.9-.4h0a5.15,5.15,0,0,0-2-3.9c.1-.1.3-.2.3-.4a3.08,3.08,0,0,0-.1-1A10.59,10.59,0,0,1,166.64,84.8Zm-2-3.4c.8.4,1.6,1.8.9,2.5h0c-.8.1-1.5.3-2.2.4a5,5,0,0,0-2.9-2.6c.5-.1,1-.2,1.4-.3A5.32,5.32,0,0,1,164.64,81.4Zm-4.4-1.5c.4.1.7.3,1.1.4s.6.1.8.4c-1.1.4-2.4.9-3.1.5-.1-.1-.3.1-.2.2l.1.1a.37.37,0,0,1-.3-.1v-.3c-.2-.4-.4-1-.7-1.5A20.79,20.79,0,0,1,160.24,79.9Zm-10-2.5c1.8-.1,2.9,1,4.4,1.7a3.08,3.08,0,0,0,.9.1c1.6.1,1.8,1.1,2.4,2.1-3.4-.3-7.3.9-9,3.1v-.1a2.92,2.92,0,0,0-2.9-2.2,10.87,10.87,0,0,0-1.8.1.1.1,0,0,0-.1-.1c-.5-.4-1-.7-1.5-1.1C143.84,78.5,147.54,77.5,150.24,77.4Zm-13.6-2.8c1.4-1.1,3.4-.9,5.1-.9a17.22,17.22,0,0,1,3.9.4,8,8,0,0,1,2,.7c.2.1,1,.8,1.4,1.1V76a.1.1,0,0,0,.1.1c-.1.1-.1.2-.2.3s0,.2,0,.3a6.75,6.75,0,0,0-1.4.2.6.6,0,0,0-.1-.4c-2.6-2-8.3-.5-9.3,2.8a11.74,11.74,0,0,0-3,1.2h0a.37.37,0,0,1,.1-.3.37.37,0,0,0-.1-.3,2.84,2.84,0,0,0-1.1-.8C134.74,77.4,134.94,75.8,136.64,74.6Zm-6.2,2.1c.6-.3,3.4-1.8,4.6-1.9a12.89,12.89,0,0,0-1.9,3.9c-2.3-.5-5.3,1-7.3,2.6C126.14,78.8,128.14,77.8,130.44,76.7Zm-6.6,10h0c.1-.1.1-.2,0-.2a15.46,15.46,0,0,1,.7-2.3c.9-2.1,3.4-3.5,5.4-4.2a9.82,9.82,0,0,1,2.8-.4c0,.5.7.8.9.3a.1.1,0,0,1,.1-.1c.5.2.8.4.9.9h0c-2.6,1.2-4.8,3.1-5.1,6.1v.1c-.2.1-.5.2-.7.3-1.3.6-1.7,2.1-2,3.4a5,5,0,0,0,0,2.1,12.57,12.57,0,0,0-2.7-2A7.81,7.81,0,0,1,123.84,86.7Zm-2.1,1.8a1.58,1.58,0,0,1,.7-.7l.2-.2a5.38,5.38,0,0,0,.4,2.2c-.5-.3-1-.5-1.4-.7A1.27,1.27,0,0,1,121.74,88.5Zm-1.6,7.6c-.7-.7-1.4-1.5-2.1-2.3a6.34,6.34,0,0,0-3.7-2.3c-1.5-.1-5.6.5-8-.2a13.4,13.4,0,0,0,2-.1c2.8-.6,5.4-1.9,8.4-1.9a13.59,13.59,0,0,1,7.2,2.5,7.4,7.4,0,0,0,2,2.3.37.37,0,0,0,.5-.2,15.81,15.81,0,0,1,2.3,5.3c-1,.4-3.3-.3-4-.4a8.92,8.92,0,0,1-3.7-2,1.16,1.16,0,0,0-.5-.7Zm.7,11.6c-1.2-1.3-3-3-2.7-5,.3-1.4,1.9-1.9,2.4-3.1,0,.1,0,.1.1.2a4.33,4.33,0,0,0,1.8,2.2,6,6,0,0,0,4.6,1.4,25.56,25.56,0,0,0-1.6,4.9,1.94,1.94,0,0,0-.5,1.6A7.89,7.89,0,0,1,120.84,107.7Zm3.9,5.6a25,25,0,0,0,.7-2.6.38.38,0,0,0,.1-.6h0c1.2-3.3,4.8-4,8-4.8a10.25,10.25,0,0,0,4.4-2,3.53,3.53,0,0,0,.3,1.4c.5,1.2,1.8,2.2.4,3.5-.2,0-.5.1-.5.4a5,5,0,0,1-3.8.4v-.3a.32.32,0,0,0-.3-.3c-.2,0-.4.1-.3.3v.2c-.6-.1-1.2-.3-1.7-.4C127.84,107.4,126.44,110.4,124.74,113.3Zm.5,1.1a17.1,17.1,0,0,0,1.3-2.3h.1c1.3-.9,2.1-2.3,3.4-3.2a8.33,8.33,0,0,1,2.2.3,7.73,7.73,0,0,0-2.6,2.5.6.6,0,0,0-.4.1A21.11,21.11,0,0,1,125.24,114.4Zm1.4,4.9a10.59,10.59,0,0,0-1.2,1c.4-.5.9-1,1.3-1.5a51.48,51.48,0,0,0,3.3-5.6,7,7,0,0,1,3.3-3.3c.1,0,.2-.1.3-.1a21.62,21.62,0,0,1-1.6,5.5.37.37,0,0,0-.3.1A26.58,26.58,0,0,0,126.64,119.3Zm5.3.8a8.47,8.47,0,0,1-4.3,6,32.4,32.4,0,0,0,2.1-3.5,44.15,44.15,0,0,0,2.4-6,33.38,33.38,0,0,0,2.1-6.8c.1,0,.2,0,.2.1a6.9,6.9,0,0,0,3.5-.3c.1,0,.2-.1.3-.1.1,1.1-.8,2.1-1.8,3.1a6.89,6.89,0,0,1,.4-1h0c-1.1-.1-1.5,1.1-1.7,2.2l-1.1,1.1A12.68,12.68,0,0,0,131.94,120.1Zm9.6,5.1c-5-.7-6.6-4-7.1-8.6a.1.1,0,0,0-.1-.1,4.44,4.44,0,0,1,.8-1.1,6,6,0,0,0,2.5,4.1c1.5,1.4,3.8,3,6,2.8,1.1-.1,1.9-1.2,2.9-1.6a4,4,0,0,0,1.8-1.3c.2,0,.5-.1.7-.1C148.34,122.8,145.54,125.7,141.54,125.2Zm10.1-.1c-1,0-4.2.1-3.9-1.3a10.67,10.67,0,0,0,2-3.8c2.4,2.1,5.3.6,8-.4l.9-.3C158,121.9,154.34,125.1,151.64,125.1Zm5.3-6.3c-2.5.9-4.6,1.9-7.1.6a4.33,4.33,0,0,1,.1-.5,8.45,8.45,0,0,0,4.8-4.3c1.7,2.1,4.2,2,6.6,1C160.44,117.4,158.94,118.1,156.94,118.8Zm10.3-8.8a11.21,11.21,0,0,1-3.3,3.2c-2.5,1.8-6.8,3.5-8.8.4a6.89,6.89,0,0,0,.2-4.7c3.6,2.4,9.2-.4,11.5-3.6,0-.1.1-.1.1-.2a1.42,1.42,0,0,1,1.4.5c-.4.2-.7.3-1.1.5a.36.36,0,0,0,.1.7,5,5,0,0,0,1.2-.2A6.72,6.72,0,0,1,167.24,110Zm2.9-2.7a2.18,2.18,0,0,1-.9.7,3.34,3.34,0,0,0,.1-1.7,4.89,4.89,0,0,0,1.8-1.4A3.69,3.69,0,0,1,170.14,107.3Zm1.7-5.3a4.8,4.8,0,0,1-2.7,3.3,1.71,1.71,0,0,0-1.6-.9,5.44,5.44,0,0,0,.7-4.1,6.21,6.21,0,0,0,3-3.2c.1.2.2.3.3.5a2.09,2.09,0,0,1-.4.6c-.3.5.4.8.7.5A12,12,0,0,1,171.84,102Z" transform="translate(-0.5 -1.31)"/><path class="cls-1" d="M142.64,15.8h0c-.2-.9-.5-1.7-.7-2.4-.5-1.4-1-3.5-2.5-4.1-.1,0-.2-.1-.4-.1a3.52,3.52,0,0,0-2.6-3.2,2.08,2.08,0,0,0-1.1-.1,2.74,2.74,0,0,0-2.9-2.7h-.3V3c-.2-1.3-2.8-1.6-4.7-1.2-.1,0-.2-.1-.3-.1h0c0-.1-.1-.3-.2-.3a5.72,5.72,0,0,0-3.6.7c-1-.8-3.5,0-5.3,1.1a5.29,5.29,0,0,0-3.7-.3,21.1,21.1,0,0,0-3.4,1.6v.1a4.91,4.91,0,0,0-2.9.2,3.79,3.79,0,0,0-1.3.6c-.1-.1-.1-.2-.3-.2-.6-.2-1,.2-1.6.3a10.89,10.89,0,0,0-2.5,1c-1,.5-3.7,1.8-3.9,2.9h0a.37.37,0,0,0-.3.1c-.1,0-.1.1-.1.2a7.19,7.19,0,0,0-2.1,1.2,6.61,6.61,0,0,0-2.2,5.3,14.27,14.27,0,0,0-6,3.3c-3.4,3.1-4.4,8.6-2.9,12.9-1.1.1-2.1.4-3.2.6a35.4,35.4,0,0,0-4.5.8,17.28,17.28,0,0,0-3,1.6h0a21.72,21.72,0,0,0,2.4-.7,23,23,0,0,0-3.2,1.5c-.2.1,0,.4.2.3a16.64,16.64,0,0,1,9.4-2.1c-.6,2,.6,4.3,2,5.7a12.7,12.7,0,0,0,1.2,1h0c-.2,0-.3,0-.4.2a3.55,3.55,0,0,1-1,.2v-.6a.27.27,0,0,0-.3-.3.32.32,0,0,0-.3.3v1.6h0v.4a.27.27,0,0,0,.3.3.32.32,0,0,0,.3-.3v-.4h0v-.4a4.1,4.1,0,0,0,1.1-.1,2.94,2.94,0,0,0,1,1.8l-.6.6a9.5,9.5,0,0,0-1.7,3.5A21.83,21.83,0,0,1,82,53.8a25.5,25.5,0,0,1-4.1,4.6c-1.1,1-2.7,1.7-3.6,2.9a5.74,5.74,0,0,0-.4.7c-.8.9-1.1,1.8-.3,2.6a5,5,0,0,0-.2,1.7,1,1,0,0,0,1.8.7c.5-.4.7-1.6.9-2.2.6-1.9,2.9-3.6,4.6-4.4,2.8-1.4,6-1.6,8.8-3s4.9-4.1,7.5-5.9c-1.3,1.6-2.8,3.2-4,4.8a46.49,46.49,0,0,0-5.6,8.8,2.85,2.85,0,0,0-1.6.2.3.3,0,0,0,0,.4,2.34,2.34,0,0,0,1.2.2,73.27,73.27,0,0,0-2.9,7,51.83,51.83,0,0,0-1.7,5.6c-.3,0-.6.1-1,.1a12.86,12.86,0,0,0-1.9.4.21.21,0,0,0,0,.4,2.9,2.9,0,0,0,1.6,0c.4-.1.7-.1,1.1-.2a64.93,64.93,0,0,0-2,14.5,47.34,47.34,0,0,0,.5,9.2c.2,1,.3,3.4,1.7,3.6,4,.7,2.2-5.9,2.2-7.9,0-1.4.1-2.8.1-4.2.7.1,1.6.1,1.9-.5.1-.2,0-.3-.2-.4-.4,0-.8.1-1.1.1h-.5a82.36,82.36,0,0,1,1.1-8.5c.1,0,.2.1.3.1a.27.27,0,0,0,.3-.3,1.27,1.27,0,0,0-.4-.6l.9-4.2c.2.5.5,1.1,1.1,1.1a.19.19,0,0,0,.1-.3,5,5,0,0,1-.8-1.2.37.37,0,0,0-.3-.1c.3-1.2.6-2.4,1-3.6a56.56,56.56,0,0,1,2.8-7.2,3,3,0,0,0,1.3.9c.1,0,.3-.1.2-.2a2.44,2.44,0,0,0-.9-1.1l-.3-.3c.5-1,1-2.1,1.5-3.1a.9.9,0,0,0,.6.6.22.22,0,0,0,.2-.2,2.18,2.18,0,0,0-.5-.8c.2-.5.5-.9.7-1.4a1.39,1.39,0,0,0,.9,0c.2-.1.1-.3,0-.4s-.3-.2-.5-.2c.4-.8.9-1.5,1.3-2.2.1.2.2.5.3.7a.19.19,0,0,0,.3,0,1.48,1.48,0,0,0-.2-1.3,22.63,22.63,0,0,1,1.3-2,.1.1,0,0,0,.1-.1v-.1c.2-.3.3-.5.5-.8a8.65,8.65,0,0,1,.7-1,4.46,4.46,0,0,0,2.9,2.1c1.8.7,3,1.1,4.8.6a7.74,7.74,0,0,0,.7,1.6c2.5,4.3.9,8.7-.7,13.1-.6,1.6-1.9,8,1.1,7.9.3,0,.5-.3.4-.5-1.2-3.3,1.3-6.7,2.1-9.9,1-3.5,2-6.8,4.3-9.7a1.21,1.21,0,0,1,.5-.5c.8,1.6,4,1.7,5.4,1.6,1.6-.1,5.3-.8,5.9-2.8.7.5,1.4,1,2.1,1.4,2.3,1.5,8.3,2.4,7.7-2a.4.4,0,0,0-.8.1v.4a4.79,4.79,0,0,1-3.7.2c2-1,3.8-3,3.6-5.3a14.94,14.94,0,0,0,6-5.7c1.5-2.5,2.1-5.9.2-8.4l-.2-.2c2.8-1.4,4.4-5.1,4.2-8.1,0-.7-.2-3.6-1.1-4.7a5.82,5.82,0,0,0,1.5-3.3C145,20.7,144.64,17.7,142.64,15.8Zm-3.8-5.9a3.35,3.35,0,0,1,1.5,1.6,14.19,14.19,0,0,1,1,2.9c.6,2,1,5.2-1,6.4a1.76,1.76,0,0,0-1.6-.2,4.19,4.19,0,0,0-.8-2.1,2.73,2.73,0,0,0-1.2-.9,5.92,5.92,0,0,0,.3-4.7,7.66,7.66,0,0,0-1-2.3,2.12,2.12,0,0,1,2-.8A.61.61,0,0,0,138.84,9.9Zm-22.4,36.7c-2.3.1-3.8-2.1-5.2-3.6a20,20,0,0,0-1.6-1.4c.1.1.3.1.4.2,0,.3.4.5.6.3l.6.3a5.63,5.63,0,0,0,3.4.3,5.45,5.45,0,0,0,3.6-3.5c.1.2.2.5.3.7a1.76,1.76,0,0,0,.4.5,7.31,7.31,0,0,1-.7,1.9c-.5.8-1.4,1.2-1.9,2-.1.2.1.3.2.3a4.26,4.26,0,0,0,2.2-2,3.2,3.2,0,0,0,.5-1.9c1,.8,2.5,1.3,2.2,2.8C121.14,45.8,118.44,46.6,116.44,46.6Zm-19-17.5a2.19,2.19,0,0,1-.3.5c-.1,0-.2.1-.2.3v.5a.3.3,0,1,0,.6,0v-.1c.8.2.9,1.4,1.4,2a3.19,3.19,0,0,0,1.6.9h0a8.27,8.27,0,0,1-2.7-.1,9.5,9.5,0,0,1-3.6-2.4,1.9,1.9,0,0,0,.5-1.3.43.43,0,0,0-.4-.4,1.88,1.88,0,0,0-2.2,1.7c0,.3.1.5.4.5H93c.1,0,.2.1.3.1h0a8.7,8.7,0,0,0,4,2.6,26.74,26.74,0,0,1-6.4-1h0c1.4-5,3.2-9.7,6.9-13.5a9.84,9.84,0,0,1,2.7-1.9c.2,0,.3-.1.5-.2a10,10,0,0,1,4.7-1,1.79,1.79,0,0,0,.7.5.37.37,0,0,0,.5-.2,4.52,4.52,0,0,1,1.7,1.1c0,.1.1.1.2.1-1.1,1.3-2.1,2.8-2.8,3.7-.9,1-5.8,7.8-5.6,11.2a2.38,2.38,0,0,1-1.3-.9c-.5-.8-.5-1.8-1.3-2,0-.1.1-.2.1-.3C98,29.1,97.54,28.8,97.44,29.1Zm-7.7,3.4h-.1a.76.76,0,0,0-.1-.4c-3.3-4.4.6-9.7,5.2-10.8-.4.6-.7,1.1-1.1,1.7-.9,1.5-1.5,3.1-2.3,4.6A21.61,21.61,0,0,0,89.74,32.5Zm34.5-22.8a.1.1,0,0,1-.1-.1c.3.1.5-.3.4-.5-1.2-2.5,6.6-4.8,6.7-1.4a.22.22,0,0,0,.2.2c-1.5.8-3.2,2.2-3.3,3.2a2.66,2.66,0,0,0-1.1-1c-2.2-1.4-4.3.3-5.3,2.4-1.1,2.4-4.8,4.8-5,7.7-.6-1.8-1.6-3.6-3.2-4.3a.37.37,0,0,0,.1-.3c.2-3.1,3.4-5.6,6.1-6.4a2.39,2.39,0,0,1,2.7.5c.5.6,1,.5,1.7.3A.37.37,0,0,0,124.24,9.7Zm9.8-.2a9.9,9.9,0,0,1-.8,3.4c-.6,1.3-1.6,2.2-2.1,3.5-.1.2.1.3.2.2,1.5-.7,3.4-3.8,3.6-6.2a6.44,6.44,0,0,1,1.1,2c.5,1.4,1,3.7,0,5h0c-2.2-.6-5.3-.1-6.6,1.4,0-.5.1-1.1.1-1.5a11.22,11.22,0,0,0-.9-5.3h.2a.19.19,0,0,0,.1-.3c-.6-1,3.2-3.4,3.9-3.4s1.1.5,1.2,1.2c0,0-.1,0,0,.1C133.94,9.4,133.94,9.4,134,9.5Zm4.1,12c-.3,2.8-3.9,5.7-6.4,5.6h0a2.48,2.48,0,0,0-1.2-1.6,7,7,0,0,1-2.6-1.9l-.3-.3a4.8,4.8,0,0,0,1.5-2.9h0c.7-3,6.7-3.5,8.4-1.1a3.23,3.23,0,0,1,.6,1.8.37.37,0,0,0-.1.3ZM112,38c1.9.3,3.7,1,3.8,3h0a3.61,3.61,0,0,1-1.5.8,3.8,3.8,0,0,1-3.1-.5A4.55,4.55,0,0,0,112,38Zm.5-.9c-.5-.1-1.6-.1-2.7-.2a.19.19,0,0,0-.3,0c-2.1-.1-4.5-.5-4.8-1.7a14.79,14.79,0,0,1,4.2.1,16.47,16.47,0,0,1,6.2,1,5.09,5.09,0,0,1,2.3,2,10.09,10.09,0,0,1-.7,1.5.22.22,0,0,1-.2.2C116.24,38.2,114.34,37.5,112.54,37.1Zm3.7-1.7a12,12,0,0,0-4.8-1.1v-.1c-.9-1.9,1-5.1,1.9-6.8a10.69,10.69,0,0,1,4.8-4.6c2.1-1.1,5.9-1.8,5.9,1.6-.1.1-.1.3-.2.4-.9,2.5-1.4,4.7-3,6.8a14.47,14.47,0,0,0-2.6,4.7H118C117.34,36,116.84,35.7,116.24,35.4Zm6.6-14.3c-1.7-.6-3.7,0-5.5,1-.1-.4-.2-.8-.3-1.3h.3a.1.1,0,0,0,.1-.1c.1-2.1,1.7-3.5,3.1-4.9,1.5-1.6,2.5-5.8,5.4-5.5,3.8.5,3.6,10.5,1.1,12.3l-.1.1a1.27,1.27,0,0,0-.6-.1,2.55,2.55,0,0,0-2,1.1A2.37,2.37,0,0,0,122.84,21.1Zm.6,7.8c.4-1.1.6-2.2.9-3.3s1.2-3.3,2.9-1.4a5.35,5.35,0,0,0,1.3,1.3c.1.1.3.2.4.3a.45.45,0,0,0,0,.5c.9,1-.8,3.6-1.3,4.5-.7,1.3-1.6,2.6-2.4,3.9h0a44.91,44.91,0,0,0,3.7-4.9A7.14,7.14,0,0,0,130,27a5.55,5.55,0,0,1,1.2,3.6,17,17,0,0,1-1,5.9,27.6,27.6,0,0,1-2,4.3,13.68,13.68,0,0,1-1.8,2.4c-.5.5-3.1,1.2-3.8.3V43c-.2-2-1.6-1.9-2.8-3.1-.8-.7-.8-1.6-1.2-2.4C119.24,34,122.34,32.1,123.44,28.9ZM118,8.4a.22.22,0,0,0,.2.2c-2.9,1.2-5.3,4.2-5.5,6.9v.1a4.11,4.11,0,0,0-3.5,1.7h0a2.79,2.79,0,0,0-2.7-2,4.25,4.25,0,0,1,.3-3.3c.6-2,2.7-3.4,4.4-4.4a17.25,17.25,0,0,1,3.7-1.6c.7-.2,4.5-.7,3.1,1.8A.45.45,0,0,0,118,8.4Zm-11.9,14.4c1.3-1.7,2.8-3.4,4.2-5.1,3.2-3.9,5.7,2.2,6.4,4.8a15.62,15.62,0,0,0-1.9,1.3c-1.3,1.1-6.2,7.9-4.9,10.5h-.2c-1.2,0-2.5-.2-3.7-.1l.3-.3a3,3,0,0,1,.7-.5c.3-.2.6-.1.9-.1a.27.27,0,0,0,.2-.4c-.1-.4-1.2-.7-1.4-.4a.3.3,0,0,0,0,.4h0a1.38,1.38,0,0,0-.4.3,4.57,4.57,0,0,1-1.6,1.1,3.75,3.75,0,0,0-.1-1.1h.5a.3.3,0,1,0,0-.6,2.7,2.7,0,0,0-1.5.3.37.37,0,0,0-.1.3.1.1,0,0,0,.1.1c0,.1.2.1.3.1a.1.1,0,0,0,.1-.1v-.1h.1a2.2,2.2,0,0,1,.1.8,1.27,1.27,0,0,1-.1.6,6.12,6.12,0,0,0-1.2-.5.54.54,0,0,0-.3-.4C99.24,31.8,104.94,24.3,106.14,22.8ZM103.84,37l.1-.1c.1-.1,0-.1-.1-.2a3.55,3.55,0,0,0,.4-.9h.1c.6,1.2,2.6,1.6,3.7,1.8a4.12,4.12,0,0,0,1.2.1,6.89,6.89,0,0,1-.4,1,6,6,0,0,1-.9,1.3,29.43,29.43,0,0,0-4.2,0h0A6.14,6.14,0,0,0,103.84,37Zm6.2.7a7.72,7.72,0,0,1,1.5.2,7.74,7.74,0,0,1-1.1,3c-.3-.1-.5-.3-.8-.4s-.5-.2-.8-.3A4.87,4.87,0,0,0,110,37.7Zm10.4,9.1c2.2,1,3.6,4.8,4.1,6.9.2.6.4,1.1.6,1.6l-.3-.3a43.88,43.88,0,0,1-3.2-5.1,14.82,14.82,0,0,0-2.4-2.6A3.34,3.34,0,0,0,120.44,46.8Zm.9-.6.2-.2h0a8.35,8.35,0,0,0,3.5-.1v.3c0,.5.9.5.9,0V45.1c0-.5-.6-.5-.8-.1s-.1.3-.4.5a4.48,4.48,0,0,1-1.1.1,7.57,7.57,0,0,1-1.5-.1,2.63,2.63,0,0,0,.7-1.5c1.7.5,2.8.8,4.3-.4,1.8-1.5,2.8-4.1,3.7-6.2a15.81,15.81,0,0,0,1.3-5.7h.1c4.6-.4,2,7.6,1.3,9.9a19.63,19.63,0,0,1-1.8,3.9c-2,3.2-6.2,2.8-9.1,1.3A5.17,5.17,0,0,0,121.34,46.2Zm10.8-15.4h0a.14.14,0,0,1,0-.2,11,11,0,0,0-.2-2.4c3.3-.1,6.9-3.6,6.9-6.9q.45-.3.9.3c0,.2.1.3.3.4a5.34,5.34,0,0,1,.9,2,12.22,12.22,0,0,1,.3,2.6,10.68,10.68,0,0,1-1,5c-.4.7-4,4.1-4.4,3.5l-.2-.2C135.64,32.6,134.84,30.8,132.14,30.8ZM138,9a3.36,3.36,0,0,0-2.3,1.1,1.56,1.56,0,0,0-.8-.6,2.34,2.34,0,0,0-1.6-2A2.69,2.69,0,0,1,138,9Zm-3.6-3.1a2.94,2.94,0,0,0-1.6,1.5,4.15,4.15,0,0,0-1.2.4V7.7c.1-1.3-1-2-2.3-2.2C130.94,3.5,134.14,3,134.44,5.9Zm-2.7-2.8a4.59,4.59,0,0,0-1.6.7c-.6.4-.9,1.1-1.5,1.6v.1h-1a2.59,2.59,0,0,0-1.1-2.3C127.84,2.2,130.54,1.9,131.74,3.1Zm-5.1-1.2h0a3.09,3.09,0,0,0-1.2.9,4.84,4.84,0,0,0-1.7,0V2.7A7.89,7.89,0,0,1,126.64,1.9Zm-3,1.8c1.7-.3,3.1,0,3,1.9h0c-.9.2-4.4,2.9-3,3.9a.68.68,0,0,1-.4-.6c0-.1-.1-.3-.2-.3a5.67,5.67,0,0,0-4.6,0,.1.1,0,0,1,.1-.1c.1-.9.6-1.2.3-2.2a9.56,9.56,0,0,1,4.3-2.5A.35.35,0,0,0,123.64,3.7Zm-4.8-.2c.7-.4,3.3-1.5,3.8-.5-1.8.5-3.6,1.5-4.3,2.7a4.73,4.73,0,0,0-1.2-.7,1.09,1.09,0,0,0-.5-.1A6.75,6.75,0,0,1,118.84,3.5Zm-4.3,0a21.05,21.05,0,0,1,2.5.2,2.57,2.57,0,0,0-.9,1,8.17,8.17,0,0,0-2.9.7,11.91,11.91,0,0,0-1.5-.9C112.64,4.3,113.44,3.6,114.54,3.5Zm-6.9,2.3c1.9-1.1,3.1-.5,4.7,0-.6.3-1.2.6-1.7.9a9.35,9.35,0,0,0-5.1,5.4,5.44,5.44,0,0,0-.3,3.1,16.48,16.48,0,0,0-4.5,1.1c-1.5-1-.5-3.7,0-4.8a10.06,10.06,0,0,1,3.5-3.6A28,28,0,0,1,107.64,5.8Zm-6.7,1.8a14.25,14.25,0,0,1,2.8-1.3,15.6,15.6,0,0,1,1.6-.5,35.23,35.23,0,0,0-3.7,2.7,5.47,5.47,0,0,0-1,1.1,2.41,2.41,0,0,0-1.8-.4C99.54,8.6,100.24,8.1,100.94,7.6Zm-3.8,3a4,4,0,0,1,3-.6h.2c-1.4,2-2.4,5.1-.8,6.7-.1,0-.2.1-.3.1a6.71,6.71,0,0,0-1.4.9v-.1a2.8,2.8,0,0,0-3.1-2.1A5.87,5.87,0,0,1,97.14,10.6ZM87,21.3c1.8-3,7.5-7.1,10.4-3.4h.1A13.22,13.22,0,0,0,95,20.7l-.1-.1c-5.8-1.6-9.4,6.7-7.1,11.3a12.25,12.25,0,0,0-1.9-.2C84.44,28.4,85.24,24.5,87,21.3Zm-4.5,11.8c.3-.1.7-.1,1-.2a7.72,7.72,0,0,1,1.5-.2.48.48,0,0,0,.7,0,11.77,11.77,0,0,1,3.1.5,56.92,56.92,0,0,0,6.8,1.8c2.7.3,4.9-.8,7.4.3-3.2,3.4-10.8.8-14.3-.6A17.24,17.24,0,0,0,82.54,33.1Zm10.1,7.3c-.2.1-.3.1-.5.2-1.9-1.1-3.2-3.1-4.5-4.9a23.93,23.93,0,0,0,7.2,2.2c1.6.2,5.4.7,7.7-.3-2.7,2.4-5.7,5-9.3,3.5A.49.49,0,0,0,92.64,40.4Zm-1.6.7h-.1l-2.1-.3a3,3,0,0,1-1-.4l1.4-1.1A7.69,7.69,0,0,0,91,41.1ZM83.94,37a16.28,16.28,0,0,1-.7-3,8.3,8.3,0,0,1,2.1.6v.1c1.1,1.3,2.2,2.8,3.3,4.1L87,40.1l-.9-.6A5.9,5.9,0,0,1,83.94,37Zm2.5,4.3c.1-.1.2-.1.4-.2A8.49,8.49,0,0,0,89,42a9.5,9.5,0,0,0-1.7,1A3.15,3.15,0,0,1,86.44,41.3Zm-4.8,14.1a23.36,23.36,0,0,0,3.7-7.6c1-3.5,3.3-4.8,6.2-5.9h0c.2-.1.3-.1.5-.2a7.74,7.74,0,0,0,1.6.7c2.2.6,4.5-.2,6.5-1.7a20.54,20.54,0,0,1-3.6,4.2c-2,1.7-4.5,1.8-6.8,2.9a5,5,0,0,0-2.5,3,10.29,10.29,0,0,1-6,6.4c-.3.1-1.1.5-2.1,1A33.29,33.29,0,0,0,81.64,55.4Zm14.8-5c-1.1.9-2.1,1.9-3.2,2.7a23.44,23.44,0,0,1-8.9,4.5c-3.5.9-7.9,2.6-9.3,6.4-.3.9-.6,1.2-.5.7a.33.33,0,0,0,.2-.6.1.1,0,0,0-.1-.1c.2-1-.1-1.4,0-1.9,1-1.4,3.6-2.6,4.6-3.2,2.9-1.5,5.2-2.3,7.3-4.9,1.3-1.6.8-3.6,2.7-5A8.79,8.79,0,0,1,92,47.8a19.07,19.07,0,0,0,2.8-.7,17.33,17.33,0,0,0,6-6.9c.6-.5,1.2-1.1,1.7-1.6,0,.6-.2,1.3-.2,1.8a13.87,13.87,0,0,1-2,5.8,36.41,36.41,0,0,1-2.4,3.5h0a.22.22,0,0,0-.2.2C97.84,49.7,96.64,50.3,96.44,50.4ZM98,54.1a2.65,2.65,0,0,1-.5-.6c-.1-.2-.4-.2-.4,0a1.08,1.08,0,0,0,.5,1.1L96.54,56a1,1,0,0,0-.5-.4c-.2-.1-.4.2-.2.4a.86.86,0,0,1,.3.6l-.1.1a56.88,56.88,0,0,0-3.3,5.2.6.6,0,0,0-.4-.1c0-.1-.1-.2-.1-.3a.19.19,0,0,0-.3,0c-.1.2-.1.3-.2.5a.4.4,0,0,0,.2.4c.1.1.3.1.5.2a64.32,64.32,0,0,0-4.8,10.3,77,77,0,0,0-3,10.4c-.1-.1-.3-.2-.4-.3s-.2,0-.3.1c-.1.4.1.7.5,1h.1c-.4,2.2-.7,4.3-1,6.5a66.4,66.4,0,0,0-.5,8.9c0,1,.2,2.1.3,3.1.2.8-.2,1.2-1.3,1.2a3.19,3.19,0,0,1-.3-1.4c-1.4-6.6-.4-13.7.8-20.2A69.66,69.66,0,0,1,88,65.1c.2,0,.3-.1.5-.1a.15.15,0,0,0,0-.3h-.2l.6-1.2c3.2-5.8,8-10.9,12-16.2a12.62,12.62,0,0,0,2.7-6.4h.1a9.48,9.48,0,0,1,3.5.7,7,7,0,0,1-1.5,3.3.22.22,0,0,0-.2.2v.1c-.8,1.1-1.7,2.2-2.5,3.1-.2-.1-.4,0-.4.2v.2c-.4.4-.7.8-1,1.1s-.7.8-1.1,1.2a1,1,0,0,1-.5-.4.28.28,0,0,0-.4.4,1.76,1.76,0,0,0,.5.4C99.44,52.4,98.74,53.2,98,54.1Zm8-.9a6.42,6.42,0,0,0-.4,4.1,5.91,5.91,0,0,1-3.9-.6c-1.1-.5-2.3-.7-2.7-2,0-.1-.1-.2-.2-.3a22,22,0,0,1,2-2.3l.3.3a.19.19,0,0,0,.3-.1,1.45,1.45,0,0,0-.2-.7c.7-.7,1.3-1.5,2-2.2a1.27,1.27,0,0,0,.6-.1.19.19,0,0,0,0-.3c-.1,0-.1-.1-.2-.1.3-.4.7-.8,1-1.2.1-.1.2-.3.4-.5a10.66,10.66,0,0,0-.7,1.9,16.41,16.41,0,0,0-.2,2.3,2.09,2.09,0,0,0-1.7.9.35.35,0,0,0,.2.6h3a.35.35,0,1,0,0-.7h-.8a18.29,18.29,0,0,1,.2-3.3,7.58,7.58,0,0,1,.6-1.6,11.27,11.27,0,0,0,.3,1.8c.4,1.3.8,2.4.1,3.7Zm1.4-.4a.38.38,0,0,0-.1-.6,4.82,4.82,0,0,0,0-1.2,21.72,21.72,0,0,0-.7-2.4,14.68,14.68,0,0,1-.5-2.9,9.78,9.78,0,0,0,1.8-3.7,13.66,13.66,0,0,1,2.1,1.5c-.6,1.9,0,7,0,7.9a18.81,18.81,0,0,0,.5,3.3,11.12,11.12,0,0,1-.4,6c-.4,1.4-1,2.8-1.5,4.2a27.15,27.15,0,0,0-.1-2.9,9,9,0,0,0-.8-2.1C106.64,57.5,105.84,55.4,107.44,52.8Zm6.8,5.9a4.33,4.33,0,0,1-.1.5,20.33,20.33,0,0,0-2.8,3.6c-1.5,2.5-2.1,5.4-2.9,8.2-.7,2.6-2.3,4.8-2.4,7.6,0,1.9,0,.5-.1-.4a10.12,10.12,0,0,1,.2-3,33.14,33.14,0,0,1,1.7-5.6,2.92,2.92,0,0,0,.2-.9.22.22,0,0,0,.2-.2c1-4,3.7-8.8,3-13a48.66,48.66,0,0,1-.6-7.6c0-1.2-.3-2.6-.2-3.8l.3.3c1.4,1.5,2.6,3,4.7,3.3.3,0,.6.1.9.1a28.05,28.05,0,0,0,0,4.1c.2,2,1,3.5-.6,5.4a15.38,15.38,0,0,1-1.2,1.3C114.64,58.4,114.34,58.4,114.24,58.7Zm5.5,1.9c-1.7.2-3.8.2-4.6-1.3a13.24,13.24,0,0,0,2.4-2.9c.1.1.1.2.2.3a9.51,9.51,0,0,0,1.5,2c-.1.1-.3.2-.4.3-.3.2.1.6.4.5a3,3,0,0,0,.7-.5l.1-.1a2.18,2.18,0,0,0,.5-.8c.1-.2-.3-.4-.4-.3s-.2.3-.4.4a7.12,7.12,0,0,1-1.8-2.7,2.88,2.88,0,0,0-.1-1.3,6.19,6.19,0,0,0,1.6,1.9c1.3.9,2.8.7,4.2,1.3a8.79,8.79,0,0,1,1,.6C124.54,59.9,120.94,60.4,119.74,60.6Zm13.3-.2a7.21,7.21,0,0,1-4.2-.6,37.42,37.42,0,0,1-4.2-2.7,7.16,7.16,0,0,0-2.9-1c-2.4-.4-3.8-2.8-4.6-4.9-.1-1.1,0-2.3,0-3.4a5.55,5.55,0,0,0,1.7-.3c.5.5,1.1,1.2,1.4,1.5a20.46,20.46,0,0,1,2.8,4.4,15.34,15.34,0,0,0,3.8,4.6C128,59.1,130.84,60.7,133,60.4Zm-.7-3.9a7.12,7.12,0,0,1-2.7,1.8.1.1,0,0,0-.1.1,8.26,8.26,0,0,1-1.3-.7,6.4,6.4,0,0,1-2.8-3.7c1.9,1.4,4.7.9,6.9.4a5.64,5.64,0,0,0,1.2-.4A4.52,4.52,0,0,1,132.34,56.5Zm8.4-13c.1,2.7-1.8,5.3-3.6,7.1-2.3,2.3-8.5,5.3-11.4,2.4-.2-.2-.5-.2-.6,0a3.09,3.09,0,0,1-.2-.8,12.27,12.27,0,0,0-1.9-3.8,4.93,4.93,0,0,0,2,1.3v.8c0,.6.8.5.9,0s.2-.5.4-.8-.1-.9-.5-.6h0c-.1-.1-.2-.2-.3-.2a2.92,2.92,0,0,1-.9-.2,7.86,7.86,0,0,0,5.3-.3c2.5-1.3,3.4-3.4,4.3-5.9.2-.5.4-1.2.7-2a4.93,4.93,0,0,1,3-.6C140.14,39.8,140.64,41.4,140.74,43.5Zm2.9-11.5c.1,2.7-2,6-4.7,6.8a6.65,6.65,0,0,0-3.9.7,14.27,14.27,0,0,0,.6-3.5c4.5-.2,6.4-5.1,6.6-9h0a.37.37,0,0,0,.3.1h0C143.44,27.7,143.64,31.5,143.64,32Zm-1-5.8a.37.37,0,0,0-.3.1v-.1a9.15,9.15,0,0,0-1.2-4.7c1.4-1,1.8-2.8,1.7-4.6a9.43,9.43,0,0,1,1.2,3.8C144.14,22,144.34,25.4,142.64,26.2Z" transform="translate(-0.5 -1.31)"/><path class="cls-1" d="M88.34,69.6a1.27,1.27,0,0,0-.6-.1c-.2,0-.2.4,0,.5s.4.1.6-.1A.19.19,0,0,0,88.34,69.6Z" transform="translate(-0.5 -1.31)"/><path class="cls-1" d="M59.34,163.5c-.5-1.9-2.5-2.4-4.2-2.9-1.4-.3-2-2.3-2.9-3.3a2.7,2.7,0,0,0-2.2-1,.2.2,0,1,0,0,.4c2,0,2.7,2.9,4,4a7.84,7.84,0,0,0,2.1.9,4.7,4.7,0,0,1,2.2,2.2A.53.53,0,0,0,59.34,163.5Z" transform="translate(-0.5 -1.31)"/><path class="cls-1" d="M77.94,167.8c1.8-1.7,2.1-4.1,2-6.5a6.08,6.08,0,0,0-.8-2.7c-.4-.7-.9-.5-1.1-.6h0c.3,0,.4-.3.1-.4H78a2,2,0,0,0-.1-.8c-.1-.8-.5-1-.9-1.6,0,0-.1-.1-.1,0,1-1.8.9-4.4.8-6.3a3.59,3.59,0,0,0-.2-1.1,10.38,10.38,0,0,0-1.3-9.2c-.9-1.2-2.1-2.8-3.3-1.7-.1-.1-.1-.2-.2-.3-.6-1.2-1.1-3.1-2-4.2s-5-3-5.8-1.2A3.7,3.7,0,0,0,62,130a1.81,1.81,0,0,0-1.8,1.4,1.76,1.76,0,0,0-.5-.4c.9-2.2,1.8-3.7,2.1-6.1a47,47,0,0,0,.2-8.4c.3-.4.6-.7.9-1.1.2-.2,0-.7-.3-.5s-.4.2-.6.2v-1.7h0a8.28,8.28,0,0,0,1.9-4.4.26.26,0,0,0-.5-.1,16.93,16.93,0,0,1-2.8,3.8,7.81,7.81,0,0,0-.1-3.4c-.2-1-.5-1.9-.6-2.9a7.29,7.29,0,0,1,1.7-6.2c1.6-2.1,3.7-3.9,4.9-6.3a18.91,18.91,0,0,0,1.7-6.7,8.65,8.65,0,0,1,0,6.7c-.5,1.1-1.7,1.6-1.9,2.9a.32.32,0,0,0,.3.3,6,6,0,0,0,3.8-.9,9.45,9.45,0,0,1-3.8,2.7c-1.3.5-2.8,1-3,2.5,0,.1.1.3.2.3a6.11,6.11,0,0,1,1.4.7,3.34,3.34,0,0,0-2.2.9,3.6,3.6,0,0,0-1.4,3l.1.1a3.69,3.69,0,0,0,1.4-.7,8.3,8.3,0,0,0-1.5,1.7,3.32,3.32,0,0,0,.1,3.7h0a5.33,5.33,0,0,1,1.6-5.2c.5-.5.6-.4.6-.9,0-.1-.2-.1-.2-.1-1.5,1.3-2.4,1.7-1.3-.4s3-1.6,4.8-1.2c.5.1.6-.5.2-.7-.2-.1-4-1.1-2.2-2.3.8-.5,1.8-.8,2.6-1.2a9.77,9.77,0,0,0,4.1-4.2c.1-.1,0-.2-.1-.3a.1.1,0,0,1,.1-.1c.1-.4-.5-.6-.6-.2a3.32,3.32,0,0,1-1.6,1.5c.6-.3-3.3,1.3-1.9-.2a7.48,7.48,0,0,0,1.6-2.9c.8-2.3-.1-5-1-7.1a.31.31,0,0,0-.6.1c-.2,3.5-1.1,7.5-3.4,10.3-1.5,1.7-2.8,3.4-4.2,5.2-2.8,3.8,1.9,8.6-.4,12.2a.44.44,0,0,0,.1.5l-.3.3a18.89,18.89,0,0,0-2.6,5.1c-.9,2.3-1.9,4.5-2.9,6.7-.9,1.9-1,4-1.8,5.9,0,.1-.1.1-.1.2s-.1.2-.1.3a4,4,0,0,0-2.6-1.4,3.06,3.06,0,0,0-1.7.4c-1.4-2.4-1.4-5.1-1.3-7.8,0-1.1.1-2.1.2-3.2.6.1,1.8,0,1.8-.7a.35.35,0,0,0-.1-.2c-.3-.1-.5.1-.8.2a2.77,2.77,0,0,1-.9.1,56.1,56.1,0,0,1,.6-5.9,51.58,51.58,0,0,1,.9-5.2,7,7,0,0,1,1.4.3c.2,0,.3-.1.2-.3a1.38,1.38,0,0,0-1.5-.5c.2-1.1.4-2.3.7-3.4,0,.1.2.1.2,0l.3-.3c.1-.1,0-.2-.1-.2s-.3.1-.4.3c.3-1.4.6-2.9,1-4.3a.22.22,0,0,0,.2-.2.1.1,0,0,0-.1-.1c.3-1.1.5-2.2.8-3.2a1.91,1.91,0,0,0,1.8.2c.1,0,.1-.2,0-.2-.6-.2-1.1-.1-1.6-.5,0-.1,0-.1.1-.2.5-2,1-4,1.4-6.1.3-.1.5-.3.9-.1s.6-.3.3-.5c-.5-.3-.4-.9-.7-1.3H53c.6-2.4,1.2-4.9,2-7.2.7-2,.4-5-2.5-4.4-2.1.5-2.7,6.5-3.1,8-.5,2-.8,4.1-1.2,6.2-.1.2-.4.2-.6.2a3.4,3.4,0,0,1-1.4-.2.1.1,0,0,0-.1.1h0c-.2,0-.3-.1-.5-.1a.1.1,0,0,0-.1.1c.7.4,1.7.8,1.8,1.8,0,.4-.1,1.2.2,1.6-.6,2.9-1.3,5.9-1.8,8.8v.2a1.62,1.62,0,0,0-.9-.5.1.1,0,0,0-.1.1,4.44,4.44,0,0,1,.8,1.1c-.4,2.8-.6,5.7-.8,8.5a2.64,2.64,0,0,0-1.9-.7s-.1.1,0,.1c.4.2.9.4,1.3.6s.4.3.4.6.1.3.1.5a.1.1,0,0,0,.1.1c-.1,2.2-.2,4.4-.5,6.6-.1.6-.1,1.3-.2,1.9a2,2,0,0,0-1.3.1c-.1,0-.1.1,0,.1a5,5,0,0,0,1.3.4,55.79,55.79,0,0,1-.8,5.7,7.72,7.72,0,0,0,0,3.7,4.17,4.17,0,0,0-1.8.8c-1.3-1.2-2.2-2.5-3.9-3.2-2.8-1.1-5.6-1.8-7.9-3.8a75.3,75.3,0,0,1-5.6-5.7c-1.4-1.5-2.4-3.9-4.1-4.9s-3.4-2-5.6-1.9c-1.9.1-3.5,1.8-4.8,3-2.3,2.2-3.7,4.8-5.5,7.3A10,10,0,0,0,.54,127c-.1.2.1.3.2.3,1.6-.2,3-2,4.1-3.6a31.64,31.64,0,0,0,4.2-4c2.6-2.5,5-3.4,8.1-1,2,1.6,1.3,4.7,2.4,6.9,1.8,3.4,2.7,7.1,4.6,10.5a14.37,14.37,0,0,0,1.8,2.5,7.72,7.72,0,0,0-5.8,3.3h0c-1.7-.1-3.3-.4-4.9.3a23.79,23.79,0,0,1-7.4,2.4c-2.3.3-5.9-.8-7.3,1.7-.1.3,0,.6.3.6a12.8,12.8,0,0,0,3.9-.7c2.3-.7,4.4-.2,6.7,0,3,.2,5.2-2.2,8-2.6a6.18,6.18,0,0,0,.9,3.7c-1.8.9-2.6,4.2-2.3,6.2a3.29,3.29,0,0,0-1.5,3.1c0,1.5,1.5,2.2,2.2,3.2a17.61,17.61,0,0,1,1.4,2.3,6.91,6.91,0,0,0,.2,4.9,10.83,10.83,0,0,0,3,4c.9.8,3.1,2.1,4.5,1.7-.4,2.2,1.1,3.6,3,4.9a9.55,9.55,0,0,0,4.8,1.7c-.3,1.3,1.5,3,2.5,3.6,2,1.2,5.2,2.1,7.2.7-.1,1.7,1.6,2.6,3.2,3s4.5,1.1,5.8-.5c1.1,1,3.2,2.5,4.4,1.5,2.8,1.3,6.6-.4,8.2-2.8h0c2.7-.8,4-4,5.1-6.4a11.29,11.29,0,0,0,3.1-2.6,11.58,11.58,0,0,0,2.6-5.6,2.26,2.26,0,0,0,.2-2.4ZM3.44,124.7a5.83,5.83,0,0,1-2.3,2.1,4.89,4.89,0,0,1,1.2-1.3l1.2-.9A.1.1,0,0,0,3.44,124.7Zm-1.6,21.4a4.83,4.83,0,0,1,2.9-.7A15.29,15.29,0,0,1,1.84,146.1Zm18-3.3c-2.7.2-4.8,2.3-7.5,2.7a14.89,14.89,0,0,1-4.2-.3l1.5-.3a13.48,13.48,0,0,0,4.2-1.6c2.2-1.2,3.9-1.1,6.1-1C20,142.5,19.94,142.6,19.84,142.8Zm57.7,15.6c-.1,1.2-.4,3.5-1.5,4.4a8.24,8.24,0,0,0-1.6-4.1,4.85,4.85,0,0,0,1.2-2,3.74,3.74,0,0,0,1.2-1.3C77.54,155.9,77.54,157.6,77.54,158.4Zm-27.7,19.5c-1.2-1.4-2.7-2.4-2.1-4.7a9.92,9.92,0,0,0,.3-1.5,11.35,11.35,0,0,0,2.3-4.5c0,.1.1.1.1.2a6.49,6.49,0,0,0,4.7,2.1,24.18,24.18,0,0,1,.3,2.5,25.49,25.49,0,0,1-.2,3.9c0,.2.3.2.4.1a9.38,9.38,0,0,0,.5-4.4,13.8,13.8,0,0,0-.3-2,4.16,4.16,0,0,0,3.3-1.3h0a6.32,6.32,0,0,0,2.5,1.2h.1c.5,4.1-2.4,11.1-6.9,10.2a1.73,1.73,0,0,0-1,.1,3.42,3.42,0,0,1-3.4-1.2v-.2C50.34,177.9,50,177.8,49.84,177.9Zm-23-15.6h-.2a6.93,6.93,0,0,1-3.7-4.3,10.45,10.45,0,0,1,.2-5.8c.1.1.3.2.5.4.9,2.1,2.5,3.4,5.2,1.8l.1-.1.6.6c-1.6.6-2.3,2.7-2.7,4.3A4.71,4.71,0,0,0,26.84,162.3Zm6.5-24.5a12.75,12.75,0,0,1,2,.1,5.94,5.94,0,0,1,3.5,1.8,6.34,6.34,0,0,1,1.2,2.1c.8,2.6-2.9.6-3.3.4a10.27,10.27,0,0,0-4.9-1C30.44,139.3,31.64,137.8,33.34,137.8Zm5.6,6.4a2.77,2.77,0,0,0,.9.1,17.38,17.38,0,0,1,1.3,1.5,6.22,6.22,0,0,1,1.8,3,6.62,6.62,0,0,1,.2,3.1c-.1,0-.2.1-.2.3v.1a2.41,2.41,0,0,1-1.8,1.4c-1.1-3.5-6.2-6.8-9.2-6.7a.25.25,0,0,0,0,.5c2.4-.1,4.1,1.1,5.7,2.7a10.87,10.87,0,0,1,2.5,3.5.52.52,0,0,0,.2,1h.1a2.21,2.21,0,0,1-1.8,2.5c-2.6.9-7-1.7-8.7-3.5a22.85,22.85,0,0,1-3-3.8c-1.7-2.8-.2-5,2.1-6.7C32.34,141,35.64,143.2,38.94,144.2Zm2-.4v-.3a1.45,1.45,0,0,0,.2-.7,1.44,1.44,0,0,1,1-.6,8.07,8.07,0,0,1,2.7-.1,10.13,10.13,0,0,1,3.5,1v.1c0,.1.1.2.2,0h0c.3.2.7.3,1,.5,1,.5,3,.6,3.8,1.2a10,10,0,0,1,2.5,3.3,6.12,6.12,0,0,0,.5,1.2,15.54,15.54,0,0,1,.5,2.3c.3,1.7-.6,2.5-2.6,2.4a6.08,6.08,0,0,0-1.6-.9c-.4-.1-.7-.2-1-.3a.37.37,0,0,0-.3-.1,3.62,3.62,0,0,1-2.6-2.4c-.9-2.3-.6-3.5-2.9-4.8-.2-.1-.4.2-.2.3,2.1,1.1,2.3,2.4,2.7,4.5a3.86,3.86,0,0,0,.8,2,3.5,3.5,0,0,0,1.7.9c-.7,1.1-1.8,1.3-3.2,1.2s-3.2-.7-3.9-2a4.78,4.78,0,0,0,.4-1.8,6.36,6.36,0,0,0-.7-3.3c-.7-1.5-1.9-2.4-2.9-3.6l.1.1C40.94,144.3,41.14,143.9,40.94,143.8Zm23.6,12.4a4.3,4.3,0,0,0,1.2-.2.35.35,0,0,0,0-.7,6.37,6.37,0,0,1-.7-.2c-.4-4.3-3.7-7.8-7.1-10.3a.1.1,0,0,1-.1-.1h0c-.1-.1-.2-.1-.3-.2s.3-.7,1.2-1.3a7,7,0,0,0,1.4.3c1.1.2,2.4,0,3.5.1,4.3.2,6.5,4.9,7.2,8.6.4,2.2.4,4.3-2.2,5.1-1.2.3-2.2,1-3.4,1.3-2.1.5-5.6.1-7.4-1.7-.3-.4-.5-.8-.8-1.2a5,5,0,0,1-.2-1.2,4.81,4.81,0,0,0,.6-3.3h.2a.1.1,0,0,0-.1-.1c0-.1,0-.1-.1-.1a.1.1,0,0,1-.1-.1,15.27,15.27,0,0,0-.8-3.1,4.05,4.05,0,0,0-.5-.9c0-.2-.1-.3-.1-.4-.4-2.8,2.8,0,3.3.5a19.73,19.73,0,0,1,3,3.4,7.22,7.22,0,0,1,1.5,5.3C63.94,155.9,64.24,156.3,64.54,156.2Zm9.2-10.5c.1,0,.1,0,.2-.1,1-1.4,2.6,1.6,2.8,2.2,0,.2-.1.3-.1.5a.35.35,0,0,0,.3.5,16.15,16.15,0,0,1,0,2.2,7.35,7.35,0,0,1-1,4.1c.3-2.6-.3-5.6-2.2-6.1a2.92,2.92,0,0,0,.2-.9A6.52,6.52,0,0,0,73.74,145.7Zm1.2,10.4c-.1,0-.1.1-.2.2a.47.47,0,0,0-.1.6,2.26,2.26,0,0,1-.9,1.2,3.86,3.86,0,0,0-2.2-1.1h0c1.5-1.5.6-4.3.1-6.1a2.49,2.49,0,0,0,1.6-1.3C75.14,150.2,75.54,153.7,74.94,156.1Zm-2.2-7.2h0c-.3,0-.3.3-.2.5a1.44,1.44,0,0,1-1,.6,11.31,11.31,0,0,0-3.7-5.6c-2.6-2-5.2-1-8.1-1.6.8-.4,1.5-.9,2-1.2a6.28,6.28,0,0,0,2.8-2.8,4.7,4.7,0,0,1,4.6,1.2,13.24,13.24,0,0,1,2.6,3.6C72.24,144.5,73.24,147.3,72.74,148.9Zm-31.8,11.8c1.1,1.3,3.6,1.3,3.8,3.3a.4.4,0,0,0,.8,0c.1-1.4-.9-2.2-2.1-2.8-.9-.5-2.3-.9-2.4-2.1,0-.3.6-2.9.3-2.8a.32.32,0,0,0,.3-.3v-.1l.1-.1c.1-.1.1-.2.2-.3.4-.3,1.4,0,1.9.2h0c0,.1.2.2.3.2s.1,0,.2-.1a.22.22,0,0,0,.2.2h.1a12,12,0,0,1,.9,1.2,16.21,16.21,0,0,1,2.3,5.2,12.57,12.57,0,0,0,1.5,3.8c0,.1-.1.1-.1.2A10.34,10.34,0,0,1,47,171c-2,2.5-4.8,1.7-7-.1-1.3-1.1-.7-4.2-1-5.8-.3-1.8-1.1-4.8-.1-6.6a2.89,2.89,0,0,0,1.5-1.2c.1-.1.1-.1.1-.2C40.54,158.2,39.84,159.5,40.94,160.7Zm6.5-2.3a17.64,17.64,0,0,0-2-3.4,8.65,8.65,0,0,0,2.3.6c1.1.1,4.1-.3,4.1-1.8a3.49,3.49,0,0,1,1.3.5c.5.2,1,.9,1.6,1h.2c0,.1.1.2.3.2a1.43,1.43,0,0,1,1,.4,4.23,4.23,0,0,0,2.2,2.7.78.78,0,0,0,.4.4c1.5,1.5,5.6,3.8,1.6,6.3-.7.4-1,.5-1.4,1.2a3.23,3.23,0,0,1-3.5,2.2h-.3a4.25,4.25,0,0,1-1.1-.2C49.24,167.4,49.24,162,47.44,158.4Zm14.2,6.8a3.25,3.25,0,0,0,.9-3.6,4.45,4.45,0,0,0-1.8-2.1,11.54,11.54,0,0,0,4.1.2A9.35,9.35,0,0,0,67,159l.1.1c2.1,1.9.4,6.9-2.4,7.1-.2,0-.4.1-.4.3a.9.9,0,0,0-.1.5c-.2.2-.3.5-.5.6a6.72,6.72,0,0,1-1.2.6h0a.51.51,0,0,0-1,.1c-.2,0-.5-.1-.8-.1-.8-.2-.9-.8-1.2-1.3C59.74,166.1,60.94,165.7,61.64,165.2ZM38,163.4a9.72,9.72,0,0,1,.1,1.8c-1.6,1.3-3.6-1.2-4.5-2.4a11.09,11.09,0,0,1-1.7-3,16.29,16.29,0,0,1-.5-3.4c2.1,1.3,4.8,2.5,6.9,2.1A10.28,10.28,0,0,0,38,163.4Zm-8.4-21.6c-1.9.9-4.8,3-4.7,5.3s1.5,4.4,3.1,6.2c-3.7,1.8-4.3-3.6-4.3-6.1,0-2.3,2.3-6.3,5-6.7a8.3,8.3,0,0,0,2.1.6c.1.1.2.2.2.3A5.73,5.73,0,0,0,29.64,141.8Zm.3,13.4a5,5,0,0,0,1.2.8c-.8,3.7,1.4,7.1,4,9.6a4.68,4.68,0,0,0,3.2.9v.8c-.2,0-.3.2-.4.4-.4,1.1-1.5,1.2-2.8.8,0-.2-.2-.3-.4-.3a.37.37,0,0,0-.3.1,20,20,0,0,1-4.6-3C27,162.2,26.94,158,29.94,155.2Zm4,14.5.3-.3,1.2.3a3.68,3.68,0,0,0,3.1-.5c.1.5.3.9.4,1.3a.1.1,0,0,0-.1.1,5.44,5.44,0,0,0-.1,4.5,7.81,7.81,0,0,0,2.3,2.1,2,2,0,0,1-2,.3,11.73,11.73,0,0,1-3-1.9,18.88,18.88,0,0,1-2-2C33.24,172.3,33.84,171,33.94,169.7Zm5.2,2.1a2.81,2.81,0,0,0,.1-.8,6.47,6.47,0,0,0,.8.9c1.9,1.3,4,2.2,6.2,1.1a3.59,3.59,0,0,0,1-.7,4.42,4.42,0,0,0-.5,2.2,8.18,8.18,0,0,0,1.8,3.6c.1.2.3.4.5.7-1.8,3.1-5.5-1.2-7.4-2.3S38.84,174.2,39.14,171.8Zm21.7,5.3a13.93,13.93,0,0,0,1.9-7.8,5.67,5.67,0,0,0,1.3-.8,13.09,13.09,0,0,1,.9,2.8c.2,1,.1,2,.3,3,0,.1.3.1.3,0a8.53,8.53,0,0,0-.8-5.6,4.61,4.61,0,0,0,2.6,1.3,9.74,9.74,0,0,0,2.4.2,7.58,7.58,0,0,1-2.7,6.1,8.4,8.4,0,0,1-3.1,1.9c-.8.3-2.7.6-3.6-.2A1.93,1.93,0,0,1,60.84,177.1Zm4.4-8.9c-1-.9,1.1-1.3,1.4-1.6a6.67,6.67,0,0,0,1.9-2.5c.6-1.7,1-4.1-.4-5.5a3.64,3.64,0,0,1,1.4-.2h.1c.4.3.7.7,1.1,1a3.92,3.92,0,0,1,.8,1c.2.4.3.8.7,1,.2.1.3,0,.4-.1.4-.7-.4-1.7-.9-2.2l-1-1a1.38,1.38,0,0,0-.4-.3c.2-.2.4-.3.6-.5a7,7,0,0,1,3.1,2.5,7,7,0,0,1,.6,6.7C73.34,169.5,67.64,170.2,65.24,168.2Zm12-26.3a9.71,9.71,0,0,1-.1,4.5,5.26,5.26,0,0,0-1.2-1.4,1.81,1.81,0,0,0-2.3,0c0-.2-.1-.3-.1-.5,1.3-1,1.1-2.6.8-4.1a15.83,15.83,0,0,0-.9-3.1C74.74,135.9,77.14,141.5,77.24,141.9Zm-8.8-10c1.5.7,1.8,1.7,2.3,3.2s4,6.6,2.2,8.5a20.71,20.71,0,0,0-2.2-3.5,7,7,0,0,0-4.9-2.4h-.2a6.19,6.19,0,0,0,.2-5.3c-.1-.2-.2-.3-.3-.5C66.14,130.9,67.44,131.4,68.44,131.9Zm-7.6-.1.1-.1c-.2-1.6,2.2-.7,2.7-.4a3.29,3.29,0,0,1,1.6,2.5,3.71,3.71,0,0,1-.8,3.4,3,3,0,0,0-.6-1.1,30.27,30.27,0,0,0-3-4.3Zm.7-7.7a18.91,18.91,0,0,1-.8,4c-.4,1.2-1,1.6-1.1,2.7a3.7,3.7,0,0,0-1.8-.8,7.31,7.31,0,0,0-3.7.5,7.84,7.84,0,0,1,1.9-4,10,10,0,0,0,1.8-2.9,28.76,28.76,0,0,1,3.9-6.5C61.54,119.4,61.64,121.8,61.54,124.1Zm0-8.5c-1.1,1-.4-.4.2-1.3v1.1h0Zm-8.2,13.7a21.06,21.06,0,0,1,1.9-4.7c1.3-2.8,2.3-5.9,3.8-8.6a23.8,23.8,0,0,1,3.1-4c.2-.2.4-.5.6-.7s.3-.4.4-.6a10.46,10.46,0,0,1-1.3,2.3.1.1,0,0,0-.1.1c-.1.1-.1.1-.1.2a12.54,12.54,0,0,0-2.1,3.5c-.1.2.2.4.4.4a4.68,4.68,0,0,0,1.4-.8,32,32,0,0,0-4.2,6.8c-.8,1.6-2.1,2.6-2.9,4.1a13.52,13.52,0,0,0-1.1,3.4v.3c-.1.1-.3.2-.4.3A5.11,5.11,0,0,0,53.34,129.3Zm-.6,3.4c.5-2.4,4.7-2.3,6.2-1.5s2.1,2.7,3.1,4c.6.7,1.5,1.6,1.5,2.6a.35.35,0,0,0-.2.1.52.52,0,0,0,0,.8c-.1.1-.2.3-.3.4a9.55,9.55,0,0,1-1.6,1.2c-.6.4-3.4,2.5-4.1,1.6h-.1c.1-2.1-1.1-4.3-2.3-6a26.31,26.31,0,0,0-2.4-3.1C52.74,132.8,52.74,132.8,52.74,132.7Zm-4.7-.8a2.37,2.37,0,0,1,2.5.3,14.22,14.22,0,0,1,3,3,14.61,14.61,0,0,1,2.2,3.3,7,7,0,0,1,.8,2.7c.2,1.3-.1,3.7-2.2,3.5a5.49,5.49,0,0,0-2.1-1.2,35.8,35.8,0,0,1-3.5-1.1,10.61,10.61,0,0,0-1.9-8,4.36,4.36,0,0,1,.7-2.1A.7.7,0,0,0,48,131.9Zm-.4-40.4a.78.78,0,0,0-.4-.4c.2,0,.5.1.7,0s.2,0,.2-.1c-.1.4-.1.9-.2,1.3A1.33,1.33,0,0,0,47.64,91.5Zm-3.4,34.8c.2-2.1.4-4.2.7-6.4.7-5.3.6-10.6,1.4-15.9s2.3-10.4,3.3-15.7c.4-2.2.8-4.4,1.4-6.6l.6-2.4a8.8,8.8,0,0,1,.5-1.5c1.9.1,2.7.8,2.2,1.9-.4,1.7-1.1,3.3-1.4,5-.4,2.3-1,4.5-1.6,6.7l-1.8,7.5a3,3,0,0,0-.8-.4c-.2,0-.3.2-.1.3a5.55,5.55,0,0,1,.8.6l-1.5,6.9c-.1.5-.2,1-.3,1.6a.76.76,0,0,0-.5.2c-.2.1-.2.3-.3.5h0c-.1.2.2.4.3.2s.2-.2.3-.2a113.6,113.6,0,0,0-1.7,11.9c-.2,3.9-.7,7.9,1.2,11.4,0,.1.1.1.1.2a6.53,6.53,0,0,0-.5,2,7.21,7.21,0,0,0-2-1.9,1.33,1.33,0,0,0-.8-.3C43.24,130.1,44,128.1,44.24,126.3Zm1.2,8c1.6,2.1,3.4,5.2,3.1,8a15.4,15.4,0,0,0-3.7-.9,5.24,5.24,0,0,0-3.7.8,3.51,3.51,0,0,0-.6-1.8c-.1-1.8-.8-3.3-.1-5.1C41.54,133,43.74,132.1,45.44,134.3Zm-22.6-3.8a18.59,18.59,0,0,0-1.9-4.6,9.2,9.2,0,0,1-1.4-4.6,3.08,3.08,0,0,0-.6-1.9c-1-1.2-2.8-3-4.5-3a4.31,4.31,0,0,0-3.9,1.3c-1.7,1.4-3.1,3.3-4.8,4.7a2.19,2.19,0,0,1,.3-.5,28.72,28.72,0,0,1,3.4-4.4,31.66,31.66,0,0,1,3.5-2.9c2.2-1.4,5.2.2,6.9,1.6,1.5,1.3,2.7,3.5,4.1,5a74,74,0,0,0,5.7,5.5c1.6,1.4,3.4,1.9,5.3,2.6,1.6.6,3,.9,4.3,2,.6.5,1.1,1.2,1.8,1.7l-.4.4a8.71,8.71,0,0,0-1.4,3.1,6,6,0,0,0,.3,2.6,6.22,6.22,0,0,0-1.9-1.4,7.91,7.91,0,0,0-5-.7,22.78,22.78,0,0,1-4.8-5c-1.4-2-3.5-3.9-4.4-6.1h0a5.1,5.1,0,0,0,1.2,2.3,17,17,0,0,1,3.2,4.7c.8,1.7,1.8,3.6,3.5,4.6-.1,0-.2.1-.3.1a1.75,1.75,0,0,0-.9,2.3,2.77,2.77,0,0,0-1.3-.3,4.13,4.13,0,0,1-1.1-.7.52.52,0,0,0-.2-.4h-.2C25,136.6,23.74,133.1,22.84,130.5Zm.1,10.1a18.11,18.11,0,0,1,3.7-1.4,5.5,5.5,0,0,0,.9.7c-2.5,1-4.7,4.5-4.9,6.5a12.74,12.74,0,0,0,.2,3.8,24.93,24.93,0,0,1-1.9-4.6C20.14,143.5,21.34,141.9,22.94,140.6Zm-2.2,7.3c.1.3.3.6.4.9a9.81,9.81,0,0,0,1.4,2.7c-1.3,1.5-.9,5-.7,6.5a5.27,5.27,0,0,0,.3,1.2,15.26,15.26,0,0,1-1.6-1.1c-1.1-1-.5-1.9-1-3C18.44,153.1,18.64,149.6,20.74,147.9Zm-.5,12.4c-1.1-2-4.2-3.6-1.8-6,.8,2.7,1,4.7,3.9,5.9h.2a7.1,7.1,0,0,0,1.9,2.3h-.1c-.2,0-.3.2-.3.4,0,.7-.1,1.4-.1,2C22.14,164.3,21.24,162,20.24,160.3Zm5.4,11.1a11.56,11.56,0,0,1-2.5-2,9.8,9.8,0,0,1-1.8-2.7,7.13,7.13,0,0,1-.7-2.6,5,5,0,0,1,.2-1.2c.8,1.3,1.7,2.5,3.2,2.8a6.71,6.71,0,0,0,1,2.9,18.78,18.78,0,0,0,2.7,3C27.14,172,26.54,171.9,25.64,171.4Zm0-3.6A3.23,3.23,0,0,1,25,166a.46.46,0,0,0-.1-.9v-.9a1.05,1.05,0,0,1,.4-1,4.39,4.39,0,0,0,2.2.7,8.55,8.55,0,0,0,1.5,2.2,9.1,9.1,0,0,0,4.1,2.9c-.1.2-.2.3-.3.5a10.62,10.62,0,0,0-.4,1.9c-.3,1.9-2,1-2.9.3-.1,0-.1-.1-.2-.1v-.1a.34.34,0,0,0-.5-.3A25.36,25.36,0,0,1,25.64,167.8Zm10,10.7c-1.5.2-2.7-.8-3.9-1.5a5.86,5.86,0,0,1-2.8-2.8,4.88,4.88,0,0,1-.1-1.7h0l.3.3c.8.6,2.4,1.7,3.4.8a2.18,2.18,0,0,0,.5-.8,10.44,10.44,0,0,0,2.9,3.8,7.86,7.86,0,0,0,1.8,1.2A6.49,6.49,0,0,1,35.64,178.5Zm4.5,4.4c-1.4-.5-3.6-1.8-3.4-3.4a3.21,3.21,0,0,0,2-1.3,6.47,6.47,0,0,0,1.3.4c-.7,1.7,3.1,3.3,4.3,3.8a9.25,9.25,0,0,1,1,.5C43.84,183.9,41.94,183.5,40.14,182.9Zm4.3-1.5c-.9-.4-3.9-1.3-3.9-2.8a1.33,1.33,0,0,0,1.5-1,8.79,8.79,0,0,1,1,.6c1.7,1.2,2.8,2.7,5,2.7a2.22,2.22,0,0,0,1.9-1.3,2.33,2.33,0,0,0,1.1.9c-.8,1.1-1.3,2.4-3.2,2.1A19.57,19.57,0,0,1,44.44,181.4Zm9.2,4.5a3.87,3.87,0,0,1-2.8.3,13.1,13.1,0,0,1-2.7-.6c-1.3-.4-1.5-1.3-1.9-2.3a.1.1,0,0,0,.1-.1,4.32,4.32,0,0,0,2.9.4,4.11,4.11,0,0,0,2.3-2c.2,1.6,1.4,2.9,2.5,4C54,185.7,53.84,185.8,53.64,185.9Zm5.1.8h0l-.1-.1c-.1-.1-.3,0-.4.1s-.1.1-.1.2v.1c-1.3.2-2.9-1.4-3.7-2.2a8.3,8.3,0,0,1-2.4-4c1.2.1,2.3-.2,3.5.2a2.8,2.8,0,0,0,2-.2c.1.2.2.3.2.5.2.3.8,1.1,1.2.7a.14.14,0,0,0,0-.2c0-.1-.1-.2-.2-.3a4.35,4.35,0,0,1-.6-.7c-.1-.1-.1-.2-.2-.4a10.22,10.22,0,0,0,1.8-1.8,5.57,5.57,0,0,0,3.3.6c1.7,1.6.2,5.5-2.2,5.5A2.07,2.07,0,0,0,59,186,.78.78,0,0,1,58.74,186.7Zm2.4.7a9.23,9.23,0,0,1-1.5-.1,4.35,4.35,0,0,0,.4-.7.93.93,0,0,1,.9-.7,4.55,4.55,0,0,0,5.2-.7h.1A8.15,8.15,0,0,1,61.14,187.4Zm5.2-3.8a7.64,7.64,0,0,1-2.3,1.7,3.64,3.64,0,0,1-1.5.2,3.6,3.6,0,0,0,1.8-2.2c.4-1.2.6-3.2-.3-4.2a7,7,0,0,0,2.3-1.1,4.18,4.18,0,0,0,1.9,1.5,8,8,0,0,1-.3,1.5A4.26,4.26,0,0,1,66.34,183.6Zm.7.5a6.83,6.83,0,0,0,1.9-4.7,5,5,0,0,0,1.6-.2,3.58,3.58,0,0,0,1.1-.4C70.64,181.1,69.34,183.3,67,184.1Zm9.3-16.9c2.3,1.7.3,5.3-.7,7.1-1.4,2.6-6,6-8.6,3.2a9.58,9.58,0,0,0,3.6-7.3v-.1a7.65,7.65,0,0,0,3.7-1.5l.1-.1a10.06,10.06,0,0,1,0,3,23.94,23.94,0,0,1-1.4,4.3.1.1,0,0,0,.1.1,9.27,9.27,0,0,0,1.7-7.9,6.54,6.54,0,0,0,1.2-4.6c1.2-.7,1.6-2.6,1.8-3.8,0-.3.1-.5.1-.8,1.3.7,1.2,2.8,1.1,4a6.18,6.18,0,0,1-1.7,4.5c-.4-.4-.9-.6-1.2-1.1a.27.27,0,0,0-.5.2A2.7,2.7,0,0,0,76.34,167.2Z" transform="translate(-0.5 -1.31)"/><path class="cls-1" d="M72.54,176.8a2.7,2.7,0,0,1-.8.7v.1a1.55,1.55,0,0,0,.8-.8Z" transform="translate(-0.5 -1.31)"/></svg>