<?xml version="1.0" encoding="utf-8"?>
<!-- Generator: Adobe Illustrator 21.0.0, SVG Export Plug-In . SVG Version: 6.00 Build 0)  -->
<svg version="1.1" id="Calque_1" xmlns="http://www.w3.org/2000/svg" xmlns:xlink="http://www.w3.org/1999/xlink" x="0px" y="0px"
	 viewBox="0 0 595.3 841.9" style="enable-background:new 0 0 595.3 841.9;" xml:space="preserve">
<style type="text/css">
	.st0{fill:#231F20;}
</style>
<g>
	<path class="st0" d="M330.3,381.8L330.3,381.8c-0.2-0.9-0.5-1.7-0.7-2.4c-0.5-1.4-1-3.5-2.5-4.1c-0.1,0-0.2-0.1-0.4-0.1
		c-0.1-1.5-1.1-2.8-2.6-3.2c-0.4-0.1-0.7-0.2-1.1-0.1c-0.1-1.6-1.2-2.7-2.9-2.7c-0.1,0-0.2,0-0.3,0c0,0,0-0.1,0-0.2
		c-0.2-1.3-2.8-1.6-4.7-1.2c-0.1,0-0.2-0.1-0.3-0.1l0,0c0-0.1-0.1-0.3-0.2-0.3c-1.3-0.3-2.4,0.2-3.6,0.7c-1-0.8-3.5,0-5.3,1.1
		c-1-0.6-2.7-0.6-3.7-0.3c-1.3,0.3-2.2,1.1-3.4,1.6c0,0,0,0,0,0.1c-0.9-0.2-1.8-0.2-2.9,0.2c-0.4,0.1-0.9,0.3-1.3,0.6
		c-0.1-0.1-0.1-0.2-0.3-0.2c-0.6-0.2-1,0.2-1.6,0.3c-0.9,0.2-1.7,0.6-2.5,1c-1,0.5-3.7,1.8-3.9,2.9l0,0l0,0c-0.1,0-0.2,0-0.3,0.1
		c-0.1,0-0.1,0.1-0.1,0.2c-0.8,0.3-1.5,0.7-2.1,1.2c-1.5,1.3-2.3,3.3-2.2,5.3c-2.3,0.5-4.9,2.2-6,3.3c-3.4,3.1-4.4,8.6-2.9,12.9
		c-1.1,0.1-2.1,0.4-3.2,0.6c-1.6,0.3-2.9,0.3-4.5,0.8c-1.1,0.3-2,1.1-3,1.6l0,0c0.8-0.2,1.6-0.4,2.4-0.7c-1.1,0.4-2.1,0.9-3.2,1.5
		c-0.2,0.1,0,0.4,0.2,0.3c3-1.5,6.2-2.5,9.4-2.1c-0.6,2,0.6,4.3,2,5.7c0.3,0.3,0.8,0.7,1.2,1l0,0c-0.2,0-0.3,0-0.4,0.2
		c-0.3,0.1-0.7,0.2-1,0.2c0-0.2,0-0.4,0-0.6s-0.1-0.3-0.3-0.3c-0.1,0-0.3,0.1-0.3,0.3c0,0.3,0,0.6,0,0.9v0.1c0,0.2,0,0.4,0,0.6l0,0
		v0.4c0,0.2,0.1,0.3,0.3,0.3c0.1,0,0.3-0.1,0.3-0.3v-0.4l0,0c0-0.1,0-0.3,0-0.4c0.4,0,0.7,0,1.1-0.1c0.1,0.7,0.5,1.4,1,1.8
		c-0.2,0.2-0.4,0.4-0.6,0.6c-0.9,1-1.3,2.3-1.7,3.5c-0.6,2.1-1.3,4-2.5,5.9c-1.1,1.7-2.6,3.2-4.1,4.6c-1.1,1-2.7,1.7-3.6,2.9
		c-0.2,0.3-0.3,0.5-0.4,0.7c-0.8,0.9-1.1,1.8-0.3,2.6c-0.1,0.6-0.3,1.1-0.2,1.7c0.2,1,1,1.3,1.8,0.7c0.5-0.4,0.7-1.6,0.9-2.2
		c0.6-1.9,2.9-3.6,4.6-4.4c2.8-1.4,6-1.6,8.8-3s4.9-4.1,7.5-5.9c-1.3,1.6-2.8,3.2-4,4.8c-2.3,2.8-4.1,5.8-5.6,8.8
		c-0.6-0.1-1.1,0-1.6,0.2c-0.1,0.1-0.1,0.3,0,0.4c0.3,0.2,0.8,0.2,1.2,0.2c-1.1,2.2-2,4.6-2.9,7c-0.7,1.8-1.2,3.7-1.7,5.6
		c-0.3,0-0.6,0.1-1,0.1c-0.6,0.1-1.3,0.2-1.9,0.4c-0.2,0.1-0.2,0.3,0,0.4c0.5,0.2,1.1,0.1,1.6,0c0.4-0.1,0.7-0.1,1.1-0.2
		c-1.2,4.7-1.9,9.7-2,14.5c-0.1,3,0,6.2,0.5,9.2c0.2,1,0.3,3.4,1.7,3.6c4,0.7,2.2-5.9,2.2-7.9c0-1.4,0.1-2.8,0.1-4.2
		c0.7,0.1,1.6,0.1,1.9-0.5c0.1-0.2,0-0.3-0.2-0.4c-0.4,0-0.8,0.1-1.1,0.1c-0.2,0-0.3,0-0.5,0c0.2-2.8,0.6-5.7,1.1-8.5
		c0.1,0,0.2,0.1,0.3,0.1c0.2,0,0.3-0.1,0.3-0.3c-0.1-0.3-0.2-0.4-0.4-0.6c0.3-1.4,0.6-2.8,0.9-4.2c0.2,0.5,0.5,1.1,1.1,1.1
		c0.1,0,0.2-0.2,0.1-0.3c-0.3-0.4-0.6-0.7-0.8-1.2c-0.1-0.1-0.2-0.1-0.3-0.1c0.3-1.2,0.6-2.4,1-3.6c0.8-2.5,1.7-4.9,2.8-7.2
		c0.3,0.4,0.8,0.7,1.3,0.9c0.1,0,0.3-0.1,0.2-0.2c-0.2-0.5-0.5-0.8-0.9-1.1c-0.1-0.1-0.2-0.2-0.3-0.3c0.5-1,1-2.1,1.5-3.1
		c0.1,0.3,0.3,0.5,0.6,0.6c0.1,0,0.2-0.1,0.2-0.2c-0.1-0.3-0.3-0.6-0.5-0.8c0.2-0.5,0.5-0.9,0.7-1.4c0.3,0.1,0.6,0.1,0.9,0
		c0.2-0.1,0.1-0.3,0-0.4c-0.2-0.1-0.3-0.2-0.5-0.2c0.4-0.8,0.9-1.5,1.3-2.2c0.1,0.2,0.2,0.5,0.3,0.7c0.1,0.1,0.2,0.1,0.3,0
		c0.2-0.5,0-0.9-0.2-1.3c0.4-0.7,0.8-1.3,1.3-2c0.1,0,0.1-0.1,0.1-0.1v-0.1c0.2-0.3,0.3-0.5,0.5-0.8c0.2-0.4,0.5-0.7,0.7-1
		c0.6,1.2,1.7,1.7,2.9,2.1c1.8,0.7,3,1.1,4.8,0.6c0.2,0.6,0.4,1.1,0.7,1.6c2.5,4.3,0.9,8.7-0.7,13.1c-0.6,1.6-1.9,8,1.1,7.9
		c0.3,0,0.5-0.3,0.4-0.5c-1.2-3.3,1.3-6.7,2.1-9.9c1-3.5,2-6.8,4.3-9.7c0.1-0.2,0.3-0.4,0.5-0.5c0.8,1.6,4,1.7,5.4,1.6
		c1.6-0.1,5.3-0.8,5.9-2.8c0.7,0.5,1.4,1,2.1,1.4c2.3,1.5,8.3,2.4,7.7-2c-0.1-0.5-0.8-0.4-0.8,0.1c0,0.2,0,0.3,0,0.4
		c-1.3,0.6-2.5,0.6-3.7,0.2c2-1,3.8-3,3.6-5.3c2.5-1.2,4.5-3.3,6-5.7c1.5-2.5,2.1-5.9,0.2-8.4c-0.1-0.1-0.2-0.2-0.2-0.2
		c2.8-1.4,4.4-5.1,4.2-8.1c0-0.7-0.2-3.6-1.1-4.7c0.9-0.8,1.4-2.4,1.5-3.3C332.7,386.7,332.3,383.7,330.3,381.8z M326.5,375.9
		c0.6,0.3,1.2,0.9,1.5,1.6c0.5,0.9,0.7,1.9,1,2.9c0.6,2,1,5.2-1,6.4c-0.4-0.3-1-0.4-1.6-0.2c-0.1-0.7-0.3-1.5-0.8-2.1
		c-0.3-0.4-0.7-0.7-1.2-0.9c0.9-1.4,0.7-3.2,0.3-4.7c-0.2-0.7-0.5-1.6-1-2.3c0.6-0.7,1.3-0.9,2-0.8
		C325.8,376,326.3,376.1,326.5,375.9z M304.1,412.6c-2.3,0.1-3.8-2.1-5.2-3.6c-0.5-0.5-1.1-1-1.6-1.4c0.1,0.1,0.3,0.1,0.4,0.2
		c0,0.3,0.4,0.5,0.6,0.3c0.2,0.1,0.4,0.2,0.6,0.3c1.1,0.5,2.2,0.5,3.4,0.3c1.6-0.3,2.9-1.8,3.6-3.5c0.1,0.2,0.2,0.5,0.3,0.7
		c0.1,0.2,0.2,0.3,0.4,0.5c-0.2,0.6-0.3,1.3-0.7,1.9c-0.5,0.8-1.4,1.2-1.9,2c-0.1,0.2,0.1,0.3,0.2,0.3c0.9-0.2,1.7-1.2,2.2-2
		c0.4-0.6,0.5-1.2,0.5-1.9c1,0.8,2.5,1.3,2.2,2.8C308.8,411.8,306.1,412.6,304.1,412.6z M285.1,395.1c-0.1,0.2-0.2,0.4-0.3,0.5
		c-0.1,0-0.2,0.1-0.2,0.3c0,0.2,0,0.3,0,0.5c0,0.4,0.6,0.4,0.6,0v-0.1c0.8,0.2,0.9,1.4,1.4,2c0.4,0.5,1,0.7,1.6,0.9l0,0
		c-0.9,0-1.7,0.2-2.7-0.1c-1.4-0.4-2.5-1.4-3.6-2.4c0.3-0.3,0.5-0.8,0.5-1.3c0-0.2-0.2-0.4-0.4-0.4c-1.2-0.1-2,0.5-2.2,1.7
		c0,0.3,0.1,0.5,0.4,0.5c0.2,0,0.3,0,0.5,0c0.1,0,0.2,0.1,0.3,0.1l0,0c1.1,1.2,2.5,2.2,4,2.6c-2.3,0-4.3-0.5-6.4-1l0,0
		c1.4-5,3.2-9.7,6.9-13.5c0.6-0.7,1.6-1.3,2.7-1.9c0.2,0,0.3-0.1,0.5-0.2c1.5-0.7,3.2-1.1,4.7-1c0.2,0.2,0.4,0.4,0.7,0.5
		c0.2,0.1,0.4,0,0.5-0.2c0.6,0.2,1.2,0.6,1.7,1.1c0,0.1,0.1,0.1,0.2,0.1c-1.1,1.3-2.1,2.8-2.8,3.7c-0.9,1-5.8,7.8-5.6,11.2
		c-0.5-0.2-1-0.4-1.3-0.9c-0.5-0.8-0.5-1.8-1.3-2c0-0.1,0.1-0.2,0.1-0.3C285.7,395.1,285.2,394.8,285.1,395.1z M277.4,398.5h-0.1
		c0-0.1,0-0.2-0.1-0.4c-3.3-4.4,0.6-9.7,5.2-10.8c-0.4,0.6-0.7,1.1-1.1,1.7c-0.9,1.5-1.5,3.1-2.3,4.6
		C278.1,395.3,277.9,396.7,277.4,398.5z M311.9,375.7c0,0-0.1,0-0.1-0.1c0.3,0.1,0.5-0.3,0.4-0.5c-1.2-2.5,6.6-4.8,6.7-1.4
		c0,0.1,0.1,0.2,0.2,0.2c-1.5,0.8-3.2,2.2-3.3,3.2c-0.3-0.4-0.6-0.8-1.1-1c-2.2-1.4-4.3,0.3-5.3,2.4c-1.1,2.4-4.8,4.8-5,7.7
		c-0.6-1.8-1.6-3.6-3.2-4.3c0.1-0.1,0.1-0.2,0.1-0.3c0.2-3.1,3.4-5.6,6.1-6.4c1.1-0.3,2-0.3,2.7,0.5c0.5,0.6,1,0.5,1.7,0.3
		C311.9,375.9,311.9,375.8,311.9,375.7z M321.7,375.5c0,1.3-0.6,3-0.8,3.4c-0.6,1.3-1.6,2.2-2.1,3.5c-0.1,0.2,0.1,0.3,0.2,0.2
		c1.5-0.7,3.4-3.8,3.6-6.2c0.5,0.5,0.8,1.3,1.1,2c0.5,1.4,1,3.7,0,5l0,0c-2.2-0.6-5.3-0.1-6.6,1.4c0-0.5,0.1-1.1,0.1-1.5
		c0.1-1.5-0.1-3.7-0.9-5.3h0.1h0.1c0.1,0,0.2-0.2,0.1-0.3c-0.6-1,3.2-3.4,3.9-3.4C321.3,374.2,321.6,374.8,321.7,375.5
		c0,0-0.1,0,0,0.1C321.6,375.4,321.6,375.4,321.7,375.5z M325.8,387.5c-0.3,2.8-3.9,5.7-6.4,5.6l0,0c-0.2-0.7-0.6-1.3-1.2-1.6
		c-1-0.5-1.9-1-2.6-1.9c-0.1-0.1-0.2-0.2-0.3-0.3c0.8-0.7,1.3-1.7,1.5-2.9l0,0c0.7-3,6.7-3.5,8.4-1.1c0.4,0.6,0.6,1.2,0.6,1.8
		c-0.1,0.1-0.1,0.2-0.1,0.3C325.7,387.4,325.7,387.4,325.8,387.5z M299.7,404c1.9,0.3,3.7,1,3.8,3l0,0c-0.4,0.4-0.9,0.6-1.5,0.8
		c-1.1,0.4-2.1,0-3.1-0.5C299.5,406.3,300,405,299.7,404z M300.2,403.1c-0.5-0.1-1.6-0.1-2.7-0.2c-0.1-0.1-0.2-0.1-0.3,0
		c-2.1-0.1-4.5-0.5-4.8-1.7c1.4-0.3,2.8,0,4.2,0.1c2.2,0.1,4.1,0.1,6.2,1c1.1,0.5,1.8,1.2,2.3,2c-0.2,0.5-0.4,1-0.7,1.5
		c0,0.1-0.1,0.2-0.2,0.2C303.9,404.2,302,403.5,300.2,403.1z M303.9,401.4c-1.6-0.8-3.2-1-4.8-1.1c0,0,0,0,0-0.1
		c-0.9-1.9,1-5.1,1.9-6.8c1-2,2.8-3.6,4.8-4.6c2.1-1.1,5.9-1.8,5.9,1.6c-0.1,0.1-0.1,0.3-0.2,0.4c-0.9,2.5-1.4,4.7-3,6.8
		c-1.1,1.5-2.1,2.9-2.6,4.7c-0.1,0-0.1,0-0.2,0C305,402,304.5,401.7,303.9,401.4z M310.5,387.1c-1.7-0.6-3.7,0-5.5,1
		c-0.1-0.4-0.2-0.8-0.3-1.3c0,0,0,0,0.1,0h0.2c0,0,0.1,0,0.1-0.1c0.1-2.1,1.7-3.5,3.1-4.9c1.5-1.6,2.5-5.8,5.4-5.5
		c3.8,0.5,3.6,10.5,1.1,12.3c0,0,0,0-0.1,0.1c-0.2-0.1-0.4-0.1-0.6-0.1c-0.9,0-1.5,0.5-2,1.1C312.1,388.6,311.7,387.6,310.5,387.1z
		 M311.1,394.9c0.4-1.1,0.6-2.2,0.9-3.3c0.3-1,1.2-3.3,2.9-1.4c0.4,0.5,0.7,0.9,1.3,1.3c0.1,0.1,0.3,0.2,0.4,0.3
		c-0.1,0.1-0.1,0.3,0,0.5c0.9,1-0.8,3.6-1.3,4.5c-0.7,1.3-1.6,2.6-2.4,3.9c0,0,0,0.1,0,0c1.3-1.6,2.6-3.1,3.7-4.9
		c0.4-0.6,1-1.8,1.1-2.8c0.8,0.9,1.1,2,1.2,3.6c0.1,2-0.4,4-1,5.9c-0.5,1.4-1.2,2.9-2,4.3c-0.5,0.9-1.1,1.6-1.8,2.4
		c-0.5,0.5-3.1,1.2-3.8,0.3c0-0.2,0-0.3,0-0.5c-0.2-2-1.6-1.9-2.8-3.1c-0.8-0.7-0.8-1.6-1.2-2.4C306.9,400,310,398.1,311.1,394.9z
		 M305.7,374.4c0,0.1,0.1,0.2,0.2,0.2c-2.9,1.2-5.3,4.2-5.5,6.9c0,0,0,0,0,0.1c-1.3-0.2-2.5,0.6-3.5,1.7l0,0c-0.4-1.3-1.4-1.9-2.7-2
		c-0.5-1-0.1-2.3,0.3-3.3c0.6-2,2.7-3.4,4.4-4.4c1.2-0.7,2.4-1.2,3.7-1.6c0.7-0.2,4.5-0.7,3.1,1.8
		C305.5,374,305.6,374.3,305.7,374.4z M293.8,388.8c1.3-1.7,2.8-3.4,4.2-5.1c3.2-3.9,5.7,2.2,6.4,4.8c-0.7,0.4-1.4,0.9-1.9,1.3
		c-1.3,1.1-6.2,7.9-4.9,10.5c-0.1,0-0.1,0-0.2,0c-1.2,0-2.5-0.2-3.7-0.1c0.1-0.1,0.2-0.2,0.3-0.3c0.2-0.2,0.5-0.4,0.7-0.5
		c0.3-0.2,0.6-0.1,0.9-0.1c0.2,0,0.3-0.3,0.2-0.4c-0.1-0.4-1.2-0.7-1.4-0.4c-0.1,0.1-0.1,0.3,0,0.4l0,0c-0.2,0.1-0.3,0.2-0.4,0.3
		c-0.5,0.4-0.9,0.9-1.6,1.1c0-0.4,0-0.8-0.1-1.1c0.2,0,0.4,0,0.5,0c0.4,0,0.4-0.6,0-0.6c-0.5,0-1,0-1.5,0.3
		c-0.1,0.1-0.1,0.2-0.1,0.3c0,0,0,0.1,0.1,0.1c0,0.1,0.2,0.1,0.3,0.1c0,0,0.1,0,0.1-0.1v-0.1c0,0,0,0,0.1,0c0.1,0.3,0.1,0.5,0.1,0.8
		c0,0.2,0,0.4-0.1,0.6c-0.4-0.2-0.8-0.4-1.2-0.5c0-0.1-0.1-0.3-0.3-0.4C286.9,397.8,292.6,390.3,293.8,388.8z M291.5,403l0.1-0.1
		c0.1-0.1,0-0.1-0.1-0.2c0.2-0.3,0.3-0.6,0.4-0.9h0.1c0.6,1.2,2.6,1.6,3.7,1.8c0.3,0.1,0.7,0.1,1.2,0.1c-0.1,0.3-0.2,0.6-0.4,1
		c-0.2,0.5-0.6,0.9-0.9,1.3c-1.4-0.2-2.9,0-4.2,0l0,0C291.6,405,291.8,403.9,291.5,403z M297.7,403.7c0.5,0,1,0.1,1.5,0.2
		c-0.2,1.1-0.5,2.1-1.1,3c-0.3-0.1-0.5-0.3-0.8-0.4s-0.5-0.2-0.8-0.3C297.1,405.5,297.6,404.6,297.7,403.7z M308.1,412.8
		c2.2,1,3.6,4.8,4.1,6.9c0.2,0.6,0.4,1.1,0.6,1.6c-0.1-0.1-0.2-0.2-0.3-0.3c-1.3-1.5-2.1-3.4-3.2-5.1c-0.7-1-1.5-1.8-2.4-2.6
		C307.4,413.2,307.8,413,308.1,412.8z M309,412.2c0.1-0.1,0.2-0.2,0.2-0.2l0,0c0.9,0.1,2.4,0.3,3.5-0.1c0,0.1,0,0.2,0,0.3
		c0,0.5,0.9,0.5,0.9,0c0-0.2,0-0.5,0-0.7c0-0.1,0-0.3,0-0.4c0-0.5-0.6-0.5-0.8-0.1c-0.1,0.3-0.1,0.3-0.4,0.5
		c-0.4,0.1-0.8,0.1-1.1,0.1c-0.5,0-1,0-1.5-0.1c0.4-0.4,0.6-0.9,0.7-1.5c1.7,0.5,2.8,0.8,4.3-0.4c1.8-1.5,2.8-4.1,3.7-6.2
		c0.8-1.8,1.2-3.7,1.3-5.7h0.1c4.6-0.4,2,7.6,1.3,9.9c-0.5,1.3-1,2.7-1.8,3.9c-2,3.2-6.2,2.8-9.1,1.3
		C309.9,412.6,309.5,412.3,309,412.2z M319.8,396.8C319.8,396.8,319.8,396.9,319.8,396.8c-0.1-0.1,0-0.2,0-0.2c0-0.6,0-1.5-0.2-2.4
		c3.3-0.1,6.9-3.6,6.9-6.9c0.3-0.2,0.6-0.1,0.9,0.3c0,0.2,0.1,0.3,0.3,0.4c0.5,0.7,0.9,1.7,0.9,2c0.2,0.9,0.3,1.8,0.3,2.6
		c0,1.8-0.2,3.4-1,5c-0.4,0.7-4,4.1-4.4,3.5c-0.1-0.1-0.1-0.1-0.2-0.2C323.3,398.6,322.5,396.8,319.8,396.8z M325.7,375
		c-0.9,0.1-1.7,0.4-2.3,1.1c-0.2-0.3-0.5-0.5-0.8-0.6c-0.1-0.9-0.6-1.6-1.6-2C322.6,371.6,325.4,372.8,325.7,375z M322.1,371.9
		c-0.7,0.3-1.3,0.8-1.6,1.5c-0.3,0-0.7,0.2-1.2,0.4c0,0,0,0,0-0.1c0.1-1.3-1-2-2.3-2.2C318.6,369.5,321.8,369,322.1,371.9z
		 M319.4,369.1c-0.6,0.1-1.1,0.4-1.6,0.7c-0.6,0.4-0.9,1.1-1.5,1.6v0.1c-0.3,0-0.7,0-1,0c0-1.1-0.4-1.8-1.1-2.3
		C315.5,368.2,318.2,367.9,319.4,369.1z M314.3,367.9L314.3,367.9c-0.6,0.3-1,0.6-1.2,0.9c-0.5-0.1-1.1-0.1-1.7,0c0-0.1,0-0.1,0-0.1
		C312.4,368.3,313.3,367.9,314.3,367.9z M311.3,369.7c1.7-0.3,3.1,0,3,1.9l0,0c-0.9,0.2-4.4,2.9-3,3.9c-0.2-0.1-0.4-0.3-0.4-0.6
		c0-0.1-0.1-0.3-0.2-0.3c-1.4-0.7-3.1-0.6-4.6,0c0,0,0-0.1,0.1-0.1c0.1-0.9,0.6-1.2,0.3-2.2c0.6-0.8,2.5-2,4.3-2.5
		C310.9,369.9,311.2,369.9,311.3,369.7z M306.5,369.5c0.7-0.4,3.3-1.5,3.8-0.5c-1.8,0.5-3.6,1.5-4.3,2.7c-0.3-0.3-0.8-0.5-1.2-0.7
		c-0.2-0.1-0.4-0.1-0.5-0.1C304.8,370.3,306,369.7,306.5,369.5z M302.2,369.5c0.8-0.1,1.7,0.2,2.5,0.2c-0.5,0.4-0.8,0.7-0.9,1
		c-0.9,0-1.9,0.3-2.9,0.7c-0.5-0.4-1-0.6-1.5-0.9C300.3,370.3,301.1,369.6,302.2,369.5z M295.3,371.8c1.9-1.1,3.1-0.5,4.7,0
		c-0.6,0.3-1.2,0.6-1.7,0.9c-2.3,1.1-4.3,2.9-5.1,5.4c-0.3,0.9-0.6,2.1-0.3,3.1c-1.5,0.1-3.2,0.6-4.5,1.1c-1.5-1-0.5-3.7,0-4.8
		c0.7-1.5,2.2-2.7,3.5-3.6C292.9,373.1,294.1,372.5,295.3,371.8z M288.6,373.6c0.9-0.5,1.8-1,2.8-1.3c0.4-0.1,1-0.4,1.6-0.5
		c-1.3,0.8-2.6,1.8-3.7,2.7c-0.3,0.3-0.7,0.6-1,1.1c-0.6-0.4-1.2-0.5-1.8-0.4C287.2,374.6,287.9,374.1,288.6,373.6z M284.8,376.6
		c0.9-0.6,2-0.8,3-0.6c0.1,0,0.1,0,0.2,0c-1.4,2-2.4,5.1-0.8,6.7c-0.1,0-0.2,0.1-0.3,0.1c-0.5,0.2-1,0.6-1.4,0.9c0,0,0,0,0-0.1
		c-0.5-1.6-1.7-2.2-3.1-2.1C282.3,379.7,283.2,377.8,284.8,376.6z M274.7,387.3c1.8-3,7.5-7.1,10.4-3.4h0.1c-1,0.8-1.8,1.8-2.5,2.8
		c0,0,0,0-0.1-0.1c-5.8-1.6-9.4,6.7-7.1,11.3c-0.6-0.1-1.3-0.2-1.9-0.2C272.1,394.4,272.9,390.5,274.7,387.3z M270.2,399.1
		c0.3-0.1,0.7-0.1,1-0.2c0.5-0.1,1-0.2,1.5-0.2c0.2,0.2,0.5,0.2,0.7,0c1,0,2,0.2,3.1,0.5c2.3,0.6,4.5,1.5,6.8,1.8
		c2.7,0.3,4.9-0.8,7.4,0.3c-3.2,3.4-10.8,0.8-14.3-0.6C274.3,399.8,272.4,399.2,270.2,399.1z M280.3,406.4c-0.2,0.1-0.3,0.1-0.5,0.2
		c-1.9-1.1-3.2-3.1-4.5-4.9c2.3,1.1,4.8,1.9,7.2,2.2c1.6,0.2,5.4,0.7,7.7-0.3c-2.7,2.4-5.7,5-9.3,3.5
		C281.1,406.8,280.8,406.2,280.3,406.4z M278.7,407.1h-0.1c-0.7-0.1-1.4-0.2-2.1-0.3c-0.4-0.1-0.7-0.2-1-0.4
		c0.5-0.4,0.9-0.7,1.4-1.1C277.4,406,278,406.6,278.7,407.1z M271.6,403c-0.5-1-0.4-2-0.7-3c0.7,0.1,1.4,0.3,2.1,0.6v0.1
		c1.1,1.3,2.2,2.8,3.3,4.1c-0.5,0.4-1.1,0.9-1.6,1.3c-0.3-0.2-0.6-0.4-0.9-0.6C272.8,404.9,272.1,404,271.6,403z M274.1,407.3
		c0.1-0.1,0.2-0.1,0.4-0.2c0.7,0.4,1.4,0.7,2.2,0.9c-0.6,0.3-1.2,0.6-1.7,1C274.4,408.5,274.3,407.9,274.1,407.3z M269.3,421.4
		c1.8-2.4,2.8-4.7,3.7-7.6c1-3.5,3.3-4.8,6.2-5.9l0,0l0,0c0.2-0.1,0.3-0.1,0.5-0.2c0.5,0.3,1,0.5,1.6,0.7c2.2,0.6,4.5-0.2,6.5-1.7
		c-1,1.5-2.2,3-3.6,4.2c-2,1.7-4.5,1.8-6.8,2.9c-1.3,0.7-2,1.6-2.5,3c-1.2,3.1-2.9,5.1-6,6.4c-0.3,0.1-1.1,0.5-2.1,1
		C267.7,423.3,268.5,422.4,269.3,421.4z M284.1,416.4c-1.1,0.9-2.1,1.9-3.2,2.7c-2.9,2.2-5.4,3.6-8.9,4.5s-7.9,2.6-9.3,6.4
		c-0.3,0.9-0.6,1.2-0.5,0.7c0.3,0,0.5-0.4,0.2-0.6c0,0,0-0.1-0.1-0.1c0.2-1-0.1-1.4,0-1.9c1-1.4,3.6-2.6,4.6-3.2
		c2.9-1.5,5.2-2.3,7.3-4.9c1.3-1.6,0.8-3.6,2.7-5c0.8-0.6,1.8-0.9,2.8-1.2c0.7-0.2,2.3-0.4,2.8-0.7c2.7-1.7,4.6-4.2,6-6.9
		c0.6-0.5,1.2-1.1,1.7-1.6c0,0.6-0.2,1.3-0.2,1.8c-0.2,2.1-0.9,3.9-2,5.8c-0.7,1.2-1.5,2.3-2.4,3.5l0,0c-0.1,0-0.2,0.1-0.2,0.2
		C285.5,415.7,284.3,416.3,284.1,416.4z M285.7,420.1c-0.2-0.2-0.4-0.4-0.5-0.6s-0.4-0.2-0.4,0c-0.1,0.5,0.2,0.9,0.5,1.1
		c-0.4,0.5-0.7,0.9-1.1,1.4c-0.1-0.2-0.3-0.3-0.5-0.4s-0.4,0.2-0.2,0.4c0.2,0.2,0.3,0.4,0.3,0.6l-0.1,0.1c-1.2,1.7-2.3,3.4-3.3,5.2
		c-0.1-0.1-0.3-0.1-0.4-0.1c0-0.1-0.1-0.2-0.1-0.3c-0.1-0.1-0.2-0.1-0.3,0c-0.1,0.2-0.1,0.3-0.2,0.5c0,0.1,0,0.3,0.2,0.4
		c0.1,0.1,0.3,0.1,0.5,0.2c-1.9,3.3-3.5,6.7-4.8,10.3c-1.3,3.4-2.2,6.9-3,10.4c-0.1-0.1-0.3-0.2-0.4-0.3c-0.1-0.1-0.2,0-0.3,0.1
		c-0.1,0.4,0.1,0.7,0.5,1c0,0,0,0,0.1,0c-0.4,2.2-0.7,4.3-1,6.5c-0.3,2.9-0.6,6-0.5,8.9c0,1,0.2,2.1,0.3,3.1
		c0.2,0.8-0.2,1.2-1.3,1.2c-0.2-0.4-0.3-0.9-0.3-1.4c-1.4-6.6-0.4-13.7,0.8-20.2c1.1-5.8,2.9-11.7,5.5-17.1c0.2,0,0.3-0.1,0.5-0.1
		s0.2-0.3,0-0.3c-0.1,0-0.2,0-0.2,0c0.2-0.4,0.4-0.8,0.6-1.2c3.2-5.8,8-10.9,12-16.2c1.4-1.8,2.5-4.1,2.7-6.4h0.1
		c1.3,0,2.5,0.3,3.5,0.7c-0.1,1.1-0.7,2.2-1.5,3.3c-0.1,0-0.2,0.1-0.2,0.2v0.1c-0.8,1.1-1.7,2.2-2.5,3.1c-0.2-0.1-0.4,0-0.4,0.2
		c0,0.1,0,0.2,0,0.2c-0.4,0.4-0.7,0.8-1,1.1c-0.4,0.4-0.7,0.8-1.1,1.2c-0.2-0.1-0.4-0.2-0.5-0.4c-0.3-0.2-0.6,0.1-0.4,0.4
		c0.2,0.2,0.3,0.3,0.5,0.4C287.1,418.4,286.4,419.2,285.7,420.1z M293.7,419.2c-0.6,1.3-0.7,2.7-0.4,4.1c-1.5,0.3-2.5,0-3.9-0.6
		c-1.1-0.5-2.3-0.7-2.7-2c0-0.1-0.1-0.2-0.2-0.3c0.6-0.8,1.3-1.6,2-2.3c0.1,0.1,0.2,0.2,0.3,0.3c0.1,0.1,0.3,0,0.3-0.1
		c0-0.3-0.1-0.5-0.2-0.7c0.7-0.7,1.3-1.5,2-2.2c0.2,0,0.4,0,0.6-0.1c0.1-0.1,0.1-0.2,0-0.3c-0.1,0-0.1-0.1-0.2-0.1
		c0.3-0.4,0.7-0.8,1-1.2c0.1-0.1,0.2-0.3,0.4-0.5c-0.3,0.6-0.5,1.2-0.7,1.9c-0.1,0.7-0.2,1.5-0.2,2.3c-0.6-0.1-1.3,0.4-1.7,0.9
		c-0.2,0.2-0.1,0.6,0.2,0.6c1,0,2,0,3,0c0.5,0,0.5-0.7,0-0.7c-0.3,0-0.5,0-0.8,0c0-1.1,0-2.2,0.2-3.3c0.1-0.6,0.4-1.1,0.6-1.6
		c0.1,0.6,0.1,1.2,0.3,1.8c0.4,1.3,0.8,2.4,0.1,3.7C293.7,419,293.7,419.1,293.7,419.2z M295.1,418.8c0.2-0.2,0.1-0.5-0.1-0.6
		c0.1-0.4,0-0.8,0-1.2c-0.2-0.8-0.4-1.6-0.7-2.4c-0.3-1-0.4-1.9-0.5-2.9c0.8-1.2,1.6-2.4,1.8-3.7c0.7,0.4,1.4,0.9,2.1,1.5
		c-0.6,1.9,0,7,0,7.9c0,1.1,0.3,2.2,0.5,3.3c0.5,2.1,0.2,4-0.4,6c-0.4,1.4-1,2.8-1.5,4.2c0-1,0-2-0.1-2.9c-0.1-0.7-0.5-1.4-0.8-2.1
		C294.3,423.5,293.5,421.4,295.1,418.8z M301.9,424.7c0,0.2-0.1,0.4-0.1,0.5c-1,1.1-2,2.2-2.8,3.6c-1.5,2.5-2.1,5.4-2.9,8.2
		c-0.7,2.6-2.3,4.8-2.4,7.6c0,1.9,0,0.5-0.1-0.4c-0.1-1,0-2,0.2-3c0.3-2,1.1-3.8,1.7-5.6c0.1-0.3,0.2-0.6,0.2-0.9
		c0.1,0,0.2-0.1,0.2-0.2c1-4,3.7-8.8,3-13c-0.4-2.6-0.6-5-0.6-7.6c0-1.2-0.3-2.6-0.2-3.8c0.1,0.1,0.2,0.2,0.3,0.3
		c1.4,1.5,2.6,3,4.7,3.3c0.3,0,0.6,0.1,0.9,0.1c-0.1,1.4-0.1,2.7,0,4.1c0.2,2,1,3.5-0.6,5.4c-0.4,0.5-0.8,0.9-1.2,1.3
		C302.3,424.4,302,424.4,301.9,424.7z M307.4,426.6c-1.7,0.2-3.8,0.2-4.6-1.3c0.9-0.9,1.8-1.8,2.4-2.9c0.1,0.1,0.1,0.2,0.2,0.3
		c0.4,0.7,0.9,1.4,1.5,2c-0.1,0.1-0.3,0.2-0.4,0.3c-0.3,0.2,0.1,0.6,0.4,0.5c0.2-0.1,0.5-0.3,0.7-0.5c0,0,0,0,0.1-0.1
		c0.2-0.2,0.4-0.5,0.5-0.8c0.1-0.2-0.3-0.4-0.4-0.3s-0.2,0.3-0.4,0.4c-0.8-0.7-1.4-1.7-1.8-2.7c0.1-0.4,0-0.9-0.1-1.3
		c0.5,0.8,1,1.5,1.6,1.9c1.3,0.9,2.8,0.7,4.2,1.3c0.4,0.2,0.7,0.4,1,0.6C312.2,425.9,308.6,426.4,307.4,426.6z M320.7,426.4
		c-1.3,0.4-3.3-0.2-4.2-0.6c-1.5-0.7-2.8-1.8-4.2-2.7c-0.9-0.6-1.8-0.8-2.9-1c-2.4-0.4-3.8-2.8-4.6-4.9c-0.1-1.1,0-2.3,0-3.4
		c0.5,0,1.1-0.1,1.7-0.3c0.5,0.5,1.1,1.2,1.4,1.5c1.2,1.3,2,2.9,2.8,4.4c1,1.8,2.2,3.3,3.8,4.6C315.7,425.1,318.5,426.7,320.7,426.4
		z M320,422.5c-0.7,0.9-1.7,1.3-2.7,1.8c-0.1,0-0.1,0.1-0.1,0.1c-0.4-0.2-0.9-0.4-1.3-0.7c-1.5-0.9-2.3-2.2-2.8-3.7
		c1.9,1.4,4.7,0.9,6.9,0.4c0.4-0.1,0.8-0.2,1.2-0.4C321,421,320.7,421.8,320,422.5z M328.4,409.5c0.1,2.7-1.8,5.3-3.6,7.1
		c-2.3,2.3-8.5,5.3-11.4,2.4c-0.2-0.2-0.5-0.2-0.6,0c-0.1-0.3-0.2-0.6-0.2-0.8c-0.3-1.1-1-2.6-1.9-3.8c0.6,0.6,1.3,1.1,2,1.3
		c0,0.3,0,0.6,0,0.8c0,0.6,0.8,0.5,0.9,0c0-0.4,0.2-0.5,0.4-0.8c0.3-0.3-0.1-0.9-0.5-0.6l0,0c-0.1-0.1-0.2-0.2-0.3-0.2
		c-0.3,0-0.6-0.1-0.9-0.2c1.8,0.5,4,0.4,5.3-0.3c2.5-1.3,3.4-3.4,4.3-5.9c0.2-0.5,0.4-1.2,0.7-2c0.9-0.6,1.8-0.6,3-0.6
		C327.8,405.8,328.3,407.4,328.4,409.5z M331.3,398c0.1,2.7-2,6-4.7,6.8c-1.2-0.2-2.8,0.1-3.9,0.7c0.3-1.1,0.6-2.4,0.6-3.5
		c4.5-0.2,6.4-5.1,6.6-9l0,0c0.1,0.1,0.2,0.1,0.3,0.1l0,0C331.1,393.7,331.3,397.5,331.3,398z M330.3,392.2c-0.1,0-0.2,0-0.3,0.1
		v-0.1c0-1.3-0.3-3.4-1.2-4.7c1.4-1,1.8-2.8,1.7-4.6c0.7,1.2,1,2.3,1.2,3.8C331.8,388,332,391.4,330.3,392.2z"/>
	<path class="st0" d="M276,435.6c-0.2-0.1-0.4-0.1-0.6-0.1s-0.2,0.4,0,0.5c0.2,0,0.4,0.1,0.6-0.1C276.1,435.8,276.1,435.7,276,435.6
		z"/>
</g>
</svg>
