<svg id="Calque_1" data-name="Calque 1" xmlns="http://www.w3.org/2000/svg" viewBox="0 0 454.22 309.67"><title>illustration_anis</title><path d="M76.74,98.83c-.1,0-.2-.1-.3-.1a.1.1,0,0,0,.1-.1.3.3,0,0,0-.3-.5c-.2.1-.4.1-.6.2a10.31,10.31,0,0,0-2.8-1.8c-2-.7-4-1.1-6-1.9-3.1-1.3-6.7-.7-9.9-.1-3.8.6-7.4,2-11.1,3.1a15.94,15.94,0,0,1-3,.6c-1,.1-2.3-.8-.8-1.3a13.16,13.16,0,0,1,4.4-.4c5.7-.1,11.9-3.4,15.7-7.6,4.1-4.5,5.9-11.3,6.1-17.3a.46.46,0,0,0-.8-.3c-2.2,2.8-6.3,3.4-9.5,4.6a49.83,49.83,0,0,0-9.5,4.8,20.05,20.05,0,0,0-6.1,6.2c-.9,1.5-1.6,3.2-2.4,4.9a4.17,4.17,0,0,1-1.3,1.6c-.6.9-1.2.8-1.7-.2a6.47,6.47,0,0,1,.9-.8,19.19,19.19,0,0,0,6.1-15.9c-.3-2.9-1.8-5.2-3.6-7.4-3-3.5-4.4-7-2.9-11.6.2-.5-.6-.8-.9-.4a48.64,48.64,0,0,0-8.2,18.6,15.46,15.46,0,0,0,.8,8.5c1,2.9,4.2,6.2,3.2,9.4-2.2-1.6-3.5-4-5.7-5.6a49.73,49.73,0,0,0-9.1-4.9c-1.8-.8-3.7-1.4-5.5-2a3.6,3.6,0,0,0-2.2-.9,10.71,10.71,0,0,1-2.1-1.3h0c0-.1-.1-.1-.2-.1A9.56,9.56,0,0,1,5.14,76h0a3,3,0,0,0,.7,2.5,8,8,0,0,0,.8,1.6c0,1.8,1.4,3.5,2.4,4.8,1.6,2.2,2.4,4.9,4.2,6.9a22,22,0,0,0,15.6,7c-1.5.4-3.5-.1-5,.3a48,48,0,0,0-8.9,3.4,26.36,26.36,0,0,0-6.4,4.5c-1.6,1.5-4.5,2.3-5.5,4.4-.1.3,0,.6.3.6a61.37,61.37,0,0,0,14.8-2,44.91,44.91,0,0,0,7.2-1.9,11.29,11.29,0,0,0,3.1-2.1,14.33,14.33,0,0,1-3.5,2.8,29.84,29.84,0,0,0-4.7,4.7c-3.3,3.9-4.2,9.4-7.2,13.6-.3.4.3,1,.7.7l1.2-.9a.6.6,0,0,0,.4-.1,1.76,1.76,0,0,1,.4-.5,19.78,19.78,0,0,1,4.1-2.8c2.1-1,4.2-1.4,6-2.9a14.77,14.77,0,0,0,.1,2.1c.3,2.5.5,5.1,1,7.6.3,1.7.9,3.2.7,4.9a26.93,26.93,0,0,0-.3,4,.55.55,0,0,0,.9.4c2.9-2.8,4.2-7.8,5.8-11.5a36.5,36.5,0,0,0,3.3-11.9c.2.3.3.5.5.8a21.06,21.06,0,0,0,6.5,7.1,26,26,0,0,0,9,3.5c3.4.7,6.7,1.5,10.1,1.9a.62.62,0,0,0,.7.1c.2,0,.4.1.6.1h.2c.5.2.9-.6.4-.9a10.14,10.14,0,0,1-2.5-3.6c-.8-1.5-1.8-2.8-2.7-4.2-.1-.2-.3-.4-.4-.6-1.2-3-2.4-6.1-4.5-8.5-2.2-2.6-5.1-3.8-8.2-4.9a24.37,24.37,0,0,0,2.7.1c3.3-.2,6.5.6,9.8.4a29.5,29.5,0,0,0,15.4-6.3,3.32,3.32,0,0,0,2.1-1.3C77.24,99.33,77,98.93,76.74,98.83Zm-64.8-17.2a7.05,7.05,0,0,0,.9.7c1.4.9,2.8,1.9,4.2,2.9a82.89,82.89,0,0,1,7.7,5.5c2.2,1.9,5.3,6.1,8.6,6.3a10.84,10.84,0,0,0-1.4,2.4,14.63,14.63,0,0,0-.9-1.3c0-.1-.1-.2-.2-.3a.1.1,0,0,1-.1-.1c-2.5-2.6-6.6-3.9-9.5-5.8a40.56,40.56,0,0,1-7.6-6.7c-.9-.9-1.7-2-2.6-2.8a24.05,24.05,0,0,1-2.4-2.1C9.74,80.73,10.94,81.23,11.94,81.63Zm25.4,20.5c.1.1.1.3.2.4a4.92,4.92,0,0,1-.6,1.7c-1.2,2-3.3,0-4.1-1.2a.52.52,0,0,0,.3-.7c-.7-1.6.2-3.5,1.2-4.8.5-.7,1.6-1.5,2.5-.8.6.5.7,1.7.8,2.4a18.48,18.48,0,0,1,.1,2.4h0C37.44,101.63,37.24,101.83,37.34,102.13ZM7.64,79.63a8.17,8.17,0,0,0,1.9,2.2c2.2,1.9,3.9,4.2,5.9,6.3a37.24,37.24,0,0,0,7.8,5.9,3,3,0,0,0,.8.4l-1.5-.3a14.41,14.41,0,0,1-4.7-2.2,28.17,28.17,0,0,1-6.9-7.3c-1.1-1.6-2.6-3.3-3.7-5.1,0-.1,0-.1-.1-.1l-.1-.1A3.33,3.33,0,0,1,7.64,79.63Zm3.4,6.5a37.17,37.17,0,0,0,4.1,4.8,20.59,20.59,0,0,0,6.4,4.1,25.85,25.85,0,0,0,4,.9,13,13,0,0,1,3.1,1.6,22,22,0,0,1-14.1-6C13,90.13,12.14,88,11,86.13Zm-3.7,22.6a23.13,23.13,0,0,0,2.4-2c2.3-2.3,5.4-3.6,8.3-5a23.68,23.68,0,0,1,9-2.1,5.72,5.72,0,0,0,3.6-.9,7.84,7.84,0,0,1,1.1,1.8h0a27.43,27.43,0,0,0-12.4,3.1c-4.6,2.1-9.4,3.7-13.9,6.1A17.38,17.38,0,0,0,7.34,108.73Zm10.5,11.5a28.12,28.12,0,0,1,5.2-8.4c1.6-1.7,3.4-2.9,5.1-4.4,1-.9,2.1-2,2.1-3.4a.49.49,0,0,0-.8-.4,23.28,23.28,0,0,1-5.8,3.8c-2,.8-4.4.9-6.6,1.5a54.31,54.31,0,0,1-11.3,1.8,132.15,132.15,0,0,1,12.2-5.3,42.69,42.69,0,0,1,13.4-3.8,7.54,7.54,0,0,1,1,2.4,115.73,115.73,0,0,0-9,10.7c-2.5,3.1-5.2,6.1-7.5,9.4A36,36,0,0,0,17.84,120.23Zm15.7,6.3c-.9,2.2-1.8,4.3-2.7,6.4l-.9,2.1c.8-4.9,1.2-9.7,3.4-14.3a15.27,15.27,0,0,0,1.6-6c.1-2.1-.6-4.2-1-6.3,1.1,1.2,1.2,3.1,1.8,4.6a5.39,5.39,0,0,0,.7,1.3A35.75,35.75,0,0,1,33.54,126.53Zm3.8-12.4v-.2a.45.45,0,0,0-.3-.4.1.1,0,0,0-.1-.1c-1.2-2.3-.9-5.1-3.4-6.5a.54.54,0,0,0-.6.9,58.09,58.09,0,0,1,1.1,7.1c.1,2.8-1.5,5.4-2.6,7.8-2,4.3-2,9.6-2.9,14.3a11.57,11.57,0,0,0,.1-3.7c-.5-2.4-.9-4.7-1.2-7.1a49.53,49.53,0,0,1-.8-6.6,3.31,3.31,0,0,0,.6-2.3c.1-3.2,2.4-5.8,3.6-8.6a.22.22,0,0,0-.4-.2c-.1.2-.3.5-.4.7-.1,0-.1.1-.1.2-.5.9-1.1,1.8-1.5,2.7a13.73,13.73,0,0,0-1.3,2,6.57,6.57,0,0,0-.6,2.5,11.8,11.8,0,0,0-.4,2,2.19,2.19,0,0,1-.3.5c-1.4,1.8-4.3,2.3-6.4,3.2-.4.2-.7.3-1.1.5,2.4-3,4.7-6.1,7.1-9.1,1.6-2,3.1-4,4.6-6.1.8-1.1,2.1-2.1,2.7-3.4a8.64,8.64,0,0,0,1.3,1.4c.1.1.2.1.3.2v.4c0,.2.1.3.3.2s.3-.1.4-.1a7.27,7.27,0,0,1,.9.8,17.1,17.1,0,0,1,1.3,2.3,42.43,42.43,0,0,1,1.8,5,24.32,24.32,0,0,0,2.7,5.9A29.18,29.18,0,0,1,37.34,114.13Zm16.2,12.1a25.16,25.16,0,0,1-4.7-1.3,8.52,8.52,0,0,0,2.3.3c3,.3,8.2.5,11,2.7C59.24,127.43,56.34,126.83,53.54,126.23Zm8.4.5a16.48,16.48,0,0,0-5.2-1.6c-4.7-1.1-9.7-.4-13.3-4-2.6-2.6-3.5-6.7-4.7-10.1-.6-1.5-1.3-4-2.8-5a4,4,0,0,0,1.7-.9.1.1,0,0,1,.1-.1c.5,1.5,2.8,2.2,4.2,2.7,4.2,1.5,7.9,1.8,11.2,5.2a56.32,56.32,0,0,1,6.1,8.2A24.08,24.08,0,0,0,61.94,126.73ZM52.14,110c2.5,1.6,4,4.1,5.2,6.8-1-1.4-2.1-2.7-3.1-4a14.12,14.12,0,0,0-6.1-4.4c-1.7-.6-3.5-.9-5.2-1.4a16.59,16.59,0,0,1-3.1-1.2,8.86,8.86,0,0,1-1.8-1.4.35.35,0,0,0,.1-.2h0a.19.19,0,0,0,.1-.3c0-.1.1-.2.1-.3a10.89,10.89,0,0,0,3.8,2.1c.1.1.3.1.5.2,0,.1.1.1.2.1H43C46.14,107.33,49.34,108.23,52.14,110Zm5.5-3.8c-2.7,0-5.3-.6-8-.3-1.9.1-3.6-.2-5.4-.2a24.35,24.35,0,0,1-4.6-2.2c-1.8-1.1.4-1.1,1.2-.9a10.15,10.15,0,0,0,2.5.6c1.8.3,3.7.1,5.5.4a45.79,45.79,0,0,0,11.7.7,30.76,30.76,0,0,0,9.9-2.1c.6-.2,1.1-.4,1.6-.6A28.21,28.21,0,0,1,57.64,106.23Zm13-6.4c-4.5-.4-8.6-2.9-13.1-2.8-3.5.1-6.9,2.3-10,3.8a1.7,1.7,0,0,1-.7-.1c-2.6-.2-4.9-1.2-7.5-.6-.1,0-.1.2,0,.3,2.5.5,5.1,1,7.7,1.3a.57.57,0,0,0,.7.2c.1,0,.1-.1.2-.1,3.5.4,6.9.7,10.4.9a44.47,44.47,0,0,0,9.6-.8,17.66,17.66,0,0,0,2-.4c-.5.2-.9.4-1.4.6a48.16,48.16,0,0,1-11.9,1.7c-3.5.2-6.8-1.2-10.3-1.2a14.16,14.16,0,0,1-5-.8,7,7,0,0,0-2.3-.4,14.79,14.79,0,0,0-.5-3.9,2.3,2.3,0,0,0-3.7-1.4c-3,.4-5.7-2.9-7.7-4.7a42.63,42.63,0,0,0-5.9-4.6c-2.2-1.4-4.5-2.6-6.6-4.1,3.4,1.4,6.5,3.2,9.8,4.8,3.5,1.6,5,5.2,8,7.2a.3.3,0,0,0,.5.3c.4.1.7-.5.4-.8a6,6,0,0,0-.4-4.7c-1.6-3.6-3.3-6.5-3.5-10.6-.1-3.7,1.4-7.7,2.8-11a46.86,46.86,0,0,1,4.2-8,10.51,10.51,0,0,0,.9,6.3,20.69,20.69,0,0,0,2.8,3.8,12.65,12.65,0,0,1,3.4,7.5c.5,4.9-1.7,9.9-4.9,13.5-.9,1-3.6,2.6-2.1,4.1,1.3,1.3,3.1-.6,4-1.4,1.1-1.1,1.6-3.1,2.3-4.4a18.85,18.85,0,0,1,4.6-5.9c3.7-3.2,8.4-5.1,12.9-6.8,2.6-1,5.4-1.5,7.4-3.4a28.55,28.55,0,0,1-2.9,11.1c-2.1,4.3-5.4,6.8-9.4,9.1-3.7,2.1-6.8,2.3-10.9,2.6-1.8.1-3.9.5-4.5,2.4a.48.48,0,0,0,.2.6c2.1,1,4.1.6,6.3,0,3.4-.9,6.7-2.2,10.1-2.9,3.8-.8,7.6-1.2,11.2.3,1.8.7,3.9.8,5.6,1.8a17,17,0,0,1,1.4,1A13.74,13.74,0,0,0,70.64,99.83Zm-2.2.5a44.4,44.4,0,0,1-12.2,1.1c-2.3-.1-4.5-.3-6.8-.5,3.4-1.7,6.7-3.5,10.7-2.8C62.94,98.63,65.64,99.93,68.44,100.33Z" transform="translate(-3 1)"/><path d="M35.94,99.23c0-.2-.4-.2-.5,0-.1.4-.2.8-.3,1.3a.6.6,0,0,1-.3.6c0-.1-.1-.1-.2-.2a.19.19,0,0,0-.3,0c-.3.2-.3.4-.3.7a.54.54,0,0,0,.5.5,1.33,1.33,0,0,0,1.4-.9,2.92,2.92,0,0,0,.2-.9C36.24,99.93,36,99.63,35.94,99.23Z" transform="translate(-3 1)"/><path d="M35.24,67.83c-.1-.2-.2-.2-.3-.3V67c0-.2-.2-.2-.3,0s-.1.4-.1.6a.37.37,0,0,0-.2.5h0c-1,3.2-2.9,6.1-2.3,9.6.8,4.6,3.3,8.7,2.8,13.5-.1.5.7.7,1,.3a26.78,26.78,0,0,0,3.3-10.6C39.64,76.13,36.94,72.13,35.24,67.83Zm.7,21.3c-.2-3.2-1.4-6.2-2.4-9.3a11.61,11.61,0,0,1-.2-6.9c.4-1.3,1-2.6,1.4-3.9,1.4,3.3,3.3,6.4,3.5,10.1A20.68,20.68,0,0,1,35.94,89.13Z" transform="translate(-3 1)"/><path d="M62.14,79.43c-4.9.9-9.5,2.2-13.5,5.1-2.6,1.9-6.3,4.9-6.1,8.5h-.3a.5.5,0,0,0,0,1c4.9,0,9.3-1,13.1-4.3a39.24,39.24,0,0,0,5.1-5.7c1.1-1.3,2.3-2.5,2.2-4.3C62.74,79.63,62.44,79.43,62.14,79.43Zm-3.2,5a46.42,46.42,0,0,1-3.6,4c-3.5,3.3-7.5,4.4-12.2,4.6,0-3.8,4.1-6.7,6.9-8.7,3.4-2.5,7.6-3.3,11.7-3.9C61.44,82,59.94,83.33,58.94,84.43Z" transform="translate(-3 1)"/><path d="M35.14,106.23h0" transform="translate(-3 1)"/><path d="M58.14,122.23c-1.9-1.9-2.4-4.6-3.5-7.1a9,9,0,0,0-4.6-4,22.42,22.42,0,0,0-6.7-1.5c-1.5-.2-2.3-.9-3.6-1.2-.9-.2-.6-.1-.4,0h-.2c-.1,0-.2.1-.3.2a.37.37,0,0,0-.1.3c1.1,3.7,2.6,7.1,5.6,9.7,3.5,3.1,9.1,3.1,13.5,4.4C58.14,123.23,58.44,122.63,58.14,122.23Zm-18.5-12.7c2.2,1.4,5.5,1.2,7.8,1.8a9.53,9.53,0,0,1,7.2,6.5,18.1,18.1,0,0,0,1.8,4c-3.9-.9-8.4-1.3-11.6-3.7C42.24,116,40.74,112.63,39.64,109.53Z" transform="translate(-3 1)"/><path d="M342,62.53a18.69,18.69,0,0,1-1.7-3.1,26.53,26.53,0,0,1-.6-3,90.25,90.25,0,0,0-2.5-8.9,32.52,32.52,0,0,0-3.8-6.5c-.7-.9-1.5-1.8-2.2-2.7.3.4-1.5-2.1-1.3-1.5a.37.37,0,0,0-.5-.2c-.4-1.8,2.8-2.1,3.8-3.1.7-.7.2-2.2,0-3a.75.75,0,0,0-.7-.5,18.34,18.34,0,0,0-3.2.7c1-3.4,2.4-6.5,2.2-10.1-.2-4,.5-8.5-.8-12.4a.45.45,0,0,0-.3-.3h-.3a.27.27,0,0,0-.3.3c.1,3.5-5.5,3.7-6.6,6.7,0-.1,0-.1-.1-.2a39.31,39.31,0,0,0-3.2-8,29.86,29.86,0,0,1-2-4c-.2-.6.5-2.2.3-3.2a.25.25,0,0,0-.4-.1,2.46,2.46,0,0,0-1-.4c-.2-.1-.4.1-.4.3-.3,2.6-2,5-2.7,7.5-.5,1.8-1.1,3.5-1.6,5.3-.6,2.1-1.7,5.5-.7,7.7-4.9,0-10.3,2.2-15,2.5-.4,0-.4.5,0,.6,4.1.1,8.1-.8,12.2-1.5,5.2-.9,9.4,1.1,12.6,5.3,1.4,1.8,2.9,4.8,5.2,5.5a4.47,4.47,0,0,0,2.8,0c.7-.2,1.3-.5,2-.7,1.6-.5.9,1.1.1,1.5-1.5.7-3.4,1.4-3.1,3.4a39.61,39.61,0,0,0,1.3,4.6,14.29,14.29,0,0,1-.4,7.4c-.5,1.9-1.5,3.7-2.1,5.6a32.21,32.21,0,0,0-1.1,6.2,22.66,22.66,0,0,0,.2,5.2c.3,1.6.8,4.1-.9,5-.2-.9-.5-1.7-.7-2.7a21.54,21.54,0,0,1-.3-6.2,22.88,22.88,0,0,1,2.2-8.9c1.6-3.7,3.7-8,1.9-12a.22.22,0,0,0-.4.2c2,4.8-1.4,9.9-3.1,14.3a22.6,22.6,0,0,0-1.1,6.4c-.2,2.9.5,5.7.5,8.5-1.9-1.4-4.1-2.3-6-3.6a6.05,6.05,0,0,1-2.9-4.4c-.1-1.6.6-3,.5-4.6a24.32,24.32,0,0,0,4.3-5.2c2.5-4.2,3.3-9.1,5.8-13.3a.51.51,0,1,0-.9-.5,78,78,0,0,0-4,9.4,22.35,22.35,0,0,1-8.5,10.9c-2.4,1.7-5.5,2.7-7.3,5.1a19.64,19.64,0,0,0-1.5,3.3c-.3.7-2.3-.3-2.2-.6a5.54,5.54,0,0,0,.2-1.8v-2.1a17,17,0,0,1,2.7-7.6c1.8-2.9,6.1-4.8,8.9-6.7a49.67,49.67,0,0,0,7-5.9c2.1-2,4.8-2.8,5.5-5.9,1.2-4.9-8.6-4.6-10.9-5.2a27,27,0,0,1-9.1-4.6c-1.9-1.4-3.7-2.9-6.2-2.5-.2,0-.1.3,0,.3,2.9-.4,5.1,2.4,7.3,4a26.4,26.4,0,0,0,6.9,3.5c2.7.9,5.5.9,8.2,1.5,3.1.7,2.9,3.7.8,5.5a26.82,26.82,0,0,0-3,2.8c-4.1,4.4-9.3,6.7-13.9,10.3a14.9,14.9,0,0,0-4.7,7.2,14.6,14.6,0,0,1-1-4.7c0-4.4,1.6-8.9,5.2-11.6,1.3-1,2.7-1.8,4-2.7,1.8-1.2,4.1-1.2,6.2-1.5s4.5-.7,5.9-2.2a.58.58,0,0,0-.4-1c-5.2-.2-10.9,2.1-15.8-.2-2.5-1.2-3.6-4.4-4.9-6.6-.7-1.1-1.3-2.2-1.9-3.3-.2-.4-1.2-1.4-1.2-1.8a.43.43,0,0,0-.4-.4c-.3,0-.8-.6-1-.8a.28.28,0,1,0-.4.4c.3.3.6.8,1,1V24a18.58,18.58,0,0,0,1.1,1.9c1.4,2.7,2.7,5.8,4.6,8.2,4.1,5.2,11.1,3,17,2.7-2.6,1.3-6.3,1-8.9,1.8-1.5.5-2.9,1.8-4.2,2.6a14.07,14.07,0,0,0-3.9,3.4c-2.2,2.7-2.7,6.6-3,9.9a12.72,12.72,0,0,0,1.2,5.7c.1.4.2.9.3,1.3a9.66,9.66,0,0,0-.1,2.4V64a17.85,17.85,0,0,0-.2,2.3c0,1,2.5,2.5,3.3,1.9s1.1-1.7,1.5-2.6c.9-2.6,4-3.9,6.2-5.2a27.14,27.14,0,0,0,3.5-2.4c-.8,2.8-1.2,5.4.8,7.8,2.1,2.6,5.8,3.6,8.4,5.6a.78.78,0,0,0,.7.3c2.8-.4,2.9-3.2,2.6-5.5a28.82,28.82,0,0,1,1.2-13.1c1.4,5.4,7.5,11.1,12.9,10.3A.61.61,0,0,0,342,62.53Zm-18.3-34.9a28.45,28.45,0,0,0-5.6-5.9,11,11,0,0,0-5.3-1.9c-1.9-2.2.2-7.2.9-9.6a45.72,45.72,0,0,1,1.9-6.3c.3-.7,1.2-3.8,1.9-3.9h0a1.63,1.63,0,0,0-.3.6,4.13,4.13,0,0,0,.2,2.9c1.1,3.3,3.3,6.1,4.4,9.4,1.9,5.7,1.3,12.3,4.6,17.4C325.24,29.83,324.44,28.53,323.74,27.63Zm4.5,3.4h-.3c-3.1-4.5-3.2-9.8-4.4-14.9.1-2.6,3.3-3.6,5.2-4.8a5.78,5.78,0,0,0,1.8-2.3c.4,1.6.1,9.8.1,10.7C330.84,23.73,329.44,27.13,328.24,31Zm3.2,9.1a30.6,30.6,0,0,1,4.7,7.7,54.19,54.19,0,0,1,2.4,9c.1.5.2,1.1.3,1.6-.8-1.6-1.5-3.2-2.2-4.7-2-4.4-4.3-8.6-6.2-13a19.48,19.48,0,0,0-.6-2.3C330.34,38.93,330.94,39.53,331.44,40.13ZM329.54,51c.2-.5.3-1,.5-1.4a13.08,13.08,0,0,0,.9-5.7c.8,1.9,1.9,3.7,2.7,5.4s1.6,3.5,2.4,5.3c.4.9,2.1,5.6,3.7,7.7C334.64,61.83,330.24,55.63,329.54,51Z" transform="translate(-3 1)"/><path d="M420.24,259.63a1.42,1.42,0,0,0-1.4.7c-.2,0-.5.1-.5.4a1.27,1.27,0,0,1-.1.6.52.52,0,0,0,.2.4c1.3.8,2.2-.4,2.3-1.6A.54.54,0,0,0,420.24,259.63Z" transform="translate(-3 1)"/><path d="M455.44,278.63a54.36,54.36,0,0,0-4.8-4.8c-1.9-1.9-2.9-4.1-5.1-5.7a13.78,13.78,0,0,0-6-2c-2-.4,2-1,2.5-1.1a20.16,20.16,0,0,0,2.3-.7c3.3-1.5,6.8-2.5,9.6-4.8,1.7-1.4,2-4.2-.6-4.7-1.3-.2-1.9.1-3.3-.6-1.1-.5-2.1-1.4-3.2-1.9a30.27,30.27,0,0,0-6.6-1.6c2.6-2.6,2.5-6.4,4.6-9.4.7-1,3.6-5.2.3-5.5a7.41,7.41,0,0,0-3.8,1.2c-2.9,1.5-6.2,1.8-9.3,2.6a8.82,8.82,0,0,0-4.7,2.6c-1.3,1.4-1.3,3.8-2.4,5.3,0-2.8.7-5.7.2-8.5a35.23,35.23,0,0,0-2.2-6.2,48.42,48.42,0,0,0-2.8-6.6.55.55,0,0,0-.5-.3c-3.6.2-2.8,2.7-2.9,5.4s-1.4,5.7-2.2,8.3a17.66,17.66,0,0,0-.7,5.2c-2-3.2-6-5.2-8.9-7.3-.9-.6-8.5-9.1-10.5-6.7-1,1.2-.3,2.4.7,3.3,1.3,1.3.4,4.8.7,6.5a15.41,15.41,0,0,0,3.9,7.2c1,1.1,1.9,2.3,2.8,3.5a10.35,10.35,0,0,0-4.1-1.3c-3.7-.3-7.3-.3-11-.7-1.9-.2-8-2.1-8.6,1-.3,1.4,1.8,2.6,2.6,3.4a18.72,18.72,0,0,1,2.6,3.5,21.48,21.48,0,0,0,3.5,3.2,13.56,13.56,0,0,0,7.3,3.3c2.7.4,5.4.2,8.1.7a32.47,32.47,0,0,1-7.7.9c-3,0-5.5,0-8.3,1.1-3.4,1.3-8.5,3.5-8,7.9a.58.58,0,0,0,.6.6,12.78,12.78,0,0,0,4.7-1c2.4-.7,5.3.2,7.7.5,4.4.6,8.8,0,13.2.1-3.3,3.9-4,9.2-6,13.9-.8,1.7-5,6.4-3,8.4.8.8,1.8.3,2.7-.1,2.1-.9,4-2.2,6-3.1a51.72,51.72,0,0,0,8.2-4.8c.8-.6,1.8-1.2,2.6-1.8a17.14,17.14,0,0,0,2.2-2.5c.8,5.4,1.8,11.1,5.4,15.3a44.21,44.21,0,0,1,5.3,8.2c.7,1.2,2.3.4,3.3.2.2,0,.4-.3.4-.5,0-2.7-.4-5.4.3-8a64.85,64.85,0,0,0,1.9-8.5,16.15,16.15,0,0,0,0-5.8,8.91,8.91,0,0,0-1.5-3.3c2,1.1,4.5,1,7,.7a28.43,28.43,0,0,1,7.7-.3c2.4.2,5.3,2.1,7.7,1.5C458.54,283.23,457,280.53,455.44,278.63Zm-16.7-27.9c-.4.3-.4.9.1,1,4,.8,7.2,1.4,10.7,3.6a3,3,0,0,0,.8.4,60.94,60.94,0,0,0-10.2,1.9,134.9,134.9,0,0,1-15.7,2.3,1.61,1.61,0,0,0-.4-.7c3.2-.4,7-4.4,9.2-6.1a36.36,36.36,0,0,0,7-6.6,38.77,38.77,0,0,0,2.3-3.3C441.44,245.83,441.34,248.73,438.74,250.73Zm13.7,6.1c-.9,1.1-3.2,1.4-4.3,1.7-2.2.6-4.2,1.4-6.3,2.2-5.2,2-11.4,1.5-16.7-.2,4.4.1,9-.9,13.4-1.6C443.24,258.23,447.64,256.63,452.44,256.83Zm-28.2.6a8.45,8.45,0,0,1,1.8-1.5,23.26,23.26,0,0,1,2.6-1.7c2.3-1.5,4.2-3.6,6.3-5.3a63.14,63.14,0,0,0,6.7-7c.1-.2.3-.3.4-.5a31.85,31.85,0,0,1-3.8,6,43.1,43.1,0,0,1-8,6.7c-1.6,1.2-3.2,2.6-4.9,3.7C424.64,258.43,424.24,258.33,424.24,257.43Zm21-18.9a2.54,2.54,0,0,1-.2.7,17,17,0,0,1-1.5,2.2,10.91,10.91,0,0,0-.6,1.1C443.34,241.13,443.94,239.23,445.24,238.53Zm-25.5-4.2a18.74,18.74,0,0,0-.9-4.1,5,5,0,0,1,.5,1.3,65.28,65.28,0,0,1,1.4,7.7,52.35,52.35,0,0,1,.4,12.5c-.1,1.2-.2,2.2-.8.3a12.67,12.67,0,0,1-.4-3.4c-.1-2.2-.2-4.5-.1-6.7A64.53,64.53,0,0,0,419.74,234.33Zm34.5,48.5c-1.2.1-2.7-.6-3.9-1a24.25,24.25,0,0,0-6.6-.6c-4.2.1-9.4,2.4-12.4-1.7a.51.51,0,1,0-.9.5c.8,1.9,2.1,3.6,2.8,5.7.8,2.4-.1,5.5-.4,7.9a58.44,58.44,0,0,1-1.8,6.9c-.5,2-.1,4.4,0,6.4,0,1.4-2,.2-2.2-.1-.6-1-1.2-2.1-1.9-3.2a27.29,27.29,0,0,0-3.3-4.3c-3.8-4.3-4.4-10.5-5-15.9-.1-.5-.6-.8-1-.4-1.5,1.3-2.4,2.9-4.1,4s-3.5,2.4-5.4,3.4c-3.4,1.9-6.8,3.8-10.2,5.4-2.6,1.3-.3-3,.2-3.8a26,26,0,0,0,2.4-4.7c1.8-4.4,2.4-9.3,5.9-12.8a.58.58,0,0,0-.4-1c-5-.3-10.1.5-15.1-.2a55.42,55.42,0,0,0-5.7-.7,13,13,0,0,0-3.9.9c5-3,11.5-1.8,17.1-2.2,5.2-.3,10.6-1.9,14.6-5.4a.65.65,0,0,0-.6-1.1,23.15,23.15,0,0,0-3.7,1.3,18.51,18.51,0,0,1-6.1,1.3c-3.3.3-6.7.2-10.1.6-2.6.3-8.7.9-10.4,3.7a14.92,14.92,0,0,0-2.4,1.4c.3-1.8,1.8-2.6,3.5-3.5a24.06,24.06,0,0,1,6.8-2.9c2.8-.6,6,0,8.9-.1,2.2-.1,4.3-1,6.4-1.5.6-.1.5-1,0-1.1-4.5-1.6-9.3-.6-13.8-2.1-4.7-1.5-7-6.5-10.4-9.7-.9-.8-1.5-2,.3-2.2a21.05,21.05,0,0,1,2.5.2c1.8.3,3.6.5,5.4.7a69.67,69.67,0,0,0,7.9.4c2.8,0,6,2,8.3,3.5a.58.58,0,0,0,.6-1c-1.9-1.4-3.1-3.6-4.6-5.3A21,21,0,0,1,397,242a15.27,15.27,0,0,1-.4-5.2,63.65,63.65,0,0,1,3.2,6.4,28.62,28.62,0,0,0,4.3,7.6c2.5,3.1,7.5,8.2,11.9,8.1a.64.64,0,0,0,.6-.8,9.75,9.75,0,0,0-1.4-2.9c-.9-1.4-1.1-3.2-1.7-4.7-1-2.4-3.1-4.2-5.1-5.8s-4-3.1-6-4.6c-2.2-1.8-5.1-3.7-5.8-6.6a.22.22,0,0,0-.2-.2l-.1-.1c0-.1-.1-.2-.2-.1a.62.62,0,0,0-.7.1q-.3-1.65.9-.9a4.05,4.05,0,0,1,.9.5,14.91,14.91,0,0,1,2,1.5c1.7,1.5,3.3,3.2,5.2,4.6,3.3,2.4,8.2,4.6,9.4,8.9a.57.57,0,0,0,1.1-.3,5.78,5.78,0,0,0-.5-1.4,48.11,48.11,0,0,1,2.1-9.7,18.88,18.88,0,0,0,1.3-4.8c.1-1.1-.2-2.5.3-3.4.2,2.1,1.1,4,1.3,6.2a82.23,82.23,0,0,1,0,8.6c-.1,3.3-.6,8.2,1.3,11.1.1.2.4.2.6.1.9-.7.9-2,1-3.1a57.67,57.67,0,0,0,.1-7.2,55.79,55.79,0,0,0-1.3-9c-.3-1.5-.5-2.9-.8-4.4-.2-.8-.9-1.7-.9-2.6v-.1c1.4,1.9,4.2,9.7,4.5,10.8.9,3.5-.4,7,0,10.4.1.4.5.8.9.5,2.1-1.3,2.2-4,3.3-5.9,2-3.5,8.7-3.4,12.1-4.5a20.09,20.09,0,0,0,3.3-1.6,1.49,1.49,0,0,1,.9-.2,4.67,4.67,0,0,1-.5,1c-.1.1-.2.3-.3.4-.6.7-1.2,1.3-1.7,1.9-1,1.2-2,2.4-3.1,3.5a67.76,67.76,0,0,1-7.4,6.8c-2,1.7-4.1,3.1-6.2,4.6-.9.7-2,1.5-2.2,2.6a5.66,5.66,0,0,0-2.6-.3c-.2,0-.3.4-.1.4,1.4.2,3.2,1,3.2,2.6s-1.5,2.8-2.7,3.5a8,8,0,0,1-3.4,1.1,2.23,2.23,0,0,1-1.4-.3c-.6-.3-1-2-.1-2.3a.31.31,0,0,0-.1-.6c-1.9-.1-1.5,2.7-.7,3.6a3.23,3.23,0,0,0,3.3.6c.1.1.1.3.2.4-.1,2.5,1.1,5.1,1.7,7.5.8,3.2,1.2,6.5,2,9.8,1.3,5.9,2.6,12.5,5.5,17.8.2.4,1.1.4,1.1-.2a37.46,37.46,0,0,0-1.5-18.5,68.52,68.52,0,0,0-3.5-8.9c-.7-1.4-1.7-2.6-2.5-4a31.22,31.22,0,0,1-1.8-4.2l.9-.3,1.2-.6a.47.47,0,0,0,.1.6c2.1,2.2,4.9,3.5,7.6,4.9,3.6,1.8,7.2,3.4,10.6,5.5,2.6,1.6,5,3.3,7.9,4.3,1.8.6,4.5,1.6,6.4,1a.57.57,0,0,0,0-1.1c-1-1.8-2.9-2.9-4.6-3.9-2.8-1.8-5.5-4.3-8.6-5.5-3.4-1.3-6.8-3.1-10.4-3.8-2.8-.6-5.7-2.4-8.5-2.3h0a5.77,5.77,0,0,0,2.6-3.5,27.32,27.32,0,0,0,19.5-.4c2.2-.8,4.4-1.4,6.6-2.1,1.3-.4,3-1.1,3.2-2.6h0c1.1.9-1.6,3.1-2.4,3.6a46.28,46.28,0,0,1-7.1,3.4c-1.6.7-5.8.7-6.5,2.5-.1.1,0,.3.1.4.7.7,2,.7,2.9.9a10.86,10.86,0,0,1,6.9,4.5c2.3,3.1,5.2,5.5,7.5,8.6C456,281.33,456.94,282.73,454.24,282.83Zm-69.4-11.9c3.6-1.7,8-1.8,12-2.1,2.7-.2,5.4,0,8.1-.4a17.39,17.39,0,0,0,3.9-1.1c-4.5,2.4-9.7,2.9-14.8,2.9A40.35,40.35,0,0,0,384.84,270.93Zm13.8-32.9a68,68,0,0,0,5.7,5c2.6,2.1,5.4,3.9,7.3,6.7a11.18,11.18,0,0,1,1.7,4.6c.2,1.2,1.2,2.2,1.7,3.4-4.3-.6-8.9-5.9-11.2-9-1.7-2.3-2.6-5-3.7-7.6A22,22,0,0,0,398.64,238Zm29.3,61.6c-2.3-4.9-3.5-10.6-4.7-15.7-.7-2.9-1.2-5.9-1.9-8.8-.6-2.3-1.4-4.5-2-6.7,2.2,4.5,4.7,8.6,6.4,13.4C427.64,287.73,428.74,293.43,427.94,299.63Zm-4.4-33.4c.7.2,1.3.5,2.1.8a26.64,26.64,0,0,0,3.8,1c3.2.9,6.2,1.9,9.3,3.1a47,47,0,0,1,8.5,4.7c2.1,1.4,4.9,2.5,6.3,4.6-1.8.4-4.4-.7-6.1-1.2-3.1-1-5.8-3.2-8.6-4.9C434,271.53,427.84,269.93,423.54,266.23Z" transform="translate(-3 1)"/><path d="M416.54,269.43a.54.54,0,0,0-.7-.5c-.2.1-.3.1-.4.2a.33.33,0,0,0-.6-.2,53.48,53.48,0,0,0-4.1,6.4c-1.4,2.5-3.6,4.8-5.2,7.2s-2.9,5-4.8,7.2a15.57,15.57,0,0,0-3.2,5.2c-.1.4.4.9.8.6a30.07,30.07,0,0,0,5.4-5.3c2.2-2.5,4.7-4.8,6.9-7.2C414.34,278.93,417,275.13,416.54,269.43Zm-7.9,14.2c-1.7,1.8-3.5,3.5-5.2,5.3-1.4,1.5-2.6,3-4.1,4.4a34.1,34.1,0,0,1,3.7-4.8,39.19,39.19,0,0,0,3.3-5.6c1.3-2.4,3.2-4.2,4.6-6.5a70.62,70.62,0,0,1,4-6.5.45.45,0,0,0,.6.2C415.74,275.83,412.44,279.63,408.64,283.63Z" transform="translate(-3 1)"/><path d="M415.54,261a4.88,4.88,0,0,1-.7-.3.56.56,0,0,0-.6-.5c-2.6,0-5.1-1.4-7.6-2.2-2.7-.8-5.2-2-7.8-2.9-4.7-1.5-10.2-1.3-14.7-3.4-.2-.1-.4.1-.2.3,1.5,1.1,3.4,1.4,5.2,1.8,2.9.6,5.7,1.5,8.5,2.2,3,.7,5.7,2.5,8.6,3.5,2.4.8,4.9,2.1,7.5,2a.55.55,0,0,0,.5.3c.5-.1.7.1,1.3,0C415.84,261.63,415.84,261.13,415.54,261Z" transform="translate(-3 1)"/></svg>