<?xml version="1.0" encoding="utf-8"?>
<!-- Generator: Adobe Illustrator 21.0.0, SVG Export Plug-In . SVG Version: 6.00 Build 0)  -->
<svg version="1.1" id="Calque_1" xmlns="http://www.w3.org/2000/svg" xmlns:xlink="http://www.w3.org/1999/xlink" x="0px" y="0px"
	 viewBox="0 0 595.3 841.9" style="enable-background:new 0 0 595.3 841.9;" xml:space="preserve">
<style type="text/css">
	.st0{fill:#231F20;}
</style>
<path class="st0" d="M383,423c0.5-0.7,0.9-1.4,0.9-2.3c0.1-1.5-0.5-2.9-0.8-4.4c0-0.2-0.2-0.2-0.3-0.2c0-0.2,0-0.4,0-0.6
	c-0.1-0.8-0.4-1.8-1-2.4l0,0c0.3-0.8,0-1.7-0.2-2.5c-0.4-1-1.5-2.3-2.5-2c-0.4-1.1-1.2-2.3-2.3-1.9c0,0,0,0-0.1,0.1
	c-0.2-0.3-0.4-0.5-0.6-0.7c-0.6-0.6-1.5-0.8-2.4-0.7c-0.1,0-0.2,0-0.3,0.1c0-0.1-0.1-0.2-0.1-0.4c0-0.1-0.2-0.3-0.3-0.3
	c-0.8-0.1-1.6-0.4-2.5-0.5c-0.8-0.1-1.6-0.1-2.4,0c-0.3-0.5-0.8-0.9-1.4-0.8c-1.4,0.1-2-1-3.1-1.4s-2-0.5-3.2-0.5v-0.1
	c-0.7-3.2-5-3.4-7.6-3.5c-1.8-0.1-3.9-0.2-5.5,0.6c-0.5,0.3-0.9,0.6-1.3,0.9c-0.9-1-4.2,1-4.8,1.3c-3.2,1.2-5.9,2.7-5.9,6.4
	c0,0.1,0,0.2,0.1,0.2c-0.2,0.2-0.4,0.4-0.6,0.6c-1,1.1-1.5,2.5-1.7,3.9c-0.1,0-0.2,0-0.2,0c-0.2,0.1-0.3,0.3-0.5,0.5
	c-0.4,0.4-1.2,1-1.1,1.7c-2.5-0.9-5.3-0.9-7.8-0.1c-1.6,0.5-3.2,1.1-4.9,1.5c-1,0.2-2.1,0.2-3.1,0.3c-0.1-0.1-0.1-0.2-0.2-0.4
	c-0.1-0.3-0.5-0.2-0.5,0.1c0,0.1,0,0.2,0.1,0.2c-0.6,0-1.1,0-1.7,0.1l0,0c0.7,0.2,1.3,0.4,2,0.5c1.3,1.5,5.4,1.1,6.9,1.1
	c2.7,0,4.4,0.5,6.3,2.8c0.8,0.9,1.5,1.8,2.4,2.5c0,0.2,0,0.4,0,0.5c0,0.2,0.1,0.3,0.1,0.5c0,0,0,0,0,0.1c-0.3,1.7-2.2,2.2-2.9,3.7
	c-0.5,1.2,0,2.5,0.6,3.5c1.2,2.1,4.1,5.4,6.8,5c-0.1,0.3-0.2,0.6-0.3,1c-0.2-0.1-0.5,0-0.6,0.2c0-0.1,0.1-0.2-0.1,0
	c-0.7,0.7-1.3,1.3-2,1.8c-0.5-0.2-1.1-0.1-1.4-0.6c-0.1-0.2-0.3-0.1-0.3,0.1c0.1,0.4,0.5,0.8,0.9,0.9c0,0,0,0-0.1,0
	c-0.4,0.2-0.9,0.4-1.3,0.6c-0.1-0.2-0.3-0.5-0.5-0.7c0,0-0.1,0-0.1,0.1c0.2,0.2,0.3,0.4,0.4,0.7c-0.6,0.2-1.3,0.5-2,0.7
	c0.1-0.2,0-0.5,0-0.7c-0.1-0.2-0.4-0.2-0.5,0c-0.1,0.3-0.2,0.6,0,0.9c-0.9,0.3-1.9,0.5-2.8,0.7c-0.2-0.3-0.4-0.5-0.5-0.8
	c0-0.2-0.4-0.2-0.4,0c-0.1,0.2-0.2,0.5,0,0.8c0.1,0.1,0.1,0.1,0.2,0.2c-1,0.2-2.1,0.4-3.3,0.5v-0.1c0.1-0.4,0.3-0.8,0.2-1.3
	c0-0.1-0.1-0.1-0.1,0c-0.1,0.5-0.2,0.9-0.3,1.3c-0.1,0-0.1,0-0.2,0.1c-2.1,0.2-4.3,0.1-6.2-0.2c-1.2-0.2-2.3-0.4-3.4,0.1
	c-2.5,1.1-0.5,4,1.1,4.7c0.9,0.4,1.9,0.4,2.8,0.4c-0.1,0.2-0.1,0.5-0.1,0.7c0,0.1,0.1,0.2,0.2,0.1c0.2-0.2,0.3-0.5,0.4-0.9
	c0.4-0.1,0.8-0.1,1.1-0.2c0.7-0.2,1.4-0.3,2.1-0.5c0.2,0.2,0.4,0.4,0.6,0.5c0.1,0,0.2-0.1,0.1-0.2s-0.2-0.2-0.3-0.3
	c1.3-0.2,2.5-0.4,3.8-0.5c-0.1,0.2-0.2,0.5-0.2,0.7s0.2,0.3,0.3,0.2c0.4-0.2,0.7-0.6,0.9-1c0.7,0,1.4,0,2.1,0
	c-0.7,1.8-3.8,5-4.9,5.4c-2.3,0.8-4.9-0.2-7.2,0.8c-1.2,0.5-3.1,1.1-3.7,2.6c0,0.1-0.1,0.2-0.2,0.4c-0.1,0.1-0.1,0.1-0.2,0.2
	s-0.1,0.3,0,0.4c-0.1,0.2-0.1,0.4,0,0.5c0.5,1.6,0.5,2.4,0.3,4.1c-0.1,1.4-0.1,2.3,1.3,2.8c0.8,0.3,0.7,1.3,0.9,1.9
	c0.2,0.6,0.9,0.9,1.4,1.2c1.2,0.7,0.6,2.4,1.7,3.3c0.1,0.1,0.2,0.1,0.2,0.2c0.1,0.1,0.1,0.3,0.2,0.4c0.1,0.2,0.3,0.2,0.5,0.1
	c0.1,0,0.1,0.1,0.2,0.1c0,0.2,0,0.4,0.1,0.5c0,0.3,0.4,0.2,0.4-0.1c0-0.1,0-0.2,0-0.2c1,0.4,2,0.4,3.2,0.3c0.8-0.1,1.6-0.1,2.3-0.1
	c0,0.1,0,0.1,0,0.2c0.1,0.5,0.8,0.3,0.7-0.2l0,0c2.7-0.1,5.2-0.5,6.9-3.3c1.3-2.1,2.1-7.2,0.4-9.3c-1.4-1.8-3.9-2.2-5.2-4
	c-1.1-1.6,1.8-7.2,3-8.6c0.6-0.7,1.8-0.7,2.7-1.1c0.1,0.3,0.3,0.5,0.5,0.7c0.1,0,0.3,0,0.3-0.1c0-0.3-0.1-0.6-0.2-0.9
	c0.5-0.3,0.9-0.7,1.3-1.1c0,0,0,0,0.1,0c0,0,0,0,0.1-0.1l0,0l0,0c0.1-0.1,0.2-0.2,0.3-0.3c0.2-0.2,0.4-0.3,0.6-0.5
	c0.4-0.2,0.7-0.5,1.1-0.7c0,0.1,0.1,0.2,0.2,0.3c0.3,0.4,0.7,0.4,1.2,0.4c0.1,0,0.2-0.2,0.1-0.3c-0.2-0.2-0.4-0.3-0.6-0.5
	c-0.1-0.1-0.2-0.2-0.3-0.3c1.2-0.7,2.3-1.4,3.5-2.2c-0.3,0.6-0.6,1.2-0.9,1.7c-2.3,4.2-4.9,7.8-10.2,7.4c-0.6,0-0.6,0.9,0,0.9
	c2.8,0.2,4.4,0.3,6.9-1.2c2.5-1.6,4.6-3.8,7-5.6c-0.4,0.9-0.8,1.8-1.1,2.7c-0.9,2.2-2.3,5.7-4.4,7.7c-1.5,0.4-3.4,0.3-4.5,1.5
	c-0.2,0.2-0.2,0.7,0.2,0.7c1.8,0.3,3.3-0.3,4.5-1.4c0.1,0,0.2,0,0.2-0.1c1.1-0.4,2.4-1.1,3.3-1.8c1.9-1.5,2.8-3.5,3.3-5.8
	c0.3-1.2,0.7-2.2,1.1-3.1c-0.2,5.1,3.1,8.1,8.1,8.9c1.8,0.3,3.4-0.3,4.7-1.4c0.1,0.1,0.1,0.3,0.3,0.4c0.8,1,2.9,1,4.1,1.1
	c3.6,0.3,8.6-3.7,8.6-7.4c0-0.1,0-0.1,0-0.2c1.5-0.8,2.9-1.9,2.6-3.5c1.8-0.9,3.6-2.2,4.8-3.4c0.6-0.6,1.4-1.7,1.9-2.8
	c0.7-0.2,1.5-1,1.9-1.4c0.7-0.9,1.2-2.1,1-3.3c0,0,0-0.1-0.1-0.1C383.5,427.5,383.8,425,383,423z M315.2,452.3
	c2.2-0.6,4.7,0.1,6.9-0.6c0.5-0.2,1-0.4,1.4-0.8c-0.6,1-1.4,1.9-2.3,2.7c-0.7,0.1-1.6-0.1-2.1-0.1c-1.4-0.1-2.8-0.2-4.3-0.1
	c-0.8,0-1.8,0-2.7,0.2C313.1,453,314.3,452.6,315.2,452.3z M311.1,455.2c0-0.1,0.1-0.2,0.1-0.3c1.4-0.9,3.9-0.7,5.4-0.7
	c1.4-0.1,2.8,0,4.3,0c-0.5,0.5-1.1,1-1.6,1.5c-1.6,0.7-2.7,0.7-4.4,0.6c-1.2-0.1-2.5-0.6-3.7-0.5C311.1,455.5,311,455.3,311.1,455.2
	z M311.3,460.7L311.3,460.7c-0.1-1.2,0.4-2.4,0.3-3.6c0-0.1-0.1-0.3-0.1-0.5c1.9,0.1,4.6,1.1,6.5,0.4c-0.6,0.7-1,1.4-1.4,2.2
	c-0.9,0.5-2,0-3.1,0.2C312.5,459.6,311.8,460,311.3,460.7z M315,465.2c-0.1-0.1-0.1-0.1-0.2-0.2c-0.8-0.6-1.3-1.2-1.5-2.1
	c-0.1-0.4-0.3-0.7-0.6-1c-0.3-0.2-0.5-0.2-0.8-0.3c0.8-1.3,1.9-1.3,3.4-1.3c0.3,0,0.6-0.1,0.8-0.1
	C315.6,461.5,315.1,463.4,315,465.2z M317.3,469.3c0.3-3.2-0.1-6.4,1-9.3c0.1,0.7,0.4,1.4,0.9,2.3c1.6,2.4,2.8,4.5,3.4,7.2
	C321,469.5,318.8,470,317.3,469.3z M323.4,469.5c-0.3-1.7-0.8-3.4-1.7-5c-0.5-0.9-1.3-1.7-1.9-2.5c-0.7-0.9-0.9-1.8-1.1-2.8
	c0.3-0.7,0.8-1.3,1.3-2c0.1-0.1,0.3-0.3,0.4-0.4c-0.4,0.9-0.2,1.6,0.5,2.8c1.8,2.9,5.6,5.6,6.1,9.1v0.1
	C326,469.2,324.7,469.4,323.4,469.5z M330.2,465.2c-0.4,1.6-1.2,2.6-2.3,3.2c-0.3-2.1-1.7-3.6-3.1-5.1c-1.1-1.3-2.2-2.6-3.2-4.1
	c-0.8-1.1-0.7-2-0.5-3.1c0.3-0.2,0.5-0.5,0.8-0.7c-0.2,4.2,7.2,3.8,8.6,7.4c0,0.1,0.1,0.1,0.1,0.2
	C330.5,463.7,330.4,464.5,330.2,465.2z M329.7,457.8c0.9,0.8,1.1,2.3,1.1,3.7c-0.8-1-2.1-1.6-3.3-2.2c-0.9-0.5-1.9-0.9-2.9-1.4
	c-0.6-0.3-1.2-0.7-1.7-1.2c-0.4-0.4-0.5-1.1-0.5-1.8c0.5-0.5,1-1,1.5-1.6c0.1-0.1,0.2-0.3,0.3-0.5
	C324.6,455.3,328.2,456.4,329.7,457.8z M325.4,449.1c-1.2,1.4-1.5,3.4-2.9,4.9c-0.1,0.1-0.2,0.2-0.2,0.2c-0.1,0-0.1,0-0.1,0.1l0,0
	c-1.2,1.2-2.5,2.3-3.5,3.6h-0.1v0.1c-0.1,0.2-0.3,0.4-0.4,0.6c-1.6,2.7-1.8,6.8-1.5,10.1c-0.1-0.1-0.2-0.2-0.3-0.4
	c-1.3-3.8,0.4-8.9,2.8-11.8c0.7-0.9,1.7-1.7,2.6-2.5h0.1c0.1,0,0.2-0.1,0.2-0.2s0.1-0.2,0.1-0.3c1-1,1.9-2,2.1-3.5
	c0.3-0.4,0.6-0.9,0.9-1.3c0.3-0.5,0.7-1,1.1-1.4C326,448,325.7,448.6,325.4,449.1z M333.2,441.4c-0.5,0.3-0.9,0.6-1.4,1
	c-0.8,0.7-1.8,0.8-2.7,1.3c-0.8,0.4-1.3,1-1.7,1.6c0-0.1,0-0.2,0.1-0.4c0-0.4-0.3-0.6-0.6-0.6c-0.9-0.1-1.7-0.1-2.6,0
	c0-0.1,0-0.2,0-0.3c0-0.6-0.8-0.5-0.9,0c0,0.1,0,0.2-0.1,0.4c-1.6,0.2-3.1,0.5-4.7,0.8c-0.1-0.2-0.1-0.3-0.1-0.5
	c0-0.1-0.2-0.1-0.3,0c0,0.2,0,0.4,0,0.6c-0.9,0.2-1.7,0.3-2.6,0.4c0-0.1,0-0.2,0-0.2c0-0.3-0.4-0.3-0.4,0c0,0.1,0,0.2,0,0.3
	c-0.1,0-0.1,0-0.2,0c-0.7,0.1-1.4,0-2-0.2c-1.7-0.3-1.2-2.8,0.3-2.8c1.8,0.1,3.7,0.3,5.5,0.3c0.5,0,0.9,0,1.4,0l0,0
	c0,0.1,0.1,0.1,0.1,0l0,0c3.1-0.2,6.1-0.8,9.1-1.8c0.4-0.1,0.9-0.3,1.3-0.5c0.1,0.1,0.1,0.2,0.2,0.3c0.1,0.1,0.2,0,0.1-0.1
	c0-0.1-0.1-0.2-0.1-0.3c0.7-0.3,1.3-0.6,1.9-0.9c0.4-0.2,0.9-0.5,1.2-0.8c0.1-0.1,0.6-0.7,0.9-1.1
	C334.5,439.2,333.9,440.3,333.2,441.4z M383.1,419.5c0.2,1-0.1,1.8-0.5,2.6c-0.1-0.2-0.2-0.4-0.3-0.6l-0.1-0.1
	c0.1-0.4,0.2-0.8,0.2-1.2c0-0.6-0.1-1.5-0.3-2.2c0.3-0.3,0.5-0.6,0.6-0.9C382.7,417.8,382.9,418.6,383.1,419.5z M381.8,414.4
	c0.4,1.1,0.3,1.9-0.3,2.6c-0.1-0.2-0.3-0.4-0.5-0.5c-1.1-0.8-2.3-0.4-3.3,0.3c-0.1-0.3-0.3-0.4-0.5-0.5c0.9-0.4,1.3-1.6,1.7-2.5
	c0.1-0.2,0.3-0.4,0.4-0.5c0,0.2,0,0.4,0,0.5c0,0.2,0.3,0.2,0.3,0c0-0.3,0.1-0.5,0.1-0.8c0.1,0,0.1,0,0.2-0.1c0.2,0,0.4,0,0.5,0.1
	c-0.1,0-0.1,0.1-0.2,0.1c-0.3,0.2-0.3,0.7,0.1,0.8c0.4,0.1,0.7,0,0.9-0.3C381.6,414,381.7,414.2,381.8,414.4z M349.9,433.9
	c0.3-0.2,0.7-0.5,1-0.7c-0.8,1.7-0.9,4-0.4,5.6c0.4,1.4,2.1,2.3,3.1,3.2c1.1,1,2.2,2,3.7,2.3c-0.7,0.5-1.5,0.9-2.2,1.4
	c-1.7,1.3-3.7-0.2-5.1-1.2c-2.2-1.5-3.3-3.2-3.1-5.4c0.4-0.5,0.9-1,1.4-1.5C349.4,436.6,350.2,435.3,349.9,433.9z M351.8,405.9
	c0.1,0.1,0.2,0.1,0.3,0.2c0,0.1-0.1,0.2-0.1,0.2c-0.2,0.6,0.7,0.8,0.9,0.3c0.3,0.2,0.6,0.5,0.9,0.7c-5.2,1.3-8.7,7.3-7.6,12.6
	c-0.8-0.2-1.6-0.3-2.2-0.6c0-0.1,0-0.2,0-0.3c-0.2-3.3-0.1-6.6,1.1-9.7c0.1-0.2,0.2-0.5,0.3-0.7c0.2-0.7-0.8-0.9-1.1-0.3
	c-0.5,1.6-1.8,2.3-3.1,3c0.4-2.7,2.7-4.1,5-5.2C348.1,405.3,349.8,404.8,351.8,405.9z M349.9,404.3c1.1-2.6,5.5-3.5,7.8-2.4
	c-2.2,0.6-4.3,1.7-5.3,3.5C351.6,405,350.9,404.6,349.9,404.3L349.9,404.3z M344.2,420.7c1.2,0.4,2.9,1,2.1,1.8
	c-0.5,0.5-1.2,0.9-1.7,1.5c-0.2,0.1-0.3,0.3-0.4,0.4c0.1-0.1,0.1-0.2,0.1-0.3C344.6,423,344.4,421.8,344.2,420.7z M342,412.5
	c0.5-0.3,1-0.6,1.5-1c-0.4,2.2-0.5,4.3-0.5,6.6c0,0.4,0,0.9,0.1,1.3c-0.2,0.2-0.2,0.6,0.1,0.8c0,0.5,0.1,0.9,0.1,1.4
	c0.3,2.6-1.7,1.7-2.7,0c0-0.1,0-0.1-0.1-0.2c-0.4-1.2-1.2-2.2-1.6-3.3c-0.6-1.6-0.2-3.8,1.3-4.9C340.8,412.8,341.4,412.8,342,412.5z
	 M338.6,428.1c0.1,0,0.1,0,0.2-0.1c0.3-0.1,0.3-0.4,0.2-0.6c0.4-0.7,1.1-1.6,1.7-2.2l0.1-0.1c0.1-0.1,0.3-0.2,0.4-0.3
	c1.1,1.1,2.6,1.4,4.3,0c0.7-0.6,1.7-1.2,2.2-2.1c0.5,1.3,0.7,2.5,0.9,3.9c-1.7,2.7-6.2,3-9,4.1c-0.7,0.3-1.8,0.8-2.6,1.6
	C337.3,430.9,337.9,429.5,338.6,428.1z M338.2,427.1c-1.8,1-4.1-0.4-5.4-1.7c-0.6-0.6-0.8-1.3-1-2.1c0.9,0.6,1.9,1.2,3.1,1.6
	s3.1,1,4.6,0.8c-0.4,0.4-0.8,0.9-1.1,1.3C338.4,427.1,338.3,427.1,338.2,427.1z M349.2,424.2c-0.2-0.9-0.5-1.7-0.8-2.5
	c-0.1-0.2-0.2-0.3-0.4-0.3c-0.1-0.6-0.5-0.9-1-1.2c-1.1-5.1,1.6-10.3,6.7-11.9c1.6-0.5,4.3-0.5,4.5,2c-4,0.5-7.3,3.4-7.7,7.6
	c0,0.2,0.3,0.2,0.4,0.1c0.7-1.8,1.2-3.4,2.6-4.8c1.3-1.3,3-1.8,4.8-1.9c0.1,0.5,0.3,1,0.7,1.5c0.8,1.1,6.2,3.7,3.7,5.5
	c0,0,0,0-0.1,0.1c-2.3-0.7-5.4-0.5-6.9,0C353.2,419.3,350.3,421.6,349.2,424.2z M370.9,410.5c1.6,1.4,3.4,1.6,4.1,4
	c0.4,1.4-2.7-0.5-2.5-0.4c-1.2-0.4-2.3-0.6-3.5-0.7c-2-0.1-4.3,0-5.3,1.8c-0.2-0.4-0.5-0.7-0.8-1c-0.5-0.5-1.3-0.9-1.9-1.3
	c-1.5-1-1.7-1.4-1.6-1.9c1.5-4.6,14-5.6,13.9,0.2c-0.6-0.4-1.4-0.7-2.2-0.9C370.9,410.2,370.8,410.4,370.9,410.5z M349.8,426.9
	c0.4-6.4,8.1-9.4,13.4-7c0.5,0.3,0.9,0.6,1.2,1.1c-0.4,1.7-3.1,2.7-4.6,3.2c-1.2,0.4-2.5,0.5-3.2,1.6c0,0,0,0.1,0,0
	c1.3-0.9,3.3-0.9,4.7-1.6c1.3-0.7,2.7-1.1,3.4-2.3c0.6,2.5-1.3,6.1-2.8,7.3c-1.2,0.9-2.7,1.1-4,1.7c-1.7,0.6-3.6,1.4-5.4,1
	c-0.1-0.2-0.3-0.3-0.5-0.2l0,0h-0.1c0,0,0,0,0-0.1c0.1-0.2-0.1-0.4-0.3-0.3c-0.1,0-0.1,0.1-0.2,0.1s-0.2-0.1-0.2-0.1
	c-0.9-1.3-1.4-2.4-1.6-4C349.7,427.2,349.8,427.1,349.8,426.9z M352.1,439.3c-1.2-1-1-2.7-0.9-4.1c0-0.3,0.3-1.3,0.5-2.2
	c1.9,1.4,7.5,2.5,8.3,2.6c1.8,0.2,3.6-0.5,5.1-1.6c1,3.4-1.1,7.1-4.4,8.5c-0.2-0.3-0.8-0.2-0.9,0.3l0,0c-0.5,0.1-1,0.2-1.5,0.2
	C356,443.3,353.7,440.7,352.1,439.3z M364.3,432.7c0.1,0.1,0.1,0.2,0.1,0.3c-0.3,0.2-0.6,0.4-0.8,0.6c-1.3,0.8-2.9,1.1-4.4,0.9
	c-0.6-0.1-4.3-0.6-6.3-1.5c2.7,0.3,6.7-1.3,8.2-2.1c1.9-1,3.4-2.7,4.1-4.7c1.8,0.9,1.6,3.5,0.9,4.9c-0.2,0.5-0.5,0.8-0.9,1.2v-0.1
	C364.9,431.5,364,432,364.3,432.7z M367.3,431.7c1.2-2,0.6-5.6-1.8-6.5c0.3-1.5,0.3-3.1-0.3-4.6c-0.3-0.7-0.8-1.2-1.5-1.6
	c0.6-0.8,0.6-1.7,0.3-2.7l0,0c0.8-2.6,4.4-2.2,6.4-1.8c1.5,0.2,2.5,1.2,3.8,1.5c0,0.1,0.1,0.2,0.3,0.3c0.5,0,0.8,0.1,1.1,0.3
	c-1.6,0.6-3.6,2.2-4,2.7c-0.1,0.1,0,0.3,0.1,0.3c0.8,0.1,1.7-0.9,2.3-1.3c0.6-0.4,1.1-0.8,1.8-1c0.2-0.1,0.5-0.1,0.7,0
	c1,1.7-2,5.3-3.2,6.6c-2.1,2.5-5.2-1.4-7.5-1.3c-0.1,0-0.1,0.1,0,0.1c2.8,1.9,6.3,4.3,8.8,1c1-0.2,1.7,0.1,2.4,0.8
	c0.1,0.1,0.2,0.3,0.3,0.4c-0.5,0.3-0.2,1.1,0.4,1l0,0c-0.2,1.6-3,2.3-3.8,3.5c-0.1,0.2,0.1,0.4,0.2,0.3c0.9-0.3,2.8-1.4,3.7-2.6
	c-0.2,1.5-1.2,2.9-2.2,4.1c-2.5,2.9-6.3,4.1-9.6,2C366.6,432.6,367,432.2,367.3,431.7z M375.2,422.9c1.2-1.8,2.4-2.8,2.5-5.1v-0.1
	c0.8-0.4,2-1,2.8-0.3c0.2,0.1,0.3,0.3,0.3,0.5l0,0c-0.3,0.3-0.1,0.6,0.3,0.7l0,0c0.2,0.9,0.2,1.9,0,2.8c-0.2,1.2-1.5,2.4-2.7,3
	c-0.1-0.1-0.1-0.2-0.2-0.3C377.1,423.2,376.2,422.5,375.2,422.9z M380.8,410.8c0.2,0.5,0.3,1.1,0.2,1.6l0,0h-0.1
	c-0.3-0.1-0.7-0.1-1,0c0-0.9-0.1-1.7-0.6-2.3c0.1-0.3,0-0.6,0-1C380.1,409.2,380.5,410,380.8,410.8z M378.5,408.6
	c0,0.1,0.1,0.3,0.1,0.4c0,0,0,0-0.1,0.1v0.1l0,0c0,0.1,0,0.3,0,0.4c-0.1-0.1-0.2-0.1-0.4-0.2c-0.3-0.1-0.6-0.2-0.8-0.2
	c0.3-0.6,0-1.4-0.3-2C377.6,407.4,378.2,407.8,378.5,408.6z M377.3,409.8c0.5,0,0.9,0.2,1.2,0.4c0,0.1,0,0.2,0.1,0.3
	c0,0.1,0.1,0.1,0.2,0.1h0.1c0.4,0.5,0.5,1.3,0.6,2c-0.3,0.2-0.6,0.5-0.8,0.7c-0.6,1-0.7,2.2-1.8,2.7c-0.3-0.2-0.5-0.3-0.9-0.4l0,0
	c-0.1-1.8-0.9-3-2-3.9c0.1-0.1,0.3-0.2,0.3-0.4c0-0.4,0-0.7-0.1-1C375.2,410,376.2,409.8,377.3,409.8z M375.3,406.4
	c0.8,0.4,1.6,1.8,0.9,2.5l0,0c-0.8,0.1-1.5,0.3-2.2,0.4c-0.5-1.2-1.6-2.1-2.9-2.6c0.5-0.1,1-0.2,1.4-0.3
	C373.3,406.3,374.4,406,375.3,406.4z M370.9,404.9c0.4,0.1,0.7,0.3,1.1,0.4c0.4,0.2,0.6,0.1,0.8,0.4c-1.1,0.4-2.4,0.9-3.1,0.5
	c-0.1-0.1-0.3,0.1-0.2,0.2l0.1,0.1c-0.1,0-0.2,0-0.3-0.1c0-0.1,0-0.2,0-0.3c-0.2-0.4-0.4-1-0.7-1.5
	C369.3,404.7,370.1,404.7,370.9,404.9z M360.9,402.4c1.8-0.1,2.9,1,4.4,1.7c0.2,0.1,0.8,0.1,0.9,0.1c1.6,0.1,1.8,1.1,2.4,2.1
	c-3.4-0.3-7.3,0.9-9,3.1v-0.1c-0.4-1.4-1.4-2.1-2.9-2.2c-0.6,0-1.2,0-1.8,0.1c0,0,0-0.1-0.1-0.1c-0.5-0.4-1-0.7-1.5-1.1
	C354.5,403.5,358.2,402.5,360.9,402.4z M347.3,399.6c1.4-1.1,3.4-0.9,5.1-0.9c1.3,0,2.6,0.1,3.9,0.4c0.7,0.1,1.3,0.4,2,0.7
	c0.2,0.1,1,0.8,1.4,1.1c0,0,0,0,0,0.1c0,0,0,0.1,0.1,0.1c-0.1,0.1-0.1,0.2-0.2,0.3c-0.1,0.1,0,0.2,0,0.3c-0.5,0-0.9,0.1-1.4,0.2
	c0-0.1,0-0.3-0.1-0.4c-2.6-2-8.3-0.5-9.3,2.8c-1.1,0.2-2.2,0.8-3,1.2l0,0c0-0.1,0-0.2,0.1-0.3c0-0.1,0-0.2-0.1-0.3
	c-0.3-0.4-0.7-0.6-1.1-0.8C345.4,402.4,345.6,400.8,347.3,399.6z M341.1,401.7c0.6-0.3,3.4-1.8,4.6-1.9c-0.9,1.1-1.3,2.3-1.9,3.9
	c-2.3-0.5-5.3,1-7.3,2.6C336.8,403.8,338.8,402.8,341.1,401.7z M334.5,411.7L334.5,411.7c0.1-0.1,0.1-0.2,0-0.2
	c0.2-0.8,0.4-1.6,0.7-2.3c0.9-2.1,3.4-3.5,5.4-4.2c0.6-0.2,1.7-0.4,2.8-0.4c0,0.5,0.7,0.8,0.9,0.3c0,0,0-0.1,0.1-0.1
	c0.5,0.2,0.8,0.4,0.9,0.9l0,0c-2.6,1.2-4.8,3.1-5.1,6.1c0,0,0,0,0,0.1c-0.2,0.1-0.5,0.2-0.7,0.3c-1.3,0.6-1.7,2.1-2,3.4
	c-0.2,0.7-0.1,1.4,0,2.1c-0.8-0.8-1.8-1.5-2.7-2C334.3,414.4,334.3,413,334.5,411.7z M332.4,413.5c0.1-0.3,0.4-0.5,0.7-0.7
	c0.1-0.1,0.1-0.1,0.2-0.2c0,0.8,0.1,1.5,0.4,2.2c-0.5-0.3-1-0.5-1.4-0.7C332.3,413.9,332.3,413.7,332.4,413.5z M330.8,421.1
	c-0.7-0.7-1.4-1.5-2.1-2.3c-0.9-1.1-2.3-2.1-3.7-2.3c-1.5-0.1-5.6,0.5-8-0.2c0.7,0,1.3,0,2-0.1c2.8-0.6,5.4-1.9,8.4-1.9
	c2.6,0,5,1.1,7.2,2.5c0.5,0.9,1.2,1.7,2,2.3c0.2,0.1,0.4,0,0.5-0.2c1.2,1.5,1.7,3.4,2.3,5.3c-1,0.4-3.3-0.3-4-0.4
	c-1.4-0.3-2.6-1.1-3.7-2c-0.1-0.3-0.2-0.5-0.5-0.7C331,421.1,330.9,421.1,330.8,421.1z M331.5,432.7c-1.2-1.3-3-3-2.7-5
	c0.3-1.4,1.9-1.9,2.4-3.1c0,0.1,0,0.1,0.1,0.2c0.3,0.9,1,1.7,1.8,2.2c1.3,1,3,1.7,4.6,1.4c-0.7,1.5-1.2,3.2-1.6,4.9
	c-0.4,0.5-0.6,1-0.5,1.6C334,434.5,332.8,434,331.5,432.7z M335.4,438.3c0.3-0.9,0.5-1.7,0.7-2.6c0.2-0.1,0.3-0.4,0.1-0.6l0,0
	c1.2-3.3,4.8-4,8-4.8c1.2-0.3,3.3-0.9,4.4-2c0,0.5,0.1,0.9,0.3,1.4c0.5,1.2,1.8,2.2,0.4,3.5c-0.2,0-0.5,0.1-0.5,0.4
	c-1.1,0.7-2.5,0.7-3.8,0.4c0-0.1,0-0.2,0-0.3c0-0.2-0.2-0.3-0.3-0.3c-0.2,0-0.4,0.1-0.3,0.3c0,0.1,0,0.1,0,0.2
	c-0.6-0.1-1.2-0.3-1.7-0.4C338.5,432.4,337.1,435.4,335.4,438.3z M335.9,439.4c0.5-0.7,0.9-1.5,1.3-2.3h0.1c1.3-0.9,2.1-2.3,3.4-3.2
	c0.7,0,1.5,0.1,2.2,0.3c-1,0.5-1.9,1.5-2.6,2.5c-0.1,0-0.3,0-0.4,0.1C338.7,437.9,337.3,438.6,335.9,439.4z M337.3,444.3
	c-0.4,0.3-0.8,0.6-1.2,1c0.4-0.5,0.9-1,1.3-1.5c1.3-1.7,2.2-3.7,3.3-5.6c0.8-1.4,1.8-2.7,3.3-3.3c0.1,0,0.2-0.1,0.3-0.1
	c-0.2,1.9-0.9,3.7-1.6,5.5c-0.1,0-0.2,0-0.3,0.1C340.6,441.4,338.9,442.8,337.3,444.3z M342.6,445.1c-0.6,2.9-2,4.6-4.3,6
	c0.8-1.1,1.5-2.4,2.1-3.5c1-1.9,1.7-4,2.4-6c0.8-2.3,1.8-4.4,2.1-6.8c0.1,0,0.2,0,0.2,0.1c1.1,0.2,2.5,0.1,3.5-0.3
	c0.1,0,0.2-0.1,0.3-0.1c0.1,1.1-0.8,2.1-1.8,3.1c0.1-0.3,0.2-0.6,0.4-1l0,0c-1.1-0.1-1.5,1.1-1.7,2.2c-0.4,0.4-0.8,0.8-1.1,1.1
	C343.6,441.3,343,443.2,342.6,445.1z M352.2,450.2c-5-0.7-6.6-4-7.1-8.6c0,0,0-0.1-0.1-0.1c0.2-0.4,0.5-0.8,0.8-1.1
	c0.1,1.7,1.2,3,2.5,4.1c1.5,1.4,3.8,3,6,2.8c1.1-0.1,1.9-1.2,2.9-1.6c0.7-0.3,1.4-0.7,1.8-1.3c0.2,0,0.5-0.1,0.7-0.1
	C359,447.8,356.2,450.7,352.2,450.2z M362.3,450.1c-1,0-4.2,0.1-3.9-1.3c0.9-1.1,1.6-2.4,2-3.8c2.4,2.1,5.3,0.6,8-0.4
	c0.3-0.1,0.6-0.2,0.9-0.3C368.7,446.9,365,450.1,362.3,450.1z M367.6,443.8c-2.5,0.9-4.6,1.9-7.1,0.6c0-0.2,0.1-0.4,0.1-0.5
	c2.1-0.7,3.8-2.3,4.8-4.3c1.7,2.1,4.2,2,6.6,1C371.1,442.4,369.6,443.1,367.6,443.8z M377.9,435c-0.8,1.3-2,2.3-3.3,3.2
	c-2.5,1.8-6.8,3.5-8.8,0.4c0.6-1.5,0.7-3.1,0.2-4.7c3.6,2.4,9.2-0.4,11.5-3.6c0-0.1,0.1-0.1,0.1-0.2c0.7-0.1,1.2,0.2,1.4,0.5
	c-0.4,0.2-0.7,0.3-1.1,0.5c-0.4,0.1-0.3,0.7,0.1,0.7s0.8-0.1,1.2-0.2C379.2,432.9,378.3,434.5,377.9,435z M380.8,432.3
	c-0.2,0.3-0.5,0.5-0.9,0.7c0.2-0.6,0.2-1.2,0.1-1.7c0.7-0.3,1.3-0.8,1.8-1.4C381.8,430.8,381.4,431.6,380.8,432.3z M382.5,427
	c-0.4,1.7-1.4,2.6-2.7,3.3c-0.4-0.6-1-1-1.6-0.9c0.7-1.2,1.1-2.8,0.7-4.1c1.4-0.7,2.5-1.9,3-3.2c0.1,0.2,0.2,0.3,0.3,0.5
	c-0.1,0.2-0.2,0.4-0.4,0.6c-0.3,0.5,0.4,0.8,0.7,0.5C382.7,424.9,382.6,426.3,382.5,427z"/>
</svg>
