<?xml version="1.0" encoding="utf-8"?>
<!-- Generator: Adobe Illustrator 21.1.0, SVG Export Plug-In . SVG Version: 6.00 Build 0)  -->
<svg version="1.1" id="Calque_1" xmlns="http://www.w3.org/2000/svg" xmlns:xlink="http://www.w3.org/1999/xlink" x="0px" y="0px"
	 viewBox="0 0 595.3 841.9" style="enable-background:new 0 0 595.3 841.9;" xml:space="preserve">
<path d="M381.4,423.4c-0.9-0.1-7.1,0.1-8.6,0.2c0.3-0.4,0.6-0.7,0.9-1.1c3.3-4.3,4.7-9.5,3.7-14.8c-0.7-3.7-2.4-8.9-7-8.6
	c-0.3,0-0.6,0.3-0.5,0.7c2.2,7.2-3,13-8.6,16.8c-5.5,3.8-12.3,4.6-17.8,8.1c-1,0.1-2.1,0.4-3.1,0.5c-0.8,0.1-1.6,0.1-2.4,0.1
	c0.5-0.2,0.9-0.3,1.2-0.4c3.3-1.2,5.8-5.1,8-7.7c1.7-2,4.1-3.2,5.1-5.7c0.5-1.1,0.4-1.9,0-2.6c0.1-0.2-0.1-0.6-0.4-0.5l0,0
	c-1.7-1.7-5.8-1.8-7.7-1.8c-4.6,0-10.2,0.6-13.4,4.2c-0.3-1.1-0.6-2.1-1.1-3.2c-0.1-0.2-0.4-0.3-0.6-0.2c-2,0.5-3.1,2.2-4.2,3.9
	c-0.8,1.2-1.5,2.2-2.5,3.2c-0.7,0.6-1.8,1.3-2.1,2.3c-0.3,1.2,0.2,2.2,1.1,3c0,0,0,0.1-0.1,0.1c-0.4,1.7-2.8,2.4-4,3.4l0,0
	c-1-0.2-2-0.2-2.9-0.3c-1.3-0.2-2.5-0.4-3.8-0.5h-0.1c-0.4-0.5-0.9-0.9-1.5-1.3c0.6-0.2,1.2-0.5,1.7-0.9c3.3-2.6,3.1-7.1,2.9-10.9
	c-0.2-4.2-1.3-8.1-4-11.3c-1.7-2-4-3.3-6.2-4.7c-2.7-1.7-4.3-3.2-5.6-6c0-0.4,0-0.7,0-1.1s-0.6-0.4-0.6,0c0,0.2,0,0.3,0,0.5
	c-0.1,0-0.3,0.1-0.3,0.3c0,0.8,0,1.6,0.1,2.4c0,1.9,0.2,3.7,1.1,5.5c0.1,0.2,0.2,0.3,0.3,0.5c0.1,0.4,0.2,0.7,0.4,1.1
	c1.3,3.9,2.2,7.5,2.4,11.7c0.1,4.1-0.8,7.5-3.4,10.8c-0.2,0.2-0.3,0.4-0.5,0.5c-0.4,0-0.8,0-1.2,0.1c-0.7,0-0.7,1.1,0,1.1l0,0
	c-0.8,0.7-1.6,1.4-2.6,2c-0.2,0.1-0.4,0.3-0.7,0.4c-0.8,0.1-1.6,0.2-2.4,0.3c-2.1,0.2-4.1,0.2-6.2,0.2c-1.6-0.1-3.2-0.6-4.7-1.2
	c3.9,0,6.8-3.9,8.3-8.3c1.4-4.4,1.5-9,3.2-13.2c1.1-2.7,1.8-5.3-1.1-7.1c-2.2-1.4-5.5,0.1-7.6,1.1c-2.7,1.3-5.3,3.1-7.6,5
	c-3.2,2.6-7.6,7.5-5.1,11.4c-1.1-0.7-2.6-1.2-3.8-0.8c-0.4-0.3-0.9,0.1-0.9,0.5c0,0-0.1,0-0.1,0.1c-0.3,0.3,0.1,0.8,0.5,0.5
	c1,1,1.8,2.1,2.4,3.4c-0.8-0.3-1.5-0.8-2.2-1.3c-1.2-0.8-2.7-1.4-4-2.1c-2.7-1.6-5.7-2.7-8.5-4.1c-2.3-1.1-4.7-1.5-7-2.8
	c-2.6-1.4-5.2-2.6-7.7-4.2c-2.4-1.6-5.3-2.4-7.6-4.1c-1.9-1.5-4.3-2.1-6.5-2.9c-2.8-1-9.6-2.9-11.6,0.4c-1.6,2.6,8,3.2,8.8,3.4
	c5.9,1.1,11.2,4.7,16.6,7.3c5.5,2.7,11.2,5.2,16.5,8.3c2.4,1.4,4.9,2.6,7.3,4.1c0.3,0.2,0.6,0.4,0.9,0.5c-1.1-0.1-2.4,0.2-3.4,0.9
	c-2.5,1.8-6,4.6-7.6,7.6c-0.8,0.5-1.6,1.4-0.9,2.3c1,1.4,2.2,0.4,3.6,0.1c4.2-0.8,8.6-3.5,9.9-7.9c0.3-1.1,0.2-1.9-0.2-2.4
	c0.3,0.2,0.7,0.3,1,0.5c0.6,0.2,3,1.3,2.8,1.1c0.1,0.1,0.1,0.1,0.2,0.2c-0.1,0.6-0.1,1.2-0.1,1.8c0,2.7,1.6,4.2,3.8,5.5
	c2.4,1.4,9.1,4.9,11.4,1.7c0.8-1.1-0.4-2.6-1.4-3.6c1.9,0.4,3.7,0.7,5.6,0.9c4.1,2.7,9.4,1.6,13.3,4.7c0,0.1,0.1,0.3,0.2,0.3
	c0,0,0.7,1.8,1.2,2.3c1.3,1.3,3.5,1.9,5.2,2.4c3.1,1,6,2.2,9.1,3.2c3.5,1,7.3,1.7,10.6,3.1c0.3,0.1,0.6,0,0.8-0.2
	c0.6,0.1,1.2,0.1,1.7,0.1c0.4,0,0.7-0.3,0.7-0.7c0-3.3-2-5.8-4.3-7.8c-3.2-2.8-7.6-1.9-11.2-3.5c-0.2-0.1-0.3-0.1-0.4,0
	c-0.7-1.5-1.3-3.1-2-4.5c4.8,0.4,9.5,1.6,14.3,2.4c4.3,0.8,8.9,0.5,13.3,0.5c-0.3,0.2-0.5,0.5-0.7,0.8c-0.8,1.3-0.8,2.9-0.5,4.3
	c0.8,4.3,3.3,8.4,5.8,12c4.2,5.8,13.1,10.7,20.3,10.6c0.3,0,0.6-0.2,0.7-0.5c0-0.2,0.1-0.3,0.1-0.5c0.2,0,0.5-0.1,0.5-0.4
	c0-0.5,0-0.9-0.1-1.4c0.7-3.6,0.9-7-0.1-10.6c-1.2-4.4-4.7-7.8-7.8-11c-0.2-0.2-0.4-0.5-0.7-0.7c0.5,0.1,1,0.1,1.4,0.1
	c1.2,0.7,2.6,1.4,3.8,1.5c2.6,0.3,5.3,0.2,7.9-0.2c2.4-0.3,4.3-0.9,6.4-2c2.4-1.3,4.3-4.3,7.2-4.1c0.3,0,0.5-0.2,0.5-0.5
	C384.8,423.7,382.8,423.5,381.4,423.4z M350,412.6c-1.2,1.5-2.9,2.6-4.2,4.1c-1.8,2.1-4.1,5.6-6.8,6.7c-1.6,0.6-3.2,1-4.9,1.4
	c-1,0.2-3.1,0.9-4.6,0.7c0.7-0.3,1.3-0.6,1.8-1.2c1.4-1.5,1-4.1,0.8-6c2.8-2.6,5.7-5.2,9.2-6.9c2.9-1.4,6.3-1.6,9.5-2.3
	C351.5,410,351.1,411.2,350,412.6z M342.5,407.8c2.1-0.1,4.2,0,6.2,0.4c0.7,0.1,1.2,0.3,1.6,0.6c-3.1,0.8-6.3,1-9.2,2.2
	c-3.4,1.5-6.3,4.2-9,6.7c-0.2-1.7-0.8-5.7-0.9-5.9C333.9,408.6,338.5,407.9,342.5,407.8z M323.2,415c0.9-0.8,1.7-1.8,2.4-2.9
	c0.6-1,3.1-5.3,3.9-2.8c0.2,0.8,0.4,1.6,0.6,2.5c0.2,0.8,0.5,3.3,0.6,4.4c0.2,2.1,0.7,4.3,0.2,6.3c0,0.2-0.1,0.4-0.2,0.6
	c-1.3-0.5-2.5-1.6-3.8-2c-1.2-0.4-2.4-0.7-3.6-1.3c0-0.2-0.2-0.5-0.5-0.5c-0.1,0-0.2,0-0.3,0C319.7,417.6,322.1,416,323.2,415z
	 M321.8,421.8c0.6-0.5,0.5-1.2,0.8-1.3c0.2,0.1,0.5,0.3,0.7,0.4c1.2,0.6,2.8,0.8,4.1,1.3c1.1,0.4,1.9,1.1,2.8,1.5
	c-2.1,2.3-8.6,1.3-11.2-0.1C320,423,321,422.5,321.8,421.8z M297.9,389.9v-0.1c0.7,1.2,1.9,2.2,2.9,2.9c3.6,2.8,7.7,4.8,9.9,9
	c1.8,3.4,1.8,7.7,1.7,11.4c0,2.1-0.6,4.1-2.1,5.6c-0.8,0.8-2,1.2-3.3,1.3c-0.7-0.2-1.3-0.3-2-0.2c-0.5-0.1-1-0.3-1.4-0.5
	c0.7-0.3,1.2-0.7,1.7-1.2c2.2-2.7,2.3-5.9,1.6-9.2c-0.7-3.3-2.2-6.8-4.2-9.6c-1.1-1.6-2.4-3-3.5-4.7
	C298.8,393.1,298.3,391.6,297.9,389.9z M302.1,412.6c0.7-3.7,0.2-8-0.7-11.6c-0.2-0.8-0.4-1.5-0.7-2.3c1.1,1.4,2.2,2.9,2.9,4.5
	c1.4,3.1,2.6,6.3,2.5,9.8c-0.1,4.3-3.5,5.7-7,6.2C300.6,417.2,301.7,415,302.1,412.6z M296.3,422c0.6-0.5,1.1-1,1.6-1.5
	c1.4,0,2.9-0.2,4.3-0.5c0.3,0.3,0.6,0.5,1,0.7c-0.2,0.1-0.4,0.3-0.6,0.5s-0.4,0.5-0.6,0.7c-2.1,0.2-4.3,0.4-6.4,0.7
	C295.9,422.4,296.1,422.2,296.3,422z M287.4,394.3c4.8-0.4,2.9,4.6,1.8,7c-1.1,2.5-1.2,5.4-1.7,8.1c-1.1,5.8-4.5,15-11.8,9.9
	c-0.1-0.1-0.2-0.1-0.3-0.1c-0.5-0.7-1-1.5-1.3-2.5c-0.6-1.8-1.3-3.2-2.6-4.4c0.1-0.1,0.1-0.3,0-0.4
	C263.7,405.4,282,394.8,287.4,394.3z M262.7,421.5c-0.8,1.4-2.1,2.5-3.3,3.6c-1.2,1-2.8,1.4-4.3,1.8c-0.6,0.1-1.3,0.3-1.9,0.4
	c-0.7,0.2-0.8-0.2-0.6-0.6c1-0.8,1.8-2.3,2.6-3.2c1.7-1.9,3.7-3.6,5.9-5C263.8,416.7,263.5,420.1,262.7,421.5z M268.5,418.4
	c-0.8-0.5-2.1-0.8-2.7-1c-2.6-1.1-4.8-2.8-7.2-4.3c-4.6-2.7-9.4-4.8-14.2-7.1c-4.7-2.3-9.2-5.1-14-7.2c-5-2.2-9.7-3.1-15.1-3.9
	c-1,0-1.1-0.7-0.4-2c0.6-0.1,1.3-0.1,1.9-0.1c1.5,0,3.1,0.2,4.6,0.5c2.6,0.5,6,1.6,8.2,3.1c2,1.3,3.7,2.3,5.9,3.3
	c2.5,1.1,4.5,3,7.1,4.1c1.9,0.8,3.6,2.1,5.5,2.8c2.6,1,5.2,1.8,7.7,3c2.4,1.2,4.8,2.1,7.1,3.4c1.6,0.9,3.6,2.1,5.4,2.7
	c0.1,0.4,0.2,0.8,0.2,1.2C268.5,417.4,268.5,417.9,268.5,418.4z M280.5,428.5c-2,0.1-4-0.9-5.8-1.7c-2.9-1.2-5.3-2.7-5.3-6.2
	c0-1.8,0.3-3.5-0.1-5.4c-0.4-1.6-1.5-3.1-2.7-4.3c1.9,0,4.4,2.5,5.2,3.7c1,1.6,1.2,3.7,2.1,5.3c0.8,1.4,2.2,2.4,3.5,3.3
	C278.7,424,284.9,428.3,280.5,428.5z M287.5,424.4c-0.2,0.1-0.3,0.3-0.2,0.5c-2-0.3-4-0.6-5.9-0.6l0,0c-0.4-0.4-0.9-0.8-1.4-1.1
	c2.7,0.7,5.1,1.1,8,1.1C287.8,424.3,287.6,424.4,287.5,424.4z M301,429.1c-1.5-1-3.1-1.6-4.9-2c-1.3-0.3-2.5-0.4-3.8-0.6
	c-0.4-0.1-1.3-0.2-2.1-0.4c0.4,0,0.9,0,1.4,0c3.2-0.1,6.5-0.8,9.6-1.6C300.9,425.9,301,427.5,301,429.1z M301.3,423.6
	c-3.2,0.8-6.5,1.2-9.8,1.5c-0.3,0-0.5,0-0.8,0c1-0.3,2-0.7,2.9-1.3c2.7-0.3,5.5-0.7,8-1.3C301.5,422.9,301.4,423.3,301.3,423.6z
	 M321.9,432.5c3.4,0.7,7,4.2,7.2,7.8c-4.2-0.2-9.2-3.2-11.8-6.1c-0.9-0.9-1.5-2-2.1-3.1C317.3,431.9,319.6,432,321.9,432.5z
	 M313.2,430.6c1.7,3.4,3.9,6,7.2,8c0.1,0.1,0.3,0.2,0.4,0.2c-2.6-0.7-5.3-1.5-7.9-2.4c-1.9-0.6-3.7-1.4-5.7-2
	c-2.1-0.6-4.6-1.3-5.2-3.6c0.1-0.1,0.2-0.3,0.2-0.5c0.3-3.3-0.9-8.1,3.1-9c0.7,0.1,1.4,0.1,2,0.1C310.6,422.5,312,428.2,313.2,430.6
	z M312.1,424.5c-0.2-0.4-0.5-0.8-0.8-1.2c1.9,0.3,4.1,0.8,6,0.6c0,0.1,0.1,0.2,0.1,0.2c0.7,0.6,1.5,1,2.3,1.3
	C317.2,424.9,314.7,424.6,312.1,424.5z M326.1,426.5c-0.9-0.2-1.8-0.3-2.6-0.5c0.5,0,0.9,0.1,1.4,0.1c0.9,0,1.9,0,2.9-0.1
	c1.6,1.6,5.2,0.9,8.1-0.1c1.8,0.2,3.6,0.2,5.5,0.1c0.3,0,0.6,0,0.9-0.1c-0.3,0.3-0.6,0.6-0.6,1c0,0.1,0,0.1,0,0.2c0,0-0.1,0-0.1,0.1
	c-0.1,0-0.2-0.1-0.2-0.1C336.2,427.1,331,427.4,326.1,426.5z M363.6,454.5c-3.3,0-6.7-1.7-9.5-3.2c-3-1.6-5.9-3.5-8.1-6.1
	c-2.3-2.8-4.1-6.2-5.5-9.5c-0.8-1.9-1.2-4.3-0.3-6.3c0.3-0.7,1.3-1.2,2.1-1.7c0.1,0,0.3-0.1,0.3-0.2c0.6,0.8,2.2,1.6,2.8,1.9
	c3.1,1.8,6.8,3.4,9,6.4c0.7,1,1.6,1.9,2.5,2.7c1.6,1.5,2.6,3.4,3.9,5.2c1.8,2.7,3.4,5.5,4.1,8.7
	C364.8,453.7,364.3,454.5,363.6,454.5z M359.1,434.3c2.6,2.8,4.8,5.7,5.8,9.4c0.3,0.9,0.5,3.8,0.4,6.3c-0.5-1.4-1.2-2.8-1.9-4
	c-1.7-3.1-3.8-6.1-6.4-8.6c-1.2-1.2-2.1-2.7-3.3-3.9c-1-1-2.4-1.7-3.6-2.4c-0.6-0.3-5.5-3-6.8-3.9c0.1-0.1,0.2-0.1,0.2-0.2
	c0.1-0.1,0.1-0.3,0.1-0.4c0.6-0.4,1.2-1,1.3-1.1c2.4-1.7,5.1-0.7,7,1c0.2,0.2,0.4,0.4,0.7,0.6c0.5,0.9,1.1,1.7,1.7,2.3
	c0.3,0.3,0.7,0.5,1.1,0.7C356.6,431.5,357.8,433,359.1,434.3z M356.8,429.3c-0.2-0.1-0.5-0.1-0.7-0.2c-1-1.2-2-2.4-3.1-3.4
	c-0.8-1.3-1.5-2.5-2.8-3.1c4.8-1.8,9.6-3.3,13.8-6.6c5-4,8.7-9.3,7.3-15.8c4.3,0.7,5.3,7.8,5.4,11.2c0.1,5.1-3,10-6.6,13.3
	C366.6,427.7,361.4,430.3,356.8,429.3z M380.7,426.1c-1.6,1.3-3.1,2.6-4.9,3.6c-2.2,1.2-4.6,1.5-7,1.7c-2.1,0.2-4.6,0.4-6.7-0.2
	c-0.5-0.1-0.9-0.3-1.3-0.5c4.2-0.5,8.3-3.2,11.3-6.3c2.2,0.8,5.4,0.1,7.7,0c1.3,0,2.5,0.4,3.7,0.5
	C382.5,424.9,381.4,425.5,380.7,426.1z"/>
</svg>
