<svg id="Calque_1" data-name="Calque 1" xmlns="http://www.w3.org/2000/svg" viewBox="0 0 194.62 136.22"><title>illustration_cinnamon</title><path d="M192.52,6.15l-.3.3a6.38,6.38,0,0,0-3.1.6c-1.2-4-6.3-5.3-10-5.8-2-.3-4-.7-5.2,1.3-1.6,2.7-2,7.1-5.3,8.4h0c-1-.6-2.1-1.2-3.2-1.8-2.2-1.1-4.7-1.9-6.6-.4a13.08,13.08,0,0,0-4.6,1.5c-2.9,1.2-7,1-10.2,1.5-6.3,1-12.3,3-18.6,4.4-6.7,1.5-13.5,1.9-20.3,2.6-3.3.4-6.6,1.1-10,1.2-3.6.2-7.1.6-10.7.9-6.7.7-13.5,1.3-20.3,1.8s-13.8-.2-20.7,0-13.5,1.6-20.4,1.8c-6,.2-12.1-.2-18,.7a3.42,3.42,0,0,0-1.5-.2c-1.1.1-1.7,2.6-1.9,3.4a27.92,27.92,0,0,0-.5,9.1c.3,3,2.2,7.3,2,10.1a8.18,8.18,0,0,0-.6,5.4c.3,1.9,1.7,5.8,3.7,6.6s3.7-.2,5.5-1.2a44.39,44.39,0,0,1,9.7-3.8,7.25,7.25,0,0,0-1.2,2.5c-.6,1.9.4,3.4,1.1,5a.25.25,0,0,0,.4.1.22.22,0,0,0,.2.2,9.08,9.08,0,0,0,3.3-.4h.2c.3,1,.8,2,1.2,3.1a10.55,10.55,0,0,1,.6,2.4v.3a30.85,30.85,0,0,1-4.3,0,.43.43,0,0,0-.3.8.1.1,0,0,0,.1.1c.8.9.5,2.9.6,3.9a10.1,10.1,0,0,0,1.2,3.3,6.26,6.26,0,0,0,5.6,4.1c3.3.2,7-1.3,10.2-1.8,2-.3,3.9-.5,5.9-.8s4-1,6.1-1.1c8.3-.4,16.7-1.1,24.9-2.2a24.24,24.24,0,0,0,4.5-1c2-.7,3.5-.4,5.5-.5,3.5-.1,6.6-1.9,9.9-2.9,3.7-1.1,7.5-1.6,11.3-2.5,4.3-.9,8.3-2.5,12.6-3.2,3.1-.5,6.2-.7,9.3-1.1a23.15,23.15,0,0,0-3.4,4.2c-2.1,2.9-4.5,5.5-6.5,8.5-4.5,6.6-8.6,13.3-14.8,18.4a35.72,35.72,0,0,0-6.2,7.2,17.45,17.45,0,0,1-4,4.6,11.78,11.78,0,0,0-2.6,2.4c-2.1,3.2-4.4,6.1-6.7,9.1-1.1,1.4-2.4,4.8-4.1,6h-.9a.43.43,0,0,0-.4.4v.1c-.2.1-.3.4-.1.5a2.9,2.9,0,0,0,1.1,2.9,2.66,2.66,0,0,0,.6,1c.2.2.3.1.4,0,.4.3.8.7,1.2,1h0c2.2,2.2,5.3,3.6,8,5,2.2,1.1,5.4,3.5,8,3a1.92,1.92,0,0,0,1.4-1.8,2.63,2.63,0,0,0,1.6-1.5,22.19,22.19,0,0,1,3.9-4.8,27.86,27.86,0,0,0,3.5-4.2,38.59,38.59,0,0,1,5-4.9,35,35,0,0,0,3.9-3.8c1.5-1.7,3.7-2.8,5.6-3.9a57,57,0,0,0,10.4-7.9,76.06,76.06,0,0,0,8.2-9.8c2.6-3.6,4.3-7.5,6.2-11.5,2-4.3,5.3-8.1,7.9-12.1,3-4.5,5.5-9.3,8.2-14a.6.6,0,0,0,.1-.4c1.3-.2,2.7-.4,4-.7,4.1-.8,8.2-1.6,12.4-2.1,4-.5,8.1.8,12,.1,1.2-.2,1.5-1.5,1.3-2.6-.7-2.7-1.2-5.9-2.5-8.5a4.89,4.89,0,0,0-3.1-2.9v-.3a3.23,3.23,0,0,1-.3-1.7,2.55,2.55,0,0,0,1.1-2c0-1.8-.3-5.1-2.2-6a11.48,11.48,0,0,0-5.5-1c1.2-1.2,2.1-3.8,2.6-4.7,1.1-1.9,1.9-4,2.9-5.9a17.22,17.22,0,0,1,4-4.9c1.8-1.6,3.4-3.5,2-5.9a2.89,2.89,0,0,0-1.5-1.2C193.52,6.15,192.82,5.65,192.52,6.15ZM188,8c0,.5.5.6.9.5a7.46,7.46,0,0,0-1.5.9,14.89,14.89,0,0,0-4.1,4.2c-2.5,3.5-4.5,7.5-7.4,10.6a16.35,16.35,0,0,0-.2-2.2c1.2-3.5,3.4-6.8,5.1-9.9a8.37,8.37,0,0,0,1.1-3.8c0-.7-.9-4.9.3-4.9a.46.46,0,0,0,.5-.3C185.12,3.75,187.82,5.15,188,8Zm-16.1,1.3c1.2-2,2.1-6.8,4.6-7.3a11.92,11.92,0,0,1,4.4.6c-1.2,1.2-.3,4.6-.2,5.8.2,3.1-2.9,6.2-4,9-.4,1-.9,2-1.4,3a16,16,0,0,0-1.3-3.7,14.16,14.16,0,0,0-4.5-4.9A7.18,7.18,0,0,0,171.92,9.25Zm-11.9.5c.1-.1.2-.1.3-.2,1.4-.6,3.6.7,4.9,1.3,3.9,1.9,7,4.4,8.5,8.7a17.89,17.89,0,0,1,.1,8.9,5.93,5.93,0,0,1-3.5,4.4c-4.2-.3-8.7-4.9-5.8-8.9,1.9-2.5,5.5-1.4,5.8,1.2-1.2-1-3.6-.2-4.8,1.1a2.72,2.72,0,0,0-.3,3.1c1.5,2.1,3.9,2.2,6.3,2a.54.54,0,0,0,.4-.3,13.59,13.59,0,0,0,.6-7.2c-.4-2.6.5-4.6-.8-7-2-4-7.6-4.9-11.6-5a.56.56,0,0,0-.5.6c-.2,3.6,1.4,5.9,5,6.3a.75.75,0,0,0,.8-.5,2.77,2.77,0,0,0,.1-.9,5.55,5.55,0,0,1,.8.6,4.26,4.26,0,0,1,1.2,1.1C169,21,165,21,164.62,21c-2.7-.4-7.2-3.9-6.9-6.9a6.38,6.38,0,0,1,1.5-3.7A1.83,1.83,0,0,0,160,9.75Zm4.1,6.2a2.29,2.29,0,0,1,.1,1.4,3.75,3.75,0,0,1-3.3-2.6c-.9-2.5.9-1.8,2.7-1.6,3.5.6,7.7,2.6,8,6.6.1,1.7-.2,3.2,0,4.9.2.9.6,5.5-.9,5.7-2,.2-6.8-.8-4.6-3.7.8-1.1,3.8-2.2,4.1,0a.4.4,0,0,0,.8,0,3.8,3.8,0,0,0-3.3-5,3.1,3.1,0,0,0,1.5-2c.6-2.1-2.8-3.4-4-4.4C164.82,15.05,164,15.35,164.12,16Zm-142,9.8c6.5,0,12.8-1.2,19.4-1.6s13.1.3,19.6.1c7.1-.2,14.3-.8,21.3-1.5,6.6-.7,13.3-.9,19.9-1.9,6.8-1,13.7-1.3,20.5-2.5,6.2-1.1,12.1-3.2,18.3-4.4,3.3-.7,6.6-1.1,9.8-1.5a20.85,20.85,0,0,0,3.6-.7c1-.3,1.9-.9,2.8-1.2-2.9,5,1.6,10,6.5,11.6h.2c-1.1.2-3.6-.5-4.5-.4-3,.2-6.1.3-9.1.5a122.5,122.5,0,0,0-20.8,2.9c-6.8,1.6-13.7,1.8-20.6,2.9-7.3,1.2-14.6,2.4-21.9,3.7-2.6.5-5.2,1-7.9,1.5h-2c-1.5,0-2.9.3-4.4.4-3.3.2-6.7.1-10,.5s-6.3,1.1-9.5,1.5c-3.5.3-6.9.3-10.4.3a33.69,33.69,0,0,0-9.5.9c-3.1.9-5.9,2.7-9.2,3.1a71.22,71.22,0,0,1-9.2.7,21.14,21.14,0,0,0-3.5.2,11.45,11.45,0,0,0-1.9.7c.1-.2.1-.3.2-.5.8-1.8.1-4.2-.3-5.9-.6-2.6-1.3-5.6-2.8-7.9a7.34,7.34,0,0,0-1-1.3C11.32,25.55,16.82,25.65,22.12,25.75Zm-16.4,1.6c2,2.8,3.1,7.3,3.5,10.6a6.9,6.9,0,0,1-.3,3.5,2.19,2.19,0,0,1-.3.5,1.1,1.1,0,0,1-.8,0,.22.22,0,0,0-.2.2A4.87,4.87,0,0,1,5.52,40c-.5-1.2.5.4.5.5.6.6,2.1,1.2,2.6,0,.9-2.4-.8-5.4-1.4-7.7-.5-1.8-1.2-4.3-3.1-5a1.39,1.39,0,0,0-1.1,0C3.72,26.45,4.52,25.65,5.72,27.35Zm.7,12.1a2.2,2.2,0,0,1,.8-.1,3.55,3.55,0,0,0,1-.2h0C7.62,40.75,6.82,40.25,6.42,39.45Zm-3.9-.9a25.83,25.83,0,0,1-.2-6.8c0-.2.4-1.9.4-2.1.8-1.9,2.8-.6,3.1,1.1a17,17,0,0,1,1,3.2,27.59,27.59,0,0,0,.8,2.7,11.63,11.63,0,0,1,.4,1.8c-.4.2-2.9.6-3.1.7s-.2.2-.2.4a4.73,4.73,0,0,0,2.6,3.5,1.55,1.55,0,0,0,2.1-.7h.1a11.3,11.3,0,0,1,4.8-.8c3-.1,6.1-.3,9.1-.5a24.89,24.89,0,0,0,7.9-2.4c3.7-1.5,7.9-1.5,11.8-1.6,3.5-.1,6.9,0,10.4-.3s7-1.2,10.5-1.5c2.6-.3,5.2-.2,7.8-.3-9.4,1.9-18.7,3.9-28.2,5.5-6.9,1.2-13.9,1.9-20.8,2.8-3.3.4-6.6.8-9.9,1.4-1.2.2-2.5.5-3.7.8-1.4.3-5,1.1-5.1,1C4,43.75,3,41.05,2.52,38.55Zm14.7,16.2c-3,1-5.6,2.8-8.5,4-2.7,1.1-4.2-3.3-4.8-5a6.71,6.71,0,0,1,.7-6.3c2.5-.2,5.2-1.3,7.6-1.8,3.2-.6,6.5-1,9.8-1.4,7.3-.9,14.6-1.7,21.9-2.9,11.9-1.9,23.8-4.7,35.7-7a10.68,10.68,0,0,0,2.5-.3c.2,0,.2-.1.3-.2,2-.4,4.1-.8,6.1-1.1,7.3-1.3,14.6-2.5,21.8-3.7,6.6-1.1,13.3-1.3,19.9-2.8a130.72,130.72,0,0,1,22.5-2.9,80.48,80.48,0,0,1,8.5-.3c.7,0,2,.4,3.1.4-3.4,3.9.6,8.9,5,10.1a22.76,22.76,0,0,1-4.5,1.1c-3.3.6-6.8,1.2-10.2,1.5-4.2.4-8.6-.2-12.8.4-3.9.6-7.8,1.3-11.8,1.6-4.4.3-8.9-.4-13.4-.5a84.27,84.27,0,0,0-24,2.7c-17.5,4.5-35.7,6.7-53.6,9.7C31.52,51.15,24.22,52.35,17.22,54.75Zm10.6,10.9c-.4-1.2-1-2.4-1.4-3.5,1.4-.3,2.9-.5,4.4-.8,4.5-1,8.6-2.5,13.2-3a79.45,79.45,0,0,0,10.6-2.1c4.5-1.1,8.8-.6,13.3-.5s8.9,1,13.3,1.3a52.71,52.71,0,0,0,11.9-.4c3.4-.4,6.8-.5,10.2-1.4,4-1,7.9-3,11.8-4.3a230.54,230.54,0,0,1,26-6.7c5-1,10.2-1.6,15.3-2.2-4,1.9-7.8,4.1-11.8,5.8a63.93,63.93,0,0,1-17.3,4.5,166.84,166.84,0,0,0-17.2,2.9c-6.1,1.3-12.3,2.4-18.4,3.7-2.7.6-5.2,1.6-8,2s-5.4.6-8.1.9-5.2.8-7.7,1.4c-2.8.7-5.5,1.8-8.4,2.3a179.37,179.37,0,0,1-18,1.3c-3.2.1-6.3.4-9.4.7-1.3.1-2.5.3-3.7.4A12.78,12.78,0,0,0,27.82,65.65Zm59.6,58.7a8.68,8.68,0,0,0-3.9-1,10.47,10.47,0,0,0,.8-1.1c1.7-2.8,3.7-5.2,5.6-7.8,2.2-2.9,4.1-5.9,7-8.2s4.6-6,6.9-8.8c2.4-3,6-5.1,8.6-8s4.5-6.6,6.9-9.8,4.4-6.5,7.2-9.3c2.4-2.4,3.6-5.8,6.6-7.7l.1-.1c4-.6,7.9-1.5,11.8-2.4,2.9-.7,5.8-1.4,8.7-1.9-.9,1-1.7,2.3-2.2,2.8a21.61,21.61,0,0,0-2.6,4.7c-1.3,2.9-3,4.6-5.3,6.8-3.8,3.4-6.8,7.6-10.3,11.3s-6.6,7.2-8.9,11.7c-1.3,2.5-4.5,4.4-6.7,6.1a60.76,60.76,0,0,1-6.2,4.9c-2.1,1.2-4.5,1.8-6.7,2.8a18.4,18.4,0,0,0-5,3.8,36.85,36.85,0,0,0-7.4,11.3c-.6,1.3-.7,2.3-2.4,1.4A11,11,0,0,1,87.42,124.35Zm68.1-65.8a.69.69,0,0,0,.8-.5c.4,0,.7-.1,1.1-.1s.6-.1.9-.1c-.5.9-.9,1.9-1.4,2.8-1.1,2-3.1,3.6-4.6,5.3a64,64,0,0,0-4,5.1,53.55,53.55,0,0,1-5.1,5.5c-3.1,3.3-5.6,7.3-8.7,10.6-1.3,1.4-2.8,2.5-4.2,3.8a41.44,41.44,0,0,1-3.8,3.5v-.1c1.8-3.8,5.5-7,8.4-10,3.1-3.2,5.8-6.7,9-9.9,1.5-1.6,3.3-2.7,4.6-4.5a43,43,0,0,0,2.4-4.8,15.64,15.64,0,0,1,2.7-4,15.38,15.38,0,0,1,1.2-1.3C154.92,59.35,155.92,58.65,155.52,58.55Zm-73.9,66.5c.2-1.1,1.1-.6,2.3-.5,2.3.2,3.9,1.7,5.8,2.6-1.8-.6-5-1.9-5.5-2a1.84,1.84,0,0,0-2.2,1.1A1.47,1.47,0,0,1,81.62,125.05Zm13.7,9.5h-.1c-1.2-.6-2.5-1.2-3.8-1.7-2.2-.9,0-.3-2.9-1.4-.7-.3-1.4-.6-2-.9.3.1.7.2,1.1.3s.3-.3.1-.4a11.07,11.07,0,0,1-4.5-2.8l-.7-.7c-.4-1,.8-1.2,1.6-1.1.5.1,1.1.3,1.6.4,1.1.4,2.1.9,3.2,1.4.6.2,2.2.9,2.5.1.1,0,.2.1.4.1a.71.71,0,0,0,.6-.3,42.64,42.64,0,0,1,6-10.6,20.59,20.59,0,0,1,6.5-5.7,31.35,31.35,0,0,0-3.7,6.4c-.7,1.5-1.2,3-1.9,4.5s-1.7,2-1.9,3.4c-2.5,0-1.9,2.6-1.1,4.4a43.09,43.09,0,0,0,2.6,4.7c.2.3.7.9.7,1.3C99.52,135.85,95.72,134.75,95.32,134.55Zm4.9,1.5c.1-1.2-.8-2-1.4-3.1-.5-.8-3.4-5.7-1.9-6.2a6.45,6.45,0,0,0,.8,3.3C98.12,130.75,101.32,134.85,100.22,136.05Zm57.4-67.4c-2.6,4.2-5.6,8.1-8.2,12.3-2.4,3.9-3.7,8.3-6.3,12.1a85.5,85.5,0,0,1-8,10,58.21,58.21,0,0,1-9.9,7.9c-1.8,1.2-3.7,2.1-5.4,3.4-1.5,1.2-2.6,3-4.1,4.3a51.92,51.92,0,0,0-8.1,8.8c-1.1,1.5-2.7,2.6-3.9,4-.8,1-1,2.8-2.1,3.5v-.1c-.5-3.2-3.8-4.9-3.4-8.5a.76.76,0,0,0-.1-.4c.3-1.1,1.5-2.3,2.1-3.3a30.44,30.44,0,0,0,1.7-3.7,28.6,28.6,0,0,1,5.2-8.5c.1-.1.1-.2.1-.4.5-.2,1.1-.4,1.6-.6,4-1.5,6.9-4.4,10.2-7,2.8-2.2,5.1-4.1,6.8-7,2.7-1.2,4.9-4,7.2-5.8,3.6-2.7,6.5-6.6,9.2-10.1,1.6-2,3.5-3.6,5.2-5.5s3-4,4.5-5.9,3.3-3.5,4.9-5.4a40.79,40.79,0,0,0,2.9-5l4.4-.6C162,61,159.92,64.85,157.62,68.65Zm35.1-23.8A47.68,47.68,0,0,1,194,50c.3,1.1.7,2.6-.8,2.8a15.33,15.33,0,0,1-3.7-.2,29.11,29.11,0,0,0-5.1-.3,105.06,105.06,0,0,0-13.5,2.1,99.56,99.56,0,0,1-10.7,1.8c-.2-.4-.7-.7-1-.2-.1.1-.1.2-.2.3a66.38,66.38,0,0,0-11.7,1.9c-4.4,1-8.8,2.1-13.3,2.8-4,.7-8.1,1-12.2,1.5a68,68,0,0,0-10.1,2.6c-4,1.2-8.2,1.8-12.3,2.8-3.5.8-6.6,2.4-10.1,3.4-1.8.5-3.6,0-5.4.1s-3.9,1.2-5.9,1.5c-8.2,1.3-16.7,1.5-25,2.3-3.7.4-7.2,1.2-10.9,1.7-2,.3-4,.6-6,1-2.3.5-4.4,1.3-6.7,1.1-3-.2-5-4.3-5.3-7a14.28,14.28,0,0,0-.3-2.9c.4,0,.9-.2,1.2-.2h.2c.6,0,1.3.1,1.9.1a.22.22,0,0,0,.2.2h.1c.2,0,.3,0,.4-.1V69c3.9-.1,7.8-.8,11.5-1,6.1-.4,12.3-.4,18.4-1.2,5.4-.6,10.5-2.8,16-3.6S84.62,62,90,60.35c5.6-1.7,11.7-2.2,17.4-3.5a192.33,192.33,0,0,1,19.9-3.4,72.26,72.26,0,0,0,15.9-3.8c5.7-2.1,10.9-5.4,16.6-7.8q.3-.15.3-.3c2-.3,3.9-.5,5.9-.9a19.46,19.46,0,0,1,5.9.1c1.6.1,3.4-.1,5-.1a4.87,4.87,0,0,0,1.2-.1,47.54,47.54,0,0,0,9.2.7C190.32,41.15,191.82,42.25,192.72,44.85Zm-3.1-4.8a.9.9,0,0,1-.5-.1c-1.8-.1-3.7.2-5.6.1H183a37.35,37.35,0,0,0,4.6-.9,5.23,5.23,0,0,0,1.6-.6A8.33,8.33,0,0,0,189.62,40.05Zm-3-2.1a55.53,55.53,0,0,1-11.5,1.3A40.88,40.88,0,0,1,169,39a18.35,18.35,0,0,0-4.7.6c-8,1.2-16.2,1.8-24.2,3.5-8.2,1.7-16.5,3.9-24.5,6.3-3.7,1.1-7.3,2.7-11,3.9s-7.6,1.4-11.5,1.9c-8.6,1-16.7-.3-25.2-.7a49.06,49.06,0,0,0-11.5.3c-3.8.7-7.5,2-11.4,2.4a55.74,55.74,0,0,0-10.6,2.3,39.22,39.22,0,0,1-6.6,1.5l-1.5.3v-.1c-.1-.5-.8-.2-.7.3h0a12.57,12.57,0,0,1-3.3.5c-.1,0-.1,0-.2.1-.4-1.3-1.2-2.2-1.1-3.6a6.12,6.12,0,0,1,2.6-4.2,4.33,4.33,0,0,0,.5-.1c8.7-2.2,17.7-3.3,26.5-4.8s17.6-2.9,26.4-4.5c8.5-1.6,17-4,25.6-5.1s16.8-.3,25.4-.2c4,.1,8-.7,11.9-1.3,4.3-.7,8.5-.5,12.8-.6a89.53,89.53,0,0,0,10.4-1.3,28.22,28.22,0,0,0,9-2.6,6.08,6.08,0,0,0,2.3-2.2h.1a84.39,84.39,0,0,1,10.1-1.2C189.12,30.05,191.82,36.75,186.62,38Zm5.8-25.6c-1,1.1-2.5,2-3.3,3.3-1.2,2.2-2.4,4.3-3.4,6.6-.6,1.2-2.4,6.7-3.9,6.8-.1,0-.2.1-.3.2-2.3.3-4.6.8-6.7,1.2a10.67,10.67,0,0,0,.8-2.7l.1-.1c.8-.8,1.7-1.5,2.5-2.4a48.33,48.33,0,0,0,4.5-7.2c1.7-3,3.7-6.3,7-7.7,1.5-.6,3.1-.9,3.9-2.3C195.52,9.35,193.22,11.65,192.42,12.35Zm-3.1-2.9a10.31,10.31,0,0,0-2.8,1.8,24.74,24.74,0,0,0-5.1,7.2c-1.6,2.9-3.1,5.8-5.7,8.1,0-.5.1-1,.1-1.6a11.56,11.56,0,0,0,2.6-2.8c1.4-2.3,3.1-4.4,4.6-6.7a18.38,18.38,0,0,1,5.4-5.7c1.2-.7,2.5-1.2,3.6-2a.9.9,0,0,1,.5.1C191.82,8.85,190.42,9.05,189.32,9.45Z" transform="translate(-0.96 -1)"/></svg>